%TF.GenerationSoftware,KiCad,Pcbnew,(7.0.0)*%
%TF.CreationDate,2023-12-01T19:40:39-08:00*%
%TF.ProjectId,OpenShock,4f70656e-5368-46f6-936b-2e6b69636164,rev?*%
%TF.SameCoordinates,Original*%
%TF.FileFunction,Legend,Bot*%
%TF.FilePolarity,Positive*%
%FSLAX46Y46*%
G04 Gerber Fmt 4.6, Leading zero omitted, Abs format (unit mm)*
G04 Created by KiCad (PCBNEW (7.0.0)) date 2023-12-01 19:40:39*
%MOMM*%
%LPD*%
G01*
G04 APERTURE LIST*
%ADD10C,0.150000*%
%ADD11C,0.300000*%
%ADD12C,0.203200*%
%ADD13C,3.200000*%
%ADD14C,1.300000*%
%ADD15O,1.200000X1.800000*%
%ADD16R,1.700000X1.700000*%
%ADD17O,1.700000X1.700000*%
%ADD18C,2.000000*%
%ADD19C,0.650000*%
%ADD20O,1.000000X2.100000*%
%ADD21O,1.000000X1.600000*%
%ADD22O,3.048000X1.850000*%
%ADD23C,2.082800*%
G04 APERTURE END LIST*
D10*
X100960285Y-90789142D02*
X100293619Y-90551047D01*
X100293619Y-90551047D02*
X100960285Y-90312952D01*
X100293619Y-89408190D02*
X100293619Y-89979618D01*
X100293619Y-89693904D02*
X101293619Y-89693904D01*
X101293619Y-89693904D02*
X101150761Y-89789142D01*
X101150761Y-89789142D02*
X101055523Y-89884380D01*
X101055523Y-89884380D02*
X101007904Y-89979618D01*
X100388857Y-88979618D02*
X100341238Y-88931999D01*
X100341238Y-88931999D02*
X100293619Y-88979618D01*
X100293619Y-88979618D02*
X100341238Y-89027237D01*
X100341238Y-89027237D02*
X100388857Y-88979618D01*
X100388857Y-88979618D02*
X100293619Y-88979618D01*
X100293619Y-87979619D02*
X100293619Y-88551047D01*
X100293619Y-88265333D02*
X101293619Y-88265333D01*
X101293619Y-88265333D02*
X101150761Y-88360571D01*
X101150761Y-88360571D02*
X101055523Y-88455809D01*
X101055523Y-88455809D02*
X101007904Y-88551047D01*
X117028380Y-39310380D02*
X117028380Y-38310380D01*
X117028380Y-38310380D02*
X116790285Y-38310380D01*
X116790285Y-38310380D02*
X116647428Y-38358000D01*
X116647428Y-38358000D02*
X116552190Y-38453238D01*
X116552190Y-38453238D02*
X116504571Y-38548476D01*
X116504571Y-38548476D02*
X116456952Y-38738952D01*
X116456952Y-38738952D02*
X116456952Y-38881809D01*
X116456952Y-38881809D02*
X116504571Y-39072285D01*
X116504571Y-39072285D02*
X116552190Y-39167523D01*
X116552190Y-39167523D02*
X116647428Y-39262761D01*
X116647428Y-39262761D02*
X116790285Y-39310380D01*
X116790285Y-39310380D02*
X117028380Y-39310380D01*
X115647428Y-39262761D02*
X115742666Y-39310380D01*
X115742666Y-39310380D02*
X115933142Y-39310380D01*
X115933142Y-39310380D02*
X116028380Y-39262761D01*
X116028380Y-39262761D02*
X116075999Y-39167523D01*
X116075999Y-39167523D02*
X116075999Y-38786571D01*
X116075999Y-38786571D02*
X116028380Y-38691333D01*
X116028380Y-38691333D02*
X115933142Y-38643714D01*
X115933142Y-38643714D02*
X115742666Y-38643714D01*
X115742666Y-38643714D02*
X115647428Y-38691333D01*
X115647428Y-38691333D02*
X115599809Y-38786571D01*
X115599809Y-38786571D02*
X115599809Y-38881809D01*
X115599809Y-38881809D02*
X116075999Y-38977047D01*
X115218856Y-39262761D02*
X115123618Y-39310380D01*
X115123618Y-39310380D02*
X114933142Y-39310380D01*
X114933142Y-39310380D02*
X114837904Y-39262761D01*
X114837904Y-39262761D02*
X114790285Y-39167523D01*
X114790285Y-39167523D02*
X114790285Y-39119904D01*
X114790285Y-39119904D02*
X114837904Y-39024666D01*
X114837904Y-39024666D02*
X114933142Y-38977047D01*
X114933142Y-38977047D02*
X115075999Y-38977047D01*
X115075999Y-38977047D02*
X115171237Y-38929428D01*
X115171237Y-38929428D02*
X115218856Y-38834190D01*
X115218856Y-38834190D02*
X115218856Y-38786571D01*
X115218856Y-38786571D02*
X115171237Y-38691333D01*
X115171237Y-38691333D02*
X115075999Y-38643714D01*
X115075999Y-38643714D02*
X114933142Y-38643714D01*
X114933142Y-38643714D02*
X114837904Y-38691333D01*
X114361713Y-39310380D02*
X114361713Y-38643714D01*
X114361713Y-38310380D02*
X114409332Y-38358000D01*
X114409332Y-38358000D02*
X114361713Y-38405619D01*
X114361713Y-38405619D02*
X114314094Y-38358000D01*
X114314094Y-38358000D02*
X114361713Y-38310380D01*
X114361713Y-38310380D02*
X114361713Y-38405619D01*
X113456952Y-38643714D02*
X113456952Y-39453238D01*
X113456952Y-39453238D02*
X113504571Y-39548476D01*
X113504571Y-39548476D02*
X113552190Y-39596095D01*
X113552190Y-39596095D02*
X113647428Y-39643714D01*
X113647428Y-39643714D02*
X113790285Y-39643714D01*
X113790285Y-39643714D02*
X113885523Y-39596095D01*
X113456952Y-39262761D02*
X113552190Y-39310380D01*
X113552190Y-39310380D02*
X113742666Y-39310380D01*
X113742666Y-39310380D02*
X113837904Y-39262761D01*
X113837904Y-39262761D02*
X113885523Y-39215142D01*
X113885523Y-39215142D02*
X113933142Y-39119904D01*
X113933142Y-39119904D02*
X113933142Y-38834190D01*
X113933142Y-38834190D02*
X113885523Y-38738952D01*
X113885523Y-38738952D02*
X113837904Y-38691333D01*
X113837904Y-38691333D02*
X113742666Y-38643714D01*
X113742666Y-38643714D02*
X113552190Y-38643714D01*
X113552190Y-38643714D02*
X113456952Y-38691333D01*
X112980761Y-38643714D02*
X112980761Y-39310380D01*
X112980761Y-38738952D02*
X112933142Y-38691333D01*
X112933142Y-38691333D02*
X112837904Y-38643714D01*
X112837904Y-38643714D02*
X112695047Y-38643714D01*
X112695047Y-38643714D02*
X112599809Y-38691333D01*
X112599809Y-38691333D02*
X112552190Y-38786571D01*
X112552190Y-38786571D02*
X112552190Y-39310380D01*
X111695047Y-39262761D02*
X111790285Y-39310380D01*
X111790285Y-39310380D02*
X111980761Y-39310380D01*
X111980761Y-39310380D02*
X112075999Y-39262761D01*
X112075999Y-39262761D02*
X112123618Y-39167523D01*
X112123618Y-39167523D02*
X112123618Y-38786571D01*
X112123618Y-38786571D02*
X112075999Y-38691333D01*
X112075999Y-38691333D02*
X111980761Y-38643714D01*
X111980761Y-38643714D02*
X111790285Y-38643714D01*
X111790285Y-38643714D02*
X111695047Y-38691333D01*
X111695047Y-38691333D02*
X111647428Y-38786571D01*
X111647428Y-38786571D02*
X111647428Y-38881809D01*
X111647428Y-38881809D02*
X112123618Y-38977047D01*
X110790285Y-39310380D02*
X110790285Y-38310380D01*
X110790285Y-39262761D02*
X110885523Y-39310380D01*
X110885523Y-39310380D02*
X111075999Y-39310380D01*
X111075999Y-39310380D02*
X111171237Y-39262761D01*
X111171237Y-39262761D02*
X111218856Y-39215142D01*
X111218856Y-39215142D02*
X111266475Y-39119904D01*
X111266475Y-39119904D02*
X111266475Y-38834190D01*
X111266475Y-38834190D02*
X111218856Y-38738952D01*
X111218856Y-38738952D02*
X111171237Y-38691333D01*
X111171237Y-38691333D02*
X111075999Y-38643714D01*
X111075999Y-38643714D02*
X110885523Y-38643714D01*
X110885523Y-38643714D02*
X110790285Y-38691333D01*
X109714094Y-39310380D02*
X109714094Y-38310380D01*
X109714094Y-38691333D02*
X109618856Y-38643714D01*
X109618856Y-38643714D02*
X109428380Y-38643714D01*
X109428380Y-38643714D02*
X109333142Y-38691333D01*
X109333142Y-38691333D02*
X109285523Y-38738952D01*
X109285523Y-38738952D02*
X109237904Y-38834190D01*
X109237904Y-38834190D02*
X109237904Y-39119904D01*
X109237904Y-39119904D02*
X109285523Y-39215142D01*
X109285523Y-39215142D02*
X109333142Y-39262761D01*
X109333142Y-39262761D02*
X109428380Y-39310380D01*
X109428380Y-39310380D02*
X109618856Y-39310380D01*
X109618856Y-39310380D02*
X109714094Y-39262761D01*
X108904570Y-38643714D02*
X108666475Y-39310380D01*
X108428380Y-38643714D02*
X108666475Y-39310380D01*
X108666475Y-39310380D02*
X108761713Y-39548476D01*
X108761713Y-39548476D02*
X108809332Y-39596095D01*
X108809332Y-39596095D02*
X108904570Y-39643714D01*
X116514095Y-40263714D02*
X116514095Y-40930380D01*
X116514095Y-40358952D02*
X116466476Y-40311333D01*
X116466476Y-40311333D02*
X116371238Y-40263714D01*
X116371238Y-40263714D02*
X116228381Y-40263714D01*
X116228381Y-40263714D02*
X116133143Y-40311333D01*
X116133143Y-40311333D02*
X116085524Y-40406571D01*
X116085524Y-40406571D02*
X116085524Y-40930380D01*
X115180762Y-40263714D02*
X115180762Y-40930380D01*
X115609333Y-40263714D02*
X115609333Y-40787523D01*
X115609333Y-40787523D02*
X115561714Y-40882761D01*
X115561714Y-40882761D02*
X115466476Y-40930380D01*
X115466476Y-40930380D02*
X115323619Y-40930380D01*
X115323619Y-40930380D02*
X115228381Y-40882761D01*
X115228381Y-40882761D02*
X115180762Y-40835142D01*
X114561714Y-40930380D02*
X114656952Y-40882761D01*
X114656952Y-40882761D02*
X114704571Y-40787523D01*
X114704571Y-40787523D02*
X114704571Y-39930380D01*
X114037904Y-40930380D02*
X114133142Y-40882761D01*
X114133142Y-40882761D02*
X114180761Y-40787523D01*
X114180761Y-40787523D02*
X114180761Y-39930380D01*
X113704570Y-40882761D02*
X113609332Y-40930380D01*
X113609332Y-40930380D02*
X113418856Y-40930380D01*
X113418856Y-40930380D02*
X113323618Y-40882761D01*
X113323618Y-40882761D02*
X113275999Y-40787523D01*
X113275999Y-40787523D02*
X113275999Y-40739904D01*
X113275999Y-40739904D02*
X113323618Y-40644666D01*
X113323618Y-40644666D02*
X113418856Y-40597047D01*
X113418856Y-40597047D02*
X113561713Y-40597047D01*
X113561713Y-40597047D02*
X113656951Y-40549428D01*
X113656951Y-40549428D02*
X113704570Y-40454190D01*
X113704570Y-40454190D02*
X113704570Y-40406571D01*
X113704570Y-40406571D02*
X113656951Y-40311333D01*
X113656951Y-40311333D02*
X113561713Y-40263714D01*
X113561713Y-40263714D02*
X113418856Y-40263714D01*
X113418856Y-40263714D02*
X113323618Y-40311333D01*
X112990284Y-40263714D02*
X112609332Y-40263714D01*
X112847427Y-39930380D02*
X112847427Y-40787523D01*
X112847427Y-40787523D02*
X112799808Y-40882761D01*
X112799808Y-40882761D02*
X112704570Y-40930380D01*
X112704570Y-40930380D02*
X112609332Y-40930380D01*
X111847427Y-40930380D02*
X111847427Y-40406571D01*
X111847427Y-40406571D02*
X111895046Y-40311333D01*
X111895046Y-40311333D02*
X111990284Y-40263714D01*
X111990284Y-40263714D02*
X112180760Y-40263714D01*
X112180760Y-40263714D02*
X112275998Y-40311333D01*
X111847427Y-40882761D02*
X111942665Y-40930380D01*
X111942665Y-40930380D02*
X112180760Y-40930380D01*
X112180760Y-40930380D02*
X112275998Y-40882761D01*
X112275998Y-40882761D02*
X112323617Y-40787523D01*
X112323617Y-40787523D02*
X112323617Y-40692285D01*
X112323617Y-40692285D02*
X112275998Y-40597047D01*
X112275998Y-40597047D02*
X112180760Y-40549428D01*
X112180760Y-40549428D02*
X111942665Y-40549428D01*
X111942665Y-40549428D02*
X111847427Y-40501809D01*
X111228379Y-40930380D02*
X111323617Y-40882761D01*
X111323617Y-40882761D02*
X111371236Y-40787523D01*
X111371236Y-40787523D02*
X111371236Y-39930380D01*
X110418855Y-40263714D02*
X110418855Y-41073238D01*
X110418855Y-41073238D02*
X110466474Y-41168476D01*
X110466474Y-41168476D02*
X110514093Y-41216095D01*
X110514093Y-41216095D02*
X110609331Y-41263714D01*
X110609331Y-41263714D02*
X110752188Y-41263714D01*
X110752188Y-41263714D02*
X110847426Y-41216095D01*
X110418855Y-40882761D02*
X110514093Y-40930380D01*
X110514093Y-40930380D02*
X110704569Y-40930380D01*
X110704569Y-40930380D02*
X110799807Y-40882761D01*
X110799807Y-40882761D02*
X110847426Y-40835142D01*
X110847426Y-40835142D02*
X110895045Y-40739904D01*
X110895045Y-40739904D02*
X110895045Y-40454190D01*
X110895045Y-40454190D02*
X110847426Y-40358952D01*
X110847426Y-40358952D02*
X110799807Y-40311333D01*
X110799807Y-40311333D02*
X110704569Y-40263714D01*
X110704569Y-40263714D02*
X110514093Y-40263714D01*
X110514093Y-40263714D02*
X110418855Y-40311333D01*
X109942664Y-40930380D02*
X109942664Y-40263714D01*
X109942664Y-39930380D02*
X109990283Y-39978000D01*
X109990283Y-39978000D02*
X109942664Y-40025619D01*
X109942664Y-40025619D02*
X109895045Y-39978000D01*
X109895045Y-39978000D02*
X109942664Y-39930380D01*
X109942664Y-39930380D02*
X109942664Y-40025619D01*
X109037903Y-40930380D02*
X109037903Y-40406571D01*
X109037903Y-40406571D02*
X109085522Y-40311333D01*
X109085522Y-40311333D02*
X109180760Y-40263714D01*
X109180760Y-40263714D02*
X109371236Y-40263714D01*
X109371236Y-40263714D02*
X109466474Y-40311333D01*
X109037903Y-40882761D02*
X109133141Y-40930380D01*
X109133141Y-40930380D02*
X109371236Y-40930380D01*
X109371236Y-40930380D02*
X109466474Y-40882761D01*
X109466474Y-40882761D02*
X109514093Y-40787523D01*
X109514093Y-40787523D02*
X109514093Y-40692285D01*
X109514093Y-40692285D02*
X109466474Y-40597047D01*
X109466474Y-40597047D02*
X109371236Y-40549428D01*
X109371236Y-40549428D02*
X109133141Y-40549428D01*
X109133141Y-40549428D02*
X109037903Y-40501809D01*
D11*
G36*
X102552247Y-85759820D02*
G01*
X102714034Y-85759820D01*
X102714034Y-85918236D01*
X102875820Y-85918236D01*
X102875820Y-86901875D01*
X102714034Y-86901875D01*
X102714034Y-87059729D01*
X102552247Y-87059729D01*
X102552247Y-87218145D01*
X100934383Y-87218145D01*
X100934383Y-87059729D01*
X100772596Y-87059729D01*
X100772596Y-86901875D01*
X100610810Y-86901875D01*
X100610810Y-86708069D01*
X100970335Y-86708069D01*
X101114145Y-86708069D01*
X101114145Y-86865923D01*
X102372484Y-86865923D01*
X102372484Y-86708069D01*
X102516295Y-86708069D01*
X102516295Y-86112043D01*
X102372484Y-86112043D01*
X102372484Y-85954189D01*
X101114145Y-85954189D01*
X101114145Y-86112043D01*
X100970335Y-86112043D01*
X100970335Y-86708069D01*
X100610810Y-86708069D01*
X100610810Y-85918236D01*
X100772596Y-85918236D01*
X100772596Y-85759820D01*
X100934383Y-85759820D01*
X100934383Y-85601966D01*
X102552247Y-85601966D01*
X102552247Y-85759820D01*
G37*
G36*
X102228674Y-83874558D02*
G01*
X102390461Y-83874558D01*
X102390461Y-84032974D01*
X102552247Y-84032974D01*
X102552247Y-84858759D01*
X102394393Y-84858759D01*
X102394393Y-84980661D01*
X102552247Y-84980661D01*
X102552247Y-85332884D01*
X100610810Y-85332884D01*
X100610810Y-84980661D01*
X101272000Y-84980661D01*
X101272000Y-84858759D01*
X101114145Y-84858759D01*
X101114145Y-84664953D01*
X101473671Y-84664953D01*
X101617481Y-84664953D01*
X101617481Y-84822807D01*
X102048912Y-84822807D01*
X102048912Y-84664953D01*
X102192722Y-84664953D01*
X102192722Y-84226781D01*
X102048912Y-84226781D01*
X102048912Y-84068927D01*
X101617481Y-84068927D01*
X101617481Y-84226781D01*
X101473671Y-84226781D01*
X101473671Y-84664953D01*
X101114145Y-84664953D01*
X101114145Y-84032974D01*
X101275932Y-84032974D01*
X101275932Y-83874558D01*
X101437718Y-83874558D01*
X101437718Y-83716704D01*
X102228674Y-83716704D01*
X102228674Y-83874558D01*
G37*
G36*
X101150098Y-82341519D02*
G01*
X100977076Y-82341519D01*
X100970335Y-82937545D01*
X101150098Y-82937545D01*
X101150098Y-83095399D01*
X101401766Y-83095399D01*
X101401766Y-82183665D01*
X101761291Y-82183665D01*
X101761291Y-83095399D01*
X101905101Y-83095399D01*
X101905101Y-82937545D01*
X102048912Y-82937545D01*
X102048912Y-82341519D01*
X101905101Y-82341519D01*
X101905101Y-82183665D01*
X101761291Y-82183665D01*
X101401766Y-82183665D01*
X101401766Y-81989297D01*
X101563552Y-81989297D01*
X101563552Y-81831443D01*
X102084864Y-81831443D01*
X102084864Y-81989297D01*
X102228674Y-81989297D01*
X102228674Y-82147151D01*
X102408437Y-82147151D01*
X102408437Y-83131352D01*
X102228674Y-83131352D01*
X102228674Y-83289206D01*
X102084864Y-83289206D01*
X102084864Y-83447622D01*
X100941685Y-83447622D01*
X100934944Y-83289206D01*
X100790572Y-83289206D01*
X100790572Y-83131352D01*
X100610810Y-83131352D01*
X100610810Y-82147151D01*
X100790572Y-82147151D01*
X100790572Y-81989297D01*
X100934383Y-81989297D01*
X100934383Y-81831443D01*
X101150098Y-81831443D01*
X101150098Y-82341519D01*
G37*
G36*
X101869149Y-81210138D02*
G01*
X100610810Y-81210138D01*
X100610810Y-81562360D01*
X102408437Y-81562360D01*
X102408437Y-81210138D01*
X102228674Y-81210138D01*
X102228674Y-81088236D01*
X102408437Y-81088236D01*
X102408437Y-80262451D01*
X102228674Y-80262451D01*
X102228674Y-80104035D01*
X102084864Y-80104035D01*
X102084864Y-79946181D01*
X100610810Y-79946181D01*
X100610810Y-80298404D01*
X101869149Y-80298404D01*
X101869149Y-80456258D01*
X102048912Y-80456258D01*
X102048912Y-81052284D01*
X101869149Y-81052284D01*
X101869149Y-81210138D01*
G37*
G36*
X102552247Y-78218773D02*
G01*
X102552247Y-78060919D01*
X102192722Y-78060919D01*
X102192722Y-78413142D01*
X102372484Y-78413142D01*
X102372484Y-78570996D01*
X102516295Y-78570996D01*
X102516295Y-79167022D01*
X102372484Y-79167022D01*
X102372484Y-79324876D01*
X102096661Y-79324876D01*
X102096661Y-79167022D01*
X101941054Y-79167022D01*
X101941054Y-78377189D01*
X101779267Y-78377189D01*
X101779267Y-78218773D01*
X101617481Y-78218773D01*
X101617481Y-78060919D01*
X100934383Y-78060919D01*
X100934383Y-78218773D01*
X100790572Y-78218773D01*
X100790572Y-78377189D01*
X100610810Y-78377189D01*
X100610810Y-79360829D01*
X100790572Y-79360829D01*
X100790572Y-79518683D01*
X100934383Y-79518683D01*
X100934383Y-79677099D01*
X101293908Y-79677099D01*
X101293908Y-79324876D01*
X101114145Y-79324876D01*
X101114145Y-79167022D01*
X100970335Y-79167022D01*
X100970335Y-78570996D01*
X101114145Y-78570996D01*
X101114145Y-78413142D01*
X101413563Y-78413142D01*
X101413563Y-78570996D01*
X101581528Y-78570996D01*
X101581528Y-79360829D01*
X101743315Y-79360829D01*
X101743315Y-79518683D01*
X101905101Y-79518683D01*
X101905101Y-79677099D01*
X102552247Y-79677099D01*
X102552247Y-79518683D01*
X102696057Y-79518683D01*
X102696057Y-79360829D01*
X102875820Y-79360829D01*
X102875820Y-78377189D01*
X102696057Y-78377189D01*
X102696057Y-78218773D01*
X102552247Y-78218773D01*
G37*
G36*
X101566361Y-77439614D02*
G01*
X100610810Y-77439614D01*
X100610810Y-77791837D01*
X102875820Y-77791837D01*
X102875820Y-77439614D01*
X102070820Y-77439614D01*
X102070820Y-77317713D01*
X102228674Y-77317713D01*
X102228674Y-77159859D01*
X102408437Y-77159859D01*
X102408437Y-76649782D01*
X102228674Y-76649782D01*
X102228674Y-76491928D01*
X102084864Y-76491928D01*
X102084864Y-76333512D01*
X101941054Y-76333512D01*
X101941054Y-76175658D01*
X100610810Y-76175658D01*
X100610810Y-76527880D01*
X101725339Y-76527880D01*
X101725339Y-76685734D01*
X101905101Y-76685734D01*
X101905101Y-76843588D01*
X102063517Y-76843588D01*
X102063517Y-76966052D01*
X101905101Y-76966052D01*
X101905101Y-77123906D01*
X101725339Y-77123906D01*
X101725339Y-77281760D01*
X101566361Y-77281760D01*
X101566361Y-77439614D01*
G37*
G36*
X102084864Y-74448250D02*
G01*
X102246651Y-74448250D01*
X102246651Y-74606666D01*
X102408437Y-74606666D01*
X102408437Y-75590305D01*
X102246651Y-75590305D01*
X102246651Y-75748159D01*
X102084864Y-75748159D01*
X102084864Y-75906575D01*
X100934383Y-75906575D01*
X100934383Y-75748159D01*
X100772596Y-75748159D01*
X100772596Y-75590305D01*
X100610810Y-75590305D01*
X100610810Y-75396498D01*
X100970335Y-75396498D01*
X101114145Y-75396498D01*
X101114145Y-75554353D01*
X101905101Y-75554353D01*
X101905101Y-75396498D01*
X102048912Y-75396498D01*
X102048912Y-74800473D01*
X101905101Y-74800473D01*
X101905101Y-74642618D01*
X101114145Y-74642618D01*
X101114145Y-74800473D01*
X100970335Y-74800473D01*
X100970335Y-75396498D01*
X100610810Y-75396498D01*
X100610810Y-74606666D01*
X100772596Y-74606666D01*
X100772596Y-74448250D01*
X100934383Y-74448250D01*
X100934383Y-74290396D01*
X102084864Y-74290396D01*
X102084864Y-74448250D01*
G37*
G36*
X101114145Y-72757357D02*
G01*
X101293908Y-72757357D01*
X101293908Y-72405134D01*
X100934383Y-72405134D01*
X100934383Y-72562988D01*
X100790572Y-72562988D01*
X100790572Y-72721404D01*
X100610810Y-72721404D01*
X100610810Y-73705043D01*
X100790572Y-73705043D01*
X100790572Y-73862898D01*
X100934383Y-73862898D01*
X100934383Y-74021314D01*
X102084864Y-74021314D01*
X102084864Y-73862898D01*
X102228674Y-73862898D01*
X102228674Y-73705043D01*
X102408437Y-73705043D01*
X102408437Y-72721404D01*
X102228674Y-72721404D01*
X102228674Y-72562988D01*
X102084864Y-72562988D01*
X102084864Y-72405134D01*
X101725339Y-72405134D01*
X101725339Y-72757357D01*
X101905101Y-72757357D01*
X101905101Y-72915211D01*
X102048912Y-72915211D01*
X102048912Y-73511237D01*
X101905101Y-73511237D01*
X101905101Y-73669091D01*
X101114145Y-73669091D01*
X101114145Y-73511237D01*
X100970335Y-73511237D01*
X100970335Y-72915211D01*
X101114145Y-72915211D01*
X101114145Y-72757357D01*
G37*
G36*
X100934383Y-71783829D02*
G01*
X100610810Y-71783829D01*
X100610810Y-72136052D01*
X102875820Y-72136052D01*
X102875820Y-71783829D01*
X101437718Y-71783829D01*
X101437718Y-71661928D01*
X101595572Y-71661928D01*
X101595572Y-71503512D01*
X101753427Y-71503512D01*
X101753427Y-71345658D01*
X101911281Y-71345658D01*
X101911281Y-71187803D01*
X102069697Y-71187803D01*
X102069697Y-71029949D01*
X102227551Y-71029949D01*
X102227551Y-70872095D01*
X102385405Y-70872095D01*
X102385405Y-70519872D01*
X102033744Y-70519872D01*
X102033744Y-70677727D01*
X101875328Y-70677727D01*
X101875328Y-70836143D01*
X101717474Y-70836143D01*
X101717474Y-70993997D01*
X101559620Y-70993997D01*
X101559620Y-71151851D01*
X101437718Y-71151851D01*
X101437718Y-70993997D01*
X101282111Y-70993997D01*
X101282111Y-70836143D01*
X101125942Y-70836143D01*
X101125942Y-70677727D01*
X100970335Y-70677727D01*
X100970335Y-70519872D01*
X100610810Y-70519872D01*
X100610810Y-70872095D01*
X100772596Y-70872095D01*
X100772596Y-71029949D01*
X100934383Y-71029949D01*
X100934383Y-71187803D01*
X101092237Y-71187803D01*
X101092237Y-71345658D01*
X101250091Y-71345658D01*
X101250091Y-71467559D01*
X101092237Y-71467559D01*
X101092237Y-71625975D01*
X100934383Y-71625975D01*
X100934383Y-71783829D01*
G37*
G36*
X100970335Y-67855452D02*
G01*
X100970335Y-67259426D01*
X101114145Y-67259426D01*
X101114145Y-67101572D01*
X101293908Y-67101572D01*
X101293908Y-66749349D01*
X100934383Y-66749349D01*
X100934383Y-66907203D01*
X100790572Y-66907203D01*
X100790572Y-67065619D01*
X100610810Y-67065619D01*
X100610810Y-68049258D01*
X100790572Y-68049258D01*
X100790572Y-68207113D01*
X100934383Y-68207113D01*
X100934383Y-68365528D01*
X102552247Y-68365528D01*
X102552247Y-68207113D01*
X102696057Y-68207113D01*
X102696057Y-68049258D01*
X102875820Y-68049258D01*
X102875820Y-67065619D01*
X102696057Y-67065619D01*
X102696057Y-66907203D01*
X102552247Y-66907203D01*
X102552247Y-66749349D01*
X102192722Y-66749349D01*
X102192722Y-67101572D01*
X102372484Y-67101572D01*
X102372484Y-67259426D01*
X102516295Y-67259426D01*
X102516295Y-67855452D01*
X102372484Y-67855452D01*
X102372484Y-68013306D01*
X101114145Y-68013306D01*
X101114145Y-67855452D01*
X100970335Y-67855452D01*
G37*
G36*
X102084864Y-65021942D02*
G01*
X102246651Y-65021942D01*
X102246651Y-65180357D01*
X102408437Y-65180357D01*
X102408437Y-66163997D01*
X102246651Y-66163997D01*
X102246651Y-66321851D01*
X102084864Y-66321851D01*
X102084864Y-66480267D01*
X100934383Y-66480267D01*
X100934383Y-66321851D01*
X100772596Y-66321851D01*
X100772596Y-66163997D01*
X100610810Y-66163997D01*
X100610810Y-65970190D01*
X100970335Y-65970190D01*
X101114145Y-65970190D01*
X101114145Y-66128044D01*
X101905101Y-66128044D01*
X101905101Y-65970190D01*
X102048912Y-65970190D01*
X102048912Y-65374164D01*
X101905101Y-65374164D01*
X101905101Y-65216310D01*
X101114145Y-65216310D01*
X101114145Y-65374164D01*
X100970335Y-65374164D01*
X100970335Y-65970190D01*
X100610810Y-65970190D01*
X100610810Y-65180357D01*
X100772596Y-65180357D01*
X100772596Y-65021942D01*
X100934383Y-65021942D01*
X100934383Y-64864087D01*
X102084864Y-64864087D01*
X102084864Y-65021942D01*
G37*
G36*
X101566361Y-64242782D02*
G01*
X100610810Y-64242782D01*
X100610810Y-64595005D01*
X102408437Y-64595005D01*
X102408437Y-64242782D01*
X102084864Y-64242782D01*
X102084864Y-64120881D01*
X102228674Y-64120881D01*
X102228674Y-63963027D01*
X102408437Y-63963027D01*
X102408437Y-63295096D01*
X102228674Y-63295096D01*
X102228674Y-63136680D01*
X102084864Y-63136680D01*
X102084864Y-62978826D01*
X101725339Y-62978826D01*
X101725339Y-63331048D01*
X101905101Y-63331048D01*
X101905101Y-63488903D01*
X102048912Y-63488903D01*
X102048912Y-63768658D01*
X101905101Y-63768658D01*
X101905101Y-63927074D01*
X101725339Y-63927074D01*
X101725339Y-64084928D01*
X101566361Y-64084928D01*
X101566361Y-64242782D01*
G37*
G36*
X101150098Y-61603641D02*
G01*
X100977076Y-61603641D01*
X100970335Y-62199667D01*
X101150098Y-62199667D01*
X101150098Y-62357521D01*
X101401766Y-62357521D01*
X101401766Y-61445787D01*
X101761291Y-61445787D01*
X101761291Y-62357521D01*
X101905101Y-62357521D01*
X101905101Y-62199667D01*
X102048912Y-62199667D01*
X102048912Y-61603641D01*
X101905101Y-61603641D01*
X101905101Y-61445787D01*
X101761291Y-61445787D01*
X101401766Y-61445787D01*
X101401766Y-61251418D01*
X101563552Y-61251418D01*
X101563552Y-61093564D01*
X102084864Y-61093564D01*
X102084864Y-61251418D01*
X102228674Y-61251418D01*
X102228674Y-61409272D01*
X102408437Y-61409272D01*
X102408437Y-62393473D01*
X102228674Y-62393473D01*
X102228674Y-62551327D01*
X102084864Y-62551327D01*
X102084864Y-62709743D01*
X100941685Y-62709743D01*
X100934944Y-62551327D01*
X100790572Y-62551327D01*
X100790572Y-62393473D01*
X100610810Y-62393473D01*
X100610810Y-61409272D01*
X100790572Y-61409272D01*
X100790572Y-61251418D01*
X100934383Y-61251418D01*
X100934383Y-61093564D01*
X101150098Y-61093564D01*
X101150098Y-61603641D01*
G37*
%TO.C,kibuzzard-63FC1972*%
G36*
X110312132Y-55287753D02*
G01*
X110576715Y-55287753D01*
X110583224Y-55357762D01*
X110602750Y-55420468D01*
X110635135Y-55475237D01*
X110680220Y-55521433D01*
X110738005Y-55558581D01*
X110808490Y-55586203D01*
X110891516Y-55603348D01*
X110986925Y-55609063D01*
X111081381Y-55602396D01*
X111164090Y-55582393D01*
X111234734Y-55550961D01*
X111292995Y-55510003D01*
X111338556Y-55460156D01*
X111371100Y-55402053D01*
X111390626Y-55337601D01*
X111397135Y-55268703D01*
X111390150Y-55186788D01*
X111374275Y-55123923D01*
X111355225Y-55080108D01*
X111339985Y-55054073D01*
X111215525Y-55094713D01*
X111247275Y-55163293D01*
X111261245Y-55247113D01*
X111240925Y-55341093D01*
X111184410Y-55403958D01*
X111098050Y-55439518D01*
X111045186Y-55447614D01*
X110986925Y-55450313D01*
X110901200Y-55445374D01*
X110831985Y-55430558D01*
X110779280Y-55405863D01*
X110729274Y-55350936D01*
X110712605Y-55275053D01*
X110713875Y-55244573D01*
X110717685Y-55214093D01*
X111004705Y-55214093D01*
X111004705Y-55057883D01*
X110612275Y-55057883D01*
X110589415Y-55144878D01*
X110579890Y-55210124D01*
X110576715Y-55287753D01*
X110312132Y-55287753D01*
X110312132Y-55054073D01*
X110312132Y-54789490D01*
X110986925Y-54339628D01*
X111661718Y-54789490D01*
X111661718Y-55054073D01*
X111661718Y-56862553D01*
X111661718Y-57127136D01*
X110312132Y-57127136D01*
X110312132Y-56862553D01*
X110312132Y-56618713D01*
X110576715Y-56618713D01*
X110581954Y-56706661D01*
X110597670Y-56774923D01*
X110636405Y-56862553D01*
X110763405Y-56816833D01*
X110725305Y-56734918D01*
X110711970Y-56682054D01*
X110707525Y-56618713D01*
X110715780Y-56553308D01*
X110738640Y-56512033D01*
X110771660Y-56491078D01*
X110809125Y-56485363D01*
X110852305Y-56499333D01*
X110885960Y-56534893D01*
X110912630Y-56583153D01*
X110934855Y-56636493D01*
X110964065Y-56710153D01*
X111005975Y-56779368D01*
X111068840Y-56830803D01*
X111162185Y-56851123D01*
X111260610Y-56833184D01*
X111334905Y-56779368D01*
X111369477Y-56725534D01*
X111390221Y-56659706D01*
X111397135Y-56581883D01*
X111393008Y-56514097D01*
X111380625Y-56455518D01*
X111343795Y-56364713D01*
X111223145Y-56410433D01*
X111253625Y-56480918D01*
X111266325Y-56570453D01*
X111256306Y-56639598D01*
X111226249Y-56681084D01*
X111176155Y-56694913D01*
X111136150Y-56682213D01*
X111105670Y-56649828D01*
X111082175Y-56605378D01*
X111063125Y-56556483D01*
X111032010Y-56479648D01*
X110986290Y-56405988D01*
X110915170Y-56350743D01*
X110867069Y-56334551D01*
X110807855Y-56329153D01*
X110709906Y-56347092D01*
X110637040Y-56400908D01*
X110603526Y-56457000D01*
X110583418Y-56529601D01*
X110576715Y-56618713D01*
X110312132Y-56618713D01*
X110312132Y-56209773D01*
X110312132Y-55710663D01*
X110593225Y-55710663D01*
X110593225Y-56209773D01*
X110722765Y-56209773D01*
X110722765Y-56038323D01*
X111249815Y-56038323D01*
X111249815Y-56209773D01*
X111379355Y-56209773D01*
X111379355Y-55710663D01*
X111249815Y-55710663D01*
X111249815Y-55880843D01*
X110722765Y-55880843D01*
X110722765Y-55710663D01*
X110593225Y-55710663D01*
X110312132Y-55710663D01*
X110312132Y-55287753D01*
G37*
%TO.C,kibuzzard-63FC195C*%
G36*
X108677771Y-55206473D02*
G01*
X108762861Y-55233143D01*
X108821916Y-55285213D01*
X108844141Y-55370303D01*
X108843506Y-55393163D01*
X108840331Y-55416023D01*
X108312011Y-55416023D01*
X108310741Y-55402053D01*
X108310741Y-55388083D01*
X108331061Y-55298548D01*
X108386941Y-55240128D01*
X108471396Y-55208378D01*
X108522672Y-55201234D01*
X108578711Y-55198853D01*
X108677771Y-55206473D01*
G37*
G36*
X107903918Y-55404593D02*
G01*
X108174851Y-55404593D01*
X108179296Y-55486508D01*
X108193901Y-55572233D01*
X108960981Y-55572233D01*
X108976221Y-55471903D01*
X108980031Y-55384273D01*
X108974316Y-55310137D01*
X108957171Y-55242668D01*
X108927802Y-55183454D01*
X108885416Y-55134083D01*
X108829854Y-55094554D01*
X108760956Y-55064868D01*
X108677612Y-55046294D01*
X108578711Y-55040103D01*
X108477587Y-55046929D01*
X108392656Y-55067408D01*
X108322965Y-55099952D01*
X108267561Y-55142973D01*
X108225810Y-55195837D01*
X108197076Y-55257908D01*
X108180407Y-55327917D01*
X108174851Y-55404593D01*
X107903918Y-55404593D01*
X107903918Y-55040103D01*
X107903918Y-54775520D01*
X108578711Y-54325658D01*
X109253504Y-54775520D01*
X109253504Y-55040103D01*
X109253504Y-56876523D01*
X109253504Y-57141106D01*
X107903918Y-57141106D01*
X107903918Y-56876523D01*
X107903918Y-56555213D01*
X108168501Y-56555213D01*
X108175010Y-56625222D01*
X108194536Y-56687928D01*
X108226921Y-56742697D01*
X108272006Y-56788893D01*
X108329791Y-56826041D01*
X108400276Y-56853663D01*
X108483302Y-56870808D01*
X108578711Y-56876523D01*
X108673167Y-56869856D01*
X108755876Y-56849853D01*
X108826520Y-56818421D01*
X108884781Y-56777463D01*
X108930342Y-56727616D01*
X108962886Y-56669513D01*
X108982412Y-56605061D01*
X108988921Y-56536163D01*
X108981936Y-56454248D01*
X108966061Y-56391383D01*
X108947011Y-56347568D01*
X108931771Y-56321533D01*
X108807311Y-56362173D01*
X108839061Y-56430753D01*
X108853031Y-56514573D01*
X108832711Y-56608553D01*
X108776196Y-56671418D01*
X108689836Y-56706978D01*
X108636972Y-56715074D01*
X108578711Y-56717773D01*
X108492986Y-56712834D01*
X108423771Y-56698018D01*
X108371066Y-56673323D01*
X108321060Y-56618396D01*
X108304391Y-56542513D01*
X108305661Y-56512033D01*
X108309471Y-56481553D01*
X108596491Y-56481553D01*
X108596491Y-56325343D01*
X108204061Y-56325343D01*
X108181201Y-56412338D01*
X108171676Y-56477584D01*
X108168501Y-56555213D01*
X107903918Y-56555213D01*
X107903918Y-55824963D01*
X107903918Y-55699233D01*
X108185011Y-55699233D01*
X108185011Y-55824963D01*
X108272147Y-55861581D01*
X108359142Y-55900316D01*
X108445996Y-55941168D01*
X108532850Y-55984136D01*
X108619845Y-56029221D01*
X108706981Y-56076423D01*
X108185011Y-56076423D01*
X108185011Y-56217393D01*
X108971141Y-56217393D01*
X108971141Y-56091663D01*
X108912880Y-56056103D01*
X108849856Y-56020543D01*
X108784610Y-55985459D01*
X108719681Y-55951328D01*
X108655864Y-55918943D01*
X108593951Y-55889098D01*
X108536801Y-55862587D01*
X108487271Y-55840203D01*
X108971141Y-55840203D01*
X108971141Y-55699233D01*
X108185011Y-55699233D01*
X107903918Y-55699233D01*
X107903918Y-55404593D01*
G37*
%TO.C,kibuzzard-63FC19D3*%
G36*
X112978006Y-49667515D02*
G01*
X113242589Y-49667515D01*
X113249098Y-49737524D01*
X113268624Y-49800230D01*
X113301009Y-49854999D01*
X113346094Y-49901195D01*
X113403879Y-49938343D01*
X113474364Y-49965965D01*
X113557390Y-49983110D01*
X113652799Y-49988825D01*
X113747255Y-49982158D01*
X113829964Y-49962155D01*
X113900608Y-49930723D01*
X113958869Y-49889765D01*
X114004430Y-49839918D01*
X114036974Y-49781815D01*
X114056500Y-49717363D01*
X114063009Y-49648465D01*
X114056024Y-49566550D01*
X114040149Y-49503685D01*
X114021099Y-49459870D01*
X114005859Y-49433835D01*
X113881399Y-49474475D01*
X113913149Y-49543055D01*
X113927119Y-49626875D01*
X113906799Y-49720855D01*
X113850284Y-49783720D01*
X113763924Y-49819280D01*
X113711060Y-49827376D01*
X113652799Y-49830075D01*
X113567074Y-49825136D01*
X113497859Y-49810320D01*
X113445154Y-49785625D01*
X113395148Y-49730698D01*
X113378479Y-49654815D01*
X113379749Y-49624335D01*
X113383559Y-49593855D01*
X113670579Y-49593855D01*
X113670579Y-49437645D01*
X113278149Y-49437645D01*
X113255289Y-49524640D01*
X113245764Y-49589886D01*
X113242589Y-49667515D01*
X112978006Y-49667515D01*
X112978006Y-49433835D01*
X112978006Y-49169252D01*
X113652799Y-48719390D01*
X114327592Y-49169252D01*
X114327592Y-49433835D01*
X114327592Y-51242315D01*
X114327592Y-51506898D01*
X112978006Y-51506898D01*
X112978006Y-51242315D01*
X112978006Y-50998475D01*
X113242589Y-50998475D01*
X113247828Y-51086423D01*
X113263544Y-51154685D01*
X113302279Y-51242315D01*
X113429279Y-51196595D01*
X113391179Y-51114680D01*
X113377844Y-51061816D01*
X113373399Y-50998475D01*
X113381654Y-50933070D01*
X113404514Y-50891795D01*
X113437534Y-50870840D01*
X113474999Y-50865125D01*
X113518179Y-50879095D01*
X113551834Y-50914655D01*
X113578504Y-50962915D01*
X113600729Y-51016255D01*
X113629939Y-51089915D01*
X113671849Y-51159130D01*
X113734714Y-51210565D01*
X113828059Y-51230885D01*
X113926484Y-51212946D01*
X114000779Y-51159130D01*
X114035351Y-51105296D01*
X114056095Y-51039468D01*
X114063009Y-50961645D01*
X114058882Y-50893859D01*
X114046499Y-50835280D01*
X114009669Y-50744475D01*
X113889019Y-50790195D01*
X113919499Y-50860680D01*
X113932199Y-50950215D01*
X113922180Y-51019360D01*
X113892123Y-51060846D01*
X113842029Y-51074675D01*
X113802024Y-51061975D01*
X113771544Y-51029590D01*
X113748049Y-50985140D01*
X113728999Y-50936245D01*
X113697884Y-50859410D01*
X113652164Y-50785750D01*
X113581044Y-50730505D01*
X113532943Y-50714313D01*
X113473729Y-50708915D01*
X113375780Y-50726854D01*
X113302914Y-50780670D01*
X113269400Y-50836762D01*
X113249292Y-50909363D01*
X113242589Y-50998475D01*
X112978006Y-50998475D01*
X112978006Y-50589535D01*
X112978006Y-50090425D01*
X113259099Y-50090425D01*
X113259099Y-50589535D01*
X113388639Y-50589535D01*
X113388639Y-50418085D01*
X113915689Y-50418085D01*
X113915689Y-50589535D01*
X114045229Y-50589535D01*
X114045229Y-50090425D01*
X113915689Y-50090425D01*
X113915689Y-50260605D01*
X113388639Y-50260605D01*
X113388639Y-50090425D01*
X113259099Y-50090425D01*
X112978006Y-50090425D01*
X112978006Y-49667515D01*
G37*
%TO.C,kibuzzard-63FC1979*%
G36*
X112980962Y-55365223D02*
G01*
X113245545Y-55365223D01*
X113249990Y-55426818D01*
X113260785Y-55489048D01*
X113274755Y-55544293D01*
X113288725Y-55583663D01*
X113419535Y-55553183D01*
X113392865Y-55477618D01*
X113382388Y-55426659D01*
X113378895Y-55366493D01*
X113387467Y-55298389D01*
X113413185Y-55254098D01*
X113498275Y-55221713D01*
X113551139Y-55234096D01*
X113585270Y-55271243D01*
X113603844Y-55327441D01*
X113610035Y-55396973D01*
X113610035Y-55445233D01*
X113739575Y-55445233D01*
X113739575Y-55386813D01*
X113744655Y-55338553D01*
X113761165Y-55295373D01*
X113791645Y-55264258D01*
X113839905Y-55252193D01*
X113907850Y-55278228D01*
X113932615Y-55349983D01*
X113918010Y-55438248D01*
X113881815Y-55513813D01*
X113996115Y-55569693D01*
X114042470Y-55478888D01*
X114060091Y-55418722D01*
X114065965Y-55351253D01*
X114061838Y-55289499D01*
X114049455Y-55236318D01*
X114003100Y-55155673D01*
X113932615Y-55108683D01*
X113844985Y-55093443D01*
X113754815Y-55120113D01*
X113688775Y-55191233D01*
X113657343Y-55137099D01*
X113613845Y-55096618D01*
X113559553Y-55071377D01*
X113495735Y-55062963D01*
X113395405Y-55080743D01*
X113316030Y-55135353D01*
X113286185Y-55177263D01*
X113263960Y-55229333D01*
X113250149Y-55291881D01*
X113245545Y-55365223D01*
X112980962Y-55365223D01*
X112980962Y-55062963D01*
X112980962Y-54798380D01*
X113655755Y-54348518D01*
X114330548Y-54798380D01*
X114330548Y-55062963D01*
X114330548Y-56853663D01*
X114330548Y-57118246D01*
X112980962Y-57118246D01*
X112980962Y-56853663D01*
X112980962Y-56635223D01*
X113245545Y-56635223D01*
X113249990Y-56696818D01*
X113260785Y-56759048D01*
X113274755Y-56814293D01*
X113288725Y-56853663D01*
X113419535Y-56823183D01*
X113392865Y-56747618D01*
X113382388Y-56696659D01*
X113378895Y-56636493D01*
X113387467Y-56568389D01*
X113413185Y-56524098D01*
X113498275Y-56491713D01*
X113551139Y-56504096D01*
X113585270Y-56541243D01*
X113603844Y-56597441D01*
X113610035Y-56666973D01*
X113610035Y-56715233D01*
X113739575Y-56715233D01*
X113739575Y-56656813D01*
X113744655Y-56608553D01*
X113761165Y-56565373D01*
X113791645Y-56534258D01*
X113839905Y-56522193D01*
X113907850Y-56548228D01*
X113932615Y-56619983D01*
X113918010Y-56708248D01*
X113881815Y-56783813D01*
X113996115Y-56839693D01*
X114042470Y-56748888D01*
X114060091Y-56688722D01*
X114065965Y-56621253D01*
X114061838Y-56559499D01*
X114049455Y-56506318D01*
X114003100Y-56425673D01*
X113932615Y-56378683D01*
X113844985Y-56363443D01*
X113754815Y-56390113D01*
X113688775Y-56461233D01*
X113657343Y-56407099D01*
X113613845Y-56366618D01*
X113559553Y-56341377D01*
X113495735Y-56332963D01*
X113395405Y-56350743D01*
X113316030Y-56405353D01*
X113286185Y-56447263D01*
X113263960Y-56499333D01*
X113250149Y-56561881D01*
X113245545Y-56635223D01*
X112980962Y-56635223D01*
X112980962Y-56034513D01*
X112980962Y-55873223D01*
X113262055Y-55873223D01*
X113262055Y-56034513D01*
X113355400Y-56065946D01*
X113460175Y-56099283D01*
X113533764Y-56121720D01*
X113607213Y-56143310D01*
X113680520Y-56164053D01*
X113752416Y-56183668D01*
X113821631Y-56201871D01*
X113888165Y-56218663D01*
X113977065Y-56239618D01*
X114048185Y-56254223D01*
X114048185Y-56089123D01*
X113982304Y-56079598D01*
X113906580Y-56066263D01*
X113824665Y-56050229D01*
X113740210Y-56032608D01*
X113655120Y-56013558D01*
X113571300Y-55993238D01*
X113492401Y-55972442D01*
X113422075Y-55951963D01*
X113491449Y-55931643D01*
X113570030Y-55911323D01*
X113653850Y-55891638D01*
X113738940Y-55873223D01*
X113823554Y-55856078D01*
X113905945Y-55840203D01*
X113982145Y-55826233D01*
X114048185Y-55814803D01*
X114048185Y-55650973D01*
X113967540Y-55667959D01*
X113878005Y-55688438D01*
X113781644Y-55712251D01*
X113680520Y-55739238D01*
X113611093Y-55758923D01*
X113540820Y-55779878D01*
X113469700Y-55802103D01*
X113398933Y-55825245D01*
X113329718Y-55848952D01*
X113262055Y-55873223D01*
X112980962Y-55873223D01*
X112980962Y-55365223D01*
G37*
%TO.C,kibuzzard-63FC195C*%
G36*
X108674815Y-49586235D02*
G01*
X108759905Y-49612905D01*
X108818960Y-49664975D01*
X108841185Y-49750065D01*
X108840550Y-49772925D01*
X108837375Y-49795785D01*
X108309055Y-49795785D01*
X108307785Y-49781815D01*
X108307785Y-49767845D01*
X108328105Y-49678310D01*
X108383985Y-49619890D01*
X108468440Y-49588140D01*
X108519716Y-49580996D01*
X108575755Y-49578615D01*
X108674815Y-49586235D01*
G37*
G36*
X107900962Y-49784355D02*
G01*
X108171895Y-49784355D01*
X108176340Y-49866270D01*
X108190945Y-49951995D01*
X108958025Y-49951995D01*
X108973265Y-49851665D01*
X108977075Y-49764035D01*
X108971360Y-49689899D01*
X108954215Y-49622430D01*
X108924846Y-49563216D01*
X108882460Y-49513845D01*
X108826898Y-49474316D01*
X108758000Y-49444630D01*
X108674656Y-49426056D01*
X108575755Y-49419865D01*
X108474631Y-49426691D01*
X108389700Y-49447170D01*
X108320009Y-49479714D01*
X108264605Y-49522735D01*
X108222854Y-49575599D01*
X108194120Y-49637670D01*
X108177451Y-49707679D01*
X108171895Y-49784355D01*
X107900962Y-49784355D01*
X107900962Y-49419865D01*
X107900962Y-49155282D01*
X108575755Y-48705420D01*
X109250548Y-49155282D01*
X109250548Y-49419865D01*
X109250548Y-51256285D01*
X109250548Y-51520868D01*
X107900962Y-51520868D01*
X107900962Y-51256285D01*
X107900962Y-50934975D01*
X108165545Y-50934975D01*
X108172054Y-51004984D01*
X108191580Y-51067690D01*
X108223965Y-51122459D01*
X108269050Y-51168655D01*
X108326835Y-51205803D01*
X108397320Y-51233425D01*
X108480346Y-51250570D01*
X108575755Y-51256285D01*
X108670211Y-51249618D01*
X108752920Y-51229615D01*
X108823564Y-51198183D01*
X108881825Y-51157225D01*
X108927386Y-51107378D01*
X108959930Y-51049275D01*
X108979456Y-50984823D01*
X108985965Y-50915925D01*
X108978980Y-50834010D01*
X108963105Y-50771145D01*
X108944055Y-50727330D01*
X108928815Y-50701295D01*
X108804355Y-50741935D01*
X108836105Y-50810515D01*
X108850075Y-50894335D01*
X108829755Y-50988315D01*
X108773240Y-51051180D01*
X108686880Y-51086740D01*
X108634016Y-51094836D01*
X108575755Y-51097535D01*
X108490030Y-51092596D01*
X108420815Y-51077780D01*
X108368110Y-51053085D01*
X108318104Y-50998158D01*
X108301435Y-50922275D01*
X108302705Y-50891795D01*
X108306515Y-50861315D01*
X108593535Y-50861315D01*
X108593535Y-50705105D01*
X108201105Y-50705105D01*
X108178245Y-50792100D01*
X108168720Y-50857346D01*
X108165545Y-50934975D01*
X107900962Y-50934975D01*
X107900962Y-50204725D01*
X107900962Y-50078995D01*
X108182055Y-50078995D01*
X108182055Y-50204725D01*
X108269191Y-50241343D01*
X108356186Y-50280078D01*
X108443040Y-50320930D01*
X108529894Y-50363898D01*
X108616889Y-50408983D01*
X108704025Y-50456185D01*
X108182055Y-50456185D01*
X108182055Y-50597155D01*
X108968185Y-50597155D01*
X108968185Y-50471425D01*
X108909924Y-50435865D01*
X108846900Y-50400305D01*
X108781654Y-50365221D01*
X108716725Y-50331090D01*
X108652908Y-50298705D01*
X108590995Y-50268860D01*
X108533845Y-50242349D01*
X108484315Y-50219965D01*
X108968185Y-50219965D01*
X108968185Y-50078995D01*
X108182055Y-50078995D01*
X107900962Y-50078995D01*
X107900962Y-49784355D01*
G37*
%TO.C,kibuzzard-63FC17F2*%
G36*
X114403336Y-98049062D02*
G01*
X114488426Y-98075732D01*
X114547481Y-98127802D01*
X114569706Y-98212892D01*
X114569071Y-98235752D01*
X114565896Y-98258612D01*
X114037576Y-98258612D01*
X114036306Y-98244642D01*
X114036306Y-98230672D01*
X114056626Y-98141137D01*
X114112506Y-98082717D01*
X114196961Y-98050967D01*
X114248237Y-98043823D01*
X114304276Y-98041442D01*
X114403336Y-98049062D01*
G37*
G36*
X113635833Y-98247182D02*
G01*
X113900416Y-98247182D01*
X113904861Y-98329097D01*
X113919466Y-98414822D01*
X114686546Y-98414822D01*
X114701786Y-98314492D01*
X114705596Y-98226862D01*
X114699881Y-98152726D01*
X114682736Y-98085257D01*
X114653367Y-98026043D01*
X114610981Y-97976672D01*
X114555418Y-97937143D01*
X114486521Y-97907457D01*
X114403177Y-97888883D01*
X114304276Y-97882692D01*
X114203152Y-97889518D01*
X114118221Y-97909997D01*
X114048530Y-97942541D01*
X113993126Y-97985562D01*
X113951375Y-98038426D01*
X113922641Y-98100497D01*
X113905972Y-98170506D01*
X113900416Y-98247182D01*
X113635833Y-98247182D01*
X113635833Y-97356912D01*
X114159496Y-97356912D01*
X114159496Y-97704892D01*
X114313166Y-97704892D01*
X114313166Y-97356912D01*
X114159496Y-97356912D01*
X113635833Y-97356912D01*
X113635833Y-97092329D01*
X114303006Y-96647547D01*
X114970179Y-97092329D01*
X114970179Y-97356912D01*
X114970179Y-98414822D01*
X114970179Y-98679405D01*
X113635833Y-98679405D01*
X113635833Y-98414822D01*
X113635833Y-98247182D01*
G37*
%TO.C,kibuzzard-63FC2CBA*%
G36*
X140043589Y-55596550D02*
G01*
X140068989Y-55599725D01*
X140068989Y-55835945D01*
X140034699Y-55835945D01*
X139965801Y-55828166D01*
X139919129Y-55804830D01*
X139883569Y-55716565D01*
X139893094Y-55662590D01*
X139921669Y-55625125D01*
X139965801Y-55603218D01*
X140021999Y-55595915D01*
X140043589Y-55596550D01*
G37*
G36*
X139206659Y-56519628D02*
G01*
X139037749Y-56519628D01*
X138773165Y-56519628D01*
X138596776Y-56255045D01*
X139037749Y-56255045D01*
X139206659Y-56255045D01*
X139233488Y-56186783D01*
X139265714Y-56111535D01*
X139301433Y-56032795D01*
X139338739Y-55954055D01*
X139375569Y-56030414D01*
X139412399Y-56109630D01*
X139446689Y-56186306D01*
X139475899Y-56255045D01*
X139644809Y-56255045D01*
X139672749Y-56255045D01*
X139836579Y-56255045D01*
X139868170Y-56180274D01*
X139904524Y-56108360D01*
X139944688Y-56037399D01*
X139987709Y-55965485D01*
X140068989Y-55965485D01*
X140068989Y-56255045D01*
X140225199Y-56255045D01*
X140225199Y-55480345D01*
X140175034Y-55470820D01*
X140119789Y-55464470D01*
X140066449Y-55461295D01*
X140021999Y-55460025D01*
X139957864Y-55463835D01*
X139900079Y-55475265D01*
X139849279Y-55494632D01*
X139806099Y-55522255D01*
X139745774Y-55602900D01*
X139730058Y-55656081D01*
X139724819Y-55717835D01*
X139731804Y-55783240D01*
X139752759Y-55842295D01*
X139789906Y-55891508D01*
X139845469Y-55927385D01*
X139799749Y-56000410D01*
X139752759Y-56084230D01*
X139708944Y-56171860D01*
X139672749Y-56255045D01*
X139644809Y-56255045D01*
X139607344Y-56172495D01*
X139581309Y-56122330D01*
X139552734Y-56068355D01*
X139522095Y-56011681D01*
X139489869Y-55953420D01*
X139457484Y-55895476D01*
X139426369Y-55839755D01*
X139632109Y-55468915D01*
X139463199Y-55468915D01*
X139338739Y-55720375D01*
X139207929Y-55468915D01*
X139050449Y-55468915D01*
X139251109Y-55835945D01*
X139217136Y-55891825D01*
X139183799Y-55950245D01*
X139151890Y-56009141D01*
X139122204Y-56066450D01*
X139095375Y-56121060D01*
X139072039Y-56171860D01*
X139037749Y-56255045D01*
X138596776Y-56255045D01*
X138331770Y-55857535D01*
X138773165Y-55195442D01*
X139037749Y-55195442D01*
X140225199Y-55195442D01*
X140489782Y-55195442D01*
X140489782Y-56519628D01*
X140225199Y-56519628D01*
X139672749Y-56519628D01*
X139206659Y-56519628D01*
G37*
%TO.C,kibuzzard-63FC2CD0*%
G36*
X139446801Y-60722785D02*
G01*
X139484266Y-60781840D01*
X139502046Y-60868835D01*
X139505380Y-60920270D01*
X139506491Y-60975515D01*
X139505380Y-61030919D01*
X139502046Y-61082830D01*
X139484266Y-61169825D01*
X139446801Y-61228245D01*
X139382031Y-61249835D01*
X139317896Y-61228245D01*
X139279796Y-61169190D01*
X139262016Y-61082195D01*
X139258682Y-61030760D01*
X139257571Y-60975515D01*
X139258682Y-60920111D01*
X139262016Y-60868200D01*
X139279796Y-60781205D01*
X139317261Y-60722785D01*
X139382031Y-60701195D01*
X139446801Y-60722785D01*
G37*
G36*
X138690040Y-61233484D02*
G01*
X138648606Y-61180620D01*
X138629909Y-61126363D01*
X138618691Y-61057571D01*
X138614951Y-60974245D01*
X138615526Y-60961545D01*
X138675911Y-60961545D01*
X138695596Y-61020600D01*
X138745761Y-61045365D01*
X138797831Y-61020600D01*
X138816881Y-60961545D01*
X138797831Y-60901855D01*
X138745761Y-60876455D01*
X138695596Y-60901855D01*
X138675911Y-60961545D01*
X138615526Y-60961545D01*
X138618691Y-60891624D01*
X138629909Y-60823256D01*
X138648606Y-60769140D01*
X138690040Y-60716276D01*
X138747031Y-60698655D01*
X138803229Y-60716276D01*
X138844821Y-60769140D01*
X138863871Y-60823256D01*
X138875301Y-60891624D01*
X138879111Y-60974245D01*
X138875301Y-61057571D01*
X138863871Y-61126363D01*
X138844821Y-61180620D01*
X138803229Y-61233484D01*
X138747031Y-61251105D01*
X138745761Y-61250712D01*
X138690040Y-61233484D01*
G37*
G36*
X139380761Y-61650308D02*
G01*
X138747031Y-61650308D01*
X138473981Y-61650308D01*
X138209398Y-61650308D01*
X137759536Y-60975515D01*
X137760383Y-60974245D01*
X138473981Y-60974245D01*
X138478347Y-61071718D01*
X138491444Y-61155855D01*
X138513272Y-61226657D01*
X138543831Y-61284125D01*
X138597453Y-61340569D01*
X138665187Y-61374436D01*
X138747031Y-61385725D01*
X138828876Y-61374436D01*
X138896609Y-61340569D01*
X138950231Y-61284125D01*
X138980790Y-61226657D01*
X139002619Y-61155855D01*
X139015715Y-61071718D01*
X139020024Y-60975515D01*
X139098821Y-60975515D01*
X139103425Y-61070884D01*
X139117236Y-61153791D01*
X139140255Y-61224237D01*
X139172481Y-61282220D01*
X139228361Y-61339723D01*
X139297788Y-61374224D01*
X139380761Y-61385725D01*
X139465781Y-61374224D01*
X139476014Y-61369215D01*
X139766841Y-61369215D01*
X140265951Y-61369215D01*
X140265951Y-61239675D01*
X140094501Y-61239675D01*
X140094501Y-60712625D01*
X140265951Y-60712625D01*
X140265951Y-60583085D01*
X139766841Y-60583085D01*
X139766841Y-60712625D01*
X139937021Y-60712625D01*
X139937021Y-61239675D01*
X139766841Y-61239675D01*
X139766841Y-61369215D01*
X139476014Y-61369215D01*
X139536266Y-61339723D01*
X139592216Y-61282220D01*
X139624165Y-61224237D01*
X139646985Y-61153791D01*
X139660677Y-61070884D01*
X139665241Y-60975515D01*
X139660558Y-60880146D01*
X139646509Y-60797239D01*
X139623093Y-60726793D01*
X139590311Y-60668810D01*
X139533867Y-60611307D01*
X139464440Y-60576806D01*
X139382031Y-60565305D01*
X139297082Y-60576806D01*
X139226809Y-60611307D01*
X139171211Y-60668810D01*
X139139540Y-60726793D01*
X139116919Y-60797239D01*
X139103345Y-60880146D01*
X139098821Y-60975515D01*
X139020024Y-60975515D01*
X139020081Y-60974245D01*
X139015636Y-60877884D01*
X139002301Y-60794540D01*
X138980076Y-60724214D01*
X138948961Y-60666905D01*
X138894916Y-60610461D01*
X138827606Y-60576594D01*
X138747031Y-60565305D01*
X138665187Y-60576523D01*
X138597453Y-60610178D01*
X138543831Y-60666270D01*
X138513272Y-60723380D01*
X138491444Y-60793746D01*
X138478347Y-60877368D01*
X138473981Y-60974245D01*
X137760383Y-60974245D01*
X138209398Y-60300722D01*
X138473981Y-60300722D01*
X140265951Y-60300722D01*
X140530534Y-60300722D01*
X140530534Y-61650308D01*
X140265951Y-61650308D01*
X139380761Y-61650308D01*
G37*
%TO.C,kibuzzard-63FC2C9B*%
G36*
X139229306Y-46367805D02*
G01*
X139103576Y-46367805D01*
X138838993Y-46367805D01*
X138662604Y-46103222D01*
X139103576Y-46103222D01*
X139229306Y-46103222D01*
X139265924Y-46016086D01*
X139304659Y-45929091D01*
X139345511Y-45842237D01*
X139388479Y-45755383D01*
X139433564Y-45668388D01*
X139480766Y-45581252D01*
X139480766Y-46103222D01*
X139621736Y-46103222D01*
X139730956Y-46103222D01*
X140235146Y-46103222D01*
X140235146Y-45317092D01*
X139758896Y-45317092D01*
X139758896Y-45446632D01*
X140078936Y-45446632D01*
X140078936Y-45623162D01*
X139800806Y-45623162D01*
X139800806Y-45752702D01*
X140078936Y-45752702D01*
X140078936Y-45973682D01*
X139730956Y-45973682D01*
X139730956Y-46103222D01*
X139621736Y-46103222D01*
X139621736Y-45317092D01*
X139496006Y-45317092D01*
X139460446Y-45375353D01*
X139424886Y-45438377D01*
X139389802Y-45503623D01*
X139355671Y-45568552D01*
X139323286Y-45632369D01*
X139293441Y-45694282D01*
X139266930Y-45751432D01*
X139244546Y-45800962D01*
X139244546Y-45317092D01*
X139103576Y-45317092D01*
X139103576Y-46103222D01*
X138662604Y-46103222D01*
X138400561Y-45710157D01*
X138838993Y-45052509D01*
X139103576Y-45052509D01*
X140235146Y-45052509D01*
X140499729Y-45052509D01*
X140499729Y-46367805D01*
X140235146Y-46367805D01*
X139229306Y-46367805D01*
G37*
%TO.C,G\u002A\u002A\u002A*%
G36*
X121523890Y-80678058D02*
G01*
X121515421Y-80687464D01*
X121506014Y-80678995D01*
X121514484Y-80669589D01*
X121523890Y-80678058D01*
G37*
G36*
X112905468Y-71163712D02*
G01*
X112896999Y-71173119D01*
X112887593Y-71164649D01*
X112896062Y-71155243D01*
X112905468Y-71163712D01*
G37*
G36*
X107297392Y-84855070D02*
G01*
X107298285Y-84893531D01*
X107288400Y-84946459D01*
X107269856Y-85005320D01*
X107244765Y-85061578D01*
X107215241Y-85106701D01*
X107195711Y-85128295D01*
X107168295Y-85146886D01*
X107152993Y-85132392D01*
X107146383Y-85083668D01*
X107152438Y-85027404D01*
X107174427Y-84962869D01*
X107206970Y-84903344D01*
X107244490Y-84858914D01*
X107281405Y-84839662D01*
X107283610Y-84839611D01*
X107297392Y-84855070D01*
G37*
G36*
X112119975Y-71007520D02*
G01*
X112123372Y-71031644D01*
X112110081Y-71083751D01*
X112078978Y-71146722D01*
X112035482Y-71212674D01*
X111985013Y-71273723D01*
X111932990Y-71321986D01*
X111884832Y-71349579D01*
X111851194Y-71358292D01*
X111814826Y-71355214D01*
X111802410Y-71328986D01*
X111813582Y-71278139D01*
X111847977Y-71201209D01*
X111879323Y-71143682D01*
X111919584Y-71088623D01*
X111967419Y-71049240D01*
X112033352Y-71014960D01*
X112046792Y-71008990D01*
X112087632Y-70993355D01*
X112108762Y-70993145D01*
X112119975Y-71007520D01*
G37*
G36*
X109337958Y-71220451D02*
G01*
X109340135Y-71252995D01*
X109329849Y-71339806D01*
X109298213Y-71412947D01*
X109248748Y-71462844D01*
X109247045Y-71463880D01*
X109180487Y-71490523D01*
X109121382Y-71488821D01*
X109077153Y-71458942D01*
X109076314Y-71457820D01*
X109061766Y-71422909D01*
X109049631Y-71368344D01*
X109041030Y-71305033D01*
X109037084Y-71243888D01*
X109038914Y-71195814D01*
X109047640Y-71171724D01*
X109049026Y-71171013D01*
X109076439Y-71164771D01*
X109128176Y-71157113D01*
X109194355Y-71149533D01*
X109328084Y-71136100D01*
X109337958Y-71220451D01*
G37*
G36*
X114262195Y-86151089D02*
G01*
X114263848Y-86203454D01*
X114262794Y-86289413D01*
X114139886Y-86338305D01*
X114067796Y-86365703D01*
X113972260Y-86399662D01*
X113884715Y-86428640D01*
X113848958Y-86439341D01*
X113757675Y-86464357D01*
X113643040Y-86493747D01*
X113512300Y-86525831D01*
X113372703Y-86558929D01*
X113231499Y-86591363D01*
X113095936Y-86621455D01*
X112973262Y-86647525D01*
X112870727Y-86667896D01*
X112795578Y-86680886D01*
X112562005Y-86707139D01*
X112213879Y-86717630D01*
X111850078Y-86696117D01*
X111470430Y-86642597D01*
X111433570Y-86635740D01*
X111372035Y-86622958D01*
X111330987Y-86612541D01*
X111317837Y-86606254D01*
X111335250Y-86605124D01*
X111381427Y-86607763D01*
X111448952Y-86613808D01*
X111530521Y-86622698D01*
X111623792Y-86631982D01*
X111775153Y-86642106D01*
X111939553Y-86648489D01*
X112107277Y-86651019D01*
X112268610Y-86649583D01*
X112413834Y-86644067D01*
X112533234Y-86634359D01*
X112677555Y-86615577D01*
X113079325Y-86540425D01*
X113478570Y-86432893D01*
X113868421Y-86295013D01*
X114242012Y-86128817D01*
X114254450Y-86128641D01*
X114262195Y-86151089D01*
G37*
G36*
X109608043Y-85338434D02*
G01*
X109649232Y-85379063D01*
X109688265Y-85413818D01*
X109752860Y-85462310D01*
X109831200Y-85515258D01*
X109913991Y-85566093D01*
X109931275Y-85575950D01*
X110021763Y-85623992D01*
X110137795Y-85681459D01*
X110273055Y-85745530D01*
X110421223Y-85813386D01*
X110575983Y-85882206D01*
X110731016Y-85949174D01*
X110880003Y-86011469D01*
X111016627Y-86066271D01*
X111134569Y-86110762D01*
X111209317Y-86137737D01*
X111290385Y-86167056D01*
X111356983Y-86191206D01*
X111399503Y-86206708D01*
X111413732Y-86212048D01*
X111445462Y-86226193D01*
X111442946Y-86231028D01*
X111406106Y-86226548D01*
X111334864Y-86212743D01*
X111229141Y-86189605D01*
X111148748Y-86170368D01*
X110977408Y-86122963D01*
X110802968Y-86066871D01*
X110628541Y-86003696D01*
X110457232Y-85935039D01*
X110292156Y-85862501D01*
X110136419Y-85787683D01*
X109993130Y-85712187D01*
X109865400Y-85637614D01*
X109756339Y-85565565D01*
X109669056Y-85497642D01*
X109606660Y-85435447D01*
X109572261Y-85380580D01*
X109568968Y-85334642D01*
X109571205Y-85329173D01*
X109583827Y-85322796D01*
X109608043Y-85338434D01*
G37*
G36*
X108145645Y-85104613D02*
G01*
X108200427Y-85139070D01*
X108264024Y-85194091D01*
X108324001Y-85258276D01*
X108369134Y-85320768D01*
X108392146Y-85373956D01*
X108413250Y-85457999D01*
X108424203Y-85548180D01*
X108422230Y-85628426D01*
X108421170Y-85635262D01*
X108393335Y-85710983D01*
X108340722Y-85785597D01*
X108271526Y-85847203D01*
X108200735Y-85878843D01*
X108115682Y-85881992D01*
X108027377Y-85852666D01*
X107940185Y-85791595D01*
X107898843Y-85742151D01*
X107875483Y-85680041D01*
X107880007Y-85621133D01*
X107913427Y-85573666D01*
X107916280Y-85571369D01*
X107939275Y-85556143D01*
X107961751Y-85554424D01*
X107993900Y-85568192D01*
X108045913Y-85599430D01*
X108066913Y-85611744D01*
X108145529Y-85646984D01*
X108216379Y-85663503D01*
X108293930Y-85669796D01*
X108279384Y-85602619D01*
X108278184Y-85597368D01*
X108240588Y-85510052D01*
X108173319Y-85426435D01*
X108081967Y-85353569D01*
X108042925Y-85327448D01*
X108013188Y-85300224D01*
X108001315Y-85270629D01*
X107999825Y-85227148D01*
X108000210Y-85216761D01*
X108012603Y-85158956D01*
X108046376Y-85117249D01*
X108076704Y-85095024D01*
X108105354Y-85089884D01*
X108145645Y-85104613D01*
G37*
G36*
X107632192Y-71646843D02*
G01*
X107679959Y-71742893D01*
X107759902Y-71939912D01*
X107829228Y-72158390D01*
X107885926Y-72389585D01*
X107927986Y-72624759D01*
X107953396Y-72855170D01*
X107960143Y-73072078D01*
X107959908Y-73087651D01*
X107957830Y-73172995D01*
X107950734Y-73227398D01*
X107932801Y-73255058D01*
X107898218Y-73260171D01*
X107841172Y-73246934D01*
X107755847Y-73219546D01*
X107614615Y-73164109D01*
X107488367Y-73090316D01*
X107389958Y-73001401D01*
X107354932Y-72962542D01*
X107334038Y-72945264D01*
X107322586Y-72949846D01*
X107313330Y-72973665D01*
X107310367Y-72990077D01*
X107308352Y-73041577D01*
X107310452Y-73112670D01*
X107316517Y-73193117D01*
X107322671Y-73259043D01*
X107326332Y-73312879D01*
X107325244Y-73339305D01*
X107319112Y-73342844D01*
X107307637Y-73328016D01*
X107281924Y-73283327D01*
X107225992Y-73141310D01*
X107193720Y-72977058D01*
X107185124Y-72794001D01*
X107200224Y-72595569D01*
X107239036Y-72385191D01*
X107301578Y-72166296D01*
X107307523Y-72148560D01*
X107341986Y-72045744D01*
X107379305Y-71934407D01*
X107412385Y-71835717D01*
X107423216Y-71803717D01*
X107453369Y-71717198D01*
X107482524Y-71636625D01*
X107505640Y-71576045D01*
X107543426Y-71481850D01*
X107632192Y-71646843D01*
G37*
G36*
X107369391Y-85110419D02*
G01*
X107385510Y-85133536D01*
X107447222Y-85210331D01*
X107512010Y-85276352D01*
X107569951Y-85321170D01*
X107584191Y-85329575D01*
X107634014Y-85353888D01*
X107661015Y-85352593D01*
X107669369Y-85323074D01*
X107663258Y-85262711D01*
X107660441Y-85243738D01*
X107656524Y-85192679D01*
X107664202Y-85159841D01*
X107685699Y-85132295D01*
X107691023Y-85127139D01*
X107718328Y-85109890D01*
X107739153Y-85118957D01*
X107756338Y-85157481D01*
X107772719Y-85228606D01*
X107778934Y-85324416D01*
X107756007Y-85415191D01*
X107702699Y-85488594D01*
X107646038Y-85527658D01*
X107587992Y-85536545D01*
X107523773Y-85514544D01*
X107448408Y-85461115D01*
X107396847Y-85417843D01*
X107400129Y-85480468D01*
X107412313Y-85588081D01*
X107442194Y-85702933D01*
X107486043Y-85798709D01*
X107541069Y-85872640D01*
X107604484Y-85921956D01*
X107673499Y-85943888D01*
X107745323Y-85935667D01*
X107817167Y-85894523D01*
X107876344Y-85845688D01*
X107884797Y-85893717D01*
X107885336Y-85897125D01*
X107876772Y-85957775D01*
X107837380Y-86017835D01*
X107771335Y-86070793D01*
X107723139Y-86094514D01*
X107633643Y-86111559D01*
X107547380Y-86095080D01*
X107469057Y-86046409D01*
X107403379Y-85966874D01*
X107381950Y-85928567D01*
X107354423Y-85864498D01*
X107331731Y-85788087D01*
X107312529Y-85693470D01*
X107295468Y-85574785D01*
X107279204Y-85426169D01*
X107254164Y-85172123D01*
X107300765Y-85124869D01*
X107309086Y-85116473D01*
X107336726Y-85091932D01*
X107353167Y-85090685D01*
X107369391Y-85110419D01*
G37*
G36*
X112912884Y-70894456D02*
G01*
X112896101Y-70954455D01*
X112872375Y-71031383D01*
X112846748Y-71108238D01*
X112821674Y-71177274D01*
X112799603Y-71230745D01*
X112782990Y-71260909D01*
X112761968Y-71291903D01*
X112752285Y-71318974D01*
X112751053Y-71325267D01*
X112730919Y-71356494D01*
X112691372Y-71400991D01*
X112639165Y-71452337D01*
X112581051Y-71504118D01*
X112523787Y-71549911D01*
X112474125Y-71583302D01*
X112434897Y-71603590D01*
X112356000Y-71637146D01*
X112279143Y-71662829D01*
X112232704Y-71674757D01*
X112125439Y-71693718D01*
X112025122Y-71695646D01*
X111914497Y-71681419D01*
X111888871Y-71676605D01*
X111798763Y-71655084D01*
X111737637Y-71630171D01*
X111699960Y-71598963D01*
X111680196Y-71558558D01*
X111671951Y-71516206D01*
X111678872Y-71493938D01*
X111704119Y-71502348D01*
X111747801Y-71541408D01*
X111778334Y-71569104D01*
X111852617Y-71612667D01*
X111928259Y-71628653D01*
X111997000Y-71614635D01*
X112025271Y-71597389D01*
X112085975Y-71543253D01*
X112154219Y-71465083D01*
X112225837Y-71368668D01*
X112296661Y-71259802D01*
X112362524Y-71144273D01*
X112419259Y-71027873D01*
X112444200Y-70976435D01*
X112491934Y-70907183D01*
X112500736Y-70900265D01*
X112802040Y-70900265D01*
X112811446Y-70908735D01*
X112819915Y-70899329D01*
X112810509Y-70890859D01*
X112802040Y-70900265D01*
X112500736Y-70900265D01*
X112550594Y-70861078D01*
X112628741Y-70830038D01*
X112648875Y-70824620D01*
X112715773Y-70810434D01*
X112787210Y-70799481D01*
X112853303Y-70792850D01*
X112904172Y-70791626D01*
X112929934Y-70796899D01*
X112931348Y-70800673D01*
X112928040Y-70831355D01*
X112915474Y-70885196D01*
X112912884Y-70894456D01*
G37*
G36*
X112454242Y-67794397D02*
G01*
X112497793Y-67833840D01*
X112550579Y-67889098D01*
X112607799Y-67955328D01*
X112664659Y-68027690D01*
X112685835Y-68056686D01*
X112814763Y-68263745D01*
X112922361Y-68491715D01*
X113004778Y-68731350D01*
X113058171Y-68973402D01*
X113067206Y-69042324D01*
X113076905Y-69248499D01*
X113064545Y-69464816D01*
X113031224Y-69678882D01*
X112978037Y-69878308D01*
X112968162Y-69908270D01*
X112953833Y-69956499D01*
X112944706Y-70000456D01*
X112940225Y-70048139D01*
X112939833Y-70107547D01*
X112942972Y-70186677D01*
X112949082Y-70293527D01*
X112965806Y-70571919D01*
X112842624Y-70546602D01*
X112776348Y-70534729D01*
X112708581Y-70525939D01*
X112660282Y-70523351D01*
X112601122Y-70525418D01*
X112629688Y-70470710D01*
X112654776Y-70430242D01*
X112687216Y-70406626D01*
X112726022Y-70414416D01*
X112777951Y-70452793D01*
X112802844Y-70473957D01*
X112838658Y-70501465D01*
X112857766Y-70511968D01*
X112857852Y-70503218D01*
X112844169Y-70471396D01*
X112818509Y-70424402D01*
X112796075Y-70388203D01*
X112770094Y-70351904D01*
X112754990Y-70338109D01*
X112749992Y-70336676D01*
X112743136Y-70312938D01*
X112748066Y-70265725D01*
X112763598Y-70202372D01*
X112788548Y-70130219D01*
X112842367Y-69978453D01*
X112906959Y-69724174D01*
X112941461Y-69468530D01*
X112945228Y-69217305D01*
X112917612Y-68976287D01*
X112897648Y-68880089D01*
X112864058Y-68743818D01*
X112824505Y-68603542D01*
X112781965Y-68469087D01*
X112739414Y-68350280D01*
X112699826Y-68256951D01*
X112677817Y-68213907D01*
X112631962Y-68132156D01*
X112578022Y-68042452D01*
X112523580Y-67957669D01*
X112480729Y-67892105D01*
X112444905Y-67834261D01*
X112421999Y-67793620D01*
X112415676Y-67776342D01*
X112424721Y-67775614D01*
X112454242Y-67794397D01*
G37*
G36*
X120555551Y-76566085D02*
G01*
X120588316Y-76591467D01*
X120612657Y-76644813D01*
X120630921Y-76729944D01*
X120646091Y-76826907D01*
X120727716Y-76809057D01*
X120790326Y-76797027D01*
X120861380Y-76791119D01*
X120910332Y-76800287D01*
X120943626Y-76825005D01*
X120952798Y-76835361D01*
X120968135Y-76846942D01*
X120990058Y-76851868D01*
X121025728Y-76850219D01*
X121082307Y-76842076D01*
X121166959Y-76827519D01*
X121229780Y-76817192D01*
X121307057Y-76806461D01*
X121368027Y-76800267D01*
X121403267Y-76799717D01*
X121445559Y-76811112D01*
X121459076Y-76828885D01*
X121444310Y-76850075D01*
X121404589Y-76872096D01*
X121343239Y-76892361D01*
X121263589Y-76908284D01*
X121230026Y-76913275D01*
X121137111Y-76928169D01*
X121074013Y-76940742D01*
X121036278Y-76952249D01*
X121019446Y-76963944D01*
X121019062Y-76977080D01*
X121019518Y-76978465D01*
X121006466Y-77000592D01*
X120960699Y-77034854D01*
X120882911Y-77080725D01*
X120848580Y-77099339D01*
X120786668Y-77131380D01*
X120739573Y-77153732D01*
X120715458Y-77162414D01*
X120714083Y-77162603D01*
X120701003Y-77181481D01*
X120697511Y-77222506D01*
X120697575Y-77223829D01*
X120693595Y-77271399D01*
X120680276Y-77304070D01*
X120638975Y-77326169D01*
X120586516Y-77322186D01*
X120535446Y-77292839D01*
X120497912Y-77265482D01*
X120466125Y-77252699D01*
X120453297Y-77250274D01*
X120409603Y-77238555D01*
X120346042Y-77219511D01*
X120271479Y-77195736D01*
X120244240Y-77186896D01*
X120103993Y-77145159D01*
X119983329Y-77117175D01*
X119871739Y-77100860D01*
X119758710Y-77094134D01*
X119679125Y-77091463D01*
X119616213Y-77086563D01*
X119584345Y-77079432D01*
X119580964Y-77069720D01*
X119588919Y-77065655D01*
X119626829Y-77053392D01*
X119689604Y-77036028D01*
X119770755Y-77015116D01*
X119863792Y-76992213D01*
X119962222Y-76968872D01*
X120059557Y-76946649D01*
X120149305Y-76927098D01*
X120224977Y-76911776D01*
X120280081Y-76902235D01*
X120419769Y-76882157D01*
X120423041Y-76773581D01*
X120428197Y-76711035D01*
X120448524Y-76632530D01*
X120482401Y-76582087D01*
X120528285Y-76562791D01*
X120555551Y-76566085D01*
G37*
G36*
X121461471Y-80724571D02*
G01*
X121446656Y-80744929D01*
X121445424Y-80746387D01*
X121419009Y-80772440D01*
X121371756Y-80814985D01*
X121309972Y-80868459D01*
X121239965Y-80927296D01*
X121227218Y-80937877D01*
X121156384Y-80997963D01*
X121109335Y-81041393D01*
X121082062Y-81072656D01*
X121070556Y-81096240D01*
X121070803Y-81116632D01*
X121079221Y-81144965D01*
X121093730Y-81176854D01*
X121094496Y-81178627D01*
X121085841Y-81202919D01*
X121056535Y-81243632D01*
X121011445Y-81293845D01*
X120915943Y-81391763D01*
X120981594Y-81480913D01*
X121003480Y-81511488D01*
X121028105Y-81556140D01*
X121027227Y-81589011D01*
X120998666Y-81619349D01*
X120940243Y-81656406D01*
X120902713Y-81673065D01*
X120858958Y-81671848D01*
X120836457Y-81658207D01*
X120808203Y-81634805D01*
X120789372Y-81613486D01*
X120789681Y-81603799D01*
X120790734Y-81603094D01*
X120780641Y-81588185D01*
X120752105Y-81560137D01*
X120704213Y-81517017D01*
X120623698Y-81574090D01*
X120588112Y-81597355D01*
X120537686Y-81621263D01*
X120476444Y-81638011D01*
X120391904Y-81651781D01*
X120390620Y-81651957D01*
X120295201Y-81666489D01*
X120190451Y-81684691D01*
X120098817Y-81702663D01*
X120077830Y-81707110D01*
X120015707Y-81719859D01*
X119971679Y-81728254D01*
X119954186Y-81730661D01*
X119962998Y-81718715D01*
X119993639Y-81687493D01*
X120041168Y-81641805D01*
X120100468Y-81586380D01*
X120166420Y-81525954D01*
X120233906Y-81465255D01*
X120297807Y-81409015D01*
X120353005Y-81361968D01*
X120497170Y-81242054D01*
X120438780Y-81166036D01*
X120416039Y-81135840D01*
X120390199Y-81099492D01*
X120379968Y-81082009D01*
X120379969Y-81081937D01*
X120393228Y-81067578D01*
X120427668Y-81038131D01*
X120475941Y-80999886D01*
X120479498Y-80997145D01*
X120528731Y-80959275D01*
X120560343Y-80941660D01*
X120584834Y-80945787D01*
X120612704Y-80973149D01*
X120654451Y-81025238D01*
X120666479Y-81038716D01*
X120683384Y-81045311D01*
X120708779Y-81034761D01*
X120752800Y-81004975D01*
X120785782Y-80983454D01*
X120840286Y-80960835D01*
X120899977Y-80956755D01*
X120925241Y-80956739D01*
X120963506Y-80950448D01*
X121008161Y-80933790D01*
X121067017Y-80903616D01*
X121147880Y-80856778D01*
X121205857Y-80823484D01*
X121283474Y-80782289D01*
X121350904Y-80750138D01*
X121398090Y-80732043D01*
X121426408Y-80724300D01*
X121456662Y-80718209D01*
X121461471Y-80724571D01*
G37*
G36*
X106999063Y-85109017D02*
G01*
X107068904Y-85123088D01*
X107111646Y-85150033D01*
X107130608Y-85190968D01*
X107131852Y-85215133D01*
X107116989Y-85248472D01*
X107077328Y-85271166D01*
X107009364Y-85284799D01*
X106909593Y-85290960D01*
X106760789Y-85294720D01*
X106784498Y-85334729D01*
X106793525Y-85348537D01*
X106824316Y-85391131D01*
X106867934Y-85448555D01*
X106918042Y-85512379D01*
X106945492Y-85547208D01*
X107026231Y-85657492D01*
X107081175Y-85748942D01*
X107111386Y-85825071D01*
X107117921Y-85889390D01*
X107101843Y-85945414D01*
X107064210Y-85996650D01*
X107049136Y-86011416D01*
X107009845Y-86042562D01*
X106980936Y-86055696D01*
X106978270Y-86055779D01*
X106937441Y-86051271D01*
X106879284Y-86039431D01*
X106816954Y-86023577D01*
X106763614Y-86007022D01*
X106732421Y-85993082D01*
X106728780Y-85990176D01*
X106709008Y-85952209D01*
X106715012Y-85903286D01*
X106745700Y-85854777D01*
X106772253Y-85830827D01*
X106804353Y-85820219D01*
X106851978Y-85826769D01*
X106863148Y-85829276D01*
X106889606Y-85834627D01*
X106902943Y-85833087D01*
X106901460Y-85820325D01*
X106883464Y-85792008D01*
X106847257Y-85743806D01*
X106791145Y-85671388D01*
X106774947Y-85650347D01*
X106699030Y-85546111D01*
X106646635Y-85462203D01*
X106615692Y-85394956D01*
X106604127Y-85340706D01*
X106600659Y-85306165D01*
X106589452Y-85296376D01*
X106562227Y-85310749D01*
X106557946Y-85313165D01*
X106516609Y-85327429D01*
X106453584Y-85341470D01*
X106380692Y-85352564D01*
X106238177Y-85369372D01*
X106450875Y-85559869D01*
X106497859Y-85602052D01*
X106564645Y-85663089D01*
X106610496Y-85707772D01*
X106639261Y-85740792D01*
X106654787Y-85766844D01*
X106660921Y-85790621D01*
X106661511Y-85816817D01*
X106660463Y-85833757D01*
X106645096Y-85883650D01*
X106604530Y-85924474D01*
X106597542Y-85929353D01*
X106533630Y-85958059D01*
X106447089Y-85979655D01*
X106348942Y-85993075D01*
X106250210Y-85997256D01*
X106161916Y-85991134D01*
X106095082Y-85973646D01*
X106081618Y-85965131D01*
X106062941Y-85929162D01*
X106069164Y-85882117D01*
X106099930Y-85834298D01*
X106122945Y-85813075D01*
X106150645Y-85799737D01*
X106190757Y-85795644D01*
X106254871Y-85798087D01*
X106368550Y-85804922D01*
X106319538Y-85756278D01*
X106303379Y-85740022D01*
X106259526Y-85695140D01*
X106203753Y-85637454D01*
X106144259Y-85575427D01*
X106091018Y-85518647D01*
X106051794Y-85472346D01*
X106029053Y-85436357D01*
X106018004Y-85402921D01*
X106013854Y-85364279D01*
X106014174Y-85317711D01*
X106027500Y-85275912D01*
X106061481Y-85236935D01*
X106063811Y-85234769D01*
X106091919Y-85211621D01*
X106123191Y-85194058D01*
X106164129Y-85180373D01*
X106221237Y-85168862D01*
X106301017Y-85157819D01*
X106409973Y-85145538D01*
X106412906Y-85145224D01*
X106495089Y-85137031D01*
X106549224Y-85133864D01*
X106582564Y-85136212D01*
X106602359Y-85144563D01*
X106615863Y-85159407D01*
X106620471Y-85165925D01*
X106636532Y-85182273D01*
X106655409Y-85178284D01*
X106689594Y-85152848D01*
X106713353Y-85136433D01*
X106750986Y-85121049D01*
X106803346Y-85112177D01*
X106880953Y-85107314D01*
X106898807Y-85106714D01*
X106999063Y-85109017D01*
G37*
G36*
X120027177Y-77206808D02*
G01*
X120193691Y-77235455D01*
X120290106Y-77269452D01*
X120385625Y-77327699D01*
X120462284Y-77401805D01*
X120514442Y-77486178D01*
X120536456Y-77575223D01*
X120536556Y-77577587D01*
X120534096Y-77619560D01*
X120526157Y-77681987D01*
X120514440Y-77755544D01*
X120500640Y-77830905D01*
X120486456Y-77898749D01*
X120473586Y-77949752D01*
X120463728Y-77974590D01*
X120453709Y-77969921D01*
X120425491Y-77945183D01*
X120386699Y-77905602D01*
X120326133Y-77848747D01*
X120244345Y-77794629D01*
X120143459Y-77750409D01*
X120015133Y-77711737D01*
X119960558Y-77698186D01*
X119872831Y-77678098D01*
X119786151Y-77659920D01*
X119708947Y-77645311D01*
X119649650Y-77635925D01*
X119616689Y-77633422D01*
X119618193Y-77635835D01*
X119644659Y-77646582D01*
X119694993Y-77663831D01*
X119762805Y-77685315D01*
X119890977Y-77727257D01*
X120016019Y-77776662D01*
X120117539Y-77829416D01*
X120202077Y-77889587D01*
X120276170Y-77961247D01*
X120346359Y-78048462D01*
X120378214Y-78093165D01*
X120409758Y-78145107D01*
X120421468Y-78183671D01*
X120415278Y-78217384D01*
X120393119Y-78254777D01*
X120371016Y-78297662D01*
X120362118Y-78339648D01*
X120361944Y-78346550D01*
X120345228Y-78393005D01*
X120309330Y-78441417D01*
X120264795Y-78479948D01*
X120222171Y-78496755D01*
X120193560Y-78494838D01*
X120136978Y-78484769D01*
X120072593Y-78468698D01*
X120021204Y-78455456D01*
X119977501Y-78447844D01*
X119957486Y-78449032D01*
X119964925Y-78458609D01*
X120003586Y-78476171D01*
X120058856Y-78505988D01*
X120111425Y-78554059D01*
X120146820Y-78609056D01*
X120160200Y-78663126D01*
X120146722Y-78708411D01*
X120103657Y-78753319D01*
X120021575Y-78811154D01*
X119915759Y-78864735D01*
X119910260Y-78867099D01*
X119816000Y-78901066D01*
X119733593Y-78914048D01*
X119653655Y-78905057D01*
X119566797Y-78873108D01*
X119463635Y-78817212D01*
X119408957Y-78784083D01*
X119231526Y-78668880D01*
X119065844Y-78549711D01*
X118917311Y-78430825D01*
X118791325Y-78316472D01*
X118693287Y-78210900D01*
X118656567Y-78164735D01*
X118628377Y-78121611D01*
X118617085Y-78087648D01*
X118618241Y-78053513D01*
X118619078Y-78048390D01*
X118635351Y-77990963D01*
X118665375Y-77954905D01*
X118716336Y-77935054D01*
X118795424Y-77926246D01*
X118911897Y-77920142D01*
X118812070Y-77857910D01*
X118777689Y-77835154D01*
X118721407Y-77786330D01*
X118692361Y-77737942D01*
X118687727Y-77724054D01*
X118681075Y-77696141D01*
X118683647Y-77674554D01*
X118699233Y-77658158D01*
X118731625Y-77645815D01*
X118784614Y-77636390D01*
X118861991Y-77628748D01*
X118967550Y-77621751D01*
X119105079Y-77614263D01*
X119213430Y-77608412D01*
X119313715Y-77602368D01*
X119384179Y-77597049D01*
X119428072Y-77592070D01*
X119448644Y-77587044D01*
X119449143Y-77581584D01*
X119432821Y-77575305D01*
X119396771Y-77566525D01*
X119328937Y-77553603D01*
X119257029Y-77542892D01*
X119222570Y-77537852D01*
X119137883Y-77516696D01*
X119082976Y-77487918D01*
X119059352Y-77453276D01*
X119068518Y-77414527D01*
X119111973Y-77373426D01*
X119197255Y-77324490D01*
X119337774Y-77269367D01*
X119498558Y-77229077D01*
X119672077Y-77204580D01*
X119850795Y-77196836D01*
X120027177Y-77206808D01*
G37*
G36*
X114533322Y-80931029D02*
G01*
X114535401Y-80955647D01*
X114534696Y-81074811D01*
X114530933Y-81117510D01*
X114496127Y-81313870D01*
X114435004Y-81498740D01*
X114350057Y-81667815D01*
X114243780Y-81816791D01*
X114118668Y-81941364D01*
X113977211Y-82037230D01*
X113882468Y-82082880D01*
X113756841Y-82129761D01*
X113629779Y-82164026D01*
X113506839Y-82185071D01*
X113393577Y-82192293D01*
X113295554Y-82185091D01*
X113218324Y-82162864D01*
X113167446Y-82125007D01*
X113150833Y-82107875D01*
X113125835Y-82100513D01*
X113096224Y-82116508D01*
X113057836Y-82158557D01*
X113006510Y-82229362D01*
X113004729Y-82231951D01*
X112958268Y-82298360D01*
X112912524Y-82361984D01*
X112877156Y-82409381D01*
X112856211Y-82434679D01*
X112830712Y-82455753D01*
X112821300Y-82445245D01*
X112828075Y-82403464D01*
X112851141Y-82330717D01*
X112866971Y-82284402D01*
X112893529Y-82201019D01*
X112914919Y-82127442D01*
X112940859Y-82030895D01*
X112829168Y-81925805D01*
X112814226Y-81911459D01*
X112772155Y-81863526D01*
X113239054Y-81863526D01*
X113239587Y-81885232D01*
X113264139Y-81892293D01*
X113317292Y-81895767D01*
X113390464Y-81895508D01*
X113475666Y-81891975D01*
X113564910Y-81885630D01*
X113650207Y-81876930D01*
X113723571Y-81866336D01*
X113777014Y-81854307D01*
X113894693Y-81808117D01*
X114036095Y-81724568D01*
X114161599Y-81618637D01*
X114266241Y-81495450D01*
X114345057Y-81360135D01*
X114393085Y-81217820D01*
X114407149Y-81138913D01*
X114418614Y-80937041D01*
X114396944Y-80733116D01*
X114343017Y-80532833D01*
X114257713Y-80341883D01*
X114230502Y-80295617D01*
X114187119Y-80229316D01*
X114137378Y-80158813D01*
X114085664Y-80089762D01*
X114036365Y-80027815D01*
X113993868Y-79978627D01*
X113962556Y-79947850D01*
X113946818Y-79941141D01*
X113941903Y-79954419D01*
X113928476Y-79997307D01*
X113908447Y-80064210D01*
X113883518Y-80149430D01*
X113855392Y-80247269D01*
X113822619Y-80360325D01*
X113730026Y-80658561D01*
X113633108Y-80937539D01*
X113527358Y-81209066D01*
X113408266Y-81484945D01*
X113271328Y-81776981D01*
X113252396Y-81820485D01*
X113239054Y-81863526D01*
X112772155Y-81863526D01*
X112693755Y-81774202D01*
X112581309Y-81607433D01*
X112480598Y-81416575D01*
X112460268Y-81372114D01*
X112412628Y-81257300D01*
X112378097Y-81151280D01*
X112354003Y-81042924D01*
X112337675Y-80921108D01*
X112326436Y-80774700D01*
X112320346Y-80631196D01*
X112321887Y-80489811D01*
X112334081Y-80365472D01*
X112358454Y-80248588D01*
X112396532Y-80129569D01*
X112449841Y-79998820D01*
X112454706Y-79987796D01*
X112490413Y-79909820D01*
X112521980Y-79845677D01*
X112546138Y-79801748D01*
X112559620Y-79784411D01*
X112578009Y-79792093D01*
X112613940Y-79819666D01*
X112658324Y-79860965D01*
X112739354Y-79942310D01*
X112696605Y-79998877D01*
X112640980Y-80092089D01*
X112591822Y-80225869D01*
X112558798Y-80384945D01*
X112542691Y-80565392D01*
X112544281Y-80763283D01*
X112545103Y-80778099D01*
X112572058Y-81008154D01*
X112624199Y-81216356D01*
X112700976Y-81400994D01*
X112801836Y-81560359D01*
X112826059Y-81589693D01*
X112872199Y-81639641D01*
X112923246Y-81690145D01*
X112971965Y-81734434D01*
X113011123Y-81765732D01*
X113033485Y-81777266D01*
X113040625Y-81769981D01*
X113061850Y-81735148D01*
X113093486Y-81676160D01*
X113133013Y-81598125D01*
X113177911Y-81506148D01*
X113225660Y-81405333D01*
X113273739Y-81300786D01*
X113319630Y-81197614D01*
X113343191Y-81141269D01*
X113382306Y-81040482D01*
X113425735Y-80921792D01*
X113471987Y-80789888D01*
X113519573Y-80649462D01*
X113567000Y-80505204D01*
X113612780Y-80361807D01*
X113655420Y-80223962D01*
X113693431Y-80096359D01*
X113725322Y-79983690D01*
X113749602Y-79890647D01*
X113764780Y-79821920D01*
X113769366Y-79782203D01*
X113763121Y-79764953D01*
X113740095Y-79748272D01*
X113696501Y-79734702D01*
X113628533Y-79723433D01*
X113532381Y-79713654D01*
X113404236Y-79704557D01*
X113317431Y-79699685D01*
X113228761Y-79696799D01*
X113162401Y-79698130D01*
X113110800Y-79703896D01*
X113066406Y-79714317D01*
X113020889Y-79725976D01*
X112957816Y-79730271D01*
X112909053Y-79711494D01*
X112864498Y-79667293D01*
X112822268Y-79614113D01*
X112858103Y-79581849D01*
X112877608Y-79568540D01*
X112937937Y-79543619D01*
X113022351Y-79520507D01*
X113123184Y-79500839D01*
X113232770Y-79486252D01*
X113343441Y-79478377D01*
X113390312Y-79476951D01*
X113465249Y-79477555D01*
X113526058Y-79484627D01*
X113587128Y-79500354D01*
X113662847Y-79526924D01*
X113810080Y-79581766D01*
X113844708Y-79478816D01*
X113853615Y-79453210D01*
X113887774Y-79372949D01*
X113920927Y-79325666D01*
X113954476Y-79309192D01*
X113961426Y-79310879D01*
X113970911Y-79325957D01*
X113977791Y-79360990D01*
X113982916Y-79421260D01*
X113987137Y-79512048D01*
X113994809Y-79716214D01*
X114087925Y-79819710D01*
X114181243Y-79931647D01*
X114282064Y-80074280D01*
X114363871Y-80215849D01*
X114421001Y-80347386D01*
X114429533Y-80372736D01*
X114468838Y-80512223D01*
X114500740Y-80663263D01*
X114523505Y-80814767D01*
X114533322Y-80931029D01*
G37*
G36*
X111434492Y-76662962D02*
G01*
X111479009Y-76683141D01*
X111582388Y-76734841D01*
X111679516Y-76788920D01*
X111705119Y-76804327D01*
X111755293Y-76837608D01*
X111797240Y-76872639D01*
X111837861Y-76916506D01*
X111884064Y-76976296D01*
X111942750Y-77059094D01*
X112035376Y-77195592D01*
X112192989Y-77448249D01*
X112325300Y-77692181D01*
X112435580Y-77934232D01*
X112527104Y-78181248D01*
X112603145Y-78440070D01*
X112647936Y-78626605D01*
X112687265Y-78828255D01*
X112713156Y-79012435D01*
X112725395Y-79176091D01*
X112723768Y-79316173D01*
X112708063Y-79429628D01*
X112678068Y-79513405D01*
X112660466Y-79545532D01*
X112644071Y-79575457D01*
X112737144Y-79673435D01*
X112756999Y-79694460D01*
X112843585Y-79790420D01*
X112912584Y-79875891D01*
X112972381Y-79961132D01*
X112976868Y-79968268D01*
X112982103Y-79982715D01*
X112967965Y-79977011D01*
X112932869Y-79949968D01*
X112875228Y-79900398D01*
X112793453Y-79827114D01*
X112569126Y-79623776D01*
X112182258Y-79469259D01*
X112145592Y-79454680D01*
X112002379Y-79398626D01*
X111840482Y-79336363D01*
X111671559Y-79272319D01*
X111507269Y-79210925D01*
X111359270Y-79156608D01*
X111307959Y-79137883D01*
X111158778Y-79082363D01*
X111079505Y-79052189D01*
X111947663Y-79052189D01*
X112241517Y-79316461D01*
X112279538Y-79350439D01*
X112363589Y-79423985D01*
X112438129Y-79487092D01*
X112498947Y-79536314D01*
X112541832Y-79568202D01*
X112562573Y-79579309D01*
X112577169Y-79574821D01*
X112599238Y-79548741D01*
X112595404Y-79518854D01*
X112566116Y-79471643D01*
X112514968Y-79414339D01*
X112446819Y-79351106D01*
X112366527Y-79286108D01*
X112278952Y-79223508D01*
X112188952Y-79167469D01*
X112101384Y-79122155D01*
X111947663Y-79052189D01*
X111079505Y-79052189D01*
X111001445Y-79022477D01*
X110846443Y-78962280D01*
X110704255Y-78905827D01*
X110585362Y-78857177D01*
X110565853Y-78849040D01*
X110467372Y-78808355D01*
X110389437Y-78775230D01*
X110327602Y-78745486D01*
X110277417Y-78714947D01*
X110234434Y-78679437D01*
X110194207Y-78634778D01*
X110152285Y-78576793D01*
X110104222Y-78501306D01*
X110045570Y-78404142D01*
X109971878Y-78281121D01*
X109970742Y-78279233D01*
X109847710Y-78081098D01*
X109734313Y-77911839D01*
X109627257Y-77766997D01*
X109523249Y-77642117D01*
X109418997Y-77532737D01*
X109373226Y-77489731D01*
X109280140Y-77409013D01*
X109174768Y-77324006D01*
X109064789Y-77240467D01*
X108957879Y-77164158D01*
X108861711Y-77100835D01*
X108783965Y-77056261D01*
X108738959Y-77035172D01*
X108593127Y-76982491D01*
X108428791Y-76941863D01*
X108257956Y-76915878D01*
X108092625Y-76907123D01*
X108006623Y-76907517D01*
X108266992Y-76614956D01*
X108342607Y-76529463D01*
X108465098Y-76387864D01*
X108564902Y-76267592D01*
X108643885Y-76166209D01*
X108703911Y-76081274D01*
X108746847Y-76010348D01*
X108774556Y-75950992D01*
X108780283Y-75935497D01*
X108804362Y-75856700D01*
X108823704Y-75765805D01*
X108838867Y-75658080D01*
X108850412Y-75528798D01*
X108858894Y-75373227D01*
X108864875Y-75186639D01*
X108874540Y-74786301D01*
X108912143Y-74823966D01*
X108939585Y-74846779D01*
X108991489Y-74882672D01*
X109051339Y-74919011D01*
X109079241Y-74935184D01*
X109149988Y-74978086D01*
X109231361Y-75029196D01*
X109310754Y-75080659D01*
X109422459Y-75151250D01*
X109534111Y-75213548D01*
X109650271Y-75268644D01*
X109781122Y-75321350D01*
X109936851Y-75376477D01*
X110029307Y-75408289D01*
X110144737Y-75449200D01*
X110255895Y-75489692D01*
X110347904Y-75524410D01*
X110445468Y-75560839D01*
X110561635Y-75601030D01*
X110673308Y-75636602D01*
X110773300Y-75665384D01*
X110854424Y-75685209D01*
X110909495Y-75693908D01*
X110915467Y-75694358D01*
X110946139Y-75702301D01*
X110962026Y-75722621D01*
X110963490Y-75760531D01*
X110950898Y-75821243D01*
X110924613Y-75909968D01*
X110914553Y-75942286D01*
X110891405Y-76024006D01*
X110875707Y-76097505D01*
X110866642Y-76171554D01*
X110863394Y-76254928D01*
X110865144Y-76356397D01*
X110871076Y-76484735D01*
X110871895Y-76499626D01*
X110888651Y-76706417D01*
X110914408Y-76884354D01*
X110950201Y-77039130D01*
X110997067Y-77176432D01*
X111014903Y-77225738D01*
X111027449Y-77273731D01*
X111028206Y-77300272D01*
X111024941Y-77308372D01*
X111031798Y-77306928D01*
X111035253Y-77306332D01*
X111055198Y-77323195D01*
X111086025Y-77362728D01*
X111122649Y-77418676D01*
X111153877Y-77469330D01*
X111190975Y-77526297D01*
X111212290Y-77552763D01*
X111218796Y-77549232D01*
X111211465Y-77516208D01*
X111191266Y-77454193D01*
X111164064Y-77371859D01*
X111123810Y-77237420D01*
X111087367Y-77101091D01*
X111056379Y-76969993D01*
X111032489Y-76851248D01*
X111017337Y-76751980D01*
X111012568Y-76679310D01*
X111013025Y-76670192D01*
X111118639Y-76670192D01*
X111121890Y-76691295D01*
X111127413Y-76693809D01*
X111133182Y-76678753D01*
X111131397Y-76669357D01*
X111120641Y-76667461D01*
X111118639Y-76670192D01*
X111013025Y-76670192D01*
X111015759Y-76615675D01*
X111022234Y-76565072D01*
X111030563Y-76539252D01*
X111057685Y-76533158D01*
X111111174Y-76541747D01*
X111185461Y-76563121D01*
X111275135Y-76595199D01*
X111374788Y-76635900D01*
X111434492Y-76662962D01*
G37*
G36*
X110925401Y-70162424D02*
G01*
X110926918Y-70192560D01*
X110933659Y-70368158D01*
X110935244Y-70520259D01*
X110931250Y-70658258D01*
X110924731Y-70745163D01*
X110921251Y-70791548D01*
X110904824Y-70929522D01*
X110881543Y-71081574D01*
X110880911Y-71085217D01*
X110875174Y-71118284D01*
X110820264Y-71353198D01*
X110744214Y-71574321D01*
X110736322Y-71591071D01*
X110649571Y-71775194D01*
X110538885Y-71949365D01*
X110470838Y-72040972D01*
X110596544Y-72022612D01*
X110643921Y-72014466D01*
X110785663Y-71978632D01*
X110935411Y-71926713D01*
X111082230Y-71863262D01*
X111215185Y-71792832D01*
X111323339Y-71719979D01*
X111324852Y-71718788D01*
X111356720Y-71696676D01*
X111378445Y-71697696D01*
X111407022Y-71722325D01*
X111419592Y-71736037D01*
X111454465Y-71779600D01*
X111498975Y-71839528D01*
X111546539Y-71907099D01*
X111553636Y-71917411D01*
X111693410Y-72101032D01*
X111839637Y-72258119D01*
X111988058Y-72384066D01*
X112012645Y-72402344D01*
X112064587Y-72442546D01*
X112100757Y-72472854D01*
X112114485Y-72487794D01*
X112106368Y-72509504D01*
X112081015Y-72554251D01*
X112042883Y-72614524D01*
X111996529Y-72683550D01*
X111946509Y-72754553D01*
X111897382Y-72820761D01*
X111853706Y-72875399D01*
X111844820Y-72885931D01*
X111791245Y-72950565D01*
X111741515Y-73012215D01*
X111705392Y-73058812D01*
X111683987Y-73087866D01*
X111668734Y-73111476D01*
X111673855Y-73114089D01*
X111698602Y-73100259D01*
X111747444Y-73068721D01*
X111828765Y-73010239D01*
X111920937Y-72939027D01*
X112017289Y-72860665D01*
X112111154Y-72780737D01*
X112195863Y-72704826D01*
X112264749Y-72638517D01*
X112311143Y-72587391D01*
X112364601Y-72519730D01*
X112245479Y-72399872D01*
X112225776Y-72379804D01*
X112145599Y-72293494D01*
X112067370Y-72202576D01*
X111994279Y-72111467D01*
X111929516Y-72024584D01*
X111876274Y-71946340D01*
X111837743Y-71881155D01*
X111817112Y-71833442D01*
X111817573Y-71807620D01*
X111825727Y-71805602D01*
X111863205Y-71804672D01*
X111923308Y-71806758D01*
X111997825Y-71811675D01*
X112036050Y-71814257D01*
X112228444Y-71811373D01*
X112400857Y-71779694D01*
X112555399Y-71718429D01*
X112694183Y-71626788D01*
X112819318Y-71503980D01*
X112855939Y-71459583D01*
X112904516Y-71389131D01*
X112925915Y-71334520D01*
X112921183Y-71292171D01*
X112891370Y-71258507D01*
X112890477Y-71257857D01*
X112861440Y-71234563D01*
X112859295Y-71218163D01*
X112882003Y-71194805D01*
X112913050Y-71159714D01*
X112944676Y-71112365D01*
X112945999Y-71109993D01*
X112969703Y-71075486D01*
X112988311Y-71060786D01*
X112990660Y-71061843D01*
X113003871Y-71085214D01*
X113021429Y-71133008D01*
X113040193Y-71196981D01*
X113042189Y-71204458D01*
X113067704Y-71292985D01*
X113099003Y-71392752D01*
X113129774Y-71483560D01*
X113159676Y-71576075D01*
X113196447Y-71709307D01*
X113233562Y-71862079D01*
X113269058Y-72025780D01*
X113300975Y-72191793D01*
X113327352Y-72351506D01*
X113334135Y-72401377D01*
X113349208Y-72557051D01*
X113358933Y-72733158D01*
X113362825Y-72918679D01*
X113360399Y-73102602D01*
X113361084Y-73118757D01*
X113369712Y-73136945D01*
X113393296Y-73152334D01*
X113438431Y-73168730D01*
X113511715Y-73189944D01*
X113579466Y-73206963D01*
X113773441Y-73236532D01*
X113963854Y-73238362D01*
X114144055Y-73212705D01*
X114307382Y-73159813D01*
X114324422Y-73151908D01*
X114392710Y-73114640D01*
X114470788Y-73065880D01*
X114544904Y-73014067D01*
X114595820Y-72975029D01*
X114663459Y-72920894D01*
X114730300Y-72865348D01*
X114790886Y-72813113D01*
X114839761Y-72768911D01*
X114871468Y-72737469D01*
X114880549Y-72723507D01*
X114878763Y-72723204D01*
X114852770Y-72727042D01*
X114802979Y-72737507D01*
X114738044Y-72752819D01*
X114702276Y-72760828D01*
X114596481Y-72778408D01*
X114474697Y-72792057D01*
X114345466Y-72801403D01*
X114217331Y-72806075D01*
X114098834Y-72805697D01*
X113998516Y-72799897D01*
X113924922Y-72788304D01*
X113872587Y-72773328D01*
X113770658Y-72734781D01*
X113683231Y-72689513D01*
X113620874Y-72642587D01*
X113617174Y-72638859D01*
X113594602Y-72610571D01*
X113599598Y-72598410D01*
X113633852Y-72601900D01*
X113699059Y-72620565D01*
X113783297Y-72638612D01*
X113900563Y-72645261D01*
X114024229Y-72636368D01*
X114140444Y-72612197D01*
X114143932Y-72611146D01*
X114204258Y-72588576D01*
X114278888Y-72555063D01*
X114352498Y-72517454D01*
X114353951Y-72516654D01*
X114423965Y-72476063D01*
X114470436Y-72444887D01*
X114491368Y-72425011D01*
X114484762Y-72418321D01*
X114448622Y-72426701D01*
X114442132Y-72428738D01*
X114351592Y-72450413D01*
X114249193Y-72465093D01*
X114144250Y-72472433D01*
X114046080Y-72472083D01*
X113963997Y-72463696D01*
X113907317Y-72446923D01*
X113902591Y-72441956D01*
X113920014Y-72434214D01*
X113970945Y-72427422D01*
X114056527Y-72421383D01*
X114190541Y-72405926D01*
X114512076Y-72405926D01*
X114521483Y-72414395D01*
X114529952Y-72404989D01*
X114520546Y-72396519D01*
X114512076Y-72405926D01*
X114190541Y-72405926D01*
X114223167Y-72402163D01*
X114392571Y-72358233D01*
X114554310Y-72288166D01*
X114712431Y-72189804D01*
X114870978Y-72060988D01*
X115033995Y-71899559D01*
X115040258Y-71892867D01*
X115099875Y-71830890D01*
X115151422Y-71780221D01*
X115189572Y-71745929D01*
X115208996Y-71733082D01*
X115226760Y-71741755D01*
X115227825Y-71771911D01*
X115208137Y-71815820D01*
X115200648Y-71830335D01*
X115180893Y-71878205D01*
X115156434Y-71945337D01*
X115130909Y-72022014D01*
X115127400Y-72032982D01*
X115073797Y-72180939D01*
X115015590Y-72302181D01*
X114963086Y-72382289D01*
X114948053Y-72405225D01*
X114866461Y-72498587D01*
X114764335Y-72602033D01*
X114853057Y-72584854D01*
X114899765Y-72575149D01*
X114979085Y-72557096D01*
X115056533Y-72538036D01*
X115114441Y-72524220D01*
X115158965Y-72515822D01*
X115178724Y-72515092D01*
X115177714Y-72533982D01*
X115167843Y-72577536D01*
X115151234Y-72636231D01*
X115108765Y-72757841D01*
X115028217Y-72922531D01*
X114926645Y-73062206D01*
X114800811Y-73180299D01*
X114647476Y-73280240D01*
X114463405Y-73365464D01*
X114439745Y-73374551D01*
X114255029Y-73430489D01*
X114067947Y-73462435D01*
X113884355Y-73470468D01*
X113710108Y-73454661D01*
X113551060Y-73415090D01*
X113413068Y-73351832D01*
X113333955Y-73304512D01*
X113271493Y-73526900D01*
X113244897Y-73615487D01*
X113211824Y-73714228D01*
X113184049Y-73788718D01*
X113178991Y-73802283D01*
X113150659Y-73867639D01*
X113140597Y-73887839D01*
X113077430Y-74008000D01*
X113004380Y-74137961D01*
X112925757Y-74270750D01*
X112882483Y-74340436D01*
X112845871Y-74399394D01*
X112769036Y-74516920D01*
X112699561Y-74616358D01*
X112641757Y-74690734D01*
X112602433Y-74741786D01*
X112566035Y-74799171D01*
X112545861Y-74843816D01*
X112536771Y-74882300D01*
X112524548Y-74978987D01*
X112524994Y-75075327D01*
X112537170Y-75162738D01*
X112560146Y-75232643D01*
X112592985Y-75276458D01*
X112639491Y-75293822D01*
X112703034Y-75286960D01*
X112774102Y-75256601D01*
X112847140Y-75206612D01*
X112916592Y-75140858D01*
X112976903Y-75063206D01*
X113022518Y-74977523D01*
X113023642Y-74974819D01*
X113055292Y-74915668D01*
X113087970Y-74882738D01*
X113117392Y-74880415D01*
X113126008Y-74889714D01*
X113137211Y-74931330D01*
X113139736Y-74997741D01*
X113133558Y-75082260D01*
X113118646Y-75178202D01*
X113106638Y-75260766D01*
X113098466Y-75362680D01*
X113096975Y-75455555D01*
X113097117Y-75546412D01*
X113085471Y-75711549D01*
X113060180Y-75869839D01*
X113023086Y-76007509D01*
X113021680Y-76011549D01*
X112983347Y-76105354D01*
X112934480Y-76202653D01*
X112880569Y-76294093D01*
X112827114Y-76370319D01*
X112779607Y-76421978D01*
X112752143Y-76442380D01*
X112680876Y-76483843D01*
X112594022Y-76524997D01*
X112504082Y-76560162D01*
X112423560Y-76583663D01*
X112348563Y-76600177D01*
X112438449Y-76663878D01*
X112475777Y-76691938D01*
X112538641Y-76744746D01*
X112589029Y-76793380D01*
X112590792Y-76795303D01*
X112641241Y-76859105D01*
X112693744Y-76939172D01*
X112742079Y-77024545D01*
X112780022Y-77104263D01*
X112801354Y-77167369D01*
X112809678Y-77198071D01*
X112827602Y-77228691D01*
X112861237Y-77255048D01*
X112919341Y-77285943D01*
X113088569Y-77385191D01*
X113256878Y-77515748D01*
X113409918Y-77667239D01*
X113539131Y-77832122D01*
X113553379Y-77853406D01*
X113592519Y-77915467D01*
X113627043Y-77977698D01*
X113658822Y-78045042D01*
X113689732Y-78122443D01*
X113721646Y-78214844D01*
X113756439Y-78327191D01*
X113795984Y-78464428D01*
X113842156Y-78631495D01*
X113863144Y-78707110D01*
X113882109Y-78772839D01*
X113895925Y-78817833D01*
X113902543Y-78835165D01*
X113914439Y-78843655D01*
X113949805Y-78869831D01*
X114002579Y-78909264D01*
X114066751Y-78957474D01*
X114171031Y-79040023D01*
X114291220Y-79142129D01*
X114416321Y-79254122D01*
X114537878Y-79368250D01*
X114647440Y-79476756D01*
X114736553Y-79571891D01*
X114759299Y-79597432D01*
X114815721Y-79659783D01*
X114866106Y-79714197D01*
X114901693Y-79751162D01*
X114904269Y-79753741D01*
X114974260Y-79840026D01*
X115043538Y-79953920D01*
X115108674Y-80087636D01*
X115166233Y-80233385D01*
X115212783Y-80383381D01*
X115244892Y-80529837D01*
X115257463Y-80632685D01*
X115260382Y-80829551D01*
X115239091Y-81036214D01*
X115194293Y-81242747D01*
X115184876Y-81277015D01*
X115168420Y-81338730D01*
X115157755Y-81381361D01*
X115154847Y-81397223D01*
X115171019Y-81388509D01*
X115211865Y-81362859D01*
X115271900Y-81323805D01*
X115345823Y-81274913D01*
X115428335Y-81219741D01*
X115514137Y-81161851D01*
X115597929Y-81104804D01*
X115674412Y-81052159D01*
X115738286Y-81007479D01*
X115784252Y-80974323D01*
X115854360Y-80921071D01*
X116056952Y-80753633D01*
X116255394Y-80568278D01*
X116453582Y-80361002D01*
X116655413Y-80127806D01*
X116864783Y-79864687D01*
X116893413Y-79827214D01*
X116959934Y-79739251D01*
X117035378Y-79638555D01*
X117116367Y-79529722D01*
X117199521Y-79417349D01*
X117281462Y-79306032D01*
X117358811Y-79200367D01*
X117428190Y-79104952D01*
X117486218Y-79024380D01*
X117529517Y-78963251D01*
X117554708Y-78926161D01*
X117564530Y-78903346D01*
X117577053Y-78836607D01*
X117584037Y-78735826D01*
X117585482Y-78601845D01*
X117581385Y-78435503D01*
X117571744Y-78237640D01*
X117556559Y-78009097D01*
X117549608Y-77913448D01*
X117539216Y-77759466D01*
X117532521Y-77635252D01*
X117529828Y-77536968D01*
X117531444Y-77460772D01*
X117537673Y-77402828D01*
X117548821Y-77359296D01*
X117565193Y-77326339D01*
X117587095Y-77300117D01*
X117614833Y-77276791D01*
X117617557Y-77274807D01*
X117665319Y-77248624D01*
X117733076Y-77220733D01*
X117807090Y-77196846D01*
X117842334Y-77186975D01*
X117956629Y-77153122D01*
X118076794Y-77115201D01*
X118196118Y-77075536D01*
X118307887Y-77036455D01*
X118405388Y-77000286D01*
X118481909Y-76969355D01*
X118530737Y-76945988D01*
X118601457Y-76898716D01*
X118704937Y-76810289D01*
X118810379Y-76700667D01*
X118911246Y-76576806D01*
X119000999Y-76445664D01*
X119044247Y-76377244D01*
X119104104Y-76290881D01*
X119155483Y-76231972D01*
X119202920Y-76197637D01*
X119250948Y-76184997D01*
X119304103Y-76191172D01*
X119366920Y-76213281D01*
X119369023Y-76214177D01*
X119444828Y-76264124D01*
X119499789Y-76340761D01*
X119535525Y-76446332D01*
X119539828Y-76474097D01*
X119539088Y-76564171D01*
X119522910Y-76672818D01*
X119493658Y-76791397D01*
X119453698Y-76911267D01*
X119405394Y-77023789D01*
X119351108Y-77120319D01*
X119316758Y-77165518D01*
X119270418Y-77202438D01*
X119204069Y-77231074D01*
X119178682Y-77240594D01*
X119110432Y-77278142D01*
X119060386Y-77330648D01*
X119053099Y-77340749D01*
X119003431Y-77407751D01*
X118966856Y-77451042D01*
X118937221Y-77475950D01*
X118908372Y-77487804D01*
X118874159Y-77491931D01*
X118821472Y-77497522D01*
X118735646Y-77518683D01*
X118664795Y-77551004D01*
X118619263Y-77590487D01*
X118613614Y-77599072D01*
X118594858Y-77651182D01*
X118594585Y-77722020D01*
X118595945Y-77742195D01*
X118593087Y-77799403D01*
X118580835Y-77836386D01*
X118571134Y-77847484D01*
X118552602Y-77854794D01*
X118521976Y-77847982D01*
X118469281Y-77826131D01*
X118465068Y-77824305D01*
X118412801Y-77805367D01*
X118347860Y-77786340D01*
X118279613Y-77769378D01*
X118217429Y-77756635D01*
X118170677Y-77750265D01*
X118148724Y-77752424D01*
X118153130Y-77759432D01*
X118182030Y-77779511D01*
X118230894Y-77807846D01*
X118292374Y-77840432D01*
X118359122Y-77873263D01*
X118423790Y-77902338D01*
X118468133Y-77921920D01*
X118504393Y-77942647D01*
X118518038Y-77961487D01*
X118515528Y-77984208D01*
X118510530Y-78028141D01*
X118515446Y-78081161D01*
X118519317Y-78115324D01*
X118508935Y-78154504D01*
X118475644Y-78199757D01*
X118465775Y-78211415D01*
X118426334Y-78269447D01*
X118404815Y-78330943D01*
X118398901Y-78406109D01*
X118406273Y-78505148D01*
X118413100Y-78566232D01*
X118416109Y-78611737D01*
X118412222Y-78635433D01*
X118399948Y-78644767D01*
X118377793Y-78647188D01*
X118313527Y-78662809D01*
X118236279Y-78708668D01*
X118161535Y-78779030D01*
X118095046Y-78868337D01*
X118042558Y-78971039D01*
X118013653Y-79044505D01*
X117995392Y-79099407D01*
X117994275Y-79123450D01*
X118011446Y-79117517D01*
X118048052Y-79082487D01*
X118105236Y-79019240D01*
X118168180Y-78950940D01*
X118240995Y-78878685D01*
X118309306Y-78817360D01*
X118366945Y-78772462D01*
X118407745Y-78749494D01*
X118421641Y-78757315D01*
X118452860Y-78788866D01*
X118495461Y-78839224D01*
X118544436Y-78902773D01*
X118554366Y-78916085D01*
X118620903Y-78998861D01*
X118677364Y-79057558D01*
X118720252Y-79088483D01*
X118724087Y-79090174D01*
X118769519Y-79107378D01*
X118832001Y-79128079D01*
X118901348Y-79149264D01*
X118967372Y-79167922D01*
X119019886Y-79181042D01*
X119048708Y-79185611D01*
X119049808Y-79185158D01*
X119039166Y-79172521D01*
X119005681Y-79146141D01*
X118955363Y-79110831D01*
X118886242Y-79057709D01*
X118800243Y-78978630D01*
X118715126Y-78889127D01*
X118640481Y-78799358D01*
X118585900Y-78719484D01*
X118549439Y-78650654D01*
X118506997Y-78552637D01*
X118477201Y-78460959D01*
X118464202Y-78386967D01*
X118463451Y-78371204D01*
X118464865Y-78334597D01*
X118477411Y-78322315D01*
X118507301Y-78325499D01*
X118523388Y-78329566D01*
X118571400Y-78348084D01*
X118637367Y-78380579D01*
X118723576Y-78428342D01*
X118832313Y-78492670D01*
X118965862Y-78574857D01*
X119126511Y-78676198D01*
X119194114Y-78719239D01*
X119310221Y-78793491D01*
X119401023Y-78852574D01*
X119469810Y-78899186D01*
X119519872Y-78936023D01*
X119554499Y-78965784D01*
X119576983Y-78991164D01*
X119590612Y-79014861D01*
X119598678Y-79039573D01*
X119604468Y-79067994D01*
X119619412Y-79149004D01*
X119385623Y-79257530D01*
X119289953Y-79303193D01*
X119206134Y-79347466D01*
X119136292Y-79391070D01*
X119070203Y-79440449D01*
X118997640Y-79502049D01*
X118923443Y-79568383D01*
X118812118Y-79673194D01*
X118719505Y-79769411D01*
X118638870Y-79864689D01*
X118563478Y-79966685D01*
X118486594Y-80083058D01*
X118466597Y-80114436D01*
X118295787Y-80369518D01*
X118098463Y-80643634D01*
X117876415Y-80934491D01*
X117631433Y-81239796D01*
X117365308Y-81557261D01*
X117079827Y-81884590D01*
X117076765Y-81888036D01*
X116923035Y-82058947D01*
X116786515Y-82205978D01*
X116662668Y-82333544D01*
X116546960Y-82446055D01*
X116434856Y-82547925D01*
X116321819Y-82643567D01*
X116203315Y-82737394D01*
X116175626Y-82758537D01*
X116012073Y-82878217D01*
X115838195Y-82997623D01*
X115660244Y-83112921D01*
X115484468Y-83220268D01*
X115317118Y-83315829D01*
X115164446Y-83395763D01*
X115032701Y-83456235D01*
X114996692Y-83470936D01*
X114943518Y-83490361D01*
X114895140Y-83502803D01*
X114841408Y-83509940D01*
X114772175Y-83513450D01*
X114677291Y-83515011D01*
X114590692Y-83514599D01*
X114509134Y-83511693D01*
X114445170Y-83506752D01*
X114407895Y-83500276D01*
X114382685Y-83492700D01*
X114362740Y-83494381D01*
X114359421Y-83515890D01*
X114359538Y-83517431D01*
X114366013Y-83531482D01*
X114385961Y-83542809D01*
X114424929Y-83552889D01*
X114488462Y-83563199D01*
X114582105Y-83575219D01*
X114744872Y-83592877D01*
X115082930Y-83617544D01*
X115441961Y-83628226D01*
X115824960Y-83624925D01*
X116234924Y-83607642D01*
X116674851Y-83576380D01*
X116686974Y-83575357D01*
X116897962Y-83555906D01*
X117096614Y-83534510D01*
X117279021Y-83511734D01*
X117441280Y-83488145D01*
X117579486Y-83464308D01*
X117689731Y-83440787D01*
X117768113Y-83418149D01*
X117813990Y-83393125D01*
X117868906Y-83335932D01*
X117918505Y-83249773D01*
X117963284Y-83133304D01*
X118003737Y-82985180D01*
X118040360Y-82804057D01*
X118073647Y-82588592D01*
X118102061Y-82401560D01*
X118132458Y-82242318D01*
X118164243Y-82113849D01*
X118197002Y-82017829D01*
X118230320Y-81955934D01*
X118238145Y-81946020D01*
X118293572Y-81890718D01*
X118372609Y-81831801D01*
X118477422Y-81768034D01*
X118610176Y-81698182D01*
X118773035Y-81621013D01*
X118968166Y-81535290D01*
X119089959Y-81482542D01*
X119236802Y-81416583D01*
X119367118Y-81355318D01*
X119477552Y-81300427D01*
X119564743Y-81253595D01*
X119625334Y-81216500D01*
X119655967Y-81190826D01*
X119673705Y-81166050D01*
X119708391Y-81116051D01*
X119753040Y-81050764D01*
X119802294Y-80977982D01*
X119918631Y-80805169D01*
X120012119Y-80805665D01*
X120105607Y-80806161D01*
X120159342Y-80901930D01*
X120163980Y-80910323D01*
X120203191Y-81002513D01*
X120218892Y-81097649D01*
X120220274Y-81131983D01*
X120217488Y-81175692D01*
X120205476Y-81216739D01*
X120180615Y-81265885D01*
X120139276Y-81333893D01*
X120094835Y-81401660D01*
X119994033Y-81532291D01*
X119882381Y-81644223D01*
X119753650Y-81742518D01*
X119601610Y-81832237D01*
X119420032Y-81918444D01*
X119362869Y-81942086D01*
X119307599Y-81960345D01*
X119250901Y-81971939D01*
X119181319Y-81979135D01*
X119087394Y-81984197D01*
X119015039Y-81987767D01*
X118948306Y-81992053D01*
X118903099Y-81996136D01*
X118886544Y-81999478D01*
X118887290Y-82000645D01*
X118909583Y-82009885D01*
X118956152Y-82023284D01*
X119017913Y-82038753D01*
X119085784Y-82054207D01*
X119150684Y-82067557D01*
X119203531Y-82076718D01*
X119235243Y-82079603D01*
X119238932Y-82079278D01*
X119280058Y-82069900D01*
X119340667Y-82050646D01*
X119409044Y-82025187D01*
X119451409Y-82009155D01*
X119554461Y-81974290D01*
X119680601Y-81935381D01*
X119821991Y-81894545D01*
X119970795Y-81853892D01*
X120119175Y-81815539D01*
X120259296Y-81781599D01*
X120383320Y-81754185D01*
X120483410Y-81735410D01*
X120493041Y-81733862D01*
X120582244Y-81719887D01*
X120646591Y-81711733D01*
X120695693Y-81709505D01*
X120739164Y-81713311D01*
X120786620Y-81723258D01*
X120847674Y-81739452D01*
X120859471Y-81742692D01*
X120939519Y-81767839D01*
X120990094Y-81793829D01*
X121016400Y-81826756D01*
X121023636Y-81872714D01*
X121017005Y-81937794D01*
X120996915Y-82009006D01*
X120947402Y-82096013D01*
X120868092Y-82187277D01*
X120756736Y-82285807D01*
X120698244Y-82333874D01*
X120632752Y-82392386D01*
X120589593Y-82439435D01*
X120564331Y-82480099D01*
X120552533Y-82519453D01*
X120543565Y-82555626D01*
X120522823Y-82617130D01*
X120496325Y-82683014D01*
X120474794Y-82737212D01*
X120461965Y-82780650D01*
X120461701Y-82801338D01*
X120464190Y-82802707D01*
X120485641Y-82793000D01*
X120517327Y-82760199D01*
X120554069Y-82711643D01*
X120590686Y-82654667D01*
X120621998Y-82596609D01*
X120642824Y-82544806D01*
X120645041Y-82537460D01*
X120662870Y-82486888D01*
X120684682Y-82453158D01*
X120719990Y-82425665D01*
X120778307Y-82393809D01*
X120828260Y-82365744D01*
X120903795Y-82316845D01*
X120966638Y-82269287D01*
X121003985Y-82237969D01*
X121038643Y-82210185D01*
X121054363Y-82199360D01*
X121056299Y-82208221D01*
X121055011Y-82244016D01*
X121050186Y-82298325D01*
X121042860Y-82361451D01*
X121034070Y-82423689D01*
X121024853Y-82475335D01*
X121023900Y-82479341D01*
X121003107Y-82529072D01*
X120963674Y-82598337D01*
X120910207Y-82680608D01*
X120847316Y-82769357D01*
X120779604Y-82858054D01*
X120711681Y-82940171D01*
X120648152Y-83009180D01*
X120548944Y-83109186D01*
X120718484Y-83009516D01*
X120777843Y-82975408D01*
X120835094Y-82944368D01*
X120874097Y-82925458D01*
X120888654Y-82921867D01*
X120884996Y-82940393D01*
X120873465Y-82986861D01*
X120855905Y-83053663D01*
X120834205Y-83133459D01*
X120779126Y-83333031D01*
X120563554Y-83572137D01*
X120539556Y-83598866D01*
X120467194Y-83681544D01*
X120419717Y-83740019D01*
X120396708Y-83775086D01*
X120397744Y-83787533D01*
X120422405Y-83778151D01*
X120470270Y-83747732D01*
X120488426Y-83735520D01*
X120536442Y-83704019D01*
X120591052Y-83668854D01*
X120672796Y-83616738D01*
X120650890Y-83691005D01*
X120650712Y-83691608D01*
X120609946Y-83804073D01*
X120554288Y-83923112D01*
X120490913Y-84034805D01*
X120426997Y-84125236D01*
X120391528Y-84165441D01*
X120267997Y-84275991D01*
X120113974Y-84379362D01*
X119933154Y-84473771D01*
X119729228Y-84557434D01*
X119505891Y-84628569D01*
X119266833Y-84685392D01*
X119254871Y-84687791D01*
X119158942Y-84707446D01*
X119043566Y-84731627D01*
X118922206Y-84757491D01*
X118808324Y-84782197D01*
X118798226Y-84784404D01*
X118678742Y-84809629D01*
X118549322Y-84835616D01*
X118424904Y-84859429D01*
X118320428Y-84878128D01*
X118146353Y-84907792D01*
X117975014Y-84937588D01*
X117830389Y-84963686D01*
X117707854Y-84987098D01*
X117602779Y-85008830D01*
X117510539Y-85029896D01*
X117426507Y-85051305D01*
X117346053Y-85074066D01*
X117264553Y-85099191D01*
X117177377Y-85127689D01*
X117122007Y-85146126D01*
X116899202Y-85219734D01*
X116704209Y-85282985D01*
X116532234Y-85337273D01*
X116378484Y-85383993D01*
X116238163Y-85424541D01*
X116106475Y-85460308D01*
X115978629Y-85492690D01*
X115849827Y-85523082D01*
X115715277Y-85552876D01*
X115609789Y-85575037D01*
X115306136Y-85632521D01*
X115013780Y-85678640D01*
X114743363Y-85711654D01*
X114643311Y-85721440D01*
X114558579Y-85730564D01*
X114500723Y-85740822D01*
X114465202Y-85755652D01*
X114447473Y-85778491D01*
X114442995Y-85812777D01*
X114447225Y-85861948D01*
X114455622Y-85929441D01*
X114479355Y-86072618D01*
X114527925Y-86232501D01*
X114546456Y-86281656D01*
X114577495Y-86397494D01*
X114578527Y-86419611D01*
X114581946Y-86492939D01*
X114560034Y-86570343D01*
X114545887Y-86593060D01*
X114508123Y-86633948D01*
X114466199Y-86663591D01*
X114431911Y-86672577D01*
X114425029Y-86673326D01*
X114391712Y-86683446D01*
X114343821Y-86701815D01*
X114337212Y-86704491D01*
X114277926Y-86726109D01*
X114193088Y-86754522D01*
X114090415Y-86787369D01*
X113977626Y-86822289D01*
X113862440Y-86856922D01*
X113752574Y-86888908D01*
X113655746Y-86915887D01*
X113579675Y-86935497D01*
X113555058Y-86941101D01*
X113477289Y-86957027D01*
X113375203Y-86976371D01*
X113256489Y-86997808D01*
X113128834Y-87020014D01*
X112999928Y-87041664D01*
X112877459Y-87061434D01*
X112769116Y-87077999D01*
X112682586Y-87090036D01*
X112634259Y-87094942D01*
X112544854Y-87101215D01*
X112432800Y-87107098D01*
X112305393Y-87112381D01*
X112169932Y-87116859D01*
X112033719Y-87120324D01*
X111904050Y-87122570D01*
X111788226Y-87123391D01*
X111693545Y-87122579D01*
X111627306Y-87119927D01*
X111438076Y-87101729D01*
X111224422Y-87073608D01*
X110996572Y-87037324D01*
X110762852Y-86994500D01*
X110531591Y-86946759D01*
X110311113Y-86895725D01*
X110109746Y-86843019D01*
X109935818Y-86790266D01*
X109863167Y-86765340D01*
X109704065Y-86705687D01*
X109540738Y-86638312D01*
X109376962Y-86565245D01*
X109216510Y-86488519D01*
X109063156Y-86410161D01*
X108920673Y-86332204D01*
X108792836Y-86256678D01*
X108683418Y-86185615D01*
X108596194Y-86121044D01*
X108534936Y-86064996D01*
X108503420Y-86019503D01*
X108502793Y-86017889D01*
X108493041Y-85988218D01*
X108492283Y-85962231D01*
X108494309Y-85956700D01*
X108770549Y-85956700D01*
X108772855Y-85960945D01*
X108799718Y-85982872D01*
X108853364Y-86017231D01*
X108929680Y-86061781D01*
X109024558Y-86114278D01*
X109133888Y-86172480D01*
X109253558Y-86234142D01*
X109379459Y-86297023D01*
X109507482Y-86358879D01*
X109524392Y-86366907D01*
X109644099Y-86423921D01*
X109764863Y-86481733D01*
X109878329Y-86536323D01*
X109976136Y-86583672D01*
X110049927Y-86619759D01*
X110124531Y-86653759D01*
X110275859Y-86711426D01*
X110453008Y-86767791D01*
X110649715Y-86821319D01*
X110859714Y-86870477D01*
X111076742Y-86913730D01*
X111294532Y-86949547D01*
X111506821Y-86976393D01*
X111539790Y-86979320D01*
X111650658Y-86984296D01*
X111796222Y-86985268D01*
X111976774Y-86982237D01*
X112192607Y-86975203D01*
X112266859Y-86972229D01*
X112444881Y-86963825D01*
X112597125Y-86954014D01*
X112730897Y-86941766D01*
X112853498Y-86926050D01*
X112972235Y-86905835D01*
X113094413Y-86880091D01*
X113227337Y-86847786D01*
X113378311Y-86807890D01*
X113394976Y-86803293D01*
X113481243Y-86777761D01*
X113583411Y-86745323D01*
X113696485Y-86707781D01*
X113815476Y-86666942D01*
X113935390Y-86624611D01*
X114051235Y-86582593D01*
X114158019Y-86542692D01*
X114250752Y-86506715D01*
X114324437Y-86476466D01*
X114374088Y-86453749D01*
X114394708Y-86440372D01*
X114395436Y-86429206D01*
X114387588Y-86391168D01*
X114370896Y-86339235D01*
X114368392Y-86332085D01*
X114350194Y-86256420D01*
X114334976Y-86148542D01*
X114323188Y-86011554D01*
X114307293Y-85770407D01*
X113815653Y-85794896D01*
X113536695Y-85805557D01*
X113169470Y-85808583D01*
X112830578Y-85797812D01*
X112522385Y-85773282D01*
X112427009Y-85762236D01*
X112188794Y-85727665D01*
X111961219Y-85684843D01*
X111749306Y-85635031D01*
X111558074Y-85579486D01*
X111392545Y-85519468D01*
X111257742Y-85456235D01*
X111242012Y-85446898D01*
X111203503Y-85416320D01*
X111164733Y-85372253D01*
X111122254Y-85309835D01*
X111072618Y-85224210D01*
X111012375Y-85110518D01*
X110982421Y-85055519D01*
X110909012Y-84935070D01*
X110817792Y-84799020D01*
X110713425Y-84653967D01*
X110600582Y-84506514D01*
X110483927Y-84363260D01*
X110466412Y-84342454D01*
X110419377Y-84286557D01*
X110354053Y-84208910D01*
X110273464Y-84113108D01*
X110180634Y-84002744D01*
X110078586Y-83881412D01*
X109970342Y-83752708D01*
X109858928Y-83620225D01*
X109777296Y-83523319D01*
X109676134Y-83403708D01*
X109583950Y-83295250D01*
X109503077Y-83200661D01*
X109435847Y-83122659D01*
X109384596Y-83063959D01*
X109351655Y-83027277D01*
X109339359Y-83015332D01*
X109339048Y-83016780D01*
X109345068Y-83041147D01*
X109361244Y-83088297D01*
X109384710Y-83149739D01*
X109395723Y-83178632D01*
X109425507Y-83265013D01*
X109456227Y-83363302D01*
X109482740Y-83457361D01*
X109483521Y-83460357D01*
X109518615Y-83648335D01*
X109533300Y-83858792D01*
X109527430Y-84084810D01*
X109500860Y-84319474D01*
X109487099Y-84402553D01*
X109434585Y-84650539D01*
X109366617Y-84876675D01*
X109279527Y-85090365D01*
X109169644Y-85301016D01*
X109033300Y-85518032D01*
X108994361Y-85576599D01*
X108939449Y-85661860D01*
X108886979Y-85746040D01*
X108840403Y-85823376D01*
X108803171Y-85888105D01*
X108778736Y-85934468D01*
X108770549Y-85956700D01*
X108494309Y-85956700D01*
X108503463Y-85931716D01*
X108529526Y-85888463D01*
X108573414Y-85824262D01*
X108581745Y-85812303D01*
X108638731Y-85731706D01*
X108699021Y-85648048D01*
X108750872Y-85577645D01*
X108866446Y-85416417D01*
X108984685Y-85230180D01*
X109084345Y-85043965D01*
X109168473Y-84850640D01*
X109240119Y-84643072D01*
X109302331Y-84414126D01*
X109358159Y-84156670D01*
X109360800Y-84143121D01*
X109380237Y-84036986D01*
X109392296Y-83951822D01*
X109397944Y-83875186D01*
X109398153Y-83794633D01*
X109393889Y-83697723D01*
X109393194Y-83685571D01*
X109386620Y-83590879D01*
X109377921Y-83518246D01*
X109364533Y-83455288D01*
X109343894Y-83389617D01*
X109313441Y-83308848D01*
X109299945Y-83275556D01*
X109262571Y-83188984D01*
X109214659Y-83082846D01*
X109169239Y-82984996D01*
X109312740Y-82984996D01*
X109322146Y-82993465D01*
X109330615Y-82984059D01*
X109321209Y-82975590D01*
X109312740Y-82984996D01*
X109169239Y-82984996D01*
X109159779Y-82964617D01*
X109101492Y-82841775D01*
X109043365Y-82721793D01*
X108988965Y-82612149D01*
X108941857Y-82520319D01*
X108905608Y-82453779D01*
X108901251Y-82446602D01*
X108874231Y-82405951D01*
X108829907Y-82342134D01*
X108771334Y-82259443D01*
X108701567Y-82162167D01*
X108623659Y-82054598D01*
X108540665Y-81941027D01*
X108480321Y-81858608D01*
X108392164Y-81737066D01*
X108312619Y-81625497D01*
X108237776Y-81518120D01*
X108163725Y-81409154D01*
X108086556Y-81292817D01*
X108002361Y-81163331D01*
X107907230Y-81014913D01*
X107797253Y-80841782D01*
X107701978Y-80683293D01*
X107588246Y-80474074D01*
X107481178Y-80256155D01*
X107386515Y-80041325D01*
X107309999Y-79841372D01*
X107292291Y-79788300D01*
X107238046Y-79595234D01*
X107193359Y-79387633D01*
X107159132Y-79173338D01*
X107136265Y-78960195D01*
X107125663Y-78756043D01*
X107128227Y-78568726D01*
X107144860Y-78406086D01*
X107155230Y-78347682D01*
X107189228Y-78194033D01*
X107232481Y-78035157D01*
X107281080Y-77884701D01*
X107331112Y-77756312D01*
X107399461Y-77600371D01*
X107348470Y-77568400D01*
X107270111Y-77510641D01*
X107160536Y-77399584D01*
X107060670Y-77262422D01*
X106973925Y-77104792D01*
X106903714Y-76932335D01*
X106853451Y-76750686D01*
X106852606Y-76746715D01*
X106843498Y-76706177D01*
X106838706Y-76692115D01*
X106838103Y-76706807D01*
X106841562Y-76752537D01*
X106848957Y-76831582D01*
X106873827Y-76997345D01*
X106918268Y-77156950D01*
X106979280Y-77289721D01*
X106980599Y-77291989D01*
X107001300Y-77332604D01*
X107010401Y-77359965D01*
X107009349Y-77367616D01*
X106986543Y-77379846D01*
X106935497Y-77373925D01*
X106857988Y-77350205D01*
X106755794Y-77309045D01*
X106630945Y-77245862D01*
X106469076Y-77132201D01*
X106333107Y-76995415D01*
X106224617Y-76837947D01*
X106145190Y-76662236D01*
X106096406Y-76470723D01*
X106079848Y-76265850D01*
X106080150Y-76222858D01*
X106082068Y-76148032D01*
X106085359Y-76089021D01*
X106089561Y-76055816D01*
X106090274Y-76052903D01*
X106088218Y-76028674D01*
X106065329Y-76006813D01*
X106014987Y-75980645D01*
X105938307Y-75939664D01*
X105805225Y-75840030D01*
X105684287Y-75712563D01*
X105578543Y-75561914D01*
X105491046Y-75392733D01*
X105424843Y-75209670D01*
X105382989Y-75017376D01*
X105378239Y-74980393D01*
X105369569Y-74868159D01*
X105366552Y-74744950D01*
X105369049Y-74622369D01*
X105376921Y-74512018D01*
X105390032Y-74425498D01*
X105392307Y-74409821D01*
X105395211Y-74353003D01*
X105395759Y-74266541D01*
X105393997Y-74154522D01*
X105389971Y-74021036D01*
X105383728Y-73870169D01*
X105380327Y-73794877D01*
X105374629Y-73652220D01*
X105371449Y-73539087D01*
X105370789Y-73451218D01*
X105372651Y-73384350D01*
X105377036Y-73334223D01*
X105383946Y-73296575D01*
X105393538Y-73259435D01*
X105403913Y-73229484D01*
X105412228Y-73227644D01*
X105421834Y-73249777D01*
X105440538Y-73294737D01*
X105505661Y-73397073D01*
X105594753Y-73491104D01*
X105700542Y-73571775D01*
X105815751Y-73634031D01*
X105933106Y-73672814D01*
X106045332Y-73683071D01*
X106119515Y-73673519D01*
X106196821Y-73642074D01*
X106254951Y-73584898D01*
X106275494Y-73545317D01*
X106451994Y-73545317D01*
X106461400Y-73553785D01*
X106469869Y-73544380D01*
X106460463Y-73535911D01*
X106451994Y-73545317D01*
X106275494Y-73545317D01*
X106300460Y-73497213D01*
X106320390Y-73442310D01*
X106330842Y-73393147D01*
X106330810Y-73340266D01*
X106321749Y-73268031D01*
X106310350Y-73199694D01*
X106294433Y-73118018D01*
X106279301Y-73052481D01*
X106279047Y-73051533D01*
X106258402Y-72999326D01*
X106218758Y-72921612D01*
X106162163Y-72821720D01*
X106090668Y-72702980D01*
X106006321Y-72568721D01*
X105911174Y-72422274D01*
X105807275Y-72266967D01*
X105696675Y-72106130D01*
X105683231Y-72086742D01*
X105582422Y-71935500D01*
X105479778Y-71772165D01*
X105379163Y-71603538D01*
X105284450Y-71436420D01*
X105199507Y-71277615D01*
X105128202Y-71133923D01*
X105074404Y-71012148D01*
X105037208Y-70913826D01*
X104972997Y-70709450D01*
X104921816Y-70497498D01*
X104885436Y-70287264D01*
X104865630Y-70088049D01*
X104864170Y-69909147D01*
X104874924Y-69785297D01*
X104919167Y-69549777D01*
X104992331Y-69316806D01*
X105091614Y-69091574D01*
X105214215Y-68879271D01*
X105357334Y-68685086D01*
X105518167Y-68514210D01*
X105693915Y-68371833D01*
X105725507Y-68350228D01*
X105936601Y-68218418D01*
X106171148Y-68090565D01*
X106419519Y-67971063D01*
X106672087Y-67864308D01*
X106919226Y-67774693D01*
X107151307Y-67706611D01*
X107227833Y-67686695D01*
X107288347Y-67668596D01*
X107324969Y-67653213D01*
X107343642Y-67637966D01*
X107350310Y-67620277D01*
X107350621Y-67617955D01*
X107364445Y-67525173D01*
X107380340Y-67444585D01*
X107401007Y-67367307D01*
X107429148Y-67284454D01*
X107467463Y-67187137D01*
X107518652Y-67066473D01*
X107561039Y-66970527D01*
X107634185Y-66817456D01*
X107705495Y-66688045D01*
X107779824Y-66575241D01*
X107862026Y-66471989D01*
X107956954Y-66371235D01*
X108069462Y-66265923D01*
X108103488Y-66235994D01*
X108308422Y-66076088D01*
X108526797Y-65940202D01*
X108761582Y-65827243D01*
X109015746Y-65736117D01*
X109292257Y-65665733D01*
X109594085Y-65614994D01*
X109924197Y-65582808D01*
X109937802Y-65581884D01*
X110054706Y-65573384D01*
X110164429Y-65564482D01*
X110259830Y-65555820D01*
X110333773Y-65548043D01*
X110379121Y-65541794D01*
X110475261Y-65521281D01*
X110614512Y-65484076D01*
X110760558Y-65438070D01*
X110904996Y-65386314D01*
X111039427Y-65331866D01*
X111155449Y-65277778D01*
X111244662Y-65227104D01*
X111271722Y-65208095D01*
X111355544Y-65137518D01*
X111442215Y-65050575D01*
X111521176Y-64958388D01*
X111581872Y-64872067D01*
X111636313Y-64781775D01*
X111664064Y-64858797D01*
X111678575Y-64909144D01*
X111695177Y-65016818D01*
X111700941Y-65140419D01*
X111696392Y-65269791D01*
X111682058Y-65394782D01*
X111658464Y-65505234D01*
X111626136Y-65590995D01*
X111619292Y-65604410D01*
X111602846Y-65640297D01*
X111598869Y-65655829D01*
X111603967Y-65657105D01*
X111636652Y-65663983D01*
X111692384Y-65675191D01*
X111762981Y-65689069D01*
X111830573Y-65703796D01*
X111976623Y-65747176D01*
X112123023Y-65807686D01*
X112273951Y-65887666D01*
X112433580Y-65989454D01*
X112606085Y-66115390D01*
X112795642Y-66267816D01*
X112919063Y-66367212D01*
X113057150Y-66470351D01*
X113188486Y-66560241D01*
X113306999Y-66632744D01*
X113406615Y-66683730D01*
X113519682Y-66725742D01*
X113706458Y-66766417D01*
X113900240Y-66777384D01*
X114093819Y-66758976D01*
X114279984Y-66711529D01*
X114451527Y-66635375D01*
X114482532Y-66618248D01*
X114533253Y-66593232D01*
X114570159Y-66583772D01*
X114595662Y-66593241D01*
X114612165Y-66625013D01*
X114622080Y-66682460D01*
X114627812Y-66768954D01*
X114631770Y-66887871D01*
X114633045Y-66933803D01*
X114634859Y-67023687D01*
X114634041Y-67089425D01*
X114629582Y-67139259D01*
X114620473Y-67181427D01*
X114605703Y-67224173D01*
X114584264Y-67275737D01*
X114578642Y-67288885D01*
X114552496Y-67350088D01*
X114532545Y-67396869D01*
X114522732Y-67419982D01*
X114523024Y-67421497D01*
X114541188Y-67415241D01*
X114580838Y-67393994D01*
X114635356Y-67361208D01*
X114649014Y-67352584D01*
X114703618Y-67316476D01*
X114743154Y-67287727D01*
X114759838Y-67271919D01*
X114776501Y-67258038D01*
X114802598Y-67258644D01*
X114816741Y-67274634D01*
X114816697Y-67279009D01*
X114813824Y-67313606D01*
X114807539Y-67371003D01*
X114798896Y-67441372D01*
X114798751Y-67442500D01*
X114786732Y-67537125D01*
X114773392Y-67644047D01*
X114761588Y-67740338D01*
X114757132Y-67773275D01*
X114715022Y-67948531D01*
X114643825Y-68103978D01*
X114542611Y-68241748D01*
X114494360Y-68290582D01*
X114367883Y-68388153D01*
X114223868Y-68465553D01*
X114073840Y-68516041D01*
X114017546Y-68529693D01*
X113972950Y-68541580D01*
X113953388Y-68548254D01*
X113954581Y-68552280D01*
X113973032Y-68576767D01*
X114008841Y-68617918D01*
X114056817Y-68669643D01*
X114117881Y-68735981D01*
X114257362Y-68910454D01*
X114362565Y-69082723D01*
X114434218Y-69255629D01*
X114473045Y-69432012D01*
X114479776Y-69614711D01*
X114455136Y-69806565D01*
X114399851Y-70010417D01*
X114395103Y-70024795D01*
X114368191Y-70110009D01*
X114336400Y-70215257D01*
X114303307Y-70328533D01*
X114272492Y-70437825D01*
X114254212Y-70504438D01*
X114231804Y-70589875D01*
X114217130Y-70656380D01*
X114208998Y-70713546D01*
X114206212Y-70770969D01*
X114207583Y-70838242D01*
X114211914Y-70924961D01*
X114216343Y-70991574D01*
X114236264Y-71153134D01*
X114269481Y-71288812D01*
X114318384Y-71404823D01*
X114385368Y-71507385D01*
X114472826Y-71602711D01*
X114530427Y-71652993D01*
X114612634Y-71706220D01*
X114702497Y-71740048D01*
X114808885Y-71757489D01*
X114940668Y-71761555D01*
X115026366Y-71762085D01*
X115087822Y-71767008D01*
X115114660Y-71777334D01*
X115107401Y-71793944D01*
X115066563Y-71817713D01*
X114992663Y-71849520D01*
X114840778Y-71893693D01*
X114677664Y-71906533D01*
X114503160Y-71886777D01*
X114418974Y-71865008D01*
X114334612Y-71826609D01*
X114261418Y-71769600D01*
X114192760Y-71688610D01*
X114122004Y-71578272D01*
X114072379Y-71486438D01*
X114031218Y-71388567D01*
X114002974Y-71286550D01*
X113984832Y-71169927D01*
X113973976Y-71028242D01*
X113970904Y-70926960D01*
X113974450Y-70838181D01*
X113986139Y-70747940D01*
X114007376Y-70639926D01*
X114031228Y-70529486D01*
X114073747Y-70330984D01*
X114109175Y-70162625D01*
X114138073Y-70021221D01*
X114161002Y-69903583D01*
X114178522Y-69806522D01*
X114191194Y-69726850D01*
X114199580Y-69661376D01*
X114204239Y-69606915D01*
X114205733Y-69560275D01*
X114204621Y-69518271D01*
X114190885Y-69392459D01*
X114150058Y-69227745D01*
X114082021Y-69065883D01*
X113985010Y-68903560D01*
X113857265Y-68737465D01*
X113697024Y-68564288D01*
X113639634Y-68506029D01*
X113593323Y-68457808D01*
X113562972Y-68424788D01*
X113553307Y-68411980D01*
X113558349Y-68410813D01*
X113589719Y-68405899D01*
X113638891Y-68399277D01*
X113660273Y-68396160D01*
X113771409Y-68371048D01*
X113895773Y-68331413D01*
X114019999Y-68281929D01*
X114130722Y-68227270D01*
X114240683Y-68155461D01*
X114366945Y-68039352D01*
X114475010Y-67895759D01*
X114567382Y-67721786D01*
X114597755Y-67653381D01*
X114625326Y-67589628D01*
X114643929Y-67544645D01*
X114650635Y-67525340D01*
X114643677Y-67526405D01*
X114615444Y-67543320D01*
X114572992Y-67573630D01*
X114458428Y-67648991D01*
X114309967Y-67727120D01*
X114143237Y-67799739D01*
X113967280Y-67863589D01*
X113791142Y-67915404D01*
X113623862Y-67951924D01*
X113474485Y-67969887D01*
X113418916Y-67971734D01*
X113380156Y-67970530D01*
X113368613Y-67966443D01*
X113371008Y-67964847D01*
X113399180Y-67954580D01*
X113450885Y-67939561D01*
X113517172Y-67922444D01*
X113538724Y-67916930D01*
X113724894Y-67849406D01*
X113904635Y-67748863D01*
X114074213Y-67617732D01*
X114229893Y-67458446D01*
X114268862Y-67411036D01*
X114361751Y-67275232D01*
X114428115Y-67134242D01*
X114471597Y-66979055D01*
X114495844Y-66800654D01*
X114502883Y-66714907D01*
X114403297Y-66792744D01*
X114348396Y-66830648D01*
X114263599Y-66878477D01*
X114182620Y-66914404D01*
X114182440Y-66914469D01*
X114124922Y-66933614D01*
X114071350Y-66946485D01*
X114011792Y-66954406D01*
X113936315Y-66958699D01*
X113834983Y-66960686D01*
X113735533Y-66959640D01*
X113601608Y-66949203D01*
X113475577Y-66926187D01*
X113350499Y-66888360D01*
X113219439Y-66833490D01*
X113075457Y-66759347D01*
X112911613Y-66663699D01*
X112897671Y-66655217D01*
X112719009Y-66547060D01*
X112566439Y-66456022D01*
X112436128Y-66380147D01*
X112324240Y-66317475D01*
X112226939Y-66266051D01*
X112140390Y-66223915D01*
X112060757Y-66189111D01*
X111984206Y-66159681D01*
X111906899Y-66133667D01*
X111825004Y-66109112D01*
X111786488Y-66098369D01*
X111736721Y-66086408D01*
X111688917Y-66078776D01*
X111635540Y-66075047D01*
X111569046Y-66074787D01*
X111481899Y-66077570D01*
X111366558Y-66082963D01*
X111053695Y-66098505D01*
X110900432Y-66174903D01*
X110882778Y-66183561D01*
X110803631Y-66218615D01*
X110739454Y-66240870D01*
X110698106Y-66247506D01*
X110682177Y-66243484D01*
X110684641Y-66233279D01*
X110709248Y-66214433D01*
X110759273Y-66184452D01*
X110837985Y-66140840D01*
X110974675Y-66061575D01*
X111138609Y-65947978D01*
X111272042Y-65828433D01*
X111378065Y-65698973D01*
X111459770Y-65555635D01*
X111520249Y-65394453D01*
X111562594Y-65211459D01*
X111581670Y-65102913D01*
X111536969Y-65167683D01*
X111489781Y-65231640D01*
X111376055Y-65360603D01*
X111248550Y-65477586D01*
X111115683Y-65575281D01*
X110985872Y-65646374D01*
X110877876Y-65688593D01*
X110688758Y-65743764D01*
X110471139Y-65788159D01*
X110228614Y-65821091D01*
X109964775Y-65841871D01*
X109662965Y-65866869D01*
X109345179Y-65916206D01*
X109052929Y-65988450D01*
X108784625Y-66084282D01*
X108538673Y-66204382D01*
X108313483Y-66349433D01*
X108107460Y-66520114D01*
X107919013Y-66717108D01*
X107820262Y-66836871D01*
X107691712Y-67012737D01*
X107588716Y-67184360D01*
X107507494Y-67359174D01*
X107444276Y-67544611D01*
X107395282Y-67748104D01*
X107389890Y-67774782D01*
X107372105Y-67860122D01*
X107356664Y-67930299D01*
X107345069Y-67978654D01*
X107338819Y-67998529D01*
X107335266Y-67987455D01*
X107333517Y-67949025D01*
X107334036Y-67891611D01*
X107337249Y-67775815D01*
X107256015Y-67795440D01*
X107198202Y-67810127D01*
X107101987Y-67838817D01*
X107007774Y-67873582D01*
X106907568Y-67917799D01*
X106793375Y-67974837D01*
X106657199Y-68048074D01*
X106364003Y-68223793D01*
X106089359Y-68420459D01*
X105847216Y-68630286D01*
X105638139Y-68852828D01*
X105587542Y-68920113D01*
X105508433Y-69054723D01*
X105435375Y-69215093D01*
X105370754Y-69395049D01*
X105316959Y-69588413D01*
X105276375Y-69789011D01*
X105271718Y-69821741D01*
X105262825Y-69948601D01*
X105263551Y-70093643D01*
X105273214Y-70244531D01*
X105291128Y-70388931D01*
X105316610Y-70514511D01*
X105321493Y-70533887D01*
X105336265Y-70601195D01*
X105344655Y-70654291D01*
X105344964Y-70683062D01*
X105344534Y-70693898D01*
X105352028Y-70737033D01*
X105368841Y-70804526D01*
X105393090Y-70890272D01*
X105422891Y-70988172D01*
X105456358Y-71092122D01*
X105491609Y-71196019D01*
X105526757Y-71293765D01*
X105559923Y-71379255D01*
X105584636Y-71438765D01*
X105752955Y-71799598D01*
X105955323Y-72165929D01*
X106192238Y-72538672D01*
X106258589Y-72642387D01*
X106335483Y-72785093D01*
X106402979Y-72942874D01*
X106413216Y-72969687D01*
X106472769Y-73140862D01*
X106511997Y-73287710D01*
X106531285Y-73414461D01*
X106531018Y-73525345D01*
X106527885Y-73541340D01*
X106511580Y-73624590D01*
X106473356Y-73716426D01*
X106448162Y-73758970D01*
X106368695Y-73850263D01*
X106272460Y-73911270D01*
X106162730Y-73940904D01*
X106042776Y-73938077D01*
X105915874Y-73901703D01*
X105887418Y-73887501D01*
X105820171Y-73843231D01*
X105742311Y-73782311D01*
X105661833Y-73711901D01*
X105586729Y-73639164D01*
X105524995Y-73571261D01*
X105484623Y-73515354D01*
X105440078Y-73437028D01*
X105468667Y-73829869D01*
X105468788Y-73831531D01*
X105482442Y-73998711D01*
X105497541Y-74136544D01*
X105515538Y-74251422D01*
X105537884Y-74349740D01*
X105566030Y-74437893D01*
X105601426Y-74522274D01*
X105645523Y-74609278D01*
X105683675Y-74677181D01*
X105729443Y-74747154D01*
X105777655Y-74802642D01*
X105834688Y-74848580D01*
X105906916Y-74889904D01*
X106000715Y-74931547D01*
X106122458Y-74978442D01*
X106178631Y-75002849D01*
X106210587Y-75027172D01*
X106207358Y-75046528D01*
X106169181Y-75060104D01*
X106096297Y-75067089D01*
X106086953Y-75067353D01*
X105977910Y-75055401D01*
X105875774Y-75014309D01*
X105778269Y-74942430D01*
X105683114Y-74838115D01*
X105588029Y-74699716D01*
X105536007Y-74615017D01*
X105556362Y-74811121D01*
X105575775Y-74953288D01*
X105605024Y-75078261D01*
X105646586Y-75189007D01*
X105703739Y-75296320D01*
X105724918Y-75330329D01*
X105783703Y-75410922D01*
X105849423Y-75476475D01*
X105935306Y-75540961D01*
X105961754Y-75556846D01*
X106023894Y-75586224D01*
X106098367Y-75615085D01*
X106176179Y-75640590D01*
X106248334Y-75659901D01*
X106305841Y-75670178D01*
X106339703Y-75668585D01*
X106350897Y-75666508D01*
X106367713Y-75685018D01*
X106373317Y-75732589D01*
X106367552Y-75805766D01*
X106350259Y-75901092D01*
X106320430Y-76082479D01*
X106314548Y-76283260D01*
X106341054Y-76470476D01*
X106400409Y-76645961D01*
X106493076Y-76811550D01*
X106619518Y-76969078D01*
X106646724Y-76997070D01*
X106699563Y-77046034D01*
X106751144Y-77088243D01*
X106795331Y-77119181D01*
X106825990Y-77134331D01*
X106836985Y-77129177D01*
X106836466Y-77126536D01*
X106827979Y-77098344D01*
X106811292Y-77047520D01*
X106789252Y-76982788D01*
X106777854Y-76948419D01*
X106759275Y-76880685D01*
X106746351Y-76809517D01*
X106737368Y-76724127D01*
X106730610Y-76613728D01*
X106730590Y-76613342D01*
X106726463Y-76508567D01*
X106726495Y-76428015D01*
X106731534Y-76360303D01*
X106742421Y-76294042D01*
X106760004Y-76217849D01*
X106766162Y-76193770D01*
X106791330Y-76103309D01*
X106818346Y-76015669D01*
X106842336Y-75946897D01*
X106856226Y-75912040D01*
X106875179Y-75872311D01*
X106888326Y-75860416D01*
X106898781Y-75872242D01*
X106908168Y-75888636D01*
X106914572Y-75887107D01*
X106918244Y-75881649D01*
X106932969Y-75895775D01*
X106937042Y-75907573D01*
X106941097Y-75954842D01*
X106940039Y-76030186D01*
X106933850Y-76128747D01*
X106928870Y-76214444D01*
X106928620Y-76372298D01*
X106938801Y-76526545D01*
X106958561Y-76666747D01*
X106987050Y-76782466D01*
X107050852Y-76930558D01*
X107142584Y-77069641D01*
X107255623Y-77189650D01*
X107384847Y-77285174D01*
X107525136Y-77350804D01*
X107530336Y-77352555D01*
X107557932Y-77359837D01*
X107581921Y-77357914D01*
X107609785Y-77343020D01*
X107649004Y-77311389D01*
X107707062Y-77259256D01*
X107829797Y-77147630D01*
X107983918Y-77142729D01*
X107992110Y-77142502D01*
X108084715Y-77143467D01*
X108180671Y-77149541D01*
X108260457Y-77159538D01*
X108264687Y-77160295D01*
X108457164Y-77210117D01*
X108657593Y-77289687D01*
X108860691Y-77395614D01*
X109061171Y-77524511D01*
X109253751Y-77672985D01*
X109433145Y-77837648D01*
X109594070Y-78015108D01*
X109614679Y-78040816D01*
X109664548Y-78106471D01*
X109718477Y-78181088D01*
X109772225Y-78258388D01*
X109821552Y-78332093D01*
X109862214Y-78395925D01*
X109889973Y-78443603D01*
X109900586Y-78468852D01*
X109902092Y-78473300D01*
X109916866Y-78504256D01*
X109945377Y-78559883D01*
X109985133Y-78635424D01*
X110033639Y-78726119D01*
X110088401Y-78827213D01*
X110093398Y-78836395D01*
X110155893Y-78953593D01*
X110218297Y-79074442D01*
X110276243Y-79190229D01*
X110325365Y-79292243D01*
X110361297Y-79371769D01*
X110391784Y-79441687D01*
X110436527Y-79540202D01*
X110480081Y-79632136D01*
X110516258Y-79704214D01*
X110532435Y-79735270D01*
X110606052Y-79885386D01*
X110684352Y-80059106D01*
X110768069Y-80258265D01*
X110857935Y-80484703D01*
X110954685Y-80740257D01*
X111059052Y-81026764D01*
X111171770Y-81346062D01*
X111190827Y-81400555D01*
X111249009Y-81563159D01*
X111300569Y-81699700D01*
X111348326Y-81816513D01*
X111395101Y-81919936D01*
X111443715Y-82016306D01*
X111496987Y-82111958D01*
X111557739Y-82213231D01*
X111592429Y-82269947D01*
X111649036Y-82363861D01*
X111702842Y-82454548D01*
X111745756Y-82528444D01*
X111822769Y-82663503D01*
X111684205Y-82597879D01*
X111658271Y-82585827D01*
X111599043Y-82560226D01*
X111556088Y-82544440D01*
X111537314Y-82541503D01*
X111535908Y-82544248D01*
X111547646Y-82566064D01*
X111586492Y-82600992D01*
X111648426Y-82646592D01*
X111729432Y-82700426D01*
X111825493Y-82760055D01*
X111932591Y-82823042D01*
X111972850Y-82845586D01*
X112046710Y-82886946D01*
X112163832Y-82949329D01*
X112279940Y-83007753D01*
X112391017Y-83059778D01*
X112627593Y-83160062D01*
X112858231Y-83244404D01*
X113078283Y-83309442D01*
X113295942Y-83357585D01*
X113519399Y-83391237D01*
X113596025Y-83401915D01*
X113699418Y-83418928D01*
X113811125Y-83439328D01*
X113917379Y-83460711D01*
X113938253Y-83465138D01*
X114024245Y-83482976D01*
X114096378Y-83497310D01*
X114147612Y-83506772D01*
X114170905Y-83509994D01*
X114176766Y-83503355D01*
X114189079Y-83468530D01*
X114203042Y-83410643D01*
X114216624Y-83337373D01*
X114244467Y-83165662D01*
X114200924Y-83208802D01*
X114163432Y-83245734D01*
X114119099Y-83287726D01*
X114094648Y-83306693D01*
X114089944Y-83301198D01*
X114104854Y-83269803D01*
X114139242Y-83211074D01*
X114192976Y-83123572D01*
X114209194Y-83096668D01*
X114261735Y-83002526D01*
X114314755Y-82899125D01*
X114358924Y-82804411D01*
X114433137Y-82633453D01*
X114321202Y-82753695D01*
X114304277Y-82771821D01*
X114234425Y-82844917D01*
X114187407Y-82890733D01*
X114163267Y-82909235D01*
X114162049Y-82900386D01*
X114183801Y-82864148D01*
X114304999Y-82679042D01*
X114423566Y-82489195D01*
X114524020Y-82316395D01*
X114609051Y-82155191D01*
X114681355Y-82000131D01*
X114743622Y-81845759D01*
X114798546Y-81686625D01*
X114848817Y-81517275D01*
X114853519Y-81500132D01*
X114913360Y-81239099D01*
X114949334Y-80986857D01*
X114961217Y-80747671D01*
X114948784Y-80525807D01*
X114911808Y-80325528D01*
X114862804Y-80175571D01*
X114764855Y-79972678D01*
X114631312Y-79772893D01*
X114462146Y-79576179D01*
X114257334Y-79382496D01*
X114220135Y-79351304D01*
X114142370Y-79288952D01*
X114045915Y-79213992D01*
X113937183Y-79131328D01*
X113822583Y-79045866D01*
X113708525Y-78962511D01*
X113629773Y-78905636D01*
X113477281Y-78795559D01*
X113349708Y-78703301D01*
X113244326Y-78626582D01*
X113158406Y-78563125D01*
X113089221Y-78510653D01*
X113034043Y-78466888D01*
X112990144Y-78429552D01*
X112954795Y-78396368D01*
X112925268Y-78365057D01*
X112898836Y-78333343D01*
X112872770Y-78298947D01*
X112844342Y-78259591D01*
X112810824Y-78212999D01*
X112801417Y-78199985D01*
X112727129Y-78092340D01*
X112667921Y-77994449D01*
X112615521Y-77891574D01*
X112561663Y-77768982D01*
X112559577Y-77763991D01*
X112515255Y-77660478D01*
X112467492Y-77552845D01*
X112421896Y-77453535D01*
X112384076Y-77374987D01*
X112380671Y-77368171D01*
X112340612Y-77285302D01*
X112300780Y-77198708D01*
X112264259Y-77115575D01*
X112234133Y-77043085D01*
X112213486Y-76988425D01*
X112205403Y-76958778D01*
X112205390Y-76957578D01*
X112220115Y-76948372D01*
X112261282Y-76958975D01*
X112326356Y-76988444D01*
X112412801Y-77035839D01*
X112432475Y-77047116D01*
X112488584Y-77077190D01*
X112529649Y-77096057D01*
X112547895Y-77100024D01*
X112548494Y-77092488D01*
X112535558Y-77060764D01*
X112508433Y-77013109D01*
X112472239Y-76957616D01*
X112432098Y-76902376D01*
X112393129Y-76855481D01*
X112356934Y-76822594D01*
X112297380Y-76776435D01*
X112223607Y-76724031D01*
X112143995Y-76671565D01*
X111952263Y-76550296D01*
X112089485Y-76530249D01*
X112092361Y-76529825D01*
X112170245Y-76516077D01*
X112243635Y-76499438D01*
X112297000Y-76483414D01*
X112306739Y-76479837D01*
X112375904Y-76458777D01*
X112445058Y-76443051D01*
X112500276Y-76427727D01*
X112595081Y-76375314D01*
X112683855Y-76294357D01*
X112762746Y-76189479D01*
X112827902Y-76065302D01*
X112875473Y-75926450D01*
X112882878Y-75897125D01*
X112903391Y-75806296D01*
X112918414Y-75724749D01*
X112927053Y-75658821D01*
X112928412Y-75614853D01*
X112921601Y-75599179D01*
X112920103Y-75599484D01*
X112900346Y-75616670D01*
X112874342Y-75651881D01*
X112859865Y-75670590D01*
X112804959Y-75718022D01*
X112729386Y-75764884D01*
X112643226Y-75805403D01*
X112556558Y-75833812D01*
X112517256Y-75842371D01*
X112428567Y-75855389D01*
X112340000Y-75861254D01*
X112258591Y-75860220D01*
X112191380Y-75852543D01*
X112145407Y-75838477D01*
X112127707Y-75818276D01*
X112128826Y-75816086D01*
X112152952Y-75807673D01*
X112202159Y-75800089D01*
X112267983Y-75794754D01*
X112347543Y-75787705D01*
X112493274Y-75755169D01*
X112624728Y-75695175D01*
X112751312Y-75604009D01*
X112752385Y-75603097D01*
X112856562Y-75496863D01*
X112929903Y-75382896D01*
X112969926Y-75265043D01*
X112980253Y-75210729D01*
X112917041Y-75272329D01*
X112854891Y-75325340D01*
X112729778Y-75401931D01*
X112591386Y-75455152D01*
X112562388Y-75462907D01*
X112511345Y-75472575D01*
X112473140Y-75470076D01*
X112433149Y-75455434D01*
X112386815Y-75425563D01*
X112344380Y-75367244D01*
X112319900Y-75283338D01*
X112311903Y-75170387D01*
X112311867Y-75160774D01*
X112310729Y-75099435D01*
X112308362Y-75056223D01*
X112305219Y-75039973D01*
X112293691Y-75046811D01*
X112259759Y-75075720D01*
X112208957Y-75123268D01*
X112145704Y-75185118D01*
X112074417Y-75256925D01*
X111999518Y-75334352D01*
X111925424Y-75413057D01*
X111896624Y-75443811D01*
X111834120Y-75508369D01*
X111780864Y-75560435D01*
X111741760Y-75595310D01*
X111721717Y-75608288D01*
X111721144Y-75608329D01*
X111692505Y-75621881D01*
X111657486Y-75651650D01*
X111617119Y-75693763D01*
X111343475Y-75639579D01*
X111195364Y-75608753D01*
X110754804Y-75497748D01*
X110332269Y-75360540D01*
X109920572Y-75194607D01*
X109512524Y-74997430D01*
X109488021Y-74984588D01*
X109337606Y-74903914D01*
X109213689Y-74833414D01*
X109110750Y-74769501D01*
X109023269Y-74708585D01*
X108945726Y-74647076D01*
X108894077Y-74600679D01*
X110961540Y-74600679D01*
X111070975Y-74636707D01*
X111080608Y-74639787D01*
X111207992Y-74666692D01*
X111343733Y-74673685D01*
X111474998Y-74660961D01*
X111588956Y-74628720D01*
X111602155Y-74623093D01*
X111706495Y-74568367D01*
X111798637Y-74502847D01*
X111866987Y-74434630D01*
X111900596Y-74391895D01*
X111865558Y-74407375D01*
X111820345Y-74424053D01*
X111741152Y-74447646D01*
X111641454Y-74473734D01*
X111529246Y-74500429D01*
X111412523Y-74525840D01*
X111299281Y-74548079D01*
X111197514Y-74565256D01*
X110961540Y-74600679D01*
X108894077Y-74600679D01*
X108872600Y-74581386D01*
X108804956Y-74512775D01*
X108698586Y-74390113D01*
X108590116Y-74249897D01*
X108485284Y-74100433D01*
X108411166Y-73983655D01*
X109853511Y-73983655D01*
X109860302Y-74008193D01*
X109888377Y-74034963D01*
X109943501Y-74070004D01*
X109998544Y-74100036D01*
X110175230Y-74171117D01*
X110358450Y-74208685D01*
X110396333Y-74212137D01*
X110457606Y-74214869D01*
X110528417Y-74214379D01*
X110613960Y-74210397D01*
X110719429Y-74202656D01*
X110850017Y-74190882D01*
X111010918Y-74174809D01*
X111059240Y-74170043D01*
X111179265Y-74159330D01*
X111315298Y-74148343D01*
X111454027Y-74138132D01*
X111582141Y-74129746D01*
X111679505Y-74123051D01*
X111853281Y-74105425D01*
X111996119Y-74081718D01*
X112111071Y-74051009D01*
X112201192Y-74012379D01*
X112269535Y-73964908D01*
X112319155Y-73907673D01*
X112333427Y-73876477D01*
X112339038Y-73833003D01*
X112330513Y-73798392D01*
X112308893Y-73785066D01*
X112307679Y-73785316D01*
X112285081Y-73799277D01*
X112244632Y-73830297D01*
X112194191Y-73872394D01*
X112193485Y-73873003D01*
X112146473Y-73912300D01*
X112102583Y-73944419D01*
X112057492Y-73970284D01*
X112006878Y-73990819D01*
X111946419Y-74006946D01*
X111871792Y-74019590D01*
X111778673Y-74029674D01*
X111662740Y-74038122D01*
X111519671Y-74045857D01*
X111345143Y-74053803D01*
X111344373Y-74053837D01*
X111116081Y-74062954D01*
X110920877Y-74068857D01*
X110756203Y-74071496D01*
X110619497Y-74070824D01*
X110508197Y-74066792D01*
X110419744Y-74059350D01*
X110351574Y-74048450D01*
X110301128Y-74034046D01*
X110251370Y-74013467D01*
X110147213Y-73954669D01*
X110073155Y-73885060D01*
X110050281Y-73853321D01*
X110044788Y-73829686D01*
X110059395Y-73807114D01*
X110077601Y-73779990D01*
X110082905Y-73752146D01*
X110067984Y-73741187D01*
X110060560Y-73744024D01*
X110030952Y-73767294D01*
X109989803Y-73807426D01*
X109944350Y-73856429D01*
X109901833Y-73906314D01*
X109869485Y-73949096D01*
X109854545Y-73976784D01*
X109853511Y-73983655D01*
X108411166Y-73983655D01*
X108389823Y-73950028D01*
X108309472Y-73806990D01*
X108249966Y-73679627D01*
X108235060Y-73640988D01*
X108222175Y-73602242D01*
X108220200Y-73587083D01*
X108235864Y-73591539D01*
X108276515Y-73605782D01*
X108332081Y-73626475D01*
X108445677Y-73663358D01*
X108587413Y-73695100D01*
X108730684Y-73713921D01*
X108867052Y-73719149D01*
X108988074Y-73710119D01*
X109085313Y-73686158D01*
X109103099Y-73678355D01*
X109153057Y-73648708D01*
X109200335Y-73612071D01*
X109235333Y-73576460D01*
X109248454Y-73549893D01*
X109243035Y-73544625D01*
X109211762Y-73532668D01*
X109162054Y-73520609D01*
X109090814Y-73503271D01*
X108940050Y-73447118D01*
X108793485Y-73368645D01*
X108661573Y-73273906D01*
X108554766Y-73168953D01*
X108533440Y-73143283D01*
X108488333Y-73085094D01*
X108468639Y-73050656D01*
X108474468Y-73038769D01*
X108505930Y-73048232D01*
X108563135Y-73077844D01*
X108678673Y-73131455D01*
X108816728Y-73174117D01*
X108960066Y-73199933D01*
X109100079Y-73207917D01*
X109228164Y-73197079D01*
X109335711Y-73166436D01*
X109352414Y-73157664D01*
X109355938Y-73147678D01*
X109339095Y-73134466D01*
X109297545Y-73114795D01*
X109226949Y-73085434D01*
X109211661Y-73079129D01*
X108980815Y-72964319D01*
X108773224Y-72822397D01*
X108589368Y-72653866D01*
X108429725Y-72459229D01*
X108294778Y-72238988D01*
X108185005Y-71993647D01*
X108179714Y-71979556D01*
X108135066Y-71856259D01*
X108100537Y-71748997D01*
X108074441Y-71649131D01*
X108055097Y-71548022D01*
X108046844Y-71483864D01*
X108512822Y-71483864D01*
X108514848Y-71489234D01*
X108532236Y-71517220D01*
X108561507Y-71557802D01*
X108586851Y-71593482D01*
X108607505Y-71635879D01*
X108601513Y-71659913D01*
X108569095Y-71668801D01*
X108558809Y-71670825D01*
X108555035Y-71680178D01*
X108567185Y-71700042D01*
X108598015Y-71733678D01*
X108650283Y-71784349D01*
X108726747Y-71855319D01*
X108821192Y-71939813D01*
X108902522Y-72005867D01*
X108972639Y-72052985D01*
X109038153Y-72084997D01*
X109105673Y-72105731D01*
X109181808Y-72119020D01*
X109266971Y-72126183D01*
X109389453Y-72125353D01*
X109506341Y-72113220D01*
X109603156Y-72090755D01*
X109627740Y-72081491D01*
X109702753Y-72046179D01*
X109795843Y-71995510D01*
X109899695Y-71933912D01*
X110006991Y-71865816D01*
X110110416Y-71795650D01*
X110202652Y-71727845D01*
X110252668Y-71688328D01*
X110300284Y-71648600D01*
X110329191Y-71621756D01*
X110334450Y-71612132D01*
X110325403Y-71614422D01*
X110286876Y-71627686D01*
X110224820Y-71650743D01*
X110145400Y-71681284D01*
X110054783Y-71716994D01*
X109920025Y-71769818D01*
X109799795Y-71814252D01*
X109698884Y-71847474D01*
X109610393Y-71871326D01*
X109527425Y-71887651D01*
X109443081Y-71898292D01*
X109350461Y-71905088D01*
X109329473Y-71906231D01*
X109246623Y-71909738D01*
X109187472Y-71909017D01*
X109142084Y-71902886D01*
X109100523Y-71890161D01*
X109052851Y-71869661D01*
X109004777Y-71842815D01*
X108933865Y-71794748D01*
X108853781Y-71734000D01*
X108773361Y-71666979D01*
X108690669Y-71596287D01*
X108615499Y-71536195D01*
X108559320Y-71496385D01*
X108524354Y-71478422D01*
X108512822Y-71483864D01*
X108046844Y-71483864D01*
X108040819Y-71437030D01*
X108029923Y-71307517D01*
X108020725Y-71150844D01*
X108011362Y-70968881D01*
X108199041Y-70968881D01*
X108208733Y-70996913D01*
X108248952Y-71036194D01*
X108321369Y-71077344D01*
X108427118Y-71120978D01*
X108567338Y-71167709D01*
X108703349Y-71209489D01*
X108730461Y-71322178D01*
X108732636Y-71331069D01*
X108769072Y-71450715D01*
X108814049Y-71556072D01*
X108863031Y-71636387D01*
X108864088Y-71637740D01*
X108916338Y-71683166D01*
X108993600Y-71724894D01*
X109085415Y-71758249D01*
X109181321Y-71778560D01*
X109230332Y-71784678D01*
X109272755Y-71789428D01*
X109289494Y-71790515D01*
X109291738Y-71789426D01*
X109316810Y-71780530D01*
X109360487Y-71766175D01*
X109369226Y-71763165D01*
X109448912Y-71717120D01*
X109522436Y-71644124D01*
X109585196Y-71552152D01*
X109632590Y-71449178D01*
X109660017Y-71343177D01*
X109662875Y-71242124D01*
X109653063Y-71156257D01*
X109723125Y-71137270D01*
X109772480Y-71128082D01*
X109845287Y-71120649D01*
X109921705Y-71117509D01*
X109925624Y-71117490D01*
X109995671Y-71119796D01*
X110055762Y-71129485D01*
X110119676Y-71149841D01*
X110201189Y-71184150D01*
X110236637Y-71199518D01*
X110299017Y-71224105D01*
X110345122Y-71238975D01*
X110366902Y-71241346D01*
X110378723Y-71215166D01*
X110375994Y-71172208D01*
X110359322Y-71128676D01*
X110350998Y-71104097D01*
X110371044Y-71095835D01*
X110386537Y-71096554D01*
X110424601Y-71110160D01*
X110437965Y-71117378D01*
X110446891Y-71107963D01*
X110438395Y-71089197D01*
X110405279Y-71052331D01*
X110354312Y-71008113D01*
X110293161Y-70962560D01*
X110229491Y-70921685D01*
X110170971Y-70891502D01*
X110152799Y-70883811D01*
X110117944Y-70870404D01*
X110084041Y-70861001D01*
X110044966Y-70855160D01*
X109994599Y-70852440D01*
X109926821Y-70852399D01*
X109835509Y-70854596D01*
X109714544Y-70858590D01*
X109651542Y-70860979D01*
X109486652Y-70869943D01*
X109331180Y-70883244D01*
X109170403Y-70902302D01*
X108989599Y-70928538D01*
X108932743Y-70937271D01*
X108811574Y-70955096D01*
X108715903Y-70967503D01*
X108638755Y-70975090D01*
X108573157Y-70978454D01*
X108512133Y-70978193D01*
X108448707Y-70974905D01*
X108412643Y-70972187D01*
X108336968Y-70964959D01*
X108275678Y-70957097D01*
X108239452Y-70949879D01*
X108228301Y-70946566D01*
X108203866Y-70946453D01*
X108199041Y-70968881D01*
X108011362Y-70968881D01*
X108004648Y-70838410D01*
X108681002Y-70838410D01*
X108688326Y-70834755D01*
X108721649Y-70815804D01*
X108776960Y-70783446D01*
X108848953Y-70740791D01*
X108932325Y-70690954D01*
X108935907Y-70688807D01*
X109042452Y-70627509D01*
X109141873Y-70574954D01*
X109226664Y-70534921D01*
X109289322Y-70511190D01*
X109375162Y-70491654D01*
X109474861Y-70478104D01*
X109574452Y-70471965D01*
X109662466Y-70473932D01*
X109727433Y-70484697D01*
X109764337Y-70498478D01*
X109854800Y-70547199D01*
X109942396Y-70611743D01*
X110012270Y-70681829D01*
X110033910Y-70706078D01*
X110083067Y-70749239D01*
X110127550Y-70775289D01*
X110158397Y-70786152D01*
X110187464Y-70792993D01*
X110194122Y-70783452D01*
X110185355Y-70755089D01*
X110180742Y-70743065D01*
X110147727Y-70675636D01*
X110097284Y-70597396D01*
X110025084Y-70501495D01*
X109999846Y-70471010D01*
X109919918Y-70395424D01*
X109832677Y-70347593D01*
X109730155Y-70324112D01*
X109604389Y-70321572D01*
X109463490Y-70336091D01*
X109307607Y-70375261D01*
X109159184Y-70441332D01*
X109008653Y-70537776D01*
X108976828Y-70562176D01*
X108924169Y-70605571D01*
X108865813Y-70656062D01*
X108807257Y-70708606D01*
X108754001Y-70758157D01*
X108711540Y-70799671D01*
X108685374Y-70828103D01*
X108681002Y-70838410D01*
X108004648Y-70838410D01*
X108001408Y-70775441D01*
X108057122Y-70581240D01*
X108058971Y-70575101D01*
X108285950Y-70575101D01*
X108286087Y-70576928D01*
X108293311Y-70588417D01*
X108312925Y-70581571D01*
X108347717Y-70554230D01*
X108400475Y-70504238D01*
X108473986Y-70429433D01*
X108514674Y-70388247D01*
X108623886Y-70290108D01*
X108731844Y-70214831D01*
X108849370Y-70155588D01*
X108987285Y-70105551D01*
X109191578Y-70048545D01*
X109428793Y-70002285D01*
X109648604Y-69982446D01*
X109848082Y-69989421D01*
X109858212Y-69990590D01*
X109962359Y-70007758D01*
X110083577Y-70034771D01*
X110208707Y-70068149D01*
X110324588Y-70104416D01*
X110418061Y-70140090D01*
X110469435Y-70162028D01*
X110512942Y-70179263D01*
X110533624Y-70185659D01*
X110534932Y-70182888D01*
X110525695Y-70159456D01*
X110502914Y-70120051D01*
X110489512Y-70102200D01*
X110437400Y-70051828D01*
X110362313Y-69993997D01*
X110271198Y-69933457D01*
X110171010Y-69874962D01*
X110068698Y-69823261D01*
X109927799Y-69767533D01*
X109726138Y-69718409D01*
X109523130Y-69703163D01*
X109322321Y-69721682D01*
X109127254Y-69773850D01*
X108941472Y-69859555D01*
X108842805Y-69922717D01*
X108718528Y-70018420D01*
X108600241Y-70125416D01*
X108500784Y-70232826D01*
X108498330Y-70235814D01*
X108452251Y-70295820D01*
X108404212Y-70364373D01*
X108358888Y-70434024D01*
X108320953Y-70497327D01*
X108295083Y-70546836D01*
X108285950Y-70575101D01*
X108058971Y-70575101D01*
X108089324Y-70474318D01*
X108125691Y-70369894D01*
X108166208Y-70274039D01*
X108215239Y-70177476D01*
X108277145Y-70070925D01*
X108356293Y-69945106D01*
X108356833Y-69944267D01*
X108458612Y-69782662D01*
X108539813Y-69643940D01*
X108601907Y-69522816D01*
X108646367Y-69413998D01*
X108674663Y-69312200D01*
X108688268Y-69212134D01*
X108688654Y-69108512D01*
X108677292Y-68996044D01*
X108655653Y-68869443D01*
X108641632Y-68793959D01*
X108630317Y-68725920D01*
X108623939Y-68678397D01*
X108623607Y-68658674D01*
X108623614Y-68658666D01*
X108645920Y-68654950D01*
X108696324Y-68656178D01*
X108767588Y-68661596D01*
X108852475Y-68670450D01*
X108943748Y-68681985D01*
X109034170Y-68695445D01*
X109116502Y-68710077D01*
X109235759Y-68739160D01*
X109389502Y-68789323D01*
X109546555Y-68852252D01*
X109697212Y-68923650D01*
X109831759Y-68999223D01*
X109940490Y-69074673D01*
X109966080Y-69094199D01*
X110012071Y-69124689D01*
X110047625Y-69142732D01*
X110066535Y-69145506D01*
X110062596Y-69130188D01*
X110061189Y-69128225D01*
X110041346Y-69102462D01*
X110004546Y-69055861D01*
X109955499Y-68994356D01*
X109898911Y-68923878D01*
X109885314Y-68906970D01*
X109832813Y-68841107D01*
X109790974Y-68787704D01*
X109763767Y-68751873D01*
X109755158Y-68738724D01*
X109759734Y-68739645D01*
X109791101Y-68747764D01*
X109845156Y-68762473D01*
X109913827Y-68781591D01*
X110125280Y-68853168D01*
X110316548Y-68945491D01*
X110477205Y-69055549D01*
X110606888Y-69183132D01*
X110617928Y-69196418D01*
X110686800Y-69285912D01*
X110742945Y-69374304D01*
X110793275Y-69473592D01*
X110844707Y-69595772D01*
X110862547Y-69641782D01*
X110877753Y-69685343D01*
X110889324Y-69727783D01*
X110898163Y-69775251D01*
X110905167Y-69833891D01*
X110911240Y-69909848D01*
X110917279Y-70009271D01*
X110924186Y-70138303D01*
X110925401Y-70162424D01*
G37*
%TO.C,kibuzzard-63FC17FB*%
G36*
X116943336Y-98095417D02*
G01*
X117028426Y-98122087D01*
X117087481Y-98174157D01*
X117109706Y-98259247D01*
X117109071Y-98282107D01*
X117105896Y-98304967D01*
X116577576Y-98304967D01*
X116576306Y-98290997D01*
X116576306Y-98277027D01*
X116596626Y-98187492D01*
X116652506Y-98129072D01*
X116736961Y-98097322D01*
X116788237Y-98090178D01*
X116844276Y-98087797D01*
X116943336Y-98095417D01*
G37*
G36*
X116175833Y-97310557D02*
G01*
X116175833Y-97045974D01*
X116843006Y-96601192D01*
X117510179Y-97045974D01*
X117510179Y-97310557D01*
X117510179Y-98461177D01*
X117510179Y-98725760D01*
X116175833Y-98725760D01*
X116175833Y-98461177D01*
X116175833Y-98293537D01*
X116440416Y-98293537D01*
X116444861Y-98375452D01*
X116459466Y-98461177D01*
X117226546Y-98461177D01*
X117241786Y-98360847D01*
X117245596Y-98273217D01*
X117239881Y-98199081D01*
X117222736Y-98131612D01*
X117193367Y-98072398D01*
X117150981Y-98023027D01*
X117095418Y-97983498D01*
X117026521Y-97953812D01*
X116943177Y-97935238D01*
X116844276Y-97929047D01*
X116743152Y-97935873D01*
X116658221Y-97956352D01*
X116588530Y-97988896D01*
X116533126Y-98031917D01*
X116491375Y-98084781D01*
X116462641Y-98146852D01*
X116445972Y-98216861D01*
X116440416Y-98293537D01*
X116175833Y-98293537D01*
X116175833Y-97644567D01*
X116498836Y-97644567D01*
X116719816Y-97644567D01*
X116719816Y-97843957D01*
X116848086Y-97843957D01*
X116848086Y-97644567D01*
X117069066Y-97644567D01*
X117069066Y-97509947D01*
X116848086Y-97509947D01*
X116848086Y-97310557D01*
X116719816Y-97310557D01*
X116719816Y-97509947D01*
X116498836Y-97509947D01*
X116498836Y-97644567D01*
X116175833Y-97644567D01*
X116175833Y-97509947D01*
X116175833Y-97310557D01*
G37*
%TO.C,kibuzzard-63FC2CA9*%
G36*
X138851781Y-47995205D02*
G01*
X138874641Y-47998380D01*
X138874641Y-48526700D01*
X138860671Y-48527970D01*
X138846701Y-48527970D01*
X138757166Y-48507650D01*
X138698746Y-48451770D01*
X138666996Y-48367315D01*
X138659852Y-48316039D01*
X138657471Y-48260000D01*
X138665091Y-48160940D01*
X138691761Y-48075850D01*
X138743831Y-48016795D01*
X138828921Y-47994570D01*
X138851781Y-47995205D01*
G37*
G36*
X139283581Y-48934793D02*
G01*
X138863211Y-48934793D01*
X138498721Y-48934793D01*
X138234138Y-48934793D01*
X137784276Y-48260000D01*
X138498721Y-48260000D01*
X138505547Y-48361124D01*
X138526026Y-48446055D01*
X138558570Y-48515746D01*
X138601591Y-48571150D01*
X138654455Y-48612901D01*
X138716526Y-48641635D01*
X138786535Y-48658304D01*
X138863211Y-48663860D01*
X138945126Y-48659415D01*
X138978671Y-48653700D01*
X139157851Y-48653700D01*
X139283581Y-48653700D01*
X139320199Y-48566564D01*
X139358934Y-48479569D01*
X139399786Y-48392715D01*
X139442754Y-48305861D01*
X139487839Y-48218866D01*
X139535041Y-48131730D01*
X139535041Y-48653700D01*
X139676011Y-48653700D01*
X139676011Y-47906940D01*
X139780151Y-47906940D01*
X139820791Y-48031400D01*
X139889371Y-47999650D01*
X139973191Y-47985680D01*
X140067171Y-48006000D01*
X140130036Y-48062515D01*
X140165596Y-48148875D01*
X140173692Y-48201739D01*
X140176391Y-48260000D01*
X140171452Y-48345725D01*
X140156636Y-48414940D01*
X140131941Y-48467645D01*
X140077014Y-48517651D01*
X140001131Y-48534320D01*
X139970651Y-48533050D01*
X139940171Y-48529240D01*
X139940171Y-48242220D01*
X139783961Y-48242220D01*
X139783961Y-48634650D01*
X139870956Y-48657510D01*
X139936202Y-48667035D01*
X140013831Y-48670210D01*
X140083840Y-48663701D01*
X140146546Y-48644175D01*
X140201315Y-48611790D01*
X140247511Y-48566705D01*
X140284659Y-48508920D01*
X140312281Y-48438435D01*
X140329426Y-48355409D01*
X140335141Y-48260000D01*
X140328474Y-48165544D01*
X140308471Y-48082835D01*
X140277039Y-48012191D01*
X140236081Y-47953930D01*
X140186234Y-47908369D01*
X140128131Y-47875825D01*
X140063679Y-47856299D01*
X139994781Y-47849790D01*
X139912866Y-47856775D01*
X139850001Y-47872650D01*
X139806186Y-47891700D01*
X139780151Y-47906940D01*
X139676011Y-47906940D01*
X139676011Y-47867570D01*
X139550281Y-47867570D01*
X139514721Y-47925831D01*
X139479161Y-47988855D01*
X139444077Y-48054101D01*
X139409946Y-48119030D01*
X139377561Y-48182847D01*
X139347716Y-48244760D01*
X139321205Y-48301910D01*
X139298821Y-48351440D01*
X139298821Y-47867570D01*
X139157851Y-47867570D01*
X139157851Y-48653700D01*
X138978671Y-48653700D01*
X139030851Y-48644810D01*
X139030851Y-47877730D01*
X138930521Y-47862490D01*
X138842891Y-47858680D01*
X138768755Y-47864395D01*
X138701286Y-47881540D01*
X138642072Y-47910909D01*
X138592701Y-47953295D01*
X138553172Y-48008857D01*
X138523486Y-48077755D01*
X138504912Y-48161099D01*
X138498721Y-48260000D01*
X137784276Y-48260000D01*
X138234138Y-47585207D01*
X138498721Y-47585207D01*
X140335141Y-47585207D01*
X140599724Y-47585207D01*
X140599724Y-48934793D01*
X140335141Y-48934793D01*
X140013831Y-48934793D01*
X139283581Y-48934793D01*
G37*
%TO.C,kibuzzard-63FC180E*%
G36*
X122025005Y-96837452D02*
G01*
X122110095Y-96864122D01*
X122169150Y-96916192D01*
X122191375Y-97001282D01*
X122190740Y-97024142D01*
X122187565Y-97047002D01*
X121659245Y-97047002D01*
X121657975Y-97033032D01*
X121657975Y-97019062D01*
X121678295Y-96929527D01*
X121734175Y-96871107D01*
X121818630Y-96839357D01*
X121869906Y-96832213D01*
X121925945Y-96829832D01*
X122025005Y-96837452D01*
G37*
G36*
X121251152Y-97035572D02*
G01*
X121522085Y-97035572D01*
X121526530Y-97117487D01*
X121541135Y-97203212D01*
X122308215Y-97203212D01*
X122323455Y-97102882D01*
X122327265Y-97015252D01*
X122321550Y-96941116D01*
X122304405Y-96873647D01*
X122275036Y-96814433D01*
X122232650Y-96765062D01*
X122177088Y-96725533D01*
X122108190Y-96695847D01*
X122024846Y-96677273D01*
X121925945Y-96671082D01*
X121824821Y-96677908D01*
X121739890Y-96698387D01*
X121670199Y-96730931D01*
X121614795Y-96773952D01*
X121573044Y-96826816D01*
X121544310Y-96888887D01*
X121527641Y-96958896D01*
X121522085Y-97035572D01*
X121251152Y-97035572D01*
X121251152Y-96671082D01*
X121251152Y-96406499D01*
X121925945Y-95956637D01*
X122600738Y-96406499D01*
X122600738Y-96671082D01*
X122600738Y-98507502D01*
X122600738Y-98772085D01*
X121251152Y-98772085D01*
X121251152Y-98507502D01*
X121251152Y-98186192D01*
X121515735Y-98186192D01*
X121522244Y-98256201D01*
X121541770Y-98318907D01*
X121574155Y-98373676D01*
X121619240Y-98419872D01*
X121677025Y-98457020D01*
X121747510Y-98484642D01*
X121830536Y-98501787D01*
X121925945Y-98507502D01*
X122020401Y-98500835D01*
X122103110Y-98480832D01*
X122173754Y-98449400D01*
X122232015Y-98408442D01*
X122277576Y-98358595D01*
X122310120Y-98300492D01*
X122329646Y-98236040D01*
X122336155Y-98167142D01*
X122329170Y-98085227D01*
X122313295Y-98022362D01*
X122294245Y-97978547D01*
X122279005Y-97952512D01*
X122154545Y-97993152D01*
X122186295Y-98061732D01*
X122200265Y-98145552D01*
X122179945Y-98239532D01*
X122123430Y-98302397D01*
X122037070Y-98337957D01*
X121984206Y-98346053D01*
X121925945Y-98348752D01*
X121840220Y-98343813D01*
X121771005Y-98328997D01*
X121718300Y-98304302D01*
X121668294Y-98249375D01*
X121651625Y-98173492D01*
X121652895Y-98143012D01*
X121656705Y-98112532D01*
X121943725Y-98112532D01*
X121943725Y-97956322D01*
X121551295Y-97956322D01*
X121528435Y-98043317D01*
X121518910Y-98108563D01*
X121515735Y-98186192D01*
X121251152Y-98186192D01*
X121251152Y-97455942D01*
X121251152Y-97330212D01*
X121532245Y-97330212D01*
X121532245Y-97455942D01*
X121619381Y-97492560D01*
X121706376Y-97531295D01*
X121793230Y-97572147D01*
X121880084Y-97615115D01*
X121967079Y-97660200D01*
X122054215Y-97707402D01*
X121532245Y-97707402D01*
X121532245Y-97848372D01*
X122318375Y-97848372D01*
X122318375Y-97722642D01*
X122260114Y-97687082D01*
X122197090Y-97651522D01*
X122131844Y-97616438D01*
X122066915Y-97582307D01*
X122003098Y-97549922D01*
X121941185Y-97520077D01*
X121884035Y-97493566D01*
X121834505Y-97471182D01*
X122318375Y-97471182D01*
X122318375Y-97330212D01*
X121532245Y-97330212D01*
X121251152Y-97330212D01*
X121251152Y-97035572D01*
G37*
%TO.C,kibuzzard-63FC2CB3*%
G36*
X139493131Y-54014793D02*
G01*
X138823841Y-54014793D01*
X138521581Y-54014793D01*
X138256998Y-54014793D01*
X137913816Y-53500020D01*
X138521581Y-53500020D01*
X138539361Y-53600350D01*
X138593971Y-53679725D01*
X138635881Y-53709570D01*
X138687951Y-53731795D01*
X138750499Y-53745606D01*
X138823841Y-53750210D01*
X138885436Y-53745765D01*
X138947666Y-53734970D01*
X139002911Y-53721000D01*
X139042281Y-53707030D01*
X139011801Y-53576220D01*
X138936236Y-53602890D01*
X138885277Y-53613367D01*
X138825111Y-53616860D01*
X138757007Y-53608288D01*
X138712716Y-53582570D01*
X138680331Y-53497480D01*
X138692714Y-53444616D01*
X138729861Y-53410485D01*
X138786059Y-53391911D01*
X138855591Y-53385720D01*
X138903851Y-53385720D01*
X138903851Y-53256180D01*
X138845431Y-53256180D01*
X138797171Y-53251100D01*
X138753991Y-53234590D01*
X138722876Y-53204110D01*
X138710811Y-53155850D01*
X138736846Y-53087905D01*
X138808601Y-53063140D01*
X138896866Y-53077745D01*
X138972431Y-53113940D01*
X139028311Y-52999640D01*
X138937506Y-52953285D01*
X138917992Y-52947570D01*
X139109591Y-52947570D01*
X139126577Y-53028215D01*
X139147056Y-53117750D01*
X139170869Y-53214111D01*
X139197856Y-53315235D01*
X139217541Y-53384662D01*
X139238496Y-53454935D01*
X139260721Y-53526055D01*
X139283863Y-53596822D01*
X139307570Y-53666037D01*
X139331841Y-53733700D01*
X139493131Y-53733700D01*
X139524564Y-53640355D01*
X139557901Y-53535580D01*
X139568743Y-53500020D01*
X139791581Y-53500020D01*
X139809361Y-53600350D01*
X139863971Y-53679725D01*
X139905881Y-53709570D01*
X139957951Y-53731795D01*
X140020499Y-53745606D01*
X140093841Y-53750210D01*
X140155436Y-53745765D01*
X140217666Y-53734970D01*
X140272911Y-53721000D01*
X140312281Y-53707030D01*
X140281801Y-53576220D01*
X140206236Y-53602890D01*
X140155277Y-53613367D01*
X140095111Y-53616860D01*
X140027007Y-53608288D01*
X139982716Y-53582570D01*
X139950331Y-53497480D01*
X139962714Y-53444616D01*
X139999861Y-53410485D01*
X140056059Y-53391911D01*
X140125591Y-53385720D01*
X140173851Y-53385720D01*
X140173851Y-53256180D01*
X140115431Y-53256180D01*
X140067171Y-53251100D01*
X140023991Y-53234590D01*
X139992876Y-53204110D01*
X139980811Y-53155850D01*
X140006846Y-53087905D01*
X140078601Y-53063140D01*
X140166866Y-53077745D01*
X140242431Y-53113940D01*
X140298311Y-52999640D01*
X140207506Y-52953285D01*
X140147340Y-52935664D01*
X140079871Y-52929790D01*
X140018117Y-52933917D01*
X139964936Y-52946300D01*
X139884291Y-52992655D01*
X139837301Y-53063140D01*
X139822061Y-53150770D01*
X139848731Y-53240940D01*
X139919851Y-53306980D01*
X139865717Y-53338412D01*
X139825236Y-53381910D01*
X139799995Y-53436202D01*
X139791581Y-53500020D01*
X139568743Y-53500020D01*
X139580338Y-53461991D01*
X139601928Y-53388542D01*
X139622671Y-53315235D01*
X139642286Y-53243339D01*
X139660489Y-53174124D01*
X139677281Y-53107590D01*
X139698236Y-53018690D01*
X139712841Y-52947570D01*
X139547741Y-52947570D01*
X139538216Y-53013451D01*
X139524881Y-53089175D01*
X139508847Y-53171090D01*
X139491226Y-53255545D01*
X139472176Y-53340635D01*
X139451856Y-53424455D01*
X139431060Y-53503354D01*
X139410581Y-53573680D01*
X139390261Y-53504306D01*
X139369941Y-53425725D01*
X139350256Y-53341905D01*
X139331841Y-53256815D01*
X139314696Y-53172201D01*
X139298821Y-53089810D01*
X139284851Y-53013610D01*
X139273421Y-52947570D01*
X139109591Y-52947570D01*
X138917992Y-52947570D01*
X138877340Y-52935664D01*
X138809871Y-52929790D01*
X138748117Y-52933917D01*
X138694936Y-52946300D01*
X138614291Y-52992655D01*
X138567301Y-53063140D01*
X138552061Y-53150770D01*
X138578731Y-53240940D01*
X138649851Y-53306980D01*
X138595717Y-53338412D01*
X138555236Y-53381910D01*
X138529995Y-53436202D01*
X138521581Y-53500020D01*
X137913816Y-53500020D01*
X137807136Y-53340000D01*
X138256998Y-52665207D01*
X138521581Y-52665207D01*
X140312281Y-52665207D01*
X140576864Y-52665207D01*
X140576864Y-54014793D01*
X140312281Y-54014793D01*
X140093841Y-54014793D01*
X139493131Y-54014793D01*
G37*
%TO.C,kibuzzard-63FC17E4*%
G36*
X111097103Y-97663829D02*
G01*
X111097103Y-97502539D01*
X111378196Y-97502539D01*
X111378196Y-97663829D01*
X111471541Y-97695261D01*
X111576316Y-97728599D01*
X111649905Y-97751035D01*
X111723354Y-97772625D01*
X111796661Y-97793369D01*
X111868557Y-97812983D01*
X111937772Y-97831187D01*
X112004306Y-97847979D01*
X112093206Y-97868934D01*
X112164326Y-97883539D01*
X112164326Y-97718439D01*
X112098445Y-97708914D01*
X112022721Y-97695579D01*
X111940806Y-97679545D01*
X111856351Y-97661924D01*
X111771261Y-97642874D01*
X111687441Y-97622554D01*
X111608542Y-97601758D01*
X111538216Y-97581279D01*
X111607590Y-97560959D01*
X111686171Y-97540639D01*
X111769991Y-97520954D01*
X111855081Y-97502539D01*
X111939695Y-97485394D01*
X112022086Y-97469519D01*
X112098286Y-97455549D01*
X112164326Y-97444119D01*
X112164326Y-97280289D01*
X112083681Y-97297275D01*
X111994146Y-97317754D01*
X111897785Y-97341566D01*
X111796661Y-97368554D01*
X111727234Y-97388239D01*
X111656961Y-97409194D01*
X111585841Y-97431419D01*
X111515074Y-97454561D01*
X111445859Y-97478268D01*
X111378196Y-97502539D01*
X111097103Y-97502539D01*
X111097103Y-97280289D01*
X111097103Y-97015705D01*
X111763006Y-96571770D01*
X112428909Y-97015705D01*
X112428909Y-97280289D01*
X112428909Y-98490599D01*
X112428909Y-98755182D01*
X111097103Y-98755182D01*
X111097103Y-98490599D01*
X111097103Y-98278509D01*
X111361686Y-98278509D01*
X111365496Y-98340739D01*
X111375021Y-98401699D01*
X111388356Y-98454404D01*
X111402326Y-98490599D01*
X111531866Y-98458849D01*
X111506466Y-98387729D01*
X111497893Y-98339151D01*
X111495036Y-98279779D01*
X111505196Y-98204214D01*
X111531231Y-98157224D01*
X111567426Y-98133729D01*
X111609336Y-98127379D01*
X111669661Y-98138174D01*
X111716651Y-98181354D01*
X111747131Y-98273429D01*
X111755227Y-98342326D01*
X111757926Y-98429639D01*
X111863495Y-98418209D01*
X111966841Y-98409319D01*
X112067330Y-98402651D01*
X112164326Y-98397889D01*
X112164326Y-97996569D01*
X112034786Y-97996569D01*
X112034786Y-98267079D01*
X111949696Y-98273429D01*
X111877306Y-98279779D01*
X111864324Y-98183682D01*
X111838924Y-98105365D01*
X111801106Y-98044829D01*
X111751153Y-98001790D01*
X111689346Y-97975967D01*
X111615686Y-97967359D01*
X111514721Y-97986409D01*
X111434076Y-98044829D01*
X111403596Y-98088961D01*
X111380736Y-98142619D01*
X111366448Y-98205801D01*
X111361686Y-98278509D01*
X111097103Y-98278509D01*
X111097103Y-97663829D01*
G37*
D12*
%TO.C,J4*%
X142494000Y-44450000D02*
X143129000Y-45085000D01*
X141224000Y-44450000D02*
X142494000Y-44450000D01*
X140589000Y-45085000D02*
X141224000Y-44450000D01*
X140589000Y-45085000D02*
X140589000Y-46355000D01*
X143129000Y-46355000D02*
X143129000Y-45085000D01*
X140589000Y-46355000D02*
X141224000Y-46990000D01*
X142494000Y-46990000D02*
X143129000Y-46355000D01*
X141224000Y-46990000D02*
X140589000Y-47625000D01*
X143129000Y-47625000D02*
X142494000Y-46990000D01*
X140589000Y-47625000D02*
X140589000Y-48895000D01*
X143129000Y-48895000D02*
X143129000Y-47625000D01*
X140589000Y-48895000D02*
X141224000Y-49530000D01*
X142494000Y-49530000D02*
X143129000Y-48895000D01*
X141224000Y-49530000D02*
X140589000Y-50165000D01*
X143129000Y-50165000D02*
X142494000Y-49530000D01*
X140589000Y-50165000D02*
X140589000Y-51435000D01*
X143129000Y-51435000D02*
X143129000Y-50165000D01*
X140589000Y-51435000D02*
X141224000Y-52070000D01*
X142494000Y-52070000D02*
X143129000Y-51435000D01*
X142494000Y-52070000D02*
X143129000Y-52705000D01*
X140589000Y-52705000D02*
X141224000Y-52070000D01*
X140589000Y-52705000D02*
X140589000Y-53975000D01*
X143129000Y-53975000D02*
X143129000Y-52705000D01*
X140589000Y-53975000D02*
X141224000Y-54610000D01*
X142494000Y-54610000D02*
X143129000Y-53975000D01*
X141224000Y-54610000D02*
X140589000Y-55245000D01*
X143129000Y-55245000D02*
X142494000Y-54610000D01*
X140589000Y-55245000D02*
X140589000Y-56515000D01*
X143129000Y-56515000D02*
X143129000Y-55245000D01*
X140589000Y-56515000D02*
X141224000Y-57150000D01*
X142494000Y-57150000D02*
X143129000Y-56515000D01*
X141224000Y-57150000D02*
X140589000Y-57785000D01*
X143129000Y-57785000D02*
X142494000Y-57150000D01*
X140589000Y-57785000D02*
X140589000Y-59055000D01*
X143129000Y-59055000D02*
X143129000Y-57785000D01*
X140589000Y-59055000D02*
X141224000Y-59690000D01*
X142494000Y-59690000D02*
X143129000Y-59055000D01*
X142494000Y-59690000D02*
X143129000Y-60325000D01*
X140589000Y-60325000D02*
X141224000Y-59690000D01*
X140589000Y-60325000D02*
X140589000Y-61595000D01*
X143129000Y-61595000D02*
X143129000Y-60325000D01*
X140589000Y-61595000D02*
X141224000Y-62230000D01*
X142494000Y-62230000D02*
X143129000Y-61595000D01*
X141224000Y-62230000D02*
X142494000Y-62230000D01*
%TO.C,kibuzzard-63FC1A6B*%
G36*
X110309176Y-49744985D02*
G01*
X110573759Y-49744985D01*
X110578204Y-49806580D01*
X110588999Y-49868810D01*
X110602969Y-49924055D01*
X110616939Y-49963425D01*
X110747749Y-49932945D01*
X110721079Y-49857380D01*
X110710602Y-49806421D01*
X110707109Y-49746255D01*
X110715681Y-49678151D01*
X110741399Y-49633860D01*
X110826489Y-49601475D01*
X110879353Y-49613858D01*
X110913484Y-49651005D01*
X110932058Y-49707203D01*
X110938249Y-49776735D01*
X110938249Y-49824995D01*
X111067789Y-49824995D01*
X111067789Y-49766575D01*
X111072869Y-49718315D01*
X111089379Y-49675135D01*
X111119859Y-49644020D01*
X111168119Y-49631955D01*
X111236064Y-49657990D01*
X111260829Y-49729745D01*
X111246224Y-49818010D01*
X111210029Y-49893575D01*
X111324329Y-49949455D01*
X111370684Y-49858650D01*
X111388305Y-49798484D01*
X111394179Y-49731015D01*
X111390052Y-49669261D01*
X111377669Y-49616080D01*
X111331314Y-49535435D01*
X111260829Y-49488445D01*
X111173199Y-49473205D01*
X111083029Y-49499875D01*
X111016989Y-49570995D01*
X110985557Y-49516861D01*
X110942059Y-49476380D01*
X110887767Y-49451139D01*
X110823949Y-49442725D01*
X110723619Y-49460505D01*
X110644244Y-49515115D01*
X110614399Y-49557025D01*
X110592174Y-49609095D01*
X110578363Y-49671643D01*
X110573759Y-49744985D01*
X110309176Y-49744985D01*
X110309176Y-49442725D01*
X110309176Y-49178142D01*
X110983969Y-48728280D01*
X111658762Y-49178142D01*
X111658762Y-49442725D01*
X111658762Y-51233425D01*
X111658762Y-51498008D01*
X110309176Y-51498008D01*
X110309176Y-51233425D01*
X110309176Y-51014985D01*
X110573759Y-51014985D01*
X110578204Y-51076580D01*
X110588999Y-51138810D01*
X110602969Y-51194055D01*
X110616939Y-51233425D01*
X110747749Y-51202945D01*
X110721079Y-51127380D01*
X110710602Y-51076421D01*
X110707109Y-51016255D01*
X110715681Y-50948151D01*
X110741399Y-50903860D01*
X110826489Y-50871475D01*
X110879353Y-50883858D01*
X110913484Y-50921005D01*
X110932058Y-50977203D01*
X110938249Y-51046735D01*
X110938249Y-51094995D01*
X111067789Y-51094995D01*
X111067789Y-51036575D01*
X111072869Y-50988315D01*
X111089379Y-50945135D01*
X111119859Y-50914020D01*
X111168119Y-50901955D01*
X111236064Y-50927990D01*
X111260829Y-50999745D01*
X111246224Y-51088010D01*
X111210029Y-51163575D01*
X111324329Y-51219455D01*
X111370684Y-51128650D01*
X111388305Y-51068484D01*
X111394179Y-51001015D01*
X111390052Y-50939261D01*
X111377669Y-50886080D01*
X111331314Y-50805435D01*
X111260829Y-50758445D01*
X111173199Y-50743205D01*
X111083029Y-50769875D01*
X111016989Y-50840995D01*
X110985557Y-50786861D01*
X110942059Y-50746380D01*
X110887767Y-50721139D01*
X110823949Y-50712725D01*
X110723619Y-50730505D01*
X110644244Y-50785115D01*
X110614399Y-50827025D01*
X110592174Y-50879095D01*
X110578363Y-50941643D01*
X110573759Y-51014985D01*
X110309176Y-51014985D01*
X110309176Y-50414275D01*
X110309176Y-50252985D01*
X110590269Y-50252985D01*
X110590269Y-50414275D01*
X110683614Y-50445708D01*
X110788389Y-50479045D01*
X110861978Y-50501482D01*
X110935427Y-50523072D01*
X111008734Y-50543815D01*
X111080630Y-50563430D01*
X111149845Y-50581633D01*
X111216379Y-50598425D01*
X111305279Y-50619380D01*
X111376399Y-50633985D01*
X111376399Y-50468885D01*
X111310518Y-50459360D01*
X111234794Y-50446025D01*
X111152879Y-50429991D01*
X111068424Y-50412370D01*
X110983334Y-50393320D01*
X110899514Y-50373000D01*
X110820615Y-50352204D01*
X110750289Y-50331725D01*
X110819663Y-50311405D01*
X110898244Y-50291085D01*
X110982064Y-50271400D01*
X111067154Y-50252985D01*
X111151768Y-50235840D01*
X111234159Y-50219965D01*
X111310359Y-50205995D01*
X111376399Y-50194565D01*
X111376399Y-50030735D01*
X111295754Y-50047721D01*
X111206219Y-50068200D01*
X111109858Y-50092013D01*
X111008734Y-50119000D01*
X110939307Y-50138685D01*
X110869034Y-50159640D01*
X110797914Y-50181865D01*
X110727147Y-50205007D01*
X110657932Y-50228714D01*
X110590269Y-50252985D01*
X110309176Y-50252985D01*
X110309176Y-49744985D01*
G37*
%TO.C,kibuzzard-63FC2CC3*%
G36*
X139186762Y-59077648D02*
G01*
X139017852Y-59077648D01*
X138753269Y-59077648D01*
X138576880Y-58813065D01*
X139017852Y-58813065D01*
X139186762Y-58813065D01*
X139213591Y-58744803D01*
X139245817Y-58669555D01*
X139281536Y-58590815D01*
X139318842Y-58512075D01*
X139355672Y-58588434D01*
X139392502Y-58667650D01*
X139426792Y-58744326D01*
X139456002Y-58813065D01*
X139624912Y-58813065D01*
X139587447Y-58730515D01*
X139561412Y-58680350D01*
X139532837Y-58626375D01*
X139502198Y-58569701D01*
X139469972Y-58511440D01*
X139437587Y-58453496D01*
X139406472Y-58397775D01*
X139540344Y-58156475D01*
X139670632Y-58156475D01*
X139877642Y-58156475D01*
X139877642Y-58813065D01*
X140035122Y-58813065D01*
X140035122Y-58156475D01*
X140242132Y-58156475D01*
X140242132Y-58026935D01*
X139670632Y-58026935D01*
X139670632Y-58156475D01*
X139540344Y-58156475D01*
X139612212Y-58026935D01*
X139443302Y-58026935D01*
X139318842Y-58278395D01*
X139188032Y-58026935D01*
X139030552Y-58026935D01*
X139231212Y-58393965D01*
X139197240Y-58449845D01*
X139163902Y-58508265D01*
X139131993Y-58567161D01*
X139102307Y-58624470D01*
X139075478Y-58679080D01*
X139052142Y-58729880D01*
X139017852Y-58813065D01*
X138576880Y-58813065D01*
X138314837Y-58420000D01*
X138753269Y-57762352D01*
X139017852Y-57762352D01*
X140242132Y-57762352D01*
X140506715Y-57762352D01*
X140506715Y-59077648D01*
X140242132Y-59077648D01*
X139877642Y-59077648D01*
X139186762Y-59077648D01*
G37*
%TD*%
%LPC*%
D13*
%TO.C,REF\u002A\u002A*%
X141605000Y-39370000D03*
%TD*%
D14*
%TO.C,CN1*%
X132080000Y-109728000D03*
X132080000Y-103728000D03*
D15*
X134479999Y-109727999D03*
X134479999Y-102727999D03*
X129679999Y-107727999D03*
%TD*%
D13*
%TO.C,REF\u002A\u002A*%
X102870000Y-108458000D03*
%TD*%
D16*
%TO.C,AE1*%
X102234999Y-58927999D03*
%TD*%
%TO.C,J6*%
X121919999Y-100075999D03*
D17*
X119379999Y-100075999D03*
X116839999Y-100075999D03*
X114299999Y-100075999D03*
X111759999Y-100075999D03*
%TD*%
D18*
%TO.C,SW2*%
X128905000Y-76490000D03*
X122405000Y-80990000D03*
X128905000Y-80990000D03*
X122405000Y-76490000D03*
%TD*%
D16*
%TO.C,J3*%
X108584999Y-58419999D03*
D17*
X111124999Y-58419999D03*
X113664999Y-58419999D03*
%TD*%
D18*
%TO.C,SW1*%
X128905000Y-67255000D03*
X122405000Y-71755000D03*
X128905000Y-71755000D03*
X122405000Y-67255000D03*
%TD*%
D13*
%TO.C,REF\u002A\u002A*%
X141605000Y-108458000D03*
%TD*%
D19*
%TO.C,J1*%
X112680000Y-106720000D03*
X118460000Y-106720000D03*
D20*
X111249999Y-106189999D03*
D21*
X111249999Y-110369999D03*
D20*
X119889999Y-106189999D03*
D21*
X119889999Y-110369999D03*
%TD*%
D13*
%TO.C,REF\u002A\u002A*%
X102870000Y-39370000D03*
%TD*%
D22*
%TO.C,SW3*%
X127634999Y-87709999D03*
X140134999Y-87709999D03*
X127634999Y-92709999D03*
X140134999Y-92709999D03*
%TD*%
D16*
%TO.C,J2*%
X108584999Y-52806999D03*
D17*
X111124999Y-52806999D03*
X113664999Y-52806999D03*
%TD*%
D23*
%TO.C,J4*%
X141732000Y-45720000D03*
X141986000Y-48260000D03*
X141732000Y-50800000D03*
X141986000Y-53340000D03*
X141732000Y-55880000D03*
X141986000Y-58420000D03*
X141732000Y-60960000D03*
%TD*%
M02*
