M48
; DRILL file {KiCad (7.0.0)} date Wed Apr  5 21:50:32 2023
; FORMAT={-:-/ absolute / inch / decimal}
; #@! TF.CreationDate,2023-04-05T21:50:32-07:00
; #@! TF.GenerationSoftware,Kicad,Pcbnew,(7.0.0)
; #@! TF.FileFunction,Plated,1,2,PTH
FMAT,2
INCH
; #@! TA.AperFunction,Plated,PTH,ComponentDrill
T1C0.0079
; #@! TA.AperFunction,Plated,PTH,ViaDrill
T2C0.0157
; #@! TA.AperFunction,Plated,PTH,ComponentDrill
T3C0.0236
; #@! TA.AperFunction,Plated,PTH,ComponentDrill
T4C0.0276
; #@! TA.AperFunction,Plated,PTH,ComponentDrill
T5C0.0394
; #@! TA.AperFunction,Plated,PTH,ComponentDrill
T6C0.0400
; #@! TA.AperFunction,Plated,PTH,ComponentDrill
T7C0.0433
; #@! TA.AperFunction,Plated,PTH,ComponentDrill
T8C0.0512
%
G90
G05
T1
X4.9648Y-2.0293
X4.9648Y-2.0844
X4.9923Y-2.0017
X4.9923Y-2.0569
X4.9923Y-2.112
X5.0199Y-2.0293
X5.0199Y-2.0844
X5.0474Y-2.0017
X5.0474Y-2.0569
X5.0474Y-2.112
X5.075Y-2.0293
X5.075Y-2.0844
T2
X4.14Y-3.66
X4.34Y-4.04
X4.36Y-4.1
X4.54Y-3.72
X4.6Y-2.66
X4.62Y-2.0
X4.62Y-2.295
X4.62Y-3.4
X4.64Y-1.8
X4.64Y-4.34
X4.66Y-1.9
X4.68Y-3.82
X4.74Y-2.6
X4.74Y-3.4
X4.8Y-4.12
X4.88Y-4.28
X5.16Y-2.92
X5.2981Y-3.0978
X5.36Y-4.16
X5.48Y-2.62
X5.48Y-2.94
X5.5201Y-3.1175
X5.56Y-2.94
X5.5991Y-2.6844
X5.62Y-2.88
T5
X4.025Y-2.32
X4.275Y-2.079
X4.275Y-2.3
X4.375Y-2.079
X4.375Y-2.3
X4.4Y-3.94
X4.475Y-2.079
X4.475Y-2.3
X4.5Y-3.94
X4.6Y-3.94
X4.7Y-3.94
X4.8Y-3.94
T6
X5.58Y-1.8
X5.58Y-2.0
X5.58Y-2.2
X5.58Y-2.4
X5.59Y-1.9
X5.59Y-2.1
X5.59Y-2.3
T7
X4.8191Y-2.6478
X4.8191Y-2.825
X4.8191Y-3.0114
X4.8191Y-3.1886
X5.075Y-2.6478
X5.075Y-2.825
X5.075Y-3.0114
X5.075Y-3.1886
T8
X5.025Y-3.4531
X5.025Y-3.65
X5.5171Y-3.4531
X5.5171Y-3.65
T3
G00X4.3799Y-4.1591
M15
G01X4.3799Y-4.2024
M16
G05
G00X4.3799Y-4.3335
M15
G01X4.3799Y-4.3571
M16
G05
G00X4.7201Y-4.1591
M15
G01X4.7201Y-4.2024
M16
G05
G00X4.7201Y-4.3335
M15
G01X4.7201Y-4.3571
M16
G05
T4
G00X5.1055Y-4.2531
M15
G01X5.1055Y-4.2294
M16
G05
G00X5.2945Y-4.0562
M15
G01X5.2945Y-4.0326
M16
G05
G00X5.2945Y-4.3318
M15
G01X5.2945Y-4.3082
M16
G05
T0
M30
