%TF.GenerationSoftware,KiCad,Pcbnew,(7.0.0)*%
%TF.CreationDate,2023-04-05T21:50:32-07:00*%
%TF.ProjectId,OpenShock,4f70656e-5368-46f6-936b-2e6b69636164,rev?*%
%TF.SameCoordinates,Original*%
%TF.FileFunction,Soldermask,Bot*%
%TF.FilePolarity,Negative*%
%FSLAX46Y46*%
G04 Gerber Fmt 4.6, Leading zero omitted, Abs format (unit mm)*
G04 Created by KiCad (PCBNEW (7.0.0)) date 2023-04-05 21:50:32*
%MOMM*%
%LPD*%
G01*
G04 APERTURE LIST*
%ADD10C,3.200000*%
%ADD11C,1.300000*%
%ADD12O,1.200000X1.800000*%
%ADD13R,1.700000X1.700000*%
%ADD14O,1.700000X1.700000*%
%ADD15C,2.000000*%
%ADD16C,0.650000*%
%ADD17O,1.000000X2.100000*%
%ADD18O,1.000000X1.600000*%
%ADD19O,3.048000X1.850000*%
%ADD20C,2.082800*%
G04 APERTURE END LIST*
D10*
%TO.C,REF\u002A\u002A*%
X141605000Y-39370000D03*
%TD*%
D11*
%TO.C,CN1*%
X132080000Y-109728000D03*
X132080000Y-103728000D03*
D12*
X134479999Y-109727999D03*
X134479999Y-102727999D03*
X129679999Y-107727999D03*
%TD*%
D10*
%TO.C,REF\u002A\u002A*%
X102870000Y-108458000D03*
%TD*%
D13*
%TO.C,AE1*%
X102234999Y-58927999D03*
%TD*%
%TO.C,J6*%
X121919999Y-100075999D03*
D14*
X119379999Y-100075999D03*
X116839999Y-100075999D03*
X114299999Y-100075999D03*
X111759999Y-100075999D03*
%TD*%
D15*
%TO.C,SW2*%
X128905000Y-76490000D03*
X122405000Y-80990000D03*
X128905000Y-80990000D03*
X122405000Y-76490000D03*
%TD*%
D13*
%TO.C,J3*%
X108584999Y-58419999D03*
D14*
X111124999Y-58419999D03*
X113664999Y-58419999D03*
%TD*%
D15*
%TO.C,SW1*%
X128905000Y-67255000D03*
X122405000Y-71755000D03*
X128905000Y-71755000D03*
X122405000Y-67255000D03*
%TD*%
D10*
%TO.C,REF\u002A\u002A*%
X141605000Y-108458000D03*
%TD*%
D16*
%TO.C,J1*%
X112680000Y-106720000D03*
X118460000Y-106720000D03*
D17*
X111249999Y-106189999D03*
D18*
X111249999Y-110369999D03*
D17*
X119889999Y-106189999D03*
D18*
X119889999Y-110369999D03*
%TD*%
D10*
%TO.C,REF\u002A\u002A*%
X102870000Y-39370000D03*
%TD*%
D19*
%TO.C,SW3*%
X127634999Y-87709999D03*
X140134999Y-87709999D03*
X127634999Y-92709999D03*
X140134999Y-92709999D03*
%TD*%
D13*
%TO.C,J2*%
X108584999Y-52806999D03*
D14*
X111124999Y-52806999D03*
X113664999Y-52806999D03*
%TD*%
D20*
%TO.C,J4*%
X141732000Y-45720000D03*
X141986000Y-48260000D03*
X141732000Y-50800000D03*
X141986000Y-53340000D03*
X141732000Y-55880000D03*
X141986000Y-58420000D03*
X141732000Y-60960000D03*
%TD*%
M02*
