%TF.GenerationSoftware,KiCad,Pcbnew,(7.0.0)*%
%TF.CreationDate,2023-12-01T19:40:39-08:00*%
%TF.ProjectId,OpenShock,4f70656e-5368-46f6-936b-2e6b69636164,rev?*%
%TF.SameCoordinates,Original*%
%TF.FileFunction,Copper,L2,Bot*%
%TF.FilePolarity,Positive*%
%FSLAX46Y46*%
G04 Gerber Fmt 4.6, Leading zero omitted, Abs format (unit mm)*
G04 Created by KiCad (PCBNEW (7.0.0)) date 2023-12-01 19:40:39*
%MOMM*%
%LPD*%
G01*
G04 APERTURE LIST*
%TA.AperFunction,HeatsinkPad*%
%ADD10C,0.600000*%
%TD*%
%TA.AperFunction,ComponentPad*%
%ADD11O,1.200000X1.800000*%
%TD*%
%TA.AperFunction,ComponentPad*%
%ADD12R,1.700000X1.700000*%
%TD*%
%TA.AperFunction,ComponentPad*%
%ADD13O,1.700000X1.700000*%
%TD*%
%TA.AperFunction,ComponentPad*%
%ADD14C,2.000000*%
%TD*%
%TA.AperFunction,ComponentPad*%
%ADD15O,1.000000X2.100000*%
%TD*%
%TA.AperFunction,ComponentPad*%
%ADD16O,1.000000X1.600000*%
%TD*%
%TA.AperFunction,ComponentPad*%
%ADD17O,3.048000X1.850000*%
%TD*%
%TA.AperFunction,ComponentPad*%
%ADD18C,1.879600*%
%TD*%
%TA.AperFunction,ViaPad*%
%ADD19C,0.800000*%
%TD*%
%TA.AperFunction,Conductor*%
%ADD20C,0.381000*%
%TD*%
%TA.AperFunction,Conductor*%
%ADD21C,0.200000*%
%TD*%
%TA.AperFunction,Conductor*%
%ADD22C,0.177800*%
%TD*%
G04 APERTURE END LIST*
D10*
%TO.P,U1,41,GND*%
%TO.N,GND*%
X126105000Y-51544000D03*
X126105000Y-52944000D03*
X126805000Y-50844000D03*
X126805000Y-52244000D03*
X126805000Y-53644000D03*
X127505000Y-51544000D03*
X127505000Y-52944000D03*
X128205000Y-50844000D03*
X128205000Y-52244000D03*
X128205000Y-53644000D03*
X128905000Y-51544000D03*
X128905000Y-52944000D03*
%TD*%
D11*
%TO.P,CN1,1,1*%
%TO.N,GND*%
X134479999Y-109727999D03*
%TO.P,CN1,2,2*%
%TO.N,E_STOP*%
X134479999Y-102727999D03*
%TO.P,CN1,3,3*%
%TO.N,GND*%
X129679999Y-107727999D03*
%TD*%
D12*
%TO.P,AE1,1,A*%
%TO.N,Net-(AE1-A)*%
X102234999Y-58927999D03*
%TD*%
%TO.P,J6,1,Pin_1*%
%TO.N,GND*%
X121919999Y-100075999D03*
D13*
%TO.P,J6,2,Pin_2*%
%TO.N,unconnected-(J6-Pin_2-Pad2)*%
X119379999Y-100075999D03*
%TO.P,J6,3,Pin_3*%
%TO.N,D+*%
X116839999Y-100075999D03*
%TO.P,J6,4,Pin_4*%
%TO.N,D-*%
X114299999Y-100075999D03*
%TO.P,J6,5,Pin_5*%
%TO.N,+5VA*%
X111759999Y-100075999D03*
%TD*%
D14*
%TO.P,SW2,*%
%TO.N,*%
X128905000Y-76490000D03*
X122405000Y-80990000D03*
%TO.P,SW2,1,A*%
%TO.N,IO0*%
X128905000Y-80990000D03*
%TO.P,SW2,2,B*%
%TO.N,GND*%
X122405000Y-76490000D03*
%TD*%
D12*
%TO.P,J3,1,Pin_1*%
%TO.N,GND*%
X108584999Y-58419999D03*
D13*
%TO.P,J3,2,Pin_2*%
%TO.N,SIGNAL*%
X111124999Y-58419999D03*
%TO.P,J3,3,Pin_3*%
%TO.N,+3V3*%
X113664999Y-58419999D03*
%TD*%
D14*
%TO.P,SW1,*%
%TO.N,*%
X128905000Y-67255000D03*
X122405000Y-71755000D03*
%TO.P,SW1,1,A*%
%TO.N,EN*%
X128905000Y-71755000D03*
%TO.P,SW1,2,B*%
%TO.N,GND*%
X122405000Y-67255000D03*
%TD*%
D15*
%TO.P,J1,S1,SHIELD*%
%TO.N,Net-(J1-SHIELD)*%
X111249999Y-106189999D03*
D16*
X111249999Y-110369999D03*
D15*
X119889999Y-106189999D03*
D16*
X119889999Y-110369999D03*
%TD*%
D17*
%TO.P,SW3,1,A*%
%TO.N,E_STOP*%
X127634999Y-87709999D03*
X140134999Y-87709999D03*
%TO.P,SW3,2,B*%
%TO.N,GND*%
X127634999Y-92709999D03*
X140134999Y-92709999D03*
%TD*%
D12*
%TO.P,J2,1,Pin_1*%
%TO.N,GND*%
X108584999Y-52806999D03*
D13*
%TO.P,J2,2,Pin_2*%
%TO.N,+3V3*%
X111124999Y-52806999D03*
%TO.P,J2,3,Pin_3*%
%TO.N,SIGNAL*%
X113664999Y-52806999D03*
%TD*%
D18*
%TO.P,J4,1,Pin_1*%
%TO.N,EN*%
X141732000Y-45720000D03*
%TO.P,J4,2,Pin_2*%
%TO.N,GND*%
X141986000Y-48260000D03*
%TO.P,J4,3,Pin_3*%
%TO.N,CTS*%
X141732000Y-50800000D03*
%TO.P,J4,4,Pin_4*%
%TO.N,+3V3*%
X141986000Y-53340000D03*
%TO.P,J4,5,Pin_5*%
%TO.N,SERIAL_RX*%
X141732000Y-55880000D03*
%TO.P,J4,6,Pin_6*%
%TO.N,SERIAL_TX*%
X141986000Y-58420000D03*
%TO.P,J4,7,Pin_7*%
%TO.N,IO0*%
X141732000Y-60960000D03*
%TD*%
D19*
%TO.N,+3V3*%
X117856000Y-45720000D03*
X142748000Y-73152000D03*
%TO.N,GND*%
X134572698Y-78684530D03*
X140210805Y-79184362D03*
X117348000Y-86360000D03*
X110236000Y-102616000D03*
X123952000Y-108712000D03*
X105156000Y-92964000D03*
X142216343Y-68184236D03*
X118872000Y-97028000D03*
X120396000Y-66040000D03*
X117856000Y-110236000D03*
X117348000Y-58293000D03*
X131064000Y-74168000D03*
X136144000Y-105664000D03*
X117348000Y-50800000D03*
X116840000Y-67564000D03*
X120396000Y-86360000D03*
X115316000Y-94488000D03*
X121920000Y-104648000D03*
X110744000Y-104140000D03*
%TO.N,EN*%
X118364000Y-48260000D03*
%TO.N,IO0*%
X141224000Y-74676000D03*
%TO.N,STATUS*%
X139192000Y-66548000D03*
X139192000Y-74676000D03*
%TD*%
D20*
%TO.N,+3V3*%
X142748000Y-73152000D02*
X142748000Y-71628000D01*
X143570300Y-45018300D02*
X142941700Y-44389700D01*
X142748000Y-71628000D02*
X143764000Y-70612000D01*
X122428000Y-45720000D02*
X117856000Y-45720000D01*
X142941700Y-44389700D02*
X123758300Y-44389700D01*
X123758300Y-44389700D02*
X122428000Y-45720000D01*
X141986000Y-53340000D02*
X143570300Y-51755700D01*
X143764000Y-70612000D02*
X143764000Y-53848000D01*
X143764000Y-53848000D02*
X143256000Y-53340000D01*
X143256000Y-53340000D02*
X141986000Y-53340000D01*
X143570300Y-51755700D02*
X143570300Y-45018300D01*
D21*
%TO.N,EN*%
X118872000Y-47244000D02*
X134112000Y-47244000D01*
X118364000Y-48260000D02*
X118364000Y-47752000D01*
X118364000Y-47752000D02*
X118872000Y-47244000D01*
X134112000Y-47244000D02*
X135636000Y-45720000D01*
X135636000Y-45720000D02*
X142240000Y-45720000D01*
X134112000Y-66548000D02*
X128905000Y-71755000D01*
X134112000Y-47244000D02*
X134112000Y-66548000D01*
D22*
%TO.N,SIGNAL*%
X111125000Y-55347000D02*
X113665000Y-52807000D01*
X111125000Y-58420000D02*
X111125000Y-55347000D01*
%TO.N,IO0*%
X141224000Y-61976000D02*
X142240000Y-60960000D01*
X141224000Y-74676000D02*
X141224000Y-61976000D01*
%TO.N,STATUS*%
X139192000Y-74676000D02*
X139192000Y-66548000D01*
%TD*%
%TA.AperFunction,Conductor*%
%TO.N,GND*%
G36*
X144467500Y-43196613D02*
G01*
X144512887Y-43242000D01*
X144529500Y-43304000D01*
X144529500Y-53342676D01*
X144513872Y-53402938D01*
X144470928Y-53448010D01*
X144411491Y-53466531D01*
X144350545Y-53453833D01*
X144303451Y-53413117D01*
X144289284Y-53392593D01*
X144289279Y-53392588D01*
X144285020Y-53386417D01*
X144279406Y-53381444D01*
X144279404Y-53381441D01*
X144240656Y-53347114D01*
X144235202Y-53341980D01*
X143762027Y-52868805D01*
X143756892Y-52863351D01*
X143722557Y-52824594D01*
X143722554Y-52824592D01*
X143717583Y-52818980D01*
X143701983Y-52808212D01*
X143665349Y-52768703D01*
X143648930Y-52717385D01*
X143655828Y-52663947D01*
X143684738Y-52618482D01*
X144041509Y-52261710D01*
X144046928Y-52256608D01*
X144091320Y-52217283D01*
X144125014Y-52168465D01*
X144129425Y-52162472D01*
X144165988Y-52115805D01*
X144170023Y-52106837D01*
X144181052Y-52087282D01*
X144186644Y-52079182D01*
X144207678Y-52023719D01*
X144210517Y-52016865D01*
X144234858Y-51962784D01*
X144236632Y-51953100D01*
X144242663Y-51931470D01*
X144243486Y-51929300D01*
X144243486Y-51929299D01*
X144246148Y-51922282D01*
X144253290Y-51863454D01*
X144254417Y-51856054D01*
X144263753Y-51805111D01*
X144263753Y-51805110D01*
X144265106Y-51797728D01*
X144261525Y-51738550D01*
X144261300Y-51731063D01*
X144261300Y-45042926D01*
X144261526Y-45035439D01*
X144264652Y-44983759D01*
X144265105Y-44976272D01*
X144254414Y-44917936D01*
X144253294Y-44910574D01*
X144246148Y-44851718D01*
X144242661Y-44842526D01*
X144236631Y-44820894D01*
X144234858Y-44811216D01*
X144210527Y-44757154D01*
X144207660Y-44750233D01*
X144189304Y-44701833D01*
X144186644Y-44694818D01*
X144181047Y-44686709D01*
X144170024Y-44667163D01*
X144170018Y-44667150D01*
X144165988Y-44658195D01*
X144129434Y-44611538D01*
X144124999Y-44605511D01*
X144095581Y-44562890D01*
X144095580Y-44562889D01*
X144091320Y-44556717D01*
X144085704Y-44551742D01*
X144085700Y-44551737D01*
X144046939Y-44517398D01*
X144041485Y-44512264D01*
X143447727Y-43918505D01*
X143442592Y-43913051D01*
X143408257Y-43874294D01*
X143408254Y-43874292D01*
X143403283Y-43868680D01*
X143397112Y-43864420D01*
X143397107Y-43864416D01*
X143354492Y-43835002D01*
X143348459Y-43830563D01*
X143307706Y-43798635D01*
X143307705Y-43798634D01*
X143301805Y-43794012D01*
X143294621Y-43790778D01*
X143292827Y-43789971D01*
X143273287Y-43778950D01*
X143271355Y-43777616D01*
X143271349Y-43777613D01*
X143265182Y-43773356D01*
X143209727Y-43752324D01*
X143202843Y-43749472D01*
X143202836Y-43749469D01*
X143187126Y-43742398D01*
X143155623Y-43728220D01*
X143155619Y-43728219D01*
X143148785Y-43725143D01*
X143141410Y-43723791D01*
X143141403Y-43723789D01*
X143139089Y-43723365D01*
X143117495Y-43717345D01*
X143115300Y-43716513D01*
X143115297Y-43716512D01*
X143108282Y-43713852D01*
X143100842Y-43712948D01*
X143100836Y-43712947D01*
X143049435Y-43706706D01*
X143042033Y-43705579D01*
X142991108Y-43696247D01*
X142991104Y-43696246D01*
X142983728Y-43694895D01*
X142976247Y-43695347D01*
X142976240Y-43695347D01*
X142924561Y-43698474D01*
X142917074Y-43698700D01*
X123782925Y-43698700D01*
X123775438Y-43698474D01*
X123723758Y-43695347D01*
X123723750Y-43695347D01*
X123716271Y-43694895D01*
X123708895Y-43696246D01*
X123708888Y-43696247D01*
X123657967Y-43705578D01*
X123650568Y-43706705D01*
X123599158Y-43712948D01*
X123599153Y-43712949D01*
X123591718Y-43713852D01*
X123584714Y-43716507D01*
X123584697Y-43716512D01*
X123582497Y-43717347D01*
X123560911Y-43723365D01*
X123558592Y-43723790D01*
X123558585Y-43723791D01*
X123551215Y-43725143D01*
X123544385Y-43728216D01*
X123544384Y-43728217D01*
X123532045Y-43733770D01*
X123497144Y-43749477D01*
X123490248Y-43752333D01*
X123441829Y-43770696D01*
X123441822Y-43770699D01*
X123434818Y-43773356D01*
X123428649Y-43777613D01*
X123428643Y-43777617D01*
X123426711Y-43778951D01*
X123407180Y-43789966D01*
X123405043Y-43790927D01*
X123405027Y-43790936D01*
X123398194Y-43794012D01*
X123392290Y-43798636D01*
X123392287Y-43798639D01*
X123351537Y-43830563D01*
X123345510Y-43834998D01*
X123302891Y-43864417D01*
X123302884Y-43864422D01*
X123296717Y-43868680D01*
X123291748Y-43874288D01*
X123291742Y-43874294D01*
X123257405Y-43913052D01*
X123252272Y-43918504D01*
X122178097Y-44992681D01*
X122137869Y-45019561D01*
X122090416Y-45029000D01*
X118477231Y-45029000D01*
X118438913Y-45022931D01*
X118404346Y-45005318D01*
X118313988Y-44939669D01*
X118313987Y-44939668D01*
X118308730Y-44935849D01*
X118302792Y-44933205D01*
X118141745Y-44861501D01*
X118141740Y-44861499D01*
X118135803Y-44858856D01*
X118129444Y-44857504D01*
X118129440Y-44857503D01*
X117957008Y-44820852D01*
X117957005Y-44820851D01*
X117950646Y-44819500D01*
X117761354Y-44819500D01*
X117754995Y-44820851D01*
X117754991Y-44820852D01*
X117582559Y-44857503D01*
X117582552Y-44857505D01*
X117576197Y-44858856D01*
X117570262Y-44861498D01*
X117570254Y-44861501D01*
X117409207Y-44933205D01*
X117409202Y-44933207D01*
X117403270Y-44935849D01*
X117398016Y-44939665D01*
X117398011Y-44939669D01*
X117255388Y-45043290D01*
X117255381Y-45043295D01*
X117250129Y-45047112D01*
X117245784Y-45051937D01*
X117245779Y-45051942D01*
X117127813Y-45182956D01*
X117127808Y-45182962D01*
X117123467Y-45187784D01*
X117120222Y-45193404D01*
X117120218Y-45193410D01*
X117032069Y-45346089D01*
X117032066Y-45346094D01*
X117028821Y-45351716D01*
X117026815Y-45357888D01*
X117026813Y-45357894D01*
X116972333Y-45525564D01*
X116972331Y-45525573D01*
X116970326Y-45531744D01*
X116969648Y-45538194D01*
X116969646Y-45538204D01*
X116951962Y-45706464D01*
X116950540Y-45720000D01*
X116951219Y-45726460D01*
X116969646Y-45901795D01*
X116969647Y-45901803D01*
X116970326Y-45908256D01*
X116972331Y-45914428D01*
X116972333Y-45914435D01*
X117026813Y-46082105D01*
X117028821Y-46088284D01*
X117032068Y-46093908D01*
X117032069Y-46093910D01*
X117113760Y-46235404D01*
X117123467Y-46252216D01*
X117127811Y-46257041D01*
X117127813Y-46257043D01*
X117220725Y-46360232D01*
X117250129Y-46392888D01*
X117403270Y-46504151D01*
X117576197Y-46581144D01*
X117761354Y-46620500D01*
X117944143Y-46620500D01*
X117950646Y-46620500D01*
X118135803Y-46581144D01*
X118308730Y-46504151D01*
X118404347Y-46434681D01*
X118438913Y-46417069D01*
X118477231Y-46411000D01*
X118706778Y-46411000D01*
X118766421Y-46426286D01*
X118811359Y-46468375D01*
X118830513Y-46526890D01*
X118819160Y-46587405D01*
X118780100Y-46634999D01*
X118730870Y-46654764D01*
X118731146Y-46655792D01*
X118723295Y-46657895D01*
X118715238Y-46658956D01*
X118707733Y-46662064D01*
X118707728Y-46662066D01*
X118576668Y-46716353D01*
X118576663Y-46716355D01*
X118569159Y-46719464D01*
X118562714Y-46724408D01*
X118562711Y-46724411D01*
X118485973Y-46783295D01*
X118450163Y-46810772D01*
X118450160Y-46810774D01*
X118443718Y-46815718D01*
X118438773Y-46822161D01*
X118438770Y-46822165D01*
X118424493Y-46840770D01*
X118413801Y-46852961D01*
X117972965Y-47293798D01*
X117960774Y-47304490D01*
X117942165Y-47318770D01*
X117942161Y-47318773D01*
X117935718Y-47323718D01*
X117930774Y-47330160D01*
X117930772Y-47330163D01*
X117911550Y-47355214D01*
X117911550Y-47355215D01*
X117844408Y-47442714D01*
X117844403Y-47442721D01*
X117839464Y-47449159D01*
X117836358Y-47456655D01*
X117836351Y-47456669D01*
X117806117Y-47529660D01*
X117767709Y-47578384D01*
X117768214Y-47578945D01*
X117764954Y-47581879D01*
X117764454Y-47582515D01*
X117763392Y-47583286D01*
X117763380Y-47583296D01*
X117758129Y-47587112D01*
X117753785Y-47591936D01*
X117753781Y-47591940D01*
X117635813Y-47722956D01*
X117635808Y-47722962D01*
X117631467Y-47727784D01*
X117628222Y-47733404D01*
X117628218Y-47733410D01*
X117540069Y-47886089D01*
X117540066Y-47886094D01*
X117536821Y-47891716D01*
X117534815Y-47897888D01*
X117534813Y-47897894D01*
X117480333Y-48065564D01*
X117480331Y-48065573D01*
X117478326Y-48071744D01*
X117477648Y-48078194D01*
X117477646Y-48078204D01*
X117461913Y-48227905D01*
X117458540Y-48260000D01*
X117459219Y-48266460D01*
X117477646Y-48441795D01*
X117477647Y-48441803D01*
X117478326Y-48448256D01*
X117480331Y-48454428D01*
X117480333Y-48454435D01*
X117534813Y-48622105D01*
X117536821Y-48628284D01*
X117631467Y-48792216D01*
X117758129Y-48932888D01*
X117911270Y-49044151D01*
X118084197Y-49121144D01*
X118269354Y-49160500D01*
X118452143Y-49160500D01*
X118458646Y-49160500D01*
X118643803Y-49121144D01*
X118816730Y-49044151D01*
X118969871Y-48932888D01*
X119096533Y-48792216D01*
X119191179Y-48628284D01*
X119249674Y-48448256D01*
X119269460Y-48260000D01*
X119249674Y-48071744D01*
X119228577Y-48006817D01*
X119224036Y-47949102D01*
X119246191Y-47895615D01*
X119290214Y-47858015D01*
X119346509Y-47844500D01*
X133387500Y-47844500D01*
X133449500Y-47861113D01*
X133494887Y-47906500D01*
X133511500Y-47968500D01*
X133511500Y-66247903D01*
X133502061Y-66295356D01*
X133475181Y-66335584D01*
X129508548Y-70302215D01*
X129448817Y-70335343D01*
X129380605Y-70331815D01*
X129279469Y-70297095D01*
X129279460Y-70297092D01*
X129274614Y-70295429D01*
X129265768Y-70293952D01*
X129034398Y-70255344D01*
X129034387Y-70255343D01*
X129029335Y-70254500D01*
X128780665Y-70254500D01*
X128775613Y-70255343D01*
X128775601Y-70255344D01*
X128540443Y-70294585D01*
X128540441Y-70294585D01*
X128535386Y-70295429D01*
X128530541Y-70297092D01*
X128530534Y-70297094D01*
X128305037Y-70374507D01*
X128305026Y-70374511D01*
X128300190Y-70376172D01*
X128295693Y-70378605D01*
X128295683Y-70378610D01*
X128086002Y-70492084D01*
X128085995Y-70492088D01*
X128081491Y-70494526D01*
X128077448Y-70497672D01*
X128077440Y-70497678D01*
X127889304Y-70644111D01*
X127885256Y-70647262D01*
X127881793Y-70651023D01*
X127881784Y-70651032D01*
X127720311Y-70826439D01*
X127720305Y-70826446D01*
X127716836Y-70830215D01*
X127714031Y-70834506D01*
X127714028Y-70834512D01*
X127583631Y-71034099D01*
X127583624Y-71034111D01*
X127580827Y-71038393D01*
X127578772Y-71043077D01*
X127578766Y-71043089D01*
X127482997Y-71261422D01*
X127480937Y-71266119D01*
X127479679Y-71271084D01*
X127479678Y-71271089D01*
X127421151Y-71502204D01*
X127421149Y-71502213D01*
X127419892Y-71507179D01*
X127419468Y-71512288D01*
X127419467Y-71512298D01*
X127407774Y-71653420D01*
X127399357Y-71755000D01*
X127399781Y-71760117D01*
X127419467Y-71997701D01*
X127419468Y-71997709D01*
X127419892Y-72002821D01*
X127421149Y-72007788D01*
X127421151Y-72007795D01*
X127479678Y-72238910D01*
X127480937Y-72243881D01*
X127482997Y-72248577D01*
X127578766Y-72466910D01*
X127578769Y-72466916D01*
X127580827Y-72471607D01*
X127583627Y-72475893D01*
X127583631Y-72475900D01*
X127681311Y-72625410D01*
X127716836Y-72679785D01*
X127720310Y-72683559D01*
X127720311Y-72683560D01*
X127881784Y-72858967D01*
X127881787Y-72858970D01*
X127885256Y-72862738D01*
X128081491Y-73015474D01*
X128300190Y-73133828D01*
X128535386Y-73214571D01*
X128780665Y-73255500D01*
X129024201Y-73255500D01*
X129029335Y-73255500D01*
X129274614Y-73214571D01*
X129509810Y-73133828D01*
X129728509Y-73015474D01*
X129924744Y-72862738D01*
X130093164Y-72679785D01*
X130229173Y-72471607D01*
X130329063Y-72243881D01*
X130390108Y-72002821D01*
X130410643Y-71755000D01*
X130390108Y-71507179D01*
X130329063Y-71266119D01*
X130329063Y-71266118D01*
X130331347Y-71265540D01*
X130328384Y-71207407D01*
X130361496Y-71147737D01*
X134503044Y-67006189D01*
X134515222Y-66995510D01*
X134540282Y-66976282D01*
X134636536Y-66850841D01*
X134697044Y-66704762D01*
X134712500Y-66587361D01*
X134717682Y-66548000D01*
X134713561Y-66516698D01*
X134712500Y-66500513D01*
X134712500Y-48265117D01*
X140541689Y-48265117D01*
X140560544Y-48492677D01*
X140562228Y-48502770D01*
X140618286Y-48724134D01*
X140621605Y-48733801D01*
X140713333Y-48942923D01*
X140718195Y-48951906D01*
X140798492Y-49074811D01*
X140806456Y-49082531D01*
X140815838Y-49076607D01*
X141620904Y-48271542D01*
X141627568Y-48260000D01*
X141620904Y-48248457D01*
X140815838Y-47443391D01*
X140806457Y-47437467D01*
X140798490Y-47445192D01*
X140718197Y-47568088D01*
X140713332Y-47577078D01*
X140621605Y-47786198D01*
X140618286Y-47795865D01*
X140562228Y-48017229D01*
X140560544Y-48027322D01*
X140541689Y-48254883D01*
X140541689Y-48265117D01*
X134712500Y-48265117D01*
X134712500Y-47544097D01*
X134721939Y-47496644D01*
X134748819Y-47456416D01*
X135848417Y-46356819D01*
X135888645Y-46329939D01*
X135936098Y-46320500D01*
X140341622Y-46320500D01*
X140388285Y-46329615D01*
X140428087Y-46355619D01*
X140455178Y-46394691D01*
X140458891Y-46403157D01*
X140458895Y-46403165D01*
X140460953Y-46407856D01*
X140526229Y-46507768D01*
X140588704Y-46603394D01*
X140588707Y-46603398D01*
X140591506Y-46607682D01*
X140753168Y-46783295D01*
X140941531Y-46929903D01*
X141068089Y-46998393D01*
X141109873Y-47021006D01*
X141138233Y-47042078D01*
X141159499Y-47070291D01*
X141171306Y-47091753D01*
X142251871Y-48172318D01*
X142283965Y-48227905D01*
X142283965Y-48292093D01*
X142251871Y-48347680D01*
X141171306Y-49428245D01*
X141159500Y-49449707D01*
X141138233Y-49477922D01*
X141109873Y-49498994D01*
X140946039Y-49587657D01*
X140946035Y-49587659D01*
X140941531Y-49590097D01*
X140937491Y-49593241D01*
X140937484Y-49593246D01*
X140757215Y-49733554D01*
X140757207Y-49733561D01*
X140753168Y-49736705D01*
X140749698Y-49740473D01*
X140749694Y-49740478D01*
X140594976Y-49908548D01*
X140594973Y-49908551D01*
X140591506Y-49912318D01*
X140588711Y-49916595D01*
X140588704Y-49916605D01*
X140463755Y-50107855D01*
X140460953Y-50112144D01*
X140458898Y-50116828D01*
X140458893Y-50116838D01*
X140367131Y-50326036D01*
X140365071Y-50330733D01*
X140363813Y-50335698D01*
X140363812Y-50335703D01*
X140307734Y-50557147D01*
X140307732Y-50557156D01*
X140306475Y-50562122D01*
X140306051Y-50567231D01*
X140306050Y-50567241D01*
X140292864Y-50726382D01*
X140286764Y-50800000D01*
X140287188Y-50805117D01*
X140306050Y-51032758D01*
X140306051Y-51032766D01*
X140306475Y-51037878D01*
X140307732Y-51042845D01*
X140307734Y-51042852D01*
X140349833Y-51209095D01*
X140365071Y-51269267D01*
X140367131Y-51273963D01*
X140458893Y-51483161D01*
X140458896Y-51483166D01*
X140460953Y-51487856D01*
X140492006Y-51535386D01*
X140588704Y-51683394D01*
X140588707Y-51683398D01*
X140591506Y-51687682D01*
X140753168Y-51863295D01*
X140757214Y-51866444D01*
X140757215Y-51866445D01*
X140837972Y-51929300D01*
X140941531Y-52009903D01*
X140967146Y-52023765D01*
X141015525Y-52049947D01*
X141060316Y-52091180D01*
X141080084Y-52148761D01*
X141070065Y-52208810D01*
X141032673Y-52256853D01*
X141007168Y-52276705D01*
X141003700Y-52280472D01*
X141003697Y-52280475D01*
X140848976Y-52448548D01*
X140848973Y-52448551D01*
X140845506Y-52452318D01*
X140842711Y-52456595D01*
X140842704Y-52456605D01*
X140748194Y-52601265D01*
X140714953Y-52652144D01*
X140712898Y-52656828D01*
X140712893Y-52656838D01*
X140641772Y-52818980D01*
X140619071Y-52870733D01*
X140617813Y-52875698D01*
X140617812Y-52875703D01*
X140561734Y-53097147D01*
X140561732Y-53097156D01*
X140560475Y-53102122D01*
X140560051Y-53107231D01*
X140560050Y-53107241D01*
X140545274Y-53285568D01*
X140540764Y-53340000D01*
X140541188Y-53345117D01*
X140560050Y-53572758D01*
X140560051Y-53572766D01*
X140560475Y-53577878D01*
X140561732Y-53582845D01*
X140561734Y-53582852D01*
X140598131Y-53726577D01*
X140619071Y-53809267D01*
X140621131Y-53813963D01*
X140712893Y-54023161D01*
X140712896Y-54023166D01*
X140714953Y-54027856D01*
X140764932Y-54104354D01*
X140842704Y-54223394D01*
X140842707Y-54223398D01*
X140845506Y-54227682D01*
X141007168Y-54403295D01*
X141011214Y-54406444D01*
X141011215Y-54406445D01*
X141032669Y-54423143D01*
X141070062Y-54471186D01*
X141080084Y-54531236D01*
X141060317Y-54588817D01*
X141015526Y-54630051D01*
X140946044Y-54667653D01*
X140946029Y-54667662D01*
X140941531Y-54670097D01*
X140937491Y-54673241D01*
X140937484Y-54673246D01*
X140757215Y-54813554D01*
X140757207Y-54813561D01*
X140753168Y-54816705D01*
X140749698Y-54820473D01*
X140749694Y-54820478D01*
X140594976Y-54988548D01*
X140594973Y-54988551D01*
X140591506Y-54992318D01*
X140588711Y-54996595D01*
X140588704Y-54996605D01*
X140465212Y-55185625D01*
X140460953Y-55192144D01*
X140458898Y-55196828D01*
X140458893Y-55196838D01*
X140372517Y-55393758D01*
X140365071Y-55410733D01*
X140363813Y-55415698D01*
X140363812Y-55415703D01*
X140307734Y-55637147D01*
X140307732Y-55637156D01*
X140306475Y-55642122D01*
X140306051Y-55647231D01*
X140306050Y-55647241D01*
X140287188Y-55874883D01*
X140286764Y-55880000D01*
X140287188Y-55885117D01*
X140306050Y-56112758D01*
X140306051Y-56112766D01*
X140306475Y-56117878D01*
X140307732Y-56122845D01*
X140307734Y-56122852D01*
X140363812Y-56344296D01*
X140365071Y-56349267D01*
X140367131Y-56353963D01*
X140458893Y-56563161D01*
X140458896Y-56563166D01*
X140460953Y-56567856D01*
X140526229Y-56667769D01*
X140588704Y-56763394D01*
X140588707Y-56763398D01*
X140591506Y-56767682D01*
X140753168Y-56943295D01*
X140757214Y-56946444D01*
X140757215Y-56946445D01*
X140840392Y-57011184D01*
X140941531Y-57089903D01*
X140992562Y-57117520D01*
X141015525Y-57129947D01*
X141060316Y-57171180D01*
X141080084Y-57228761D01*
X141070065Y-57288810D01*
X141032673Y-57336853D01*
X141007168Y-57356705D01*
X141003700Y-57360472D01*
X141003697Y-57360475D01*
X140848976Y-57528548D01*
X140848973Y-57528551D01*
X140845506Y-57532318D01*
X140842711Y-57536595D01*
X140842704Y-57536605D01*
X140722590Y-57720454D01*
X140714953Y-57732144D01*
X140712898Y-57736828D01*
X140712893Y-57736838D01*
X140665897Y-57843980D01*
X140619071Y-57950733D01*
X140617813Y-57955698D01*
X140617813Y-57955700D01*
X140561734Y-58177147D01*
X140561732Y-58177156D01*
X140560475Y-58182122D01*
X140560051Y-58187231D01*
X140560050Y-58187241D01*
X140541211Y-58414605D01*
X140540764Y-58420000D01*
X140541188Y-58425117D01*
X140560050Y-58652758D01*
X140560051Y-58652766D01*
X140560475Y-58657878D01*
X140561732Y-58662845D01*
X140561734Y-58662852D01*
X140564418Y-58673450D01*
X140619071Y-58889267D01*
X140621131Y-58893963D01*
X140712893Y-59103161D01*
X140712896Y-59103166D01*
X140714953Y-59107856D01*
X140780229Y-59207769D01*
X140842704Y-59303394D01*
X140842707Y-59303398D01*
X140845506Y-59307682D01*
X141007168Y-59483295D01*
X141011214Y-59486444D01*
X141011215Y-59486445D01*
X141032669Y-59503143D01*
X141070062Y-59551186D01*
X141080084Y-59611236D01*
X141060317Y-59668817D01*
X141015526Y-59710051D01*
X140946044Y-59747653D01*
X140946029Y-59747662D01*
X140941531Y-59750097D01*
X140937491Y-59753241D01*
X140937484Y-59753246D01*
X140757215Y-59893554D01*
X140757207Y-59893561D01*
X140753168Y-59896705D01*
X140749698Y-59900473D01*
X140749694Y-59900478D01*
X140594976Y-60068548D01*
X140594973Y-60068551D01*
X140591506Y-60072318D01*
X140588711Y-60076595D01*
X140588704Y-60076605D01*
X140497320Y-60216480D01*
X140460953Y-60272144D01*
X140458898Y-60276828D01*
X140458893Y-60276838D01*
X140367131Y-60486036D01*
X140365071Y-60490733D01*
X140363813Y-60495698D01*
X140363812Y-60495703D01*
X140307734Y-60717147D01*
X140307732Y-60717156D01*
X140306475Y-60722122D01*
X140306051Y-60727231D01*
X140306050Y-60727241D01*
X140287188Y-60954883D01*
X140286764Y-60960000D01*
X140287188Y-60965117D01*
X140306050Y-61192758D01*
X140306051Y-61192766D01*
X140306475Y-61197878D01*
X140307732Y-61202845D01*
X140307734Y-61202852D01*
X140363812Y-61424296D01*
X140365071Y-61429267D01*
X140367131Y-61433963D01*
X140458893Y-61643161D01*
X140458896Y-61643166D01*
X140460953Y-61647856D01*
X140526229Y-61747768D01*
X140588704Y-61843394D01*
X140588707Y-61843398D01*
X140591506Y-61847682D01*
X140594975Y-61851450D01*
X140594981Y-61851458D01*
X140600257Y-61857189D01*
X140627246Y-61903748D01*
X140631968Y-61957357D01*
X140629514Y-61976000D01*
X140630575Y-61984059D01*
X140633539Y-62006572D01*
X140634600Y-62022758D01*
X140634600Y-73937220D01*
X140626364Y-73981658D01*
X140602750Y-74020192D01*
X140495813Y-74138956D01*
X140495808Y-74138962D01*
X140491467Y-74143784D01*
X140488222Y-74149404D01*
X140488218Y-74149410D01*
X140400069Y-74302089D01*
X140400066Y-74302094D01*
X140396821Y-74307716D01*
X140394815Y-74313888D01*
X140394813Y-74313894D01*
X140340333Y-74481564D01*
X140340331Y-74481573D01*
X140338326Y-74487744D01*
X140337648Y-74494194D01*
X140337646Y-74494204D01*
X140331321Y-74554393D01*
X140310801Y-74610772D01*
X140266215Y-74650917D01*
X140208000Y-74665432D01*
X140149785Y-74650917D01*
X140105199Y-74610772D01*
X140084679Y-74554393D01*
X140078353Y-74494204D01*
X140078352Y-74494203D01*
X140077674Y-74487744D01*
X140019179Y-74307716D01*
X139924533Y-74143784D01*
X139813250Y-74020192D01*
X139789636Y-73981658D01*
X139781400Y-73937220D01*
X139781400Y-67286780D01*
X139789636Y-67242342D01*
X139813250Y-67203808D01*
X139820665Y-67195571D01*
X139924533Y-67080216D01*
X140019179Y-66916284D01*
X140077674Y-66736256D01*
X140097460Y-66548000D01*
X140077674Y-66359744D01*
X140019179Y-66179716D01*
X139924533Y-66015784D01*
X139903193Y-65992084D01*
X139802220Y-65879942D01*
X139802219Y-65879941D01*
X139797871Y-65875112D01*
X139792613Y-65871292D01*
X139792611Y-65871290D01*
X139649988Y-65767669D01*
X139649987Y-65767668D01*
X139644730Y-65763849D01*
X139625628Y-65755344D01*
X139477745Y-65689501D01*
X139477740Y-65689499D01*
X139471803Y-65686856D01*
X139465444Y-65685504D01*
X139465440Y-65685503D01*
X139293008Y-65648852D01*
X139293005Y-65648851D01*
X139286646Y-65647500D01*
X139097354Y-65647500D01*
X139090995Y-65648851D01*
X139090991Y-65648852D01*
X138918559Y-65685503D01*
X138918552Y-65685505D01*
X138912197Y-65686856D01*
X138906262Y-65689498D01*
X138906254Y-65689501D01*
X138745207Y-65761205D01*
X138745202Y-65761207D01*
X138739270Y-65763849D01*
X138734016Y-65767665D01*
X138734011Y-65767669D01*
X138591388Y-65871290D01*
X138591381Y-65871295D01*
X138586129Y-65875112D01*
X138581784Y-65879937D01*
X138581779Y-65879942D01*
X138463813Y-66010956D01*
X138463808Y-66010962D01*
X138459467Y-66015784D01*
X138456222Y-66021404D01*
X138456218Y-66021410D01*
X138368069Y-66174089D01*
X138368066Y-66174094D01*
X138364821Y-66179716D01*
X138362815Y-66185888D01*
X138362813Y-66185894D01*
X138308333Y-66353564D01*
X138308331Y-66353573D01*
X138306326Y-66359744D01*
X138305648Y-66366194D01*
X138305646Y-66366204D01*
X138291531Y-66500513D01*
X138286540Y-66548000D01*
X138287219Y-66554460D01*
X138305646Y-66729795D01*
X138305647Y-66729803D01*
X138306326Y-66736256D01*
X138308331Y-66742428D01*
X138308333Y-66742435D01*
X138358415Y-66896568D01*
X138364821Y-66916284D01*
X138368068Y-66921908D01*
X138368069Y-66921910D01*
X138420302Y-67012381D01*
X138459467Y-67080216D01*
X138463811Y-67085041D01*
X138463813Y-67085043D01*
X138570750Y-67203808D01*
X138594364Y-67242342D01*
X138602600Y-67286780D01*
X138602600Y-73937220D01*
X138594364Y-73981658D01*
X138570750Y-74020192D01*
X138463813Y-74138956D01*
X138463808Y-74138962D01*
X138459467Y-74143784D01*
X138456222Y-74149404D01*
X138456218Y-74149410D01*
X138368069Y-74302089D01*
X138368066Y-74302094D01*
X138364821Y-74307716D01*
X138362815Y-74313888D01*
X138362813Y-74313894D01*
X138308333Y-74481564D01*
X138308331Y-74481573D01*
X138306326Y-74487744D01*
X138305648Y-74494194D01*
X138305646Y-74494204D01*
X138289176Y-74650917D01*
X138286540Y-74676000D01*
X138287219Y-74682460D01*
X138305646Y-74857795D01*
X138305647Y-74857803D01*
X138306326Y-74864256D01*
X138308331Y-74870428D01*
X138308333Y-74870435D01*
X138362813Y-75038105D01*
X138364821Y-75044284D01*
X138459467Y-75208216D01*
X138463811Y-75213041D01*
X138463813Y-75213043D01*
X138523071Y-75278855D01*
X138586129Y-75348888D01*
X138591387Y-75352708D01*
X138591388Y-75352709D01*
X138662699Y-75404519D01*
X138739270Y-75460151D01*
X138912197Y-75537144D01*
X139097354Y-75576500D01*
X139280143Y-75576500D01*
X139286646Y-75576500D01*
X139471803Y-75537144D01*
X139644730Y-75460151D01*
X139797871Y-75348888D01*
X139924533Y-75208216D01*
X140019179Y-75044284D01*
X140077674Y-74864256D01*
X140084679Y-74797605D01*
X140105199Y-74741227D01*
X140149785Y-74701082D01*
X140208000Y-74686567D01*
X140266215Y-74701082D01*
X140310801Y-74741227D01*
X140331321Y-74797606D01*
X140337646Y-74857795D01*
X140337647Y-74857803D01*
X140338326Y-74864256D01*
X140340331Y-74870428D01*
X140340333Y-74870435D01*
X140394813Y-75038105D01*
X140396821Y-75044284D01*
X140491467Y-75208216D01*
X140495811Y-75213041D01*
X140495813Y-75213043D01*
X140555071Y-75278855D01*
X140618129Y-75348888D01*
X140623387Y-75352708D01*
X140623388Y-75352709D01*
X140694699Y-75404519D01*
X140771270Y-75460151D01*
X140944197Y-75537144D01*
X141129354Y-75576500D01*
X141312143Y-75576500D01*
X141318646Y-75576500D01*
X141503803Y-75537144D01*
X141676730Y-75460151D01*
X141829871Y-75348888D01*
X141956533Y-75208216D01*
X142051179Y-75044284D01*
X142109674Y-74864256D01*
X142129460Y-74676000D01*
X142109674Y-74487744D01*
X142051179Y-74307716D01*
X141956533Y-74143784D01*
X141845250Y-74020192D01*
X141821636Y-73981658D01*
X141813400Y-73937220D01*
X141813400Y-73782829D01*
X141827511Y-73725380D01*
X141866631Y-73681007D01*
X141921858Y-73659807D01*
X141980623Y-73666606D01*
X142029550Y-73699857D01*
X142142129Y-73824888D01*
X142295270Y-73936151D01*
X142468197Y-74013144D01*
X142653354Y-74052500D01*
X142836143Y-74052500D01*
X142842646Y-74052500D01*
X143027803Y-74013144D01*
X143200730Y-73936151D01*
X143353871Y-73824888D01*
X143480533Y-73684216D01*
X143575179Y-73520284D01*
X143633674Y-73340256D01*
X143653460Y-73152000D01*
X143633674Y-72963744D01*
X143575179Y-72783716D01*
X143480533Y-72619784D01*
X143470849Y-72609029D01*
X143447236Y-72570496D01*
X143439000Y-72526058D01*
X143439000Y-71965584D01*
X143448439Y-71918131D01*
X143475319Y-71877903D01*
X143603339Y-71749883D01*
X144235217Y-71118003D01*
X144240637Y-71112901D01*
X144285020Y-71073583D01*
X144295845Y-71057898D01*
X144303448Y-71046885D01*
X144350542Y-71006166D01*
X144411489Y-70993467D01*
X144470926Y-71011987D01*
X144513872Y-71057060D01*
X144529500Y-71117322D01*
X144529500Y-109301224D01*
X144525274Y-109333319D01*
X144508829Y-109394690D01*
X144504819Y-109407032D01*
X144395013Y-109693088D01*
X144389734Y-109704946D01*
X144250625Y-109977964D01*
X144244139Y-109989197D01*
X144183003Y-110083339D01*
X144077256Y-110246174D01*
X144069627Y-110256674D01*
X143876792Y-110494805D01*
X143868107Y-110504450D01*
X143651450Y-110721107D01*
X143641805Y-110729792D01*
X143403674Y-110922627D01*
X143393174Y-110930256D01*
X143136197Y-111097139D01*
X143124964Y-111103625D01*
X142851946Y-111242734D01*
X142840088Y-111248013D01*
X142554030Y-111357820D01*
X142541686Y-111361831D01*
X142245715Y-111441136D01*
X142233020Y-111443834D01*
X141930389Y-111491767D01*
X141917480Y-111493124D01*
X141608242Y-111509330D01*
X141601755Y-111509500D01*
X120762064Y-111509500D01*
X120697811Y-111491554D01*
X120652155Y-111442912D01*
X120638313Y-111377651D01*
X120660289Y-111314663D01*
X120678412Y-111288624D01*
X120769295Y-111158049D01*
X120849540Y-110971058D01*
X120890500Y-110771741D01*
X120890500Y-110019258D01*
X120875074Y-109867562D01*
X120846948Y-109777918D01*
X131095708Y-109777918D01*
X131096659Y-109784130D01*
X131096660Y-109784136D01*
X131124867Y-109968259D01*
X131125905Y-109975032D01*
X131128089Y-109980931D01*
X131128090Y-109980932D01*
X131186569Y-110138834D01*
X131195162Y-110162034D01*
X131198488Y-110167370D01*
X131198489Y-110167372D01*
X131290526Y-110315032D01*
X131300645Y-110331265D01*
X131438035Y-110475799D01*
X131601707Y-110589718D01*
X131784961Y-110668359D01*
X131980293Y-110708500D01*
X132126589Y-110708500D01*
X132129731Y-110708500D01*
X132278391Y-110693383D01*
X132468660Y-110633685D01*
X132643017Y-110536909D01*
X132794325Y-110407016D01*
X132916387Y-110249324D01*
X133000695Y-110077450D01*
X133380000Y-110077450D01*
X133380280Y-110083339D01*
X133394403Y-110231242D01*
X133396630Y-110242793D01*
X133452487Y-110433026D01*
X133456853Y-110443932D01*
X133547704Y-110620159D01*
X133554064Y-110630055D01*
X133676617Y-110785894D01*
X133684735Y-110794408D01*
X133834572Y-110924243D01*
X133844149Y-110931062D01*
X134015846Y-111030191D01*
X134026549Y-111035079D01*
X134213904Y-111099924D01*
X134219488Y-111101279D01*
X134227681Y-111100693D01*
X134230000Y-111090036D01*
X134230000Y-111085181D01*
X134730000Y-111085181D01*
X134732505Y-111096072D01*
X134743679Y-111095939D01*
X134835670Y-111073622D01*
X134846788Y-111069774D01*
X135027121Y-110987419D01*
X135037319Y-110981531D01*
X135198806Y-110866536D01*
X135207703Y-110858827D01*
X135344517Y-110715341D01*
X135351784Y-110706100D01*
X135458971Y-110539314D01*
X135464363Y-110528856D01*
X135538049Y-110344798D01*
X135541362Y-110333515D01*
X135578882Y-110138834D01*
X135580000Y-110127134D01*
X135580000Y-109994326D01*
X135576549Y-109981450D01*
X135563674Y-109978000D01*
X134746326Y-109978000D01*
X134733450Y-109981450D01*
X134730000Y-109994326D01*
X134730000Y-111085181D01*
X134230000Y-111085181D01*
X134230000Y-109994326D01*
X134226549Y-109981450D01*
X134213674Y-109978000D01*
X133396326Y-109978000D01*
X133383450Y-109981450D01*
X133380000Y-109994326D01*
X133380000Y-110077450D01*
X133000695Y-110077450D01*
X133004208Y-110070289D01*
X133054192Y-109877241D01*
X133064292Y-109678082D01*
X133034095Y-109480968D01*
X133026949Y-109461674D01*
X133380000Y-109461674D01*
X133383450Y-109474549D01*
X133396326Y-109478000D01*
X134213674Y-109478000D01*
X134226549Y-109474549D01*
X134230000Y-109461674D01*
X134730000Y-109461674D01*
X134733450Y-109474549D01*
X134746326Y-109478000D01*
X135563674Y-109478000D01*
X135576549Y-109474549D01*
X135580000Y-109461674D01*
X135580000Y-109378550D01*
X135579719Y-109372660D01*
X135565596Y-109224757D01*
X135563369Y-109213206D01*
X135507512Y-109022973D01*
X135503146Y-109012067D01*
X135412295Y-108835840D01*
X135405935Y-108825944D01*
X135283382Y-108670105D01*
X135275264Y-108661591D01*
X135125427Y-108531756D01*
X135115850Y-108524937D01*
X134999911Y-108458000D01*
X139669569Y-108458000D01*
X139669885Y-108462418D01*
X139688952Y-108729018D01*
X139688953Y-108729027D01*
X139689269Y-108733441D01*
X139690209Y-108737765D01*
X139690211Y-108737774D01*
X139732259Y-108931062D01*
X139747968Y-109003274D01*
X139749517Y-109007427D01*
X139842922Y-109257858D01*
X139842924Y-109257864D01*
X139844470Y-109262007D01*
X139851427Y-109274748D01*
X139967426Y-109487185D01*
X139976812Y-109504373D01*
X140142299Y-109725438D01*
X140337562Y-109920701D01*
X140558627Y-110086188D01*
X140800993Y-110218530D01*
X141059726Y-110315032D01*
X141329559Y-110373731D01*
X141536056Y-110388500D01*
X141671729Y-110388500D01*
X141673944Y-110388500D01*
X141880441Y-110373731D01*
X142150274Y-110315032D01*
X142409007Y-110218530D01*
X142651373Y-110086188D01*
X142872438Y-109920701D01*
X143067701Y-109725438D01*
X143233188Y-109504373D01*
X143365530Y-109262007D01*
X143462032Y-109003274D01*
X143520731Y-108733441D01*
X143540431Y-108458000D01*
X143520731Y-108182559D01*
X143462032Y-107912726D01*
X143365530Y-107653993D01*
X143233188Y-107411627D01*
X143067701Y-107190562D01*
X142872438Y-106995299D01*
X142651373Y-106829812D01*
X142644289Y-106825944D01*
X142412893Y-106699592D01*
X142409007Y-106697470D01*
X142404864Y-106695924D01*
X142404858Y-106695922D01*
X142154427Y-106602517D01*
X142150274Y-106600968D01*
X142094215Y-106588773D01*
X141884774Y-106543211D01*
X141884765Y-106543209D01*
X141880441Y-106542269D01*
X141876027Y-106541953D01*
X141876018Y-106541952D01*
X141676154Y-106527658D01*
X141676152Y-106527657D01*
X141673944Y-106527500D01*
X141536056Y-106527500D01*
X141533848Y-106527657D01*
X141533845Y-106527658D01*
X141333981Y-106541952D01*
X141333970Y-106541953D01*
X141329559Y-106542269D01*
X141325235Y-106543209D01*
X141325225Y-106543211D01*
X141064060Y-106600025D01*
X141064057Y-106600025D01*
X141059726Y-106600968D01*
X141055576Y-106602515D01*
X141055572Y-106602517D01*
X140805141Y-106695922D01*
X140805130Y-106695926D01*
X140800993Y-106697470D01*
X140797111Y-106699589D01*
X140797106Y-106699592D01*
X140562521Y-106827685D01*
X140562513Y-106827689D01*
X140558627Y-106829812D01*
X140555077Y-106832469D01*
X140555073Y-106832472D01*
X140341113Y-106992640D01*
X140341106Y-106992645D01*
X140337562Y-106995299D01*
X140334431Y-106998429D01*
X140334424Y-106998436D01*
X140145436Y-107187424D01*
X140145429Y-107187431D01*
X140142299Y-107190562D01*
X140139645Y-107194106D01*
X140139640Y-107194113D01*
X139985972Y-107399390D01*
X139976812Y-107411627D01*
X139974689Y-107415513D01*
X139974685Y-107415521D01*
X139846592Y-107650106D01*
X139844470Y-107653993D01*
X139842926Y-107658130D01*
X139842922Y-107658141D01*
X139749517Y-107908572D01*
X139747968Y-107912726D01*
X139747025Y-107917057D01*
X139747025Y-107917060D01*
X139690211Y-108178225D01*
X139690209Y-108178235D01*
X139689269Y-108182559D01*
X139688953Y-108186970D01*
X139688952Y-108186981D01*
X139675804Y-108370819D01*
X139669569Y-108458000D01*
X134999911Y-108458000D01*
X134944153Y-108425808D01*
X134933450Y-108420920D01*
X134746095Y-108356075D01*
X134740511Y-108354720D01*
X134732318Y-108355306D01*
X134730000Y-108365964D01*
X134730000Y-109461674D01*
X134230000Y-109461674D01*
X134230000Y-108370819D01*
X134227494Y-108359927D01*
X134216320Y-108360060D01*
X134124329Y-108382377D01*
X134113211Y-108386225D01*
X133932878Y-108468580D01*
X133922680Y-108474468D01*
X133761193Y-108589463D01*
X133752296Y-108597172D01*
X133615482Y-108740658D01*
X133608215Y-108749899D01*
X133501028Y-108916685D01*
X133495636Y-108927143D01*
X133421950Y-109111201D01*
X133418637Y-109122484D01*
X133381117Y-109317165D01*
X133380000Y-109328866D01*
X133380000Y-109461674D01*
X133026949Y-109461674D01*
X132964838Y-109293966D01*
X132859355Y-109124735D01*
X132721965Y-108980201D01*
X132558293Y-108866282D01*
X132552519Y-108863804D01*
X132552517Y-108863803D01*
X132380813Y-108790119D01*
X132380814Y-108790119D01*
X132375039Y-108787641D01*
X132368885Y-108786376D01*
X132368884Y-108786376D01*
X132185865Y-108748765D01*
X132185860Y-108748764D01*
X132179707Y-108747500D01*
X132030269Y-108747500D01*
X132027158Y-108747816D01*
X132027145Y-108747817D01*
X131887861Y-108761981D01*
X131887858Y-108761981D01*
X131881609Y-108762617D01*
X131875612Y-108764498D01*
X131875610Y-108764499D01*
X131697344Y-108820431D01*
X131697342Y-108820431D01*
X131691340Y-108822315D01*
X131685844Y-108825365D01*
X131685838Y-108825368D01*
X131522484Y-108916037D01*
X131522479Y-108916040D01*
X131516983Y-108919091D01*
X131512210Y-108923187D01*
X131512209Y-108923189D01*
X131370451Y-109044883D01*
X131370446Y-109044888D01*
X131365675Y-109048984D01*
X131361825Y-109053957D01*
X131361821Y-109053962D01*
X131247466Y-109201697D01*
X131247461Y-109201703D01*
X131243613Y-109206676D01*
X131240845Y-109212317D01*
X131240841Y-109212325D01*
X131158560Y-109380066D01*
X131158556Y-109380074D01*
X131155792Y-109385711D01*
X131154217Y-109391791D01*
X131154216Y-109391796D01*
X131126077Y-109500478D01*
X131105808Y-109578759D01*
X131105490Y-109585026D01*
X131105489Y-109585034D01*
X131096026Y-109771636D01*
X131096026Y-109771641D01*
X131095708Y-109777918D01*
X120846948Y-109777918D01*
X120814159Y-109673412D01*
X120715409Y-109495498D01*
X120582866Y-109341105D01*
X120577896Y-109337258D01*
X120577893Y-109337255D01*
X120485701Y-109265893D01*
X120421958Y-109216552D01*
X120416312Y-109213782D01*
X120416308Y-109213780D01*
X120244915Y-109129708D01*
X120244910Y-109129706D01*
X120239271Y-109126940D01*
X120233187Y-109125364D01*
X120233185Y-109125364D01*
X120048365Y-109077511D01*
X120048362Y-109077510D01*
X120042285Y-109075937D01*
X120036016Y-109075619D01*
X120036009Y-109075618D01*
X119845345Y-109065949D01*
X119845339Y-109065949D01*
X119839064Y-109065631D01*
X119832852Y-109066582D01*
X119832845Y-109066583D01*
X119644143Y-109095491D01*
X119644133Y-109095493D01*
X119637929Y-109096444D01*
X119632040Y-109098624D01*
X119632032Y-109098627D01*
X119453013Y-109164928D01*
X119453005Y-109164931D01*
X119447113Y-109167114D01*
X119441779Y-109170438D01*
X119441772Y-109170442D01*
X119279765Y-109271421D01*
X119279757Y-109271426D01*
X119274429Y-109274748D01*
X119269875Y-109279076D01*
X119269871Y-109279080D01*
X119131503Y-109410609D01*
X119131497Y-109410615D01*
X119126947Y-109414941D01*
X119123357Y-109420098D01*
X119123356Y-109420100D01*
X119014295Y-109576792D01*
X119014292Y-109576797D01*
X119010705Y-109581951D01*
X119008229Y-109587719D01*
X119008227Y-109587724D01*
X118932939Y-109763163D01*
X118932936Y-109763171D01*
X118930460Y-109768942D01*
X118929194Y-109775100D01*
X118929194Y-109775102D01*
X118890765Y-109962100D01*
X118890764Y-109962106D01*
X118889500Y-109968259D01*
X118889500Y-110720742D01*
X118889816Y-110723853D01*
X118889817Y-110723865D01*
X118902516Y-110848741D01*
X118904926Y-110872438D01*
X118906808Y-110878436D01*
X118941001Y-110987419D01*
X118965841Y-111066588D01*
X118968892Y-111072086D01*
X118968894Y-111072089D01*
X119061538Y-111239002D01*
X119064591Y-111244502D01*
X119068683Y-111249269D01*
X119068689Y-111249277D01*
X119116294Y-111304729D01*
X119145007Y-111368276D01*
X119134885Y-111437271D01*
X119089128Y-111489892D01*
X119022209Y-111509500D01*
X112122064Y-111509500D01*
X112057811Y-111491554D01*
X112012155Y-111442912D01*
X111998313Y-111377651D01*
X112020289Y-111314663D01*
X112038412Y-111288624D01*
X112129295Y-111158049D01*
X112209540Y-110971058D01*
X112250500Y-110771741D01*
X112250500Y-110019258D01*
X112235074Y-109867562D01*
X112174159Y-109673412D01*
X112075409Y-109495498D01*
X111942866Y-109341105D01*
X111937896Y-109337258D01*
X111937893Y-109337255D01*
X111845701Y-109265893D01*
X111781958Y-109216552D01*
X111776312Y-109213782D01*
X111776308Y-109213780D01*
X111604915Y-109129708D01*
X111604910Y-109129706D01*
X111599271Y-109126940D01*
X111593187Y-109125364D01*
X111593185Y-109125364D01*
X111408365Y-109077511D01*
X111408362Y-109077510D01*
X111402285Y-109075937D01*
X111396016Y-109075619D01*
X111396009Y-109075618D01*
X111205345Y-109065949D01*
X111205339Y-109065949D01*
X111199064Y-109065631D01*
X111192852Y-109066582D01*
X111192845Y-109066583D01*
X111004143Y-109095491D01*
X111004133Y-109095493D01*
X110997929Y-109096444D01*
X110992040Y-109098624D01*
X110992032Y-109098627D01*
X110813013Y-109164928D01*
X110813005Y-109164931D01*
X110807113Y-109167114D01*
X110801779Y-109170438D01*
X110801772Y-109170442D01*
X110639765Y-109271421D01*
X110639757Y-109271426D01*
X110634429Y-109274748D01*
X110629875Y-109279076D01*
X110629871Y-109279080D01*
X110491503Y-109410609D01*
X110491497Y-109410615D01*
X110486947Y-109414941D01*
X110483357Y-109420098D01*
X110483356Y-109420100D01*
X110374295Y-109576792D01*
X110374292Y-109576797D01*
X110370705Y-109581951D01*
X110368229Y-109587719D01*
X110368227Y-109587724D01*
X110292939Y-109763163D01*
X110292936Y-109763171D01*
X110290460Y-109768942D01*
X110289194Y-109775100D01*
X110289194Y-109775102D01*
X110250765Y-109962100D01*
X110250764Y-109962106D01*
X110249500Y-109968259D01*
X110249500Y-110720742D01*
X110249816Y-110723853D01*
X110249817Y-110723865D01*
X110262516Y-110848741D01*
X110264926Y-110872438D01*
X110266808Y-110878436D01*
X110301001Y-110987419D01*
X110325841Y-111066588D01*
X110328892Y-111072086D01*
X110328894Y-111072089D01*
X110421538Y-111239002D01*
X110424591Y-111244502D01*
X110428683Y-111249269D01*
X110428689Y-111249277D01*
X110476294Y-111304729D01*
X110505007Y-111368276D01*
X110494885Y-111437271D01*
X110449128Y-111489892D01*
X110382209Y-111509500D01*
X102873245Y-111509500D01*
X102866756Y-111509330D01*
X102557519Y-111493124D01*
X102544610Y-111491767D01*
X102241979Y-111443834D01*
X102229284Y-111441136D01*
X101933313Y-111361831D01*
X101920969Y-111357820D01*
X101634911Y-111248013D01*
X101623053Y-111242734D01*
X101456849Y-111158049D01*
X101350029Y-111103621D01*
X101338810Y-111097144D01*
X101081819Y-110930252D01*
X101071325Y-110922627D01*
X100833194Y-110729792D01*
X100823549Y-110721107D01*
X100606892Y-110504450D01*
X100598207Y-110494805D01*
X100405372Y-110256674D01*
X100397750Y-110246183D01*
X100230851Y-109989183D01*
X100224381Y-109977977D01*
X100085260Y-109704936D01*
X100079986Y-109693088D01*
X100074737Y-109679415D01*
X99970178Y-109407027D01*
X99966171Y-109394695D01*
X99886860Y-109098704D01*
X99884167Y-109086032D01*
X99836230Y-108783373D01*
X99834876Y-108770497D01*
X99818669Y-108461243D01*
X99818585Y-108458000D01*
X100934569Y-108458000D01*
X100934885Y-108462418D01*
X100953952Y-108729018D01*
X100953953Y-108729027D01*
X100954269Y-108733441D01*
X100955209Y-108737765D01*
X100955211Y-108737774D01*
X100997259Y-108931062D01*
X101012968Y-109003274D01*
X101014517Y-109007427D01*
X101107922Y-109257858D01*
X101107924Y-109257864D01*
X101109470Y-109262007D01*
X101116427Y-109274748D01*
X101232426Y-109487185D01*
X101241812Y-109504373D01*
X101407299Y-109725438D01*
X101602562Y-109920701D01*
X101823627Y-110086188D01*
X102065993Y-110218530D01*
X102324726Y-110315032D01*
X102594559Y-110373731D01*
X102801056Y-110388500D01*
X102936729Y-110388500D01*
X102938944Y-110388500D01*
X103145441Y-110373731D01*
X103415274Y-110315032D01*
X103674007Y-110218530D01*
X103916373Y-110086188D01*
X104137438Y-109920701D01*
X104332701Y-109725438D01*
X104498188Y-109504373D01*
X104630530Y-109262007D01*
X104727032Y-109003274D01*
X104785731Y-108733441D01*
X104805431Y-108458000D01*
X104785731Y-108182559D01*
X104762866Y-108077450D01*
X128580000Y-108077450D01*
X128580280Y-108083339D01*
X128594403Y-108231242D01*
X128596630Y-108242793D01*
X128652487Y-108433026D01*
X128656853Y-108443932D01*
X128747704Y-108620159D01*
X128754064Y-108630055D01*
X128876617Y-108785894D01*
X128884735Y-108794408D01*
X129034572Y-108924243D01*
X129044149Y-108931062D01*
X129215846Y-109030191D01*
X129226549Y-109035079D01*
X129413904Y-109099924D01*
X129419488Y-109101279D01*
X129427681Y-109100693D01*
X129430000Y-109090036D01*
X129430000Y-109085181D01*
X129930000Y-109085181D01*
X129932505Y-109096072D01*
X129943679Y-109095939D01*
X130035670Y-109073622D01*
X130046788Y-109069774D01*
X130227121Y-108987419D01*
X130237319Y-108981531D01*
X130398806Y-108866536D01*
X130407703Y-108858827D01*
X130544517Y-108715341D01*
X130551784Y-108706100D01*
X130658971Y-108539314D01*
X130664363Y-108528856D01*
X130738049Y-108344798D01*
X130741362Y-108333515D01*
X130778882Y-108138834D01*
X130780000Y-108127134D01*
X130780000Y-107994326D01*
X130776549Y-107981450D01*
X130763674Y-107978000D01*
X129946326Y-107978000D01*
X129933450Y-107981450D01*
X129930000Y-107994326D01*
X129930000Y-109085181D01*
X129430000Y-109085181D01*
X129430000Y-107994326D01*
X129426549Y-107981450D01*
X129413674Y-107978000D01*
X128596326Y-107978000D01*
X128583450Y-107981450D01*
X128580000Y-107994326D01*
X128580000Y-108077450D01*
X104762866Y-108077450D01*
X104727032Y-107912726D01*
X104630530Y-107653993D01*
X104498188Y-107411627D01*
X104332701Y-107190562D01*
X104137438Y-106995299D01*
X103916373Y-106829812D01*
X103909289Y-106825944D01*
X103844821Y-106790742D01*
X110249500Y-106790742D01*
X110249816Y-106793853D01*
X110249817Y-106793865D01*
X110263786Y-106931231D01*
X110264926Y-106942438D01*
X110325841Y-107136588D01*
X110328892Y-107142086D01*
X110328894Y-107142089D01*
X110413434Y-107294401D01*
X110424591Y-107314502D01*
X110557134Y-107468895D01*
X110562103Y-107472742D01*
X110562106Y-107472744D01*
X110612470Y-107511728D01*
X110718042Y-107593448D01*
X110723690Y-107596218D01*
X110723691Y-107596219D01*
X110841472Y-107653993D01*
X110900729Y-107683060D01*
X111097715Y-107734063D01*
X111300936Y-107744369D01*
X111502071Y-107713556D01*
X111692887Y-107642886D01*
X111865571Y-107535252D01*
X112013053Y-107395059D01*
X112100312Y-107269690D01*
X112139017Y-107233765D01*
X112189164Y-107217203D01*
X112241654Y-107223011D01*
X112279060Y-107245401D01*
X112279644Y-107244599D01*
X112285956Y-107249184D01*
X112291644Y-107254526D01*
X112364180Y-107294403D01*
X112429936Y-107330553D01*
X112429938Y-107330553D01*
X112436776Y-107334313D01*
X112597191Y-107375500D01*
X112717347Y-107375500D01*
X112721242Y-107375500D01*
X112844312Y-107359953D01*
X112998299Y-107298985D01*
X113132287Y-107201637D01*
X113237856Y-107074026D01*
X113308373Y-106924171D01*
X113339406Y-106761486D01*
X113334186Y-106678514D01*
X117800594Y-106678514D01*
X117801083Y-106686291D01*
X117801083Y-106686297D01*
X117810502Y-106836016D01*
X117810503Y-106836023D01*
X117810993Y-106843805D01*
X117813403Y-106851224D01*
X117813404Y-106851226D01*
X117859759Y-106993893D01*
X117859761Y-106993898D01*
X117862172Y-107001317D01*
X117950914Y-107141152D01*
X118071644Y-107254526D01*
X118144180Y-107294403D01*
X118209936Y-107330553D01*
X118209938Y-107330553D01*
X118216776Y-107334313D01*
X118377191Y-107375500D01*
X118497347Y-107375500D01*
X118501242Y-107375500D01*
X118624312Y-107359953D01*
X118778299Y-107298985D01*
X118862858Y-107237549D01*
X118927786Y-107214123D01*
X118995183Y-107229045D01*
X119044158Y-107277689D01*
X119064591Y-107314502D01*
X119197134Y-107468895D01*
X119202103Y-107472742D01*
X119202106Y-107472744D01*
X119252470Y-107511728D01*
X119358042Y-107593448D01*
X119363690Y-107596218D01*
X119363691Y-107596219D01*
X119481472Y-107653993D01*
X119540729Y-107683060D01*
X119737715Y-107734063D01*
X119940936Y-107744369D01*
X120142071Y-107713556D01*
X120332887Y-107642886D01*
X120505571Y-107535252D01*
X120582975Y-107461674D01*
X128580000Y-107461674D01*
X128583450Y-107474549D01*
X128596326Y-107478000D01*
X129413674Y-107478000D01*
X129426549Y-107474549D01*
X129430000Y-107461674D01*
X129930000Y-107461674D01*
X129933450Y-107474549D01*
X129946326Y-107478000D01*
X130763674Y-107478000D01*
X130776549Y-107474549D01*
X130780000Y-107461674D01*
X130780000Y-107378550D01*
X130779719Y-107372660D01*
X130765596Y-107224757D01*
X130763369Y-107213206D01*
X130707512Y-107022973D01*
X130703146Y-107012067D01*
X130612295Y-106835840D01*
X130605935Y-106825944D01*
X130483382Y-106670105D01*
X130475264Y-106661591D01*
X130325427Y-106531756D01*
X130315850Y-106524937D01*
X130144153Y-106425808D01*
X130133450Y-106420920D01*
X129946095Y-106356075D01*
X129940511Y-106354720D01*
X129932318Y-106355306D01*
X129930000Y-106365964D01*
X129930000Y-107461674D01*
X129430000Y-107461674D01*
X129430000Y-106370819D01*
X129427494Y-106359927D01*
X129416320Y-106360060D01*
X129324329Y-106382377D01*
X129313211Y-106386225D01*
X129132878Y-106468580D01*
X129122680Y-106474468D01*
X128961193Y-106589463D01*
X128952296Y-106597172D01*
X128815482Y-106740658D01*
X128808215Y-106749899D01*
X128701028Y-106916685D01*
X128695636Y-106927143D01*
X128621950Y-107111201D01*
X128618637Y-107122484D01*
X128581117Y-107317165D01*
X128580000Y-107328866D01*
X128580000Y-107461674D01*
X120582975Y-107461674D01*
X120653053Y-107395059D01*
X120769295Y-107228049D01*
X120849540Y-107041058D01*
X120890500Y-106841741D01*
X120890500Y-105589258D01*
X120875074Y-105437562D01*
X120814159Y-105243412D01*
X120715409Y-105065498D01*
X120582866Y-104911105D01*
X120577896Y-104907258D01*
X120577893Y-104907255D01*
X120492842Y-104841421D01*
X120421958Y-104786552D01*
X120416312Y-104783782D01*
X120416308Y-104783780D01*
X120244915Y-104699708D01*
X120244910Y-104699706D01*
X120239271Y-104696940D01*
X120233187Y-104695364D01*
X120233185Y-104695364D01*
X120048365Y-104647511D01*
X120048362Y-104647510D01*
X120042285Y-104645937D01*
X120036016Y-104645619D01*
X120036009Y-104645618D01*
X119845345Y-104635949D01*
X119845339Y-104635949D01*
X119839064Y-104635631D01*
X119832852Y-104636582D01*
X119832845Y-104636583D01*
X119644143Y-104665491D01*
X119644133Y-104665493D01*
X119637929Y-104666444D01*
X119632040Y-104668624D01*
X119632032Y-104668627D01*
X119453013Y-104734928D01*
X119453005Y-104734931D01*
X119447113Y-104737114D01*
X119441779Y-104740438D01*
X119441772Y-104740442D01*
X119279765Y-104841421D01*
X119279757Y-104841426D01*
X119274429Y-104844748D01*
X119269875Y-104849076D01*
X119269871Y-104849080D01*
X119131503Y-104980609D01*
X119131497Y-104980615D01*
X119126947Y-104984941D01*
X119123357Y-104990098D01*
X119123356Y-104990100D01*
X119014295Y-105146792D01*
X119014292Y-105146797D01*
X119010705Y-105151951D01*
X119008229Y-105157719D01*
X119008227Y-105157724D01*
X118932939Y-105333163D01*
X118932936Y-105333171D01*
X118930460Y-105338942D01*
X118929194Y-105345100D01*
X118929194Y-105345102D01*
X118890765Y-105532100D01*
X118890764Y-105532106D01*
X118889500Y-105538259D01*
X118889500Y-105544547D01*
X118889500Y-105998421D01*
X118873210Y-106059859D01*
X118828618Y-106105155D01*
X118767443Y-106122406D01*
X118718167Y-106110163D01*
X118717315Y-106112318D01*
X118710061Y-106109446D01*
X118703224Y-106105687D01*
X118695667Y-106103746D01*
X118695663Y-106103745D01*
X118550367Y-106066440D01*
X118550362Y-106066439D01*
X118542809Y-106064500D01*
X118418758Y-106064500D01*
X118414898Y-106064987D01*
X118414891Y-106064988D01*
X118303426Y-106079069D01*
X118303422Y-106079069D01*
X118295688Y-106080047D01*
X118288438Y-106082917D01*
X118288436Y-106082918D01*
X118148950Y-106138144D01*
X118148944Y-106138147D01*
X118141701Y-106141015D01*
X118135396Y-106145595D01*
X118135392Y-106145598D01*
X118030500Y-106221807D01*
X118007713Y-106238363D01*
X118002741Y-106244372D01*
X118002741Y-106244373D01*
X117907147Y-106359927D01*
X117902144Y-106365974D01*
X117898824Y-106373027D01*
X117898822Y-106373032D01*
X117834949Y-106508768D01*
X117834947Y-106508772D01*
X117831627Y-106515829D01*
X117830166Y-106523485D01*
X117830165Y-106523490D01*
X117802054Y-106670855D01*
X117802053Y-106670862D01*
X117800594Y-106678514D01*
X113334186Y-106678514D01*
X113329007Y-106596195D01*
X113277828Y-106438683D01*
X113189086Y-106298848D01*
X113068356Y-106185474D01*
X112995822Y-106145598D01*
X112930063Y-106109446D01*
X112930057Y-106109444D01*
X112923224Y-106105687D01*
X112915667Y-106103746D01*
X112915663Y-106103745D01*
X112770367Y-106066440D01*
X112770362Y-106066439D01*
X112762809Y-106064500D01*
X112638758Y-106064500D01*
X112634898Y-106064987D01*
X112634891Y-106064988D01*
X112523426Y-106079069D01*
X112523422Y-106079069D01*
X112515688Y-106080047D01*
X112508443Y-106082915D01*
X112508433Y-106082918D01*
X112420147Y-106117874D01*
X112360893Y-106125833D01*
X112304802Y-106105140D01*
X112264913Y-106060605D01*
X112250500Y-106002582D01*
X112250500Y-105592400D01*
X112250500Y-105589258D01*
X112235074Y-105437562D01*
X112174159Y-105243412D01*
X112075409Y-105065498D01*
X111942866Y-104911105D01*
X111937896Y-104907258D01*
X111937893Y-104907255D01*
X111852842Y-104841421D01*
X111781958Y-104786552D01*
X111776312Y-104783782D01*
X111776308Y-104783780D01*
X111604915Y-104699708D01*
X111604910Y-104699706D01*
X111599271Y-104696940D01*
X111593187Y-104695364D01*
X111593185Y-104695364D01*
X111408365Y-104647511D01*
X111408362Y-104647510D01*
X111402285Y-104645937D01*
X111396016Y-104645619D01*
X111396009Y-104645618D01*
X111205345Y-104635949D01*
X111205339Y-104635949D01*
X111199064Y-104635631D01*
X111192852Y-104636582D01*
X111192845Y-104636583D01*
X111004143Y-104665491D01*
X111004133Y-104665493D01*
X110997929Y-104666444D01*
X110992040Y-104668624D01*
X110992032Y-104668627D01*
X110813013Y-104734928D01*
X110813005Y-104734931D01*
X110807113Y-104737114D01*
X110801779Y-104740438D01*
X110801772Y-104740442D01*
X110639765Y-104841421D01*
X110639757Y-104841426D01*
X110634429Y-104844748D01*
X110629875Y-104849076D01*
X110629871Y-104849080D01*
X110491503Y-104980609D01*
X110491497Y-104980615D01*
X110486947Y-104984941D01*
X110483357Y-104990098D01*
X110483356Y-104990100D01*
X110374295Y-105146792D01*
X110374292Y-105146797D01*
X110370705Y-105151951D01*
X110368229Y-105157719D01*
X110368227Y-105157724D01*
X110292939Y-105333163D01*
X110292936Y-105333171D01*
X110290460Y-105338942D01*
X110289194Y-105345100D01*
X110289194Y-105345102D01*
X110250765Y-105532100D01*
X110250764Y-105532106D01*
X110249500Y-105538259D01*
X110249500Y-106790742D01*
X103844821Y-106790742D01*
X103677893Y-106699592D01*
X103674007Y-106697470D01*
X103669864Y-106695924D01*
X103669858Y-106695922D01*
X103419427Y-106602517D01*
X103415274Y-106600968D01*
X103359215Y-106588773D01*
X103149774Y-106543211D01*
X103149765Y-106543209D01*
X103145441Y-106542269D01*
X103141027Y-106541953D01*
X103141018Y-106541952D01*
X102941154Y-106527658D01*
X102941152Y-106527657D01*
X102938944Y-106527500D01*
X102801056Y-106527500D01*
X102798848Y-106527657D01*
X102798845Y-106527658D01*
X102598981Y-106541952D01*
X102598970Y-106541953D01*
X102594559Y-106542269D01*
X102590235Y-106543209D01*
X102590225Y-106543211D01*
X102329060Y-106600025D01*
X102329057Y-106600025D01*
X102324726Y-106600968D01*
X102320576Y-106602515D01*
X102320572Y-106602517D01*
X102070141Y-106695922D01*
X102070130Y-106695926D01*
X102065993Y-106697470D01*
X102062111Y-106699589D01*
X102062106Y-106699592D01*
X101827521Y-106827685D01*
X101827513Y-106827689D01*
X101823627Y-106829812D01*
X101820077Y-106832469D01*
X101820073Y-106832472D01*
X101606113Y-106992640D01*
X101606106Y-106992645D01*
X101602562Y-106995299D01*
X101599431Y-106998429D01*
X101599424Y-106998436D01*
X101410436Y-107187424D01*
X101410429Y-107187431D01*
X101407299Y-107190562D01*
X101404645Y-107194106D01*
X101404640Y-107194113D01*
X101250972Y-107399390D01*
X101241812Y-107411627D01*
X101239689Y-107415513D01*
X101239685Y-107415521D01*
X101111592Y-107650106D01*
X101109470Y-107653993D01*
X101107926Y-107658130D01*
X101107922Y-107658141D01*
X101014517Y-107908572D01*
X101012968Y-107912726D01*
X101012025Y-107917057D01*
X101012025Y-107917060D01*
X100955211Y-108178225D01*
X100955209Y-108178235D01*
X100954269Y-108182559D01*
X100953953Y-108186970D01*
X100953952Y-108186981D01*
X100940804Y-108370819D01*
X100934569Y-108458000D01*
X99818585Y-108458000D01*
X99818500Y-108454755D01*
X99818500Y-103777918D01*
X131095708Y-103777918D01*
X131096659Y-103784130D01*
X131096660Y-103784136D01*
X131124952Y-103968814D01*
X131125905Y-103975032D01*
X131128089Y-103980931D01*
X131128090Y-103980932D01*
X131184132Y-104132254D01*
X131195162Y-104162034D01*
X131198488Y-104167370D01*
X131198489Y-104167372D01*
X131249570Y-104249324D01*
X131300645Y-104331265D01*
X131438035Y-104475799D01*
X131601707Y-104589718D01*
X131784961Y-104668359D01*
X131980293Y-104708500D01*
X132126589Y-104708500D01*
X132129731Y-104708500D01*
X132278391Y-104693383D01*
X132468660Y-104633685D01*
X132643017Y-104536909D01*
X132794325Y-104407016D01*
X132916387Y-104249324D01*
X133004208Y-104070289D01*
X133054192Y-103877241D01*
X133064292Y-103678082D01*
X133034095Y-103480968D01*
X132964838Y-103293966D01*
X132859355Y-103124735D01*
X132817235Y-103080425D01*
X133379500Y-103080425D01*
X133379779Y-103083354D01*
X133379780Y-103083360D01*
X133391555Y-103206676D01*
X133394472Y-103237218D01*
X133396137Y-103242888D01*
X133438073Y-103385711D01*
X133453684Y-103438875D01*
X133549989Y-103625682D01*
X133553642Y-103630327D01*
X133674599Y-103784136D01*
X133679908Y-103790886D01*
X133838744Y-103928519D01*
X134020756Y-104033604D01*
X134219367Y-104102344D01*
X134427398Y-104132254D01*
X134637330Y-104122254D01*
X134841576Y-104072704D01*
X135032753Y-103985396D01*
X135203952Y-103863486D01*
X135348986Y-103711378D01*
X135462613Y-103534572D01*
X135540725Y-103339457D01*
X135580500Y-103133085D01*
X135580500Y-102375575D01*
X135565528Y-102218782D01*
X135506316Y-102017125D01*
X135410011Y-101830318D01*
X135280092Y-101665114D01*
X135121256Y-101527481D01*
X134939244Y-101422396D01*
X134933660Y-101420463D01*
X134933655Y-101420461D01*
X134746214Y-101355587D01*
X134746208Y-101355585D01*
X134740633Y-101353656D01*
X134734794Y-101352816D01*
X134734788Y-101352815D01*
X134538441Y-101324585D01*
X134538435Y-101324584D01*
X134532602Y-101323746D01*
X134526716Y-101324026D01*
X134526710Y-101324026D01*
X134328567Y-101333465D01*
X134328565Y-101333465D01*
X134322670Y-101333746D01*
X134316942Y-101335135D01*
X134316932Y-101335137D01*
X134124160Y-101381904D01*
X134124155Y-101381905D01*
X134118424Y-101383296D01*
X134113054Y-101385747D01*
X134113052Y-101385749D01*
X133932621Y-101468149D01*
X133932614Y-101468152D01*
X133927247Y-101470604D01*
X133922437Y-101474028D01*
X133922432Y-101474032D01*
X133760865Y-101589083D01*
X133760859Y-101589087D01*
X133756048Y-101592514D01*
X133751974Y-101596786D01*
X133751969Y-101596791D01*
X133615088Y-101740348D01*
X133615082Y-101740355D01*
X133611014Y-101744622D01*
X133607822Y-101749588D01*
X133607821Y-101749590D01*
X133500582Y-101916455D01*
X133500578Y-101916462D01*
X133497387Y-101921428D01*
X133495195Y-101926903D01*
X133495190Y-101926913D01*
X133421469Y-102111060D01*
X133421466Y-102111069D01*
X133419275Y-102116543D01*
X133418158Y-102122334D01*
X133418156Y-102122344D01*
X133380617Y-102317117D01*
X133379500Y-102322915D01*
X133379500Y-103080425D01*
X132817235Y-103080425D01*
X132721965Y-102980201D01*
X132558293Y-102866282D01*
X132552519Y-102863804D01*
X132552517Y-102863803D01*
X132380813Y-102790119D01*
X132380814Y-102790119D01*
X132375039Y-102787641D01*
X132368885Y-102786376D01*
X132368884Y-102786376D01*
X132185865Y-102748765D01*
X132185860Y-102748764D01*
X132179707Y-102747500D01*
X132030269Y-102747500D01*
X132027158Y-102747816D01*
X132027145Y-102747817D01*
X131887861Y-102761981D01*
X131887858Y-102761981D01*
X131881609Y-102762617D01*
X131875612Y-102764498D01*
X131875610Y-102764499D01*
X131697344Y-102820431D01*
X131697342Y-102820431D01*
X131691340Y-102822315D01*
X131685844Y-102825365D01*
X131685838Y-102825368D01*
X131522484Y-102916037D01*
X131522479Y-102916040D01*
X131516983Y-102919091D01*
X131512210Y-102923187D01*
X131512209Y-102923189D01*
X131370451Y-103044883D01*
X131370446Y-103044888D01*
X131365675Y-103048984D01*
X131361825Y-103053957D01*
X131361821Y-103053962D01*
X131247466Y-103201697D01*
X131247461Y-103201703D01*
X131243613Y-103206676D01*
X131240845Y-103212317D01*
X131240841Y-103212325D01*
X131158560Y-103380066D01*
X131158556Y-103380074D01*
X131155792Y-103385711D01*
X131154217Y-103391791D01*
X131154216Y-103391796D01*
X131115962Y-103539544D01*
X131105808Y-103578759D01*
X131105490Y-103585026D01*
X131105489Y-103585034D01*
X131096026Y-103771636D01*
X131096026Y-103771641D01*
X131095708Y-103777918D01*
X99818500Y-103777918D01*
X99818500Y-100076000D01*
X110404341Y-100076000D01*
X110424937Y-100311408D01*
X110426336Y-100316630D01*
X110426337Y-100316634D01*
X110484694Y-100534430D01*
X110484697Y-100534438D01*
X110486097Y-100539663D01*
X110488385Y-100544570D01*
X110488386Y-100544572D01*
X110583678Y-100748927D01*
X110583681Y-100748933D01*
X110585965Y-100753830D01*
X110589064Y-100758257D01*
X110589066Y-100758259D01*
X110718399Y-100942966D01*
X110718402Y-100942970D01*
X110721505Y-100947401D01*
X110888599Y-101114495D01*
X111082170Y-101250035D01*
X111296337Y-101349903D01*
X111301567Y-101351304D01*
X111301569Y-101351305D01*
X111317550Y-101355587D01*
X111524592Y-101411063D01*
X111760000Y-101431659D01*
X111995408Y-101411063D01*
X112223663Y-101349903D01*
X112437830Y-101250035D01*
X112631401Y-101114495D01*
X112798495Y-100947401D01*
X112928424Y-100761842D01*
X112972743Y-100722976D01*
X113030000Y-100708965D01*
X113087257Y-100722976D01*
X113131575Y-100761842D01*
X113258395Y-100942961D01*
X113258401Y-100942968D01*
X113261505Y-100947401D01*
X113428599Y-101114495D01*
X113622170Y-101250035D01*
X113836337Y-101349903D01*
X113841567Y-101351304D01*
X113841569Y-101351305D01*
X113857550Y-101355587D01*
X114064592Y-101411063D01*
X114300000Y-101431659D01*
X114535408Y-101411063D01*
X114763663Y-101349903D01*
X114977830Y-101250035D01*
X115171401Y-101114495D01*
X115338495Y-100947401D01*
X115468424Y-100761842D01*
X115512743Y-100722976D01*
X115570000Y-100708965D01*
X115627257Y-100722976D01*
X115671575Y-100761842D01*
X115798395Y-100942961D01*
X115798401Y-100942968D01*
X115801505Y-100947401D01*
X115968599Y-101114495D01*
X116162170Y-101250035D01*
X116376337Y-101349903D01*
X116381567Y-101351304D01*
X116381569Y-101351305D01*
X116397550Y-101355587D01*
X116604592Y-101411063D01*
X116840000Y-101431659D01*
X117075408Y-101411063D01*
X117303663Y-101349903D01*
X117517830Y-101250035D01*
X117711401Y-101114495D01*
X117878495Y-100947401D01*
X118008424Y-100761842D01*
X118052743Y-100722976D01*
X118110000Y-100708965D01*
X118167257Y-100722976D01*
X118211575Y-100761842D01*
X118338395Y-100942961D01*
X118338401Y-100942968D01*
X118341505Y-100947401D01*
X118508599Y-101114495D01*
X118702170Y-101250035D01*
X118916337Y-101349903D01*
X118921567Y-101351304D01*
X118921569Y-101351305D01*
X118937550Y-101355587D01*
X119144592Y-101411063D01*
X119380000Y-101431659D01*
X119615408Y-101411063D01*
X119843663Y-101349903D01*
X120057830Y-101250035D01*
X120251401Y-101114495D01*
X120373717Y-100992178D01*
X120426460Y-100960885D01*
X120487753Y-100958696D01*
X120542597Y-100986149D01*
X120577577Y-101036528D01*
X120623548Y-101159779D01*
X120631962Y-101175189D01*
X120707498Y-101276092D01*
X120719907Y-101288501D01*
X120820810Y-101364037D01*
X120836222Y-101372452D01*
X120955358Y-101416888D01*
X120970332Y-101420426D01*
X121018885Y-101425646D01*
X121025482Y-101426000D01*
X121653674Y-101426000D01*
X121666549Y-101422549D01*
X121670000Y-101409674D01*
X122170000Y-101409674D01*
X122173450Y-101422549D01*
X122186326Y-101426000D01*
X122814518Y-101426000D01*
X122821114Y-101425646D01*
X122869667Y-101420426D01*
X122884641Y-101416888D01*
X123003777Y-101372452D01*
X123019189Y-101364037D01*
X123120092Y-101288501D01*
X123132501Y-101276092D01*
X123208037Y-101175189D01*
X123216452Y-101159777D01*
X123260888Y-101040641D01*
X123264426Y-101025667D01*
X123269646Y-100977114D01*
X123270000Y-100970518D01*
X123270000Y-100342326D01*
X123266549Y-100329450D01*
X123253674Y-100326000D01*
X122186326Y-100326000D01*
X122173450Y-100329450D01*
X122170000Y-100342326D01*
X122170000Y-101409674D01*
X121670000Y-101409674D01*
X121670000Y-99809674D01*
X122170000Y-99809674D01*
X122173450Y-99822549D01*
X122186326Y-99826000D01*
X123253674Y-99826000D01*
X123266549Y-99822549D01*
X123270000Y-99809674D01*
X123270000Y-99181482D01*
X123269646Y-99174885D01*
X123264426Y-99126332D01*
X123260888Y-99111358D01*
X123216452Y-98992222D01*
X123208037Y-98976810D01*
X123132501Y-98875907D01*
X123120092Y-98863498D01*
X123019189Y-98787962D01*
X123003777Y-98779547D01*
X122884641Y-98735111D01*
X122869667Y-98731573D01*
X122821114Y-98726353D01*
X122814518Y-98726000D01*
X122186326Y-98726000D01*
X122173450Y-98729450D01*
X122170000Y-98742326D01*
X122170000Y-99809674D01*
X121670000Y-99809674D01*
X121670000Y-98742326D01*
X121666549Y-98729450D01*
X121653674Y-98726000D01*
X121025482Y-98726000D01*
X121018885Y-98726353D01*
X120970332Y-98731573D01*
X120955358Y-98735111D01*
X120836222Y-98779547D01*
X120820810Y-98787962D01*
X120719907Y-98863498D01*
X120707498Y-98875907D01*
X120631962Y-98976810D01*
X120623544Y-98992226D01*
X120577576Y-99115471D01*
X120542597Y-99165850D01*
X120487753Y-99193303D01*
X120426460Y-99191114D01*
X120373714Y-99159818D01*
X120255232Y-99041336D01*
X120255230Y-99041334D01*
X120251401Y-99037505D01*
X120246970Y-99034402D01*
X120246966Y-99034399D01*
X120062259Y-98905066D01*
X120062257Y-98905064D01*
X120057830Y-98901965D01*
X120052933Y-98899681D01*
X120052927Y-98899678D01*
X119848572Y-98804386D01*
X119848570Y-98804385D01*
X119843663Y-98802097D01*
X119838438Y-98800697D01*
X119838430Y-98800694D01*
X119620634Y-98742337D01*
X119620630Y-98742336D01*
X119615408Y-98740937D01*
X119610020Y-98740465D01*
X119610017Y-98740465D01*
X119385395Y-98720813D01*
X119380000Y-98720341D01*
X119374605Y-98720813D01*
X119149982Y-98740465D01*
X119149977Y-98740465D01*
X119144592Y-98740937D01*
X119139371Y-98742335D01*
X119139365Y-98742337D01*
X118921569Y-98800694D01*
X118921557Y-98800698D01*
X118916337Y-98802097D01*
X118911432Y-98804383D01*
X118911427Y-98804386D01*
X118707081Y-98899675D01*
X118707077Y-98899677D01*
X118702171Y-98901965D01*
X118697738Y-98905068D01*
X118697731Y-98905073D01*
X118513034Y-99034399D01*
X118513029Y-99034402D01*
X118508599Y-99037505D01*
X118504775Y-99041328D01*
X118504769Y-99041334D01*
X118345334Y-99200769D01*
X118345328Y-99200775D01*
X118341505Y-99204599D01*
X118338402Y-99209029D01*
X118338399Y-99209034D01*
X118211575Y-99390159D01*
X118167257Y-99429025D01*
X118110000Y-99443036D01*
X118052743Y-99429025D01*
X118008425Y-99390159D01*
X117881600Y-99209034D01*
X117878495Y-99204599D01*
X117711401Y-99037505D01*
X117706970Y-99034402D01*
X117706966Y-99034399D01*
X117522259Y-98905066D01*
X117522257Y-98905064D01*
X117517830Y-98901965D01*
X117512933Y-98899681D01*
X117512927Y-98899678D01*
X117308572Y-98804386D01*
X117308570Y-98804385D01*
X117303663Y-98802097D01*
X117298438Y-98800697D01*
X117298430Y-98800694D01*
X117080634Y-98742337D01*
X117080630Y-98742336D01*
X117075408Y-98740937D01*
X117070020Y-98740465D01*
X117070017Y-98740465D01*
X116845395Y-98720813D01*
X116840000Y-98720341D01*
X116834605Y-98720813D01*
X116609982Y-98740465D01*
X116609977Y-98740465D01*
X116604592Y-98740937D01*
X116599371Y-98742335D01*
X116599365Y-98742337D01*
X116381569Y-98800694D01*
X116381557Y-98800698D01*
X116376337Y-98802097D01*
X116371432Y-98804383D01*
X116371427Y-98804386D01*
X116167081Y-98899675D01*
X116167077Y-98899677D01*
X116162171Y-98901965D01*
X116157738Y-98905068D01*
X116157731Y-98905073D01*
X115973034Y-99034399D01*
X115973029Y-99034402D01*
X115968599Y-99037505D01*
X115964775Y-99041328D01*
X115964769Y-99041334D01*
X115805334Y-99200769D01*
X115805328Y-99200775D01*
X115801505Y-99204599D01*
X115798402Y-99209029D01*
X115798399Y-99209034D01*
X115671575Y-99390159D01*
X115627257Y-99429025D01*
X115570000Y-99443036D01*
X115512743Y-99429025D01*
X115468425Y-99390159D01*
X115341600Y-99209034D01*
X115338495Y-99204599D01*
X115171401Y-99037505D01*
X115166970Y-99034402D01*
X115166966Y-99034399D01*
X114982259Y-98905066D01*
X114982257Y-98905064D01*
X114977830Y-98901965D01*
X114972933Y-98899681D01*
X114972927Y-98899678D01*
X114768572Y-98804386D01*
X114768570Y-98804385D01*
X114763663Y-98802097D01*
X114758438Y-98800697D01*
X114758430Y-98800694D01*
X114540634Y-98742337D01*
X114540630Y-98742336D01*
X114535408Y-98740937D01*
X114530020Y-98740465D01*
X114530017Y-98740465D01*
X114305395Y-98720813D01*
X114300000Y-98720341D01*
X114294605Y-98720813D01*
X114069982Y-98740465D01*
X114069977Y-98740465D01*
X114064592Y-98740937D01*
X114059371Y-98742335D01*
X114059365Y-98742337D01*
X113841569Y-98800694D01*
X113841557Y-98800698D01*
X113836337Y-98802097D01*
X113831432Y-98804383D01*
X113831427Y-98804386D01*
X113627081Y-98899675D01*
X113627077Y-98899677D01*
X113622171Y-98901965D01*
X113617738Y-98905068D01*
X113617731Y-98905073D01*
X113433034Y-99034399D01*
X113433029Y-99034402D01*
X113428599Y-99037505D01*
X113424775Y-99041328D01*
X113424769Y-99041334D01*
X113265334Y-99200769D01*
X113265328Y-99200775D01*
X113261505Y-99204599D01*
X113258402Y-99209029D01*
X113258399Y-99209034D01*
X113131575Y-99390159D01*
X113087257Y-99429025D01*
X113030000Y-99443036D01*
X112972743Y-99429025D01*
X112928425Y-99390159D01*
X112801600Y-99209034D01*
X112798495Y-99204599D01*
X112631401Y-99037505D01*
X112626970Y-99034402D01*
X112626966Y-99034399D01*
X112442259Y-98905066D01*
X112442257Y-98905064D01*
X112437830Y-98901965D01*
X112432933Y-98899681D01*
X112432927Y-98899678D01*
X112228572Y-98804386D01*
X112228570Y-98804385D01*
X112223663Y-98802097D01*
X112218438Y-98800697D01*
X112218430Y-98800694D01*
X112000634Y-98742337D01*
X112000630Y-98742336D01*
X111995408Y-98740937D01*
X111990020Y-98740465D01*
X111990017Y-98740465D01*
X111765395Y-98720813D01*
X111760000Y-98720341D01*
X111754605Y-98720813D01*
X111529982Y-98740465D01*
X111529977Y-98740465D01*
X111524592Y-98740937D01*
X111519371Y-98742335D01*
X111519365Y-98742337D01*
X111301569Y-98800694D01*
X111301557Y-98800698D01*
X111296337Y-98802097D01*
X111291432Y-98804383D01*
X111291427Y-98804386D01*
X111087081Y-98899675D01*
X111087077Y-98899677D01*
X111082171Y-98901965D01*
X111077738Y-98905068D01*
X111077731Y-98905073D01*
X110893034Y-99034399D01*
X110893029Y-99034402D01*
X110888599Y-99037505D01*
X110884775Y-99041328D01*
X110884769Y-99041334D01*
X110725334Y-99200769D01*
X110725328Y-99200775D01*
X110721505Y-99204599D01*
X110718402Y-99209029D01*
X110718399Y-99209034D01*
X110589073Y-99393731D01*
X110589068Y-99393738D01*
X110585965Y-99398171D01*
X110583677Y-99403077D01*
X110583675Y-99403081D01*
X110488386Y-99607427D01*
X110488383Y-99607432D01*
X110486097Y-99612337D01*
X110484698Y-99617557D01*
X110484694Y-99617569D01*
X110426337Y-99835365D01*
X110426335Y-99835371D01*
X110424937Y-99840592D01*
X110404341Y-100076000D01*
X99818500Y-100076000D01*
X99818500Y-92973564D01*
X125635084Y-92973564D01*
X125667426Y-93123632D01*
X125670500Y-93133670D01*
X125757017Y-93348975D01*
X125761738Y-93358339D01*
X125883403Y-93555936D01*
X125889638Y-93564366D01*
X126042940Y-93738550D01*
X126050524Y-93745819D01*
X126231050Y-93891583D01*
X126239749Y-93897463D01*
X126442318Y-94010625D01*
X126451888Y-94014950D01*
X126670663Y-94092249D01*
X126680830Y-94094896D01*
X126909521Y-94134109D01*
X126919982Y-94135000D01*
X127368674Y-94135000D01*
X127381549Y-94131549D01*
X127385000Y-94118674D01*
X127885000Y-94118674D01*
X127888450Y-94131549D01*
X127901326Y-94135000D01*
X128291902Y-94135000D01*
X128297158Y-94134776D01*
X128470443Y-94120028D01*
X128480797Y-94118252D01*
X128705345Y-94059784D01*
X128715240Y-94056288D01*
X128926675Y-93960714D01*
X128935844Y-93955591D01*
X129128085Y-93825659D01*
X129136255Y-93819061D01*
X129303773Y-93658508D01*
X129310701Y-93650637D01*
X129448689Y-93464065D01*
X129454184Y-93455142D01*
X129558650Y-93247943D01*
X129562563Y-93238206D01*
X129630511Y-93016335D01*
X129632721Y-93006081D01*
X129636378Y-92977520D01*
X129635757Y-92973564D01*
X138135084Y-92973564D01*
X138167426Y-93123632D01*
X138170500Y-93133670D01*
X138257017Y-93348975D01*
X138261738Y-93358339D01*
X138383403Y-93555936D01*
X138389638Y-93564366D01*
X138542940Y-93738550D01*
X138550524Y-93745819D01*
X138731050Y-93891583D01*
X138739749Y-93897463D01*
X138942318Y-94010625D01*
X138951888Y-94014950D01*
X139170663Y-94092249D01*
X139180830Y-94094896D01*
X139409521Y-94134109D01*
X139419982Y-94135000D01*
X139868674Y-94135000D01*
X139881549Y-94131549D01*
X139885000Y-94118674D01*
X140385000Y-94118674D01*
X140388450Y-94131549D01*
X140401326Y-94135000D01*
X140791902Y-94135000D01*
X140797158Y-94134776D01*
X140970443Y-94120028D01*
X140980797Y-94118252D01*
X141205345Y-94059784D01*
X141215240Y-94056288D01*
X141426675Y-93960714D01*
X141435844Y-93955591D01*
X141628085Y-93825659D01*
X141636255Y-93819061D01*
X141803773Y-93658508D01*
X141810701Y-93650637D01*
X141948689Y-93464065D01*
X141954184Y-93455142D01*
X142058650Y-93247943D01*
X142062563Y-93238206D01*
X142130511Y-93016335D01*
X142132721Y-93006081D01*
X142136378Y-92977520D01*
X142134234Y-92963861D01*
X142120958Y-92960000D01*
X140401326Y-92960000D01*
X140388450Y-92963450D01*
X140385000Y-92976326D01*
X140385000Y-94118674D01*
X139885000Y-94118674D01*
X139885000Y-92976326D01*
X139881549Y-92963450D01*
X139868674Y-92960000D01*
X138146038Y-92960000D01*
X138135202Y-92962455D01*
X138135084Y-92973564D01*
X129635757Y-92973564D01*
X129634234Y-92963861D01*
X129620958Y-92960000D01*
X127901326Y-92960000D01*
X127888450Y-92963450D01*
X127885000Y-92976326D01*
X127885000Y-94118674D01*
X127385000Y-94118674D01*
X127385000Y-92976326D01*
X127381549Y-92963450D01*
X127368674Y-92960000D01*
X125646038Y-92960000D01*
X125635202Y-92962455D01*
X125635084Y-92973564D01*
X99818500Y-92973564D01*
X99818500Y-92442479D01*
X125633621Y-92442479D01*
X125635765Y-92456138D01*
X125649042Y-92460000D01*
X127368674Y-92460000D01*
X127381549Y-92456549D01*
X127385000Y-92443674D01*
X127885000Y-92443674D01*
X127888450Y-92456549D01*
X127901326Y-92460000D01*
X129623962Y-92460000D01*
X129634797Y-92457544D01*
X129634915Y-92446435D01*
X129634062Y-92442479D01*
X138133621Y-92442479D01*
X138135765Y-92456138D01*
X138149042Y-92460000D01*
X139868674Y-92460000D01*
X139881549Y-92456549D01*
X139885000Y-92443674D01*
X140385000Y-92443674D01*
X140388450Y-92456549D01*
X140401326Y-92460000D01*
X142123962Y-92460000D01*
X142134797Y-92457544D01*
X142134915Y-92446435D01*
X142102573Y-92296367D01*
X142099499Y-92286329D01*
X142012982Y-92071024D01*
X142008261Y-92061660D01*
X141886596Y-91864063D01*
X141880361Y-91855633D01*
X141727059Y-91681449D01*
X141719475Y-91674180D01*
X141538949Y-91528416D01*
X141530250Y-91522536D01*
X141327681Y-91409374D01*
X141318111Y-91405049D01*
X141099336Y-91327750D01*
X141089169Y-91325103D01*
X140860478Y-91285890D01*
X140850018Y-91285000D01*
X140401326Y-91285000D01*
X140388450Y-91288450D01*
X140385000Y-91301326D01*
X140385000Y-92443674D01*
X139885000Y-92443674D01*
X139885000Y-91301326D01*
X139881549Y-91288450D01*
X139868674Y-91285000D01*
X139478098Y-91285000D01*
X139472841Y-91285223D01*
X139299556Y-91299971D01*
X139289202Y-91301747D01*
X139064654Y-91360215D01*
X139054759Y-91363711D01*
X138843324Y-91459285D01*
X138834155Y-91464408D01*
X138641914Y-91594340D01*
X138633744Y-91600938D01*
X138466226Y-91761491D01*
X138459298Y-91769362D01*
X138321310Y-91955934D01*
X138315815Y-91964857D01*
X138211349Y-92172056D01*
X138207436Y-92181793D01*
X138139488Y-92403664D01*
X138137278Y-92413918D01*
X138133621Y-92442479D01*
X129634062Y-92442479D01*
X129602573Y-92296367D01*
X129599499Y-92286329D01*
X129512982Y-92071024D01*
X129508261Y-92061660D01*
X129386596Y-91864063D01*
X129380361Y-91855633D01*
X129227059Y-91681449D01*
X129219475Y-91674180D01*
X129038949Y-91528416D01*
X129030250Y-91522536D01*
X128827681Y-91409374D01*
X128818111Y-91405049D01*
X128599336Y-91327750D01*
X128589169Y-91325103D01*
X128360478Y-91285890D01*
X128350018Y-91285000D01*
X127901326Y-91285000D01*
X127888450Y-91288450D01*
X127885000Y-91301326D01*
X127885000Y-92443674D01*
X127385000Y-92443674D01*
X127385000Y-91301326D01*
X127381549Y-91288450D01*
X127368674Y-91285000D01*
X126978098Y-91285000D01*
X126972841Y-91285223D01*
X126799556Y-91299971D01*
X126789202Y-91301747D01*
X126564654Y-91360215D01*
X126554759Y-91363711D01*
X126343324Y-91459285D01*
X126334155Y-91464408D01*
X126141914Y-91594340D01*
X126133744Y-91600938D01*
X125966226Y-91761491D01*
X125959298Y-91769362D01*
X125821310Y-91955934D01*
X125815815Y-91964857D01*
X125711349Y-92172056D01*
X125707436Y-92181793D01*
X125639488Y-92403664D01*
X125637278Y-92413918D01*
X125633621Y-92442479D01*
X99818500Y-92442479D01*
X99818500Y-87649281D01*
X125606635Y-87649281D01*
X125606858Y-87654535D01*
X125606858Y-87654540D01*
X125612015Y-87775936D01*
X125616934Y-87891719D01*
X125618041Y-87896860D01*
X125618043Y-87896868D01*
X125666946Y-88123779D01*
X125668056Y-88128928D01*
X125670018Y-88133811D01*
X125670020Y-88133817D01*
X125756569Y-88349201D01*
X125758532Y-88354086D01*
X125761290Y-88358565D01*
X125882999Y-88556234D01*
X125883002Y-88556238D01*
X125885758Y-88560714D01*
X126046075Y-88742869D01*
X126234870Y-88895311D01*
X126446712Y-89013653D01*
X126675507Y-89094491D01*
X126914672Y-89135500D01*
X128291923Y-89135500D01*
X128294554Y-89135500D01*
X128475782Y-89120075D01*
X128710608Y-89058931D01*
X128931723Y-88958981D01*
X129132765Y-88823100D01*
X129307952Y-88655197D01*
X129452244Y-88460102D01*
X129561488Y-88243429D01*
X129632543Y-88011409D01*
X129663365Y-87770719D01*
X129658206Y-87649281D01*
X138106635Y-87649281D01*
X138106858Y-87654535D01*
X138106858Y-87654540D01*
X138112015Y-87775936D01*
X138116934Y-87891719D01*
X138118041Y-87896860D01*
X138118043Y-87896868D01*
X138166946Y-88123779D01*
X138168056Y-88128928D01*
X138170018Y-88133811D01*
X138170020Y-88133817D01*
X138256569Y-88349201D01*
X138258532Y-88354086D01*
X138261290Y-88358565D01*
X138382999Y-88556234D01*
X138383002Y-88556238D01*
X138385758Y-88560714D01*
X138546075Y-88742869D01*
X138734870Y-88895311D01*
X138946712Y-89013653D01*
X139175507Y-89094491D01*
X139414672Y-89135500D01*
X140791923Y-89135500D01*
X140794554Y-89135500D01*
X140975782Y-89120075D01*
X141210608Y-89058931D01*
X141431723Y-88958981D01*
X141632765Y-88823100D01*
X141807952Y-88655197D01*
X141952244Y-88460102D01*
X142061488Y-88243429D01*
X142132543Y-88011409D01*
X142163365Y-87770719D01*
X142153066Y-87528281D01*
X142101944Y-87291072D01*
X142011468Y-87065914D01*
X141884242Y-86859286D01*
X141723925Y-86677131D01*
X141535130Y-86524689D01*
X141426438Y-86463970D01*
X141327888Y-86408916D01*
X141327881Y-86408912D01*
X141323288Y-86406347D01*
X141318322Y-86404592D01*
X141318319Y-86404591D01*
X141099462Y-86327264D01*
X141099455Y-86327262D01*
X141094493Y-86325509D01*
X141089303Y-86324619D01*
X141089295Y-86324617D01*
X140860521Y-86285390D01*
X140860516Y-86285389D01*
X140855328Y-86284500D01*
X139475446Y-86284500D01*
X139472830Y-86284722D01*
X139472821Y-86284723D01*
X139299471Y-86299477D01*
X139299460Y-86299478D01*
X139294218Y-86299925D01*
X139289119Y-86301252D01*
X139289117Y-86301253D01*
X139064487Y-86359742D01*
X139064483Y-86359743D01*
X139059392Y-86361069D01*
X139054599Y-86363235D01*
X139054592Y-86363238D01*
X138843079Y-86458847D01*
X138843066Y-86458854D01*
X138838277Y-86461019D01*
X138833914Y-86463967D01*
X138833910Y-86463970D01*
X138641602Y-86593948D01*
X138641598Y-86593950D01*
X138637235Y-86596900D01*
X138633435Y-86600541D01*
X138633430Y-86600546D01*
X138465847Y-86761161D01*
X138465841Y-86761167D01*
X138462048Y-86764803D01*
X138458926Y-86769024D01*
X138458920Y-86769031D01*
X138320882Y-86955671D01*
X138317756Y-86959898D01*
X138315391Y-86964587D01*
X138315387Y-86964595D01*
X138210883Y-87171868D01*
X138208512Y-87176571D01*
X138206971Y-87181601D01*
X138206970Y-87181605D01*
X138138998Y-87403556D01*
X138138995Y-87403566D01*
X138137457Y-87408591D01*
X138136788Y-87413809D01*
X138136788Y-87413813D01*
X138107303Y-87644063D01*
X138106635Y-87649281D01*
X129658206Y-87649281D01*
X129653066Y-87528281D01*
X129601944Y-87291072D01*
X129511468Y-87065914D01*
X129384242Y-86859286D01*
X129223925Y-86677131D01*
X129035130Y-86524689D01*
X128926438Y-86463970D01*
X128827888Y-86408916D01*
X128827881Y-86408912D01*
X128823288Y-86406347D01*
X128818322Y-86404592D01*
X128818319Y-86404591D01*
X128599462Y-86327264D01*
X128599455Y-86327262D01*
X128594493Y-86325509D01*
X128589303Y-86324619D01*
X128589295Y-86324617D01*
X128360521Y-86285390D01*
X128360516Y-86285389D01*
X128355328Y-86284500D01*
X126975446Y-86284500D01*
X126972830Y-86284722D01*
X126972821Y-86284723D01*
X126799471Y-86299477D01*
X126799460Y-86299478D01*
X126794218Y-86299925D01*
X126789119Y-86301252D01*
X126789117Y-86301253D01*
X126564487Y-86359742D01*
X126564483Y-86359743D01*
X126559392Y-86361069D01*
X126554599Y-86363235D01*
X126554592Y-86363238D01*
X126343079Y-86458847D01*
X126343066Y-86458854D01*
X126338277Y-86461019D01*
X126333914Y-86463967D01*
X126333910Y-86463970D01*
X126141602Y-86593948D01*
X126141598Y-86593950D01*
X126137235Y-86596900D01*
X126133435Y-86600541D01*
X126133430Y-86600546D01*
X125965847Y-86761161D01*
X125965841Y-86761167D01*
X125962048Y-86764803D01*
X125958926Y-86769024D01*
X125958920Y-86769031D01*
X125820882Y-86955671D01*
X125817756Y-86959898D01*
X125815391Y-86964587D01*
X125815387Y-86964595D01*
X125710883Y-87171868D01*
X125708512Y-87176571D01*
X125706971Y-87181601D01*
X125706970Y-87181605D01*
X125638998Y-87403556D01*
X125638995Y-87403566D01*
X125637457Y-87408591D01*
X125636788Y-87413809D01*
X125636788Y-87413813D01*
X125607303Y-87644063D01*
X125606635Y-87649281D01*
X99818500Y-87649281D01*
X99818500Y-80990000D01*
X120899357Y-80990000D01*
X120899781Y-80995117D01*
X120919467Y-81232701D01*
X120919468Y-81232709D01*
X120919892Y-81237821D01*
X120921149Y-81242788D01*
X120921151Y-81242795D01*
X120979678Y-81473910D01*
X120980937Y-81478881D01*
X120982997Y-81483577D01*
X121078766Y-81701910D01*
X121078769Y-81701916D01*
X121080827Y-81706607D01*
X121083627Y-81710893D01*
X121083631Y-81710900D01*
X121211675Y-81906885D01*
X121216836Y-81914785D01*
X121220310Y-81918559D01*
X121220311Y-81918560D01*
X121381784Y-82093967D01*
X121381787Y-82093970D01*
X121385256Y-82097738D01*
X121581491Y-82250474D01*
X121800190Y-82368828D01*
X122035386Y-82449571D01*
X122280665Y-82490500D01*
X122524201Y-82490500D01*
X122529335Y-82490500D01*
X122774614Y-82449571D01*
X123009810Y-82368828D01*
X123228509Y-82250474D01*
X123424744Y-82097738D01*
X123593164Y-81914785D01*
X123729173Y-81706607D01*
X123829063Y-81478881D01*
X123890108Y-81237821D01*
X123910643Y-80990000D01*
X127399357Y-80990000D01*
X127399781Y-80995117D01*
X127419467Y-81232701D01*
X127419468Y-81232709D01*
X127419892Y-81237821D01*
X127421149Y-81242788D01*
X127421151Y-81242795D01*
X127479678Y-81473910D01*
X127480937Y-81478881D01*
X127482997Y-81483577D01*
X127578766Y-81701910D01*
X127578769Y-81701916D01*
X127580827Y-81706607D01*
X127583627Y-81710893D01*
X127583631Y-81710900D01*
X127711675Y-81906885D01*
X127716836Y-81914785D01*
X127720310Y-81918559D01*
X127720311Y-81918560D01*
X127881784Y-82093967D01*
X127881787Y-82093970D01*
X127885256Y-82097738D01*
X128081491Y-82250474D01*
X128300190Y-82368828D01*
X128535386Y-82449571D01*
X128780665Y-82490500D01*
X129024201Y-82490500D01*
X129029335Y-82490500D01*
X129274614Y-82449571D01*
X129509810Y-82368828D01*
X129728509Y-82250474D01*
X129924744Y-82097738D01*
X130093164Y-81914785D01*
X130229173Y-81706607D01*
X130329063Y-81478881D01*
X130390108Y-81237821D01*
X130410643Y-80990000D01*
X130390108Y-80742179D01*
X130329063Y-80501119D01*
X130229173Y-80273393D01*
X130093164Y-80065215D01*
X129924744Y-79882262D01*
X129728509Y-79729526D01*
X129723997Y-79727084D01*
X129514316Y-79613610D01*
X129514310Y-79613607D01*
X129509810Y-79611172D01*
X129504969Y-79609510D01*
X129504962Y-79609507D01*
X129279465Y-79532094D01*
X129279461Y-79532093D01*
X129274614Y-79530429D01*
X129265768Y-79528952D01*
X129034398Y-79490344D01*
X129034387Y-79490343D01*
X129029335Y-79489500D01*
X128780665Y-79489500D01*
X128775613Y-79490343D01*
X128775601Y-79490344D01*
X128540443Y-79529585D01*
X128540441Y-79529585D01*
X128535386Y-79530429D01*
X128530541Y-79532092D01*
X128530534Y-79532094D01*
X128305037Y-79609507D01*
X128305026Y-79609511D01*
X128300190Y-79611172D01*
X128295693Y-79613605D01*
X128295683Y-79613610D01*
X128086002Y-79727084D01*
X128085995Y-79727088D01*
X128081491Y-79729526D01*
X128077448Y-79732672D01*
X128077440Y-79732678D01*
X127889304Y-79879111D01*
X127885256Y-79882262D01*
X127881793Y-79886023D01*
X127881784Y-79886032D01*
X127720311Y-80061439D01*
X127720305Y-80061446D01*
X127716836Y-80065215D01*
X127714031Y-80069506D01*
X127714028Y-80069512D01*
X127583631Y-80269099D01*
X127583624Y-80269111D01*
X127580827Y-80273393D01*
X127578772Y-80278077D01*
X127578766Y-80278089D01*
X127482997Y-80496422D01*
X127480937Y-80501119D01*
X127479679Y-80506084D01*
X127479678Y-80506089D01*
X127421151Y-80737204D01*
X127421149Y-80737213D01*
X127419892Y-80742179D01*
X127419468Y-80747288D01*
X127419467Y-80747298D01*
X127399781Y-80984883D01*
X127399357Y-80990000D01*
X123910643Y-80990000D01*
X123890108Y-80742179D01*
X123829063Y-80501119D01*
X123729173Y-80273393D01*
X123593164Y-80065215D01*
X123424744Y-79882262D01*
X123228509Y-79729526D01*
X123223997Y-79727084D01*
X123014316Y-79613610D01*
X123014310Y-79613607D01*
X123009810Y-79611172D01*
X123004969Y-79609510D01*
X123004962Y-79609507D01*
X122779465Y-79532094D01*
X122779461Y-79532093D01*
X122774614Y-79530429D01*
X122765768Y-79528952D01*
X122534398Y-79490344D01*
X122534387Y-79490343D01*
X122529335Y-79489500D01*
X122280665Y-79489500D01*
X122275613Y-79490343D01*
X122275601Y-79490344D01*
X122040443Y-79529585D01*
X122040441Y-79529585D01*
X122035386Y-79530429D01*
X122030541Y-79532092D01*
X122030534Y-79532094D01*
X121805037Y-79609507D01*
X121805026Y-79609511D01*
X121800190Y-79611172D01*
X121795693Y-79613605D01*
X121795683Y-79613610D01*
X121586002Y-79727084D01*
X121585995Y-79727088D01*
X121581491Y-79729526D01*
X121577448Y-79732672D01*
X121577440Y-79732678D01*
X121389304Y-79879111D01*
X121385256Y-79882262D01*
X121381793Y-79886023D01*
X121381784Y-79886032D01*
X121220311Y-80061439D01*
X121220305Y-80061446D01*
X121216836Y-80065215D01*
X121214031Y-80069506D01*
X121214028Y-80069512D01*
X121083631Y-80269099D01*
X121083624Y-80269111D01*
X121080827Y-80273393D01*
X121078772Y-80278077D01*
X121078766Y-80278089D01*
X120982997Y-80496422D01*
X120980937Y-80501119D01*
X120979679Y-80506084D01*
X120979678Y-80506089D01*
X120921151Y-80737204D01*
X120921149Y-80737213D01*
X120919892Y-80742179D01*
X120919468Y-80747288D01*
X120919467Y-80747298D01*
X120899781Y-80984883D01*
X120899357Y-80990000D01*
X99818500Y-80990000D01*
X99818500Y-77713248D01*
X121540749Y-77713248D01*
X121548855Y-77724439D01*
X121577717Y-77746903D01*
X121586279Y-77752496D01*
X121795885Y-77865929D01*
X121805239Y-77870032D01*
X122030656Y-77947417D01*
X122040568Y-77949928D01*
X122275643Y-77989155D01*
X122285839Y-77990000D01*
X122524161Y-77990000D01*
X122534356Y-77989155D01*
X122769431Y-77949928D01*
X122779343Y-77947417D01*
X123004760Y-77870032D01*
X123014114Y-77865929D01*
X123223723Y-77752495D01*
X123232281Y-77746903D01*
X123261146Y-77724437D01*
X123269250Y-77713250D01*
X123262589Y-77701142D01*
X122416542Y-76855095D01*
X122405000Y-76848431D01*
X122393457Y-76855095D01*
X121547408Y-77701143D01*
X121540749Y-77713248D01*
X99818500Y-77713248D01*
X99818500Y-76495117D01*
X120900283Y-76495117D01*
X120919962Y-76732618D01*
X120921646Y-76742712D01*
X120980153Y-76973747D01*
X120983472Y-76983414D01*
X121079208Y-77201673D01*
X121084070Y-77210656D01*
X121173999Y-77348304D01*
X121181963Y-77356024D01*
X121191345Y-77350100D01*
X122039904Y-76501542D01*
X122046568Y-76490000D01*
X122763431Y-76490000D01*
X122770095Y-76501542D01*
X123618653Y-77350100D01*
X123628034Y-77356024D01*
X123636002Y-77348299D01*
X123725924Y-77210664D01*
X123730792Y-77201669D01*
X123826527Y-76983414D01*
X123829846Y-76973747D01*
X123888353Y-76742712D01*
X123890037Y-76732618D01*
X123909717Y-76495117D01*
X123909717Y-76490000D01*
X127399357Y-76490000D01*
X127399781Y-76495117D01*
X127419467Y-76732701D01*
X127419468Y-76732709D01*
X127419892Y-76737821D01*
X127421149Y-76742788D01*
X127421151Y-76742795D01*
X127447902Y-76848431D01*
X127480937Y-76978881D01*
X127482997Y-76983577D01*
X127578766Y-77201910D01*
X127578769Y-77201916D01*
X127580827Y-77206607D01*
X127583627Y-77210893D01*
X127583631Y-77210900D01*
X127711675Y-77406885D01*
X127716836Y-77414785D01*
X127720310Y-77418559D01*
X127720311Y-77418560D01*
X127881784Y-77593967D01*
X127881787Y-77593970D01*
X127885256Y-77597738D01*
X128081491Y-77750474D01*
X128300190Y-77868828D01*
X128535386Y-77949571D01*
X128780665Y-77990500D01*
X129024201Y-77990500D01*
X129029335Y-77990500D01*
X129274614Y-77949571D01*
X129509810Y-77868828D01*
X129728509Y-77750474D01*
X129924744Y-77597738D01*
X130093164Y-77414785D01*
X130229173Y-77206607D01*
X130329063Y-76978881D01*
X130390108Y-76737821D01*
X130410643Y-76490000D01*
X130390108Y-76242179D01*
X130329063Y-76001119D01*
X130229173Y-75773393D01*
X130093164Y-75565215D01*
X130089688Y-75561439D01*
X129928215Y-75386032D01*
X129928211Y-75386029D01*
X129924744Y-75382262D01*
X129776333Y-75266749D01*
X129732559Y-75232678D01*
X129732557Y-75232676D01*
X129728509Y-75229526D01*
X129723997Y-75227084D01*
X129514316Y-75113610D01*
X129514310Y-75113607D01*
X129509810Y-75111172D01*
X129504969Y-75109510D01*
X129504962Y-75109507D01*
X129279465Y-75032094D01*
X129279461Y-75032093D01*
X129274614Y-75030429D01*
X129265768Y-75028952D01*
X129034398Y-74990344D01*
X129034387Y-74990343D01*
X129029335Y-74989500D01*
X128780665Y-74989500D01*
X128775613Y-74990343D01*
X128775601Y-74990344D01*
X128540443Y-75029585D01*
X128540441Y-75029585D01*
X128535386Y-75030429D01*
X128530541Y-75032092D01*
X128530534Y-75032094D01*
X128305037Y-75109507D01*
X128305026Y-75109511D01*
X128300190Y-75111172D01*
X128295693Y-75113605D01*
X128295683Y-75113610D01*
X128086002Y-75227084D01*
X128085995Y-75227088D01*
X128081491Y-75229526D01*
X128077448Y-75232672D01*
X128077440Y-75232678D01*
X127889304Y-75379111D01*
X127885256Y-75382262D01*
X127881793Y-75386023D01*
X127881784Y-75386032D01*
X127720311Y-75561439D01*
X127720305Y-75561446D01*
X127716836Y-75565215D01*
X127714031Y-75569506D01*
X127714028Y-75569512D01*
X127583631Y-75769099D01*
X127583624Y-75769111D01*
X127580827Y-75773393D01*
X127578772Y-75778077D01*
X127578766Y-75778089D01*
X127482997Y-75996422D01*
X127480937Y-76001119D01*
X127479679Y-76006084D01*
X127479678Y-76006089D01*
X127421151Y-76237204D01*
X127421149Y-76237213D01*
X127419892Y-76242179D01*
X127419468Y-76247288D01*
X127419467Y-76247298D01*
X127400313Y-76478457D01*
X127399357Y-76490000D01*
X123909717Y-76490000D01*
X123909717Y-76484883D01*
X123890037Y-76247381D01*
X123888353Y-76237287D01*
X123829846Y-76006252D01*
X123826527Y-75996585D01*
X123730792Y-75778330D01*
X123725924Y-75769335D01*
X123636002Y-75631699D01*
X123628034Y-75623974D01*
X123618653Y-75629898D01*
X122770095Y-76478457D01*
X122763431Y-76490000D01*
X122046568Y-76490000D01*
X122039904Y-76478457D01*
X121191345Y-75629898D01*
X121181964Y-75623974D01*
X121173997Y-75631699D01*
X121084072Y-75769338D01*
X121079207Y-75778328D01*
X120983472Y-75996585D01*
X120980153Y-76006252D01*
X120921646Y-76237287D01*
X120919962Y-76247381D01*
X120900283Y-76484883D01*
X120900283Y-76495117D01*
X99818500Y-76495117D01*
X99818500Y-75266749D01*
X121540748Y-75266749D01*
X121547408Y-75278855D01*
X122393457Y-76124904D01*
X122405000Y-76131568D01*
X122416542Y-76124904D01*
X123262590Y-75278855D01*
X123269250Y-75266749D01*
X123261143Y-75255559D01*
X123232286Y-75233099D01*
X123223719Y-75227503D01*
X123014114Y-75114070D01*
X123004760Y-75109967D01*
X122779343Y-75032582D01*
X122769431Y-75030071D01*
X122534356Y-74990844D01*
X122524161Y-74990000D01*
X122285839Y-74990000D01*
X122275643Y-74990844D01*
X122040568Y-75030071D01*
X122030656Y-75032582D01*
X121805239Y-75109967D01*
X121795885Y-75114070D01*
X121586276Y-75227504D01*
X121577717Y-75233096D01*
X121548854Y-75255560D01*
X121540748Y-75266749D01*
X99818500Y-75266749D01*
X99818500Y-71755000D01*
X120899357Y-71755000D01*
X120899781Y-71760117D01*
X120919467Y-71997701D01*
X120919468Y-71997709D01*
X120919892Y-72002821D01*
X120921149Y-72007788D01*
X120921151Y-72007795D01*
X120979678Y-72238910D01*
X120980937Y-72243881D01*
X120982997Y-72248577D01*
X121078766Y-72466910D01*
X121078769Y-72466916D01*
X121080827Y-72471607D01*
X121083627Y-72475893D01*
X121083631Y-72475900D01*
X121181311Y-72625410D01*
X121216836Y-72679785D01*
X121220310Y-72683559D01*
X121220311Y-72683560D01*
X121381784Y-72858967D01*
X121381787Y-72858970D01*
X121385256Y-72862738D01*
X121581491Y-73015474D01*
X121800190Y-73133828D01*
X122035386Y-73214571D01*
X122280665Y-73255500D01*
X122524201Y-73255500D01*
X122529335Y-73255500D01*
X122774614Y-73214571D01*
X123009810Y-73133828D01*
X123228509Y-73015474D01*
X123424744Y-72862738D01*
X123593164Y-72679785D01*
X123729173Y-72471607D01*
X123829063Y-72243881D01*
X123890108Y-72002821D01*
X123910643Y-71755000D01*
X123890108Y-71507179D01*
X123829063Y-71266119D01*
X123729173Y-71038393D01*
X123699821Y-70993467D01*
X123595971Y-70834512D01*
X123593164Y-70830215D01*
X123545633Y-70778582D01*
X123428215Y-70651032D01*
X123428211Y-70651029D01*
X123424744Y-70647262D01*
X123228509Y-70494526D01*
X123223997Y-70492084D01*
X123014316Y-70378610D01*
X123014310Y-70378607D01*
X123009810Y-70376172D01*
X123004969Y-70374510D01*
X123004962Y-70374507D01*
X122779465Y-70297094D01*
X122779461Y-70297093D01*
X122774614Y-70295429D01*
X122765768Y-70293952D01*
X122534398Y-70255344D01*
X122534387Y-70255343D01*
X122529335Y-70254500D01*
X122280665Y-70254500D01*
X122275613Y-70255343D01*
X122275601Y-70255344D01*
X122040443Y-70294585D01*
X122040441Y-70294585D01*
X122035386Y-70295429D01*
X122030541Y-70297092D01*
X122030534Y-70297094D01*
X121805037Y-70374507D01*
X121805026Y-70374511D01*
X121800190Y-70376172D01*
X121795693Y-70378605D01*
X121795683Y-70378610D01*
X121586002Y-70492084D01*
X121585995Y-70492088D01*
X121581491Y-70494526D01*
X121577448Y-70497672D01*
X121577440Y-70497678D01*
X121389304Y-70644111D01*
X121385256Y-70647262D01*
X121381793Y-70651023D01*
X121381784Y-70651032D01*
X121220311Y-70826439D01*
X121220305Y-70826446D01*
X121216836Y-70830215D01*
X121214031Y-70834506D01*
X121214028Y-70834512D01*
X121083631Y-71034099D01*
X121083624Y-71034111D01*
X121080827Y-71038393D01*
X121078772Y-71043077D01*
X121078766Y-71043089D01*
X120982997Y-71261422D01*
X120980937Y-71266119D01*
X120979679Y-71271084D01*
X120979678Y-71271089D01*
X120921151Y-71502204D01*
X120921149Y-71502213D01*
X120919892Y-71507179D01*
X120919468Y-71512288D01*
X120919467Y-71512298D01*
X120907774Y-71653420D01*
X120899357Y-71755000D01*
X99818500Y-71755000D01*
X99818500Y-68478248D01*
X121540749Y-68478248D01*
X121548855Y-68489439D01*
X121577717Y-68511903D01*
X121586279Y-68517496D01*
X121795885Y-68630929D01*
X121805239Y-68635032D01*
X122030656Y-68712417D01*
X122040568Y-68714928D01*
X122275643Y-68754155D01*
X122285839Y-68755000D01*
X122524161Y-68755000D01*
X122534356Y-68754155D01*
X122769431Y-68714928D01*
X122779343Y-68712417D01*
X123004760Y-68635032D01*
X123014114Y-68630929D01*
X123223723Y-68517495D01*
X123232281Y-68511903D01*
X123261146Y-68489437D01*
X123269250Y-68478250D01*
X123262589Y-68466142D01*
X122416542Y-67620095D01*
X122405000Y-67613431D01*
X122393457Y-67620095D01*
X121547408Y-68466143D01*
X121540749Y-68478248D01*
X99818500Y-68478248D01*
X99818500Y-67260117D01*
X120900283Y-67260117D01*
X120919962Y-67497618D01*
X120921646Y-67507712D01*
X120980153Y-67738747D01*
X120983472Y-67748414D01*
X121079208Y-67966673D01*
X121084070Y-67975656D01*
X121173999Y-68113304D01*
X121181963Y-68121024D01*
X121191345Y-68115100D01*
X122039904Y-67266542D01*
X122046568Y-67254999D01*
X122763431Y-67254999D01*
X122770095Y-67266542D01*
X123618653Y-68115100D01*
X123628034Y-68121024D01*
X123636002Y-68113299D01*
X123725924Y-67975664D01*
X123730792Y-67966669D01*
X123826527Y-67748414D01*
X123829846Y-67738747D01*
X123888353Y-67507712D01*
X123890037Y-67497618D01*
X123909717Y-67260117D01*
X123909717Y-67255000D01*
X127399357Y-67255000D01*
X127399781Y-67260117D01*
X127419467Y-67497701D01*
X127419468Y-67497709D01*
X127419892Y-67502821D01*
X127421149Y-67507788D01*
X127421151Y-67507795D01*
X127447902Y-67613431D01*
X127480937Y-67743881D01*
X127482997Y-67748577D01*
X127578766Y-67966910D01*
X127578769Y-67966916D01*
X127580827Y-67971607D01*
X127583627Y-67975893D01*
X127583631Y-67975900D01*
X127711675Y-68171885D01*
X127716836Y-68179785D01*
X127720310Y-68183559D01*
X127720311Y-68183560D01*
X127881784Y-68358967D01*
X127881787Y-68358970D01*
X127885256Y-68362738D01*
X128081491Y-68515474D01*
X128300190Y-68633828D01*
X128535386Y-68714571D01*
X128780665Y-68755500D01*
X129024201Y-68755500D01*
X129029335Y-68755500D01*
X129274614Y-68714571D01*
X129509810Y-68633828D01*
X129728509Y-68515474D01*
X129924744Y-68362738D01*
X130093164Y-68179785D01*
X130229173Y-67971607D01*
X130329063Y-67743881D01*
X130390108Y-67502821D01*
X130410643Y-67255000D01*
X130390108Y-67007179D01*
X130329063Y-66766119D01*
X130229173Y-66538393D01*
X130093164Y-66330215D01*
X130017391Y-66247903D01*
X129928215Y-66151032D01*
X129928211Y-66151029D01*
X129924744Y-66147262D01*
X129763050Y-66021410D01*
X129732559Y-65997678D01*
X129732557Y-65997676D01*
X129728509Y-65994526D01*
X129723997Y-65992084D01*
X129514316Y-65878610D01*
X129514310Y-65878607D01*
X129509810Y-65876172D01*
X129504969Y-65874510D01*
X129504962Y-65874507D01*
X129279465Y-65797094D01*
X129279461Y-65797093D01*
X129274614Y-65795429D01*
X129265768Y-65793952D01*
X129034398Y-65755344D01*
X129034387Y-65755343D01*
X129029335Y-65754500D01*
X128780665Y-65754500D01*
X128775613Y-65755343D01*
X128775601Y-65755344D01*
X128540443Y-65794585D01*
X128540441Y-65794585D01*
X128535386Y-65795429D01*
X128530541Y-65797092D01*
X128530534Y-65797094D01*
X128305037Y-65874507D01*
X128305026Y-65874511D01*
X128300190Y-65876172D01*
X128295693Y-65878605D01*
X128295683Y-65878610D01*
X128086002Y-65992084D01*
X128085995Y-65992088D01*
X128081491Y-65994526D01*
X128077448Y-65997672D01*
X128077440Y-65997678D01*
X127889304Y-66144111D01*
X127885256Y-66147262D01*
X127881793Y-66151023D01*
X127881784Y-66151032D01*
X127720311Y-66326439D01*
X127720305Y-66326446D01*
X127716836Y-66330215D01*
X127714031Y-66334506D01*
X127714028Y-66334512D01*
X127583631Y-66534099D01*
X127583624Y-66534111D01*
X127580827Y-66538393D01*
X127578772Y-66543077D01*
X127578766Y-66543089D01*
X127482997Y-66761422D01*
X127480937Y-66766119D01*
X127479679Y-66771084D01*
X127479678Y-66771089D01*
X127421151Y-67002204D01*
X127421149Y-67002213D01*
X127419892Y-67007179D01*
X127419468Y-67012288D01*
X127419467Y-67012298D01*
X127401192Y-67232855D01*
X127399357Y-67255000D01*
X123909717Y-67255000D01*
X123909717Y-67249883D01*
X123890037Y-67012381D01*
X123888353Y-67002287D01*
X123829846Y-66771252D01*
X123826527Y-66761585D01*
X123730792Y-66543330D01*
X123725924Y-66534335D01*
X123636002Y-66396699D01*
X123628034Y-66388974D01*
X123618653Y-66394898D01*
X122770095Y-67243457D01*
X122763431Y-67254999D01*
X122046568Y-67254999D01*
X122039904Y-67243457D01*
X121191345Y-66394898D01*
X121181964Y-66388974D01*
X121173997Y-66396699D01*
X121084072Y-66534338D01*
X121079207Y-66543328D01*
X120983472Y-66761585D01*
X120980153Y-66771252D01*
X120921646Y-67002287D01*
X120919962Y-67012381D01*
X120900283Y-67249883D01*
X120900283Y-67260117D01*
X99818500Y-67260117D01*
X99818500Y-66031749D01*
X121540748Y-66031749D01*
X121547408Y-66043855D01*
X122393457Y-66889904D01*
X122404999Y-66896568D01*
X122416542Y-66889904D01*
X123262590Y-66043855D01*
X123269250Y-66031749D01*
X123261143Y-66020559D01*
X123232286Y-65998099D01*
X123223719Y-65992503D01*
X123014114Y-65879070D01*
X123004760Y-65874967D01*
X122779343Y-65797582D01*
X122769431Y-65795071D01*
X122534356Y-65755844D01*
X122524161Y-65755000D01*
X122285839Y-65755000D01*
X122275643Y-65755844D01*
X122040568Y-65795071D01*
X122030656Y-65797582D01*
X121805239Y-65874967D01*
X121795885Y-65879070D01*
X121586276Y-65992504D01*
X121577717Y-65998096D01*
X121548854Y-66020560D01*
X121540748Y-66031749D01*
X99818500Y-66031749D01*
X99818500Y-59822578D01*
X100884500Y-59822578D01*
X100884501Y-59825872D01*
X100884853Y-59829150D01*
X100884854Y-59829161D01*
X100890079Y-59877768D01*
X100890080Y-59877773D01*
X100890909Y-59885483D01*
X100893619Y-59892749D01*
X100893620Y-59892753D01*
X100927217Y-59982831D01*
X100941204Y-60020331D01*
X100946518Y-60027430D01*
X100946519Y-60027431D01*
X100997293Y-60095257D01*
X101027454Y-60135546D01*
X101142669Y-60221796D01*
X101277517Y-60272091D01*
X101337127Y-60278500D01*
X103132872Y-60278499D01*
X103192483Y-60272091D01*
X103327331Y-60221796D01*
X103442546Y-60135546D01*
X103528796Y-60020331D01*
X103579091Y-59885483D01*
X103585500Y-59825873D01*
X103585500Y-59314518D01*
X107235000Y-59314518D01*
X107235353Y-59321114D01*
X107240573Y-59369667D01*
X107244111Y-59384641D01*
X107288547Y-59503777D01*
X107296962Y-59519189D01*
X107372498Y-59620092D01*
X107384907Y-59632501D01*
X107485810Y-59708037D01*
X107501222Y-59716452D01*
X107620358Y-59760888D01*
X107635332Y-59764426D01*
X107683885Y-59769646D01*
X107690482Y-59770000D01*
X108318674Y-59770000D01*
X108331549Y-59766549D01*
X108335000Y-59753674D01*
X108835000Y-59753674D01*
X108838450Y-59766549D01*
X108851326Y-59770000D01*
X109479518Y-59770000D01*
X109486114Y-59769646D01*
X109534667Y-59764426D01*
X109549641Y-59760888D01*
X109668777Y-59716452D01*
X109684189Y-59708037D01*
X109785092Y-59632501D01*
X109797501Y-59620092D01*
X109873037Y-59519189D01*
X109881452Y-59503777D01*
X109927422Y-59380529D01*
X109962401Y-59330149D01*
X110017246Y-59302696D01*
X110078539Y-59304885D01*
X110131285Y-59336181D01*
X110253599Y-59458495D01*
X110258031Y-59461598D01*
X110258033Y-59461600D01*
X110317363Y-59503143D01*
X110447170Y-59594035D01*
X110452070Y-59596320D01*
X110452072Y-59596321D01*
X110503049Y-59620092D01*
X110661337Y-59693903D01*
X110889592Y-59755063D01*
X111125000Y-59775659D01*
X111360408Y-59755063D01*
X111588663Y-59693903D01*
X111802830Y-59594035D01*
X111996401Y-59458495D01*
X112163495Y-59291401D01*
X112293424Y-59105842D01*
X112337743Y-59066976D01*
X112395000Y-59052965D01*
X112452257Y-59066976D01*
X112496575Y-59105842D01*
X112623395Y-59286961D01*
X112623401Y-59286968D01*
X112626505Y-59291401D01*
X112793599Y-59458495D01*
X112798031Y-59461598D01*
X112798033Y-59461600D01*
X112857363Y-59503143D01*
X112987170Y-59594035D01*
X112992070Y-59596320D01*
X112992072Y-59596321D01*
X113043049Y-59620092D01*
X113201337Y-59693903D01*
X113429592Y-59755063D01*
X113665000Y-59775659D01*
X113900408Y-59755063D01*
X114128663Y-59693903D01*
X114342830Y-59594035D01*
X114536401Y-59458495D01*
X114703495Y-59291401D01*
X114839035Y-59097830D01*
X114938903Y-58883663D01*
X115000063Y-58655408D01*
X115020659Y-58420000D01*
X115000063Y-58184592D01*
X114944769Y-57978231D01*
X114940305Y-57961569D01*
X114940304Y-57961567D01*
X114938903Y-57956337D01*
X114839035Y-57742171D01*
X114703495Y-57548599D01*
X114536401Y-57381505D01*
X114531970Y-57378402D01*
X114531966Y-57378399D01*
X114347259Y-57249066D01*
X114347257Y-57249064D01*
X114342830Y-57245965D01*
X114337933Y-57243681D01*
X114337927Y-57243678D01*
X114133572Y-57148386D01*
X114133570Y-57148385D01*
X114128663Y-57146097D01*
X114123438Y-57144697D01*
X114123430Y-57144694D01*
X113905634Y-57086337D01*
X113905630Y-57086336D01*
X113900408Y-57084937D01*
X113895020Y-57084465D01*
X113895017Y-57084465D01*
X113670395Y-57064813D01*
X113665000Y-57064341D01*
X113659605Y-57064813D01*
X113434982Y-57084465D01*
X113434977Y-57084465D01*
X113429592Y-57084937D01*
X113424371Y-57086335D01*
X113424365Y-57086337D01*
X113206569Y-57144694D01*
X113206557Y-57144698D01*
X113201337Y-57146097D01*
X113196432Y-57148383D01*
X113196427Y-57148386D01*
X112992081Y-57243675D01*
X112992077Y-57243677D01*
X112987171Y-57245965D01*
X112982738Y-57249068D01*
X112982731Y-57249073D01*
X112798034Y-57378399D01*
X112798029Y-57378402D01*
X112793599Y-57381505D01*
X112789775Y-57385328D01*
X112789769Y-57385334D01*
X112630334Y-57544769D01*
X112630328Y-57544775D01*
X112626505Y-57548599D01*
X112623402Y-57553029D01*
X112623399Y-57553034D01*
X112496575Y-57734159D01*
X112452257Y-57773025D01*
X112395000Y-57787036D01*
X112337743Y-57773025D01*
X112293425Y-57734159D01*
X112280108Y-57715141D01*
X112163495Y-57548599D01*
X111996401Y-57381505D01*
X111991970Y-57378402D01*
X111991966Y-57378399D01*
X111807259Y-57249066D01*
X111807257Y-57249064D01*
X111802830Y-57245965D01*
X111797923Y-57243677D01*
X111795074Y-57242348D01*
X111785995Y-57238115D01*
X111733820Y-57192359D01*
X111714400Y-57125733D01*
X111714400Y-55642499D01*
X111723839Y-55595046D01*
X111750719Y-55554818D01*
X112413197Y-54892340D01*
X112945320Y-54360216D01*
X126445842Y-54360216D01*
X126452611Y-54366984D01*
X126462265Y-54371634D01*
X126619282Y-54426576D01*
X126632780Y-54429657D01*
X126798077Y-54448282D01*
X126811923Y-54448282D01*
X126977219Y-54429657D01*
X126990717Y-54426576D01*
X127147733Y-54371634D01*
X127157388Y-54366984D01*
X127164156Y-54360216D01*
X127845842Y-54360216D01*
X127852611Y-54366984D01*
X127862265Y-54371634D01*
X128019282Y-54426576D01*
X128032780Y-54429657D01*
X128198077Y-54448282D01*
X128211923Y-54448282D01*
X128377219Y-54429657D01*
X128390717Y-54426576D01*
X128547733Y-54371634D01*
X128557388Y-54366984D01*
X128564156Y-54360216D01*
X128558228Y-54350781D01*
X128216542Y-54009095D01*
X128205000Y-54002431D01*
X128193456Y-54009096D01*
X127851771Y-54350780D01*
X127845842Y-54360216D01*
X127164156Y-54360216D01*
X127158228Y-54350781D01*
X126816542Y-54009095D01*
X126805000Y-54002431D01*
X126793456Y-54009096D01*
X126451771Y-54350780D01*
X126445842Y-54360216D01*
X112945320Y-54360216D01*
X113169090Y-54136446D01*
X113224676Y-54104354D01*
X113288859Y-54104354D01*
X113429592Y-54142063D01*
X113665000Y-54162659D01*
X113900408Y-54142063D01*
X114128663Y-54080903D01*
X114342830Y-53981035D01*
X114536401Y-53845495D01*
X114703495Y-53678401D01*
X114716228Y-53660216D01*
X125745842Y-53660216D01*
X125752611Y-53666984D01*
X125762265Y-53671634D01*
X125919281Y-53726576D01*
X125927288Y-53728403D01*
X125987382Y-53761613D01*
X126020594Y-53821705D01*
X126022421Y-53829710D01*
X126077364Y-53986731D01*
X126082015Y-53996389D01*
X126088782Y-54003156D01*
X126098217Y-53997228D01*
X126439904Y-53655542D01*
X126446568Y-53644000D01*
X127163431Y-53644000D01*
X127170095Y-53655542D01*
X127493457Y-53978904D01*
X127505000Y-53985568D01*
X127516542Y-53978904D01*
X127839904Y-53655542D01*
X127846568Y-53644000D01*
X128563431Y-53644000D01*
X128570095Y-53655542D01*
X128911781Y-53997228D01*
X128921216Y-54003156D01*
X128927984Y-53996388D01*
X128932634Y-53986733D01*
X128987577Y-53829715D01*
X128989403Y-53821713D01*
X129022615Y-53761615D01*
X129082713Y-53728403D01*
X129090715Y-53726577D01*
X129247733Y-53671634D01*
X129257388Y-53666984D01*
X129264156Y-53660216D01*
X129258228Y-53650781D01*
X128916542Y-53309095D01*
X128905000Y-53302431D01*
X128893457Y-53309095D01*
X128570095Y-53632457D01*
X128563431Y-53644000D01*
X127846568Y-53644000D01*
X127839904Y-53632457D01*
X127516542Y-53309095D01*
X127505000Y-53302431D01*
X127493457Y-53309095D01*
X127170095Y-53632457D01*
X127163431Y-53644000D01*
X126446568Y-53644000D01*
X126439904Y-53632457D01*
X126116542Y-53309095D01*
X126105000Y-53302431D01*
X126093456Y-53309096D01*
X125751771Y-53650780D01*
X125745842Y-53660216D01*
X114716228Y-53660216D01*
X114839035Y-53484830D01*
X114938903Y-53270663D01*
X115000063Y-53042408D01*
X115008067Y-52950923D01*
X125300718Y-52950923D01*
X125319342Y-53116219D01*
X125322423Y-53129717D01*
X125377364Y-53286731D01*
X125382015Y-53296389D01*
X125388782Y-53303156D01*
X125398217Y-53297228D01*
X125739904Y-52955542D01*
X125746568Y-52944000D01*
X125746567Y-52943999D01*
X126463431Y-52943999D01*
X126470095Y-52955542D01*
X126793457Y-53278904D01*
X126805000Y-53285568D01*
X126816542Y-53278904D01*
X127139904Y-52955542D01*
X127146568Y-52944000D01*
X127146567Y-52943999D01*
X127863431Y-52943999D01*
X127870095Y-52955542D01*
X128193457Y-53278904D01*
X128205000Y-53285568D01*
X128216542Y-53278904D01*
X128539904Y-52955542D01*
X128546568Y-52944000D01*
X129263431Y-52944000D01*
X129270095Y-52955542D01*
X129611781Y-53297228D01*
X129621216Y-53303156D01*
X129627984Y-53296388D01*
X129632634Y-53286733D01*
X129687576Y-53129717D01*
X129690657Y-53116219D01*
X129709282Y-52950923D01*
X129709282Y-52937077D01*
X129690657Y-52771780D01*
X129687576Y-52758282D01*
X129632634Y-52601265D01*
X129627984Y-52591611D01*
X129621216Y-52584842D01*
X129611780Y-52590771D01*
X129270096Y-52932456D01*
X129263431Y-52944000D01*
X128546568Y-52944000D01*
X128539904Y-52932457D01*
X128216542Y-52609095D01*
X128204999Y-52602431D01*
X128193457Y-52609095D01*
X127870095Y-52932457D01*
X127863431Y-52943999D01*
X127146567Y-52943999D01*
X127139904Y-52932457D01*
X126816542Y-52609095D01*
X126804999Y-52602431D01*
X126793457Y-52609095D01*
X126470095Y-52932457D01*
X126463431Y-52943999D01*
X125746567Y-52943999D01*
X125739904Y-52932457D01*
X125398219Y-52590772D01*
X125388783Y-52584843D01*
X125382013Y-52591613D01*
X125377366Y-52601264D01*
X125322423Y-52758282D01*
X125319342Y-52771780D01*
X125300718Y-52937077D01*
X125300718Y-52950923D01*
X115008067Y-52950923D01*
X115020659Y-52807000D01*
X115000063Y-52571592D01*
X114938903Y-52343337D01*
X114892581Y-52244000D01*
X125763431Y-52244000D01*
X125770095Y-52255542D01*
X126093457Y-52578904D01*
X126105000Y-52585568D01*
X126116542Y-52578904D01*
X126439904Y-52255542D01*
X126446567Y-52244000D01*
X127163431Y-52244000D01*
X127170095Y-52255542D01*
X127493457Y-52578904D01*
X127505000Y-52585568D01*
X127516542Y-52578904D01*
X127839904Y-52255542D01*
X127846567Y-52244000D01*
X128563431Y-52244000D01*
X128570095Y-52255542D01*
X128893457Y-52578904D01*
X128905000Y-52585568D01*
X128916542Y-52578904D01*
X129239904Y-52255542D01*
X129246568Y-52243999D01*
X129239904Y-52232457D01*
X128916542Y-51909095D01*
X128905000Y-51902431D01*
X128893457Y-51909095D01*
X128570095Y-52232457D01*
X128563431Y-52244000D01*
X127846567Y-52244000D01*
X127846568Y-52243999D01*
X127839904Y-52232457D01*
X127516542Y-51909095D01*
X127505000Y-51902431D01*
X127493457Y-51909095D01*
X127170095Y-52232457D01*
X127163431Y-52244000D01*
X126446567Y-52244000D01*
X126446568Y-52243999D01*
X126439904Y-52232457D01*
X126116542Y-51909095D01*
X126105000Y-51902431D01*
X126093457Y-51909095D01*
X125770095Y-52232457D01*
X125763431Y-52244000D01*
X114892581Y-52244000D01*
X114839035Y-52129171D01*
X114703495Y-51935599D01*
X114536401Y-51768505D01*
X114531970Y-51765402D01*
X114531966Y-51765399D01*
X114347259Y-51636066D01*
X114347257Y-51636064D01*
X114342830Y-51632965D01*
X114337933Y-51630681D01*
X114337927Y-51630678D01*
X114166891Y-51550923D01*
X125300718Y-51550923D01*
X125319342Y-51716219D01*
X125322423Y-51729717D01*
X125377364Y-51886731D01*
X125382015Y-51896389D01*
X125388782Y-51903156D01*
X125398217Y-51897228D01*
X125739904Y-51555542D01*
X125746567Y-51544000D01*
X126463431Y-51544000D01*
X126470095Y-51555542D01*
X126793457Y-51878904D01*
X126805000Y-51885568D01*
X126816542Y-51878904D01*
X127139904Y-51555542D01*
X127146567Y-51544000D01*
X127863431Y-51544000D01*
X127870095Y-51555542D01*
X128193457Y-51878904D01*
X128205000Y-51885568D01*
X128216542Y-51878904D01*
X128539904Y-51555542D01*
X128546567Y-51544000D01*
X129263431Y-51544000D01*
X129270095Y-51555542D01*
X129611781Y-51897228D01*
X129621216Y-51903156D01*
X129627984Y-51896388D01*
X129632634Y-51886733D01*
X129687576Y-51729717D01*
X129690657Y-51716219D01*
X129709282Y-51550923D01*
X129709282Y-51537077D01*
X129690657Y-51371780D01*
X129687576Y-51358282D01*
X129632634Y-51201265D01*
X129627984Y-51191611D01*
X129621216Y-51184842D01*
X129611780Y-51190771D01*
X129270096Y-51532456D01*
X129263431Y-51544000D01*
X128546567Y-51544000D01*
X128546568Y-51543999D01*
X128539904Y-51532457D01*
X128216542Y-51209095D01*
X128204999Y-51202431D01*
X128193457Y-51209095D01*
X127870095Y-51532457D01*
X127863431Y-51544000D01*
X127146567Y-51544000D01*
X127146568Y-51543999D01*
X127139904Y-51532457D01*
X126816542Y-51209095D01*
X126804999Y-51202431D01*
X126793457Y-51209095D01*
X126470095Y-51532457D01*
X126463431Y-51544000D01*
X125746567Y-51544000D01*
X125746568Y-51543999D01*
X125739904Y-51532457D01*
X125398219Y-51190772D01*
X125388783Y-51184843D01*
X125382013Y-51191613D01*
X125377366Y-51201264D01*
X125322423Y-51358282D01*
X125319342Y-51371780D01*
X125300718Y-51537077D01*
X125300718Y-51550923D01*
X114166891Y-51550923D01*
X114133572Y-51535386D01*
X114133570Y-51535385D01*
X114128663Y-51533097D01*
X114123438Y-51531697D01*
X114123430Y-51531694D01*
X113905634Y-51473337D01*
X113905630Y-51473336D01*
X113900408Y-51471937D01*
X113895020Y-51471465D01*
X113895017Y-51471465D01*
X113670395Y-51451813D01*
X113665000Y-51451341D01*
X113659605Y-51451813D01*
X113434982Y-51471465D01*
X113434977Y-51471465D01*
X113429592Y-51471937D01*
X113424371Y-51473335D01*
X113424365Y-51473337D01*
X113206569Y-51531694D01*
X113206557Y-51531698D01*
X113201337Y-51533097D01*
X113196432Y-51535383D01*
X113196427Y-51535386D01*
X112992081Y-51630675D01*
X112992077Y-51630677D01*
X112987171Y-51632965D01*
X112982738Y-51636068D01*
X112982731Y-51636073D01*
X112798034Y-51765399D01*
X112798029Y-51765402D01*
X112793599Y-51768505D01*
X112789775Y-51772328D01*
X112789769Y-51772334D01*
X112630334Y-51931769D01*
X112630328Y-51931775D01*
X112626505Y-51935599D01*
X112623402Y-51940029D01*
X112623399Y-51940034D01*
X112496575Y-52121159D01*
X112452257Y-52160025D01*
X112395000Y-52174036D01*
X112337743Y-52160025D01*
X112293425Y-52121159D01*
X112276199Y-52096557D01*
X112163495Y-51935599D01*
X111996401Y-51768505D01*
X111991970Y-51765402D01*
X111991966Y-51765399D01*
X111807259Y-51636066D01*
X111807257Y-51636064D01*
X111802830Y-51632965D01*
X111797933Y-51630681D01*
X111797927Y-51630678D01*
X111593572Y-51535386D01*
X111593570Y-51535385D01*
X111588663Y-51533097D01*
X111583438Y-51531697D01*
X111583430Y-51531694D01*
X111365634Y-51473337D01*
X111365630Y-51473336D01*
X111360408Y-51471937D01*
X111355020Y-51471465D01*
X111355017Y-51471465D01*
X111130395Y-51451813D01*
X111125000Y-51451341D01*
X111119605Y-51451813D01*
X110894982Y-51471465D01*
X110894977Y-51471465D01*
X110889592Y-51471937D01*
X110884371Y-51473335D01*
X110884365Y-51473337D01*
X110666569Y-51531694D01*
X110666557Y-51531698D01*
X110661337Y-51533097D01*
X110656432Y-51535383D01*
X110656427Y-51535386D01*
X110452081Y-51630675D01*
X110452077Y-51630677D01*
X110447171Y-51632965D01*
X110442738Y-51636068D01*
X110442731Y-51636073D01*
X110258034Y-51765399D01*
X110258029Y-51765402D01*
X110253599Y-51768505D01*
X110249774Y-51772329D01*
X110249775Y-51772329D01*
X110131285Y-51890819D01*
X110078538Y-51922114D01*
X110017246Y-51924303D01*
X109962401Y-51896850D01*
X109927422Y-51846471D01*
X109881451Y-51723220D01*
X109873037Y-51707810D01*
X109797501Y-51606907D01*
X109785092Y-51594498D01*
X109684189Y-51518962D01*
X109668777Y-51510547D01*
X109549641Y-51466111D01*
X109534667Y-51462573D01*
X109486114Y-51457353D01*
X109479518Y-51457000D01*
X108851326Y-51457000D01*
X108838450Y-51460450D01*
X108835000Y-51473326D01*
X108835000Y-54140674D01*
X108838450Y-54153549D01*
X108851326Y-54157000D01*
X109479518Y-54157000D01*
X109486114Y-54156646D01*
X109534667Y-54151426D01*
X109549641Y-54147888D01*
X109668777Y-54103452D01*
X109684189Y-54095037D01*
X109785092Y-54019501D01*
X109797501Y-54007092D01*
X109873037Y-53906189D01*
X109881452Y-53890777D01*
X109927422Y-53767529D01*
X109962401Y-53717149D01*
X110017246Y-53689696D01*
X110078539Y-53691885D01*
X110131285Y-53723180D01*
X110253599Y-53845495D01*
X110258031Y-53848598D01*
X110258033Y-53848600D01*
X110318268Y-53890777D01*
X110447170Y-53981035D01*
X110452070Y-53983320D01*
X110452072Y-53983321D01*
X110503049Y-54007092D01*
X110661337Y-54080903D01*
X110889592Y-54142063D01*
X111125000Y-54162659D01*
X111170048Y-54158717D01*
X111229303Y-54168102D01*
X111277219Y-54204208D01*
X111302576Y-54258584D01*
X111299436Y-54318499D01*
X111268535Y-54369926D01*
X110741298Y-54897163D01*
X110729107Y-54907855D01*
X110711081Y-54921687D01*
X110711073Y-54921694D01*
X110704635Y-54926635D01*
X110699694Y-54933073D01*
X110699691Y-54933077D01*
X110615107Y-55043309D01*
X110615104Y-55043312D01*
X110610160Y-55049757D01*
X110563075Y-55163432D01*
X110550771Y-55193136D01*
X110549710Y-55201189D01*
X110549709Y-55201196D01*
X110531575Y-55338941D01*
X110530514Y-55347000D01*
X110531575Y-55355059D01*
X110534539Y-55377572D01*
X110535600Y-55393758D01*
X110535600Y-57125733D01*
X110516181Y-57192358D01*
X110464006Y-57238114D01*
X110458405Y-57240726D01*
X110452077Y-57243677D01*
X110452074Y-57243678D01*
X110447171Y-57245965D01*
X110442738Y-57249068D01*
X110442731Y-57249073D01*
X110258034Y-57378399D01*
X110258029Y-57378402D01*
X110253599Y-57381505D01*
X110249774Y-57385329D01*
X110249775Y-57385329D01*
X110131285Y-57503819D01*
X110078538Y-57535114D01*
X110017246Y-57537303D01*
X109962401Y-57509850D01*
X109927422Y-57459471D01*
X109881451Y-57336220D01*
X109873037Y-57320810D01*
X109797501Y-57219907D01*
X109785092Y-57207498D01*
X109684189Y-57131962D01*
X109668777Y-57123547D01*
X109549641Y-57079111D01*
X109534667Y-57075573D01*
X109486114Y-57070353D01*
X109479518Y-57070000D01*
X108851326Y-57070000D01*
X108838450Y-57073450D01*
X108835000Y-57086326D01*
X108835000Y-59753674D01*
X108335000Y-59753674D01*
X108335000Y-58686326D01*
X108331549Y-58673450D01*
X108318674Y-58670000D01*
X107251326Y-58670000D01*
X107238450Y-58673450D01*
X107235000Y-58686326D01*
X107235000Y-59314518D01*
X103585500Y-59314518D01*
X103585499Y-58153674D01*
X107235000Y-58153674D01*
X107238450Y-58166549D01*
X107251326Y-58170000D01*
X108318674Y-58170000D01*
X108331549Y-58166549D01*
X108335000Y-58153674D01*
X108335000Y-57086326D01*
X108331549Y-57073450D01*
X108318674Y-57070000D01*
X107690482Y-57070000D01*
X107683885Y-57070353D01*
X107635332Y-57075573D01*
X107620358Y-57079111D01*
X107501222Y-57123547D01*
X107485810Y-57131962D01*
X107384907Y-57207498D01*
X107372498Y-57219907D01*
X107296962Y-57320810D01*
X107288547Y-57336222D01*
X107244111Y-57455358D01*
X107240573Y-57470332D01*
X107235353Y-57518885D01*
X107235000Y-57525482D01*
X107235000Y-58153674D01*
X103585499Y-58153674D01*
X103585499Y-58030128D01*
X103579091Y-57970517D01*
X103528796Y-57835669D01*
X103442546Y-57720454D01*
X103327331Y-57634204D01*
X103192483Y-57583909D01*
X103184770Y-57583079D01*
X103184767Y-57583079D01*
X103136180Y-57577855D01*
X103136169Y-57577854D01*
X103132873Y-57577500D01*
X103129550Y-57577500D01*
X101340439Y-57577500D01*
X101340420Y-57577500D01*
X101337128Y-57577501D01*
X101333850Y-57577853D01*
X101333838Y-57577854D01*
X101285231Y-57583079D01*
X101285225Y-57583080D01*
X101277517Y-57583909D01*
X101270252Y-57586618D01*
X101270246Y-57586620D01*
X101150980Y-57631104D01*
X101150978Y-57631104D01*
X101142669Y-57634204D01*
X101135572Y-57639516D01*
X101135568Y-57639519D01*
X101034550Y-57715141D01*
X101034546Y-57715144D01*
X101027454Y-57720454D01*
X101022144Y-57727546D01*
X101022141Y-57727550D01*
X100946519Y-57828568D01*
X100946516Y-57828572D01*
X100941204Y-57835669D01*
X100938104Y-57843978D01*
X100938104Y-57843980D01*
X100893620Y-57963247D01*
X100893619Y-57963250D01*
X100890909Y-57970517D01*
X100890079Y-57978227D01*
X100890079Y-57978232D01*
X100884855Y-58026819D01*
X100884854Y-58026831D01*
X100884500Y-58030127D01*
X100884500Y-58033448D01*
X100884500Y-58033449D01*
X100884500Y-59822560D01*
X100884500Y-59822578D01*
X99818500Y-59822578D01*
X99818500Y-53701518D01*
X107235000Y-53701518D01*
X107235353Y-53708114D01*
X107240573Y-53756667D01*
X107244111Y-53771641D01*
X107288547Y-53890777D01*
X107296962Y-53906189D01*
X107372498Y-54007092D01*
X107384907Y-54019501D01*
X107485810Y-54095037D01*
X107501222Y-54103452D01*
X107620358Y-54147888D01*
X107635332Y-54151426D01*
X107683885Y-54156646D01*
X107690482Y-54157000D01*
X108318674Y-54157000D01*
X108331549Y-54153549D01*
X108335000Y-54140674D01*
X108335000Y-53073326D01*
X108331549Y-53060450D01*
X108318674Y-53057000D01*
X107251326Y-53057000D01*
X107238450Y-53060450D01*
X107235000Y-53073326D01*
X107235000Y-53701518D01*
X99818500Y-53701518D01*
X99818500Y-52540674D01*
X107235000Y-52540674D01*
X107238450Y-52553549D01*
X107251326Y-52557000D01*
X108318674Y-52557000D01*
X108331549Y-52553549D01*
X108335000Y-52540674D01*
X108335000Y-51473326D01*
X108331549Y-51460450D01*
X108318674Y-51457000D01*
X107690482Y-51457000D01*
X107683885Y-51457353D01*
X107635332Y-51462573D01*
X107620358Y-51466111D01*
X107501222Y-51510547D01*
X107485810Y-51518962D01*
X107384907Y-51594498D01*
X107372498Y-51606907D01*
X107296962Y-51707810D01*
X107288547Y-51723222D01*
X107244111Y-51842358D01*
X107240573Y-51857332D01*
X107235353Y-51905885D01*
X107235000Y-51912482D01*
X107235000Y-52540674D01*
X99818500Y-52540674D01*
X99818500Y-50827783D01*
X125745843Y-50827783D01*
X125751772Y-50837219D01*
X126093457Y-51178904D01*
X126105000Y-51185568D01*
X126116542Y-51178904D01*
X126439904Y-50855542D01*
X126446568Y-50844000D01*
X126446567Y-50843999D01*
X127163431Y-50843999D01*
X127170095Y-50855542D01*
X127493457Y-51178904D01*
X127505000Y-51185568D01*
X127516542Y-51178904D01*
X127839904Y-50855542D01*
X127846568Y-50844000D01*
X128563431Y-50844000D01*
X128570095Y-50855542D01*
X128893457Y-51178904D01*
X128905000Y-51185568D01*
X128916542Y-51178904D01*
X129258228Y-50837217D01*
X129264156Y-50827782D01*
X129257389Y-50821015D01*
X129247731Y-50816364D01*
X129090710Y-50761421D01*
X129082705Y-50759594D01*
X129022613Y-50726382D01*
X128989403Y-50666288D01*
X128987576Y-50658281D01*
X128932634Y-50501265D01*
X128927984Y-50491611D01*
X128921216Y-50484842D01*
X128911780Y-50490771D01*
X128570096Y-50832456D01*
X128563431Y-50844000D01*
X127846568Y-50844000D01*
X127839904Y-50832457D01*
X127516542Y-50509095D01*
X127505000Y-50502431D01*
X127493457Y-50509095D01*
X127170095Y-50832457D01*
X127163431Y-50843999D01*
X126446567Y-50843999D01*
X126439904Y-50832457D01*
X126098219Y-50490772D01*
X126088783Y-50484843D01*
X126082013Y-50491613D01*
X126077366Y-50501264D01*
X126022422Y-50658286D01*
X126020594Y-50666296D01*
X125987384Y-50726384D01*
X125927296Y-50759594D01*
X125919286Y-50761422D01*
X125762264Y-50816366D01*
X125752613Y-50821013D01*
X125745843Y-50827783D01*
X99818500Y-50827783D01*
X99818500Y-50127783D01*
X126445843Y-50127783D01*
X126451772Y-50137219D01*
X126793457Y-50478904D01*
X126804999Y-50485568D01*
X126816542Y-50478904D01*
X127158228Y-50137217D01*
X127164155Y-50127783D01*
X127845843Y-50127783D01*
X127851772Y-50137219D01*
X128193457Y-50478904D01*
X128204999Y-50485568D01*
X128216542Y-50478904D01*
X128558228Y-50137217D01*
X128564156Y-50127782D01*
X128557389Y-50121015D01*
X128547731Y-50116364D01*
X128390717Y-50061423D01*
X128377219Y-50058342D01*
X128211923Y-50039718D01*
X128198077Y-50039718D01*
X128032780Y-50058342D01*
X128019282Y-50061423D01*
X127862264Y-50116366D01*
X127852613Y-50121013D01*
X127845843Y-50127783D01*
X127164155Y-50127783D01*
X127164156Y-50127782D01*
X127157389Y-50121015D01*
X127147731Y-50116364D01*
X126990717Y-50061423D01*
X126977219Y-50058342D01*
X126811923Y-50039718D01*
X126798077Y-50039718D01*
X126632780Y-50058342D01*
X126619282Y-50061423D01*
X126462264Y-50116366D01*
X126452613Y-50121013D01*
X126445843Y-50127783D01*
X99818500Y-50127783D01*
X99818500Y-43304000D01*
X99835113Y-43242000D01*
X99880500Y-43196613D01*
X99942500Y-43180000D01*
X144405500Y-43180000D01*
X144467500Y-43196613D01*
G37*
%TD.AperFunction*%
%TA.AperFunction,Conductor*%
G36*
X143020217Y-61846150D02*
G01*
X143059016Y-61890454D01*
X143073000Y-61947660D01*
X143073000Y-70274416D01*
X143063561Y-70321869D01*
X143036681Y-70362097D01*
X142276804Y-71121972D01*
X142271352Y-71127105D01*
X142232592Y-71161444D01*
X142232587Y-71161449D01*
X142226980Y-71166417D01*
X142222722Y-71172585D01*
X142222719Y-71172589D01*
X142193298Y-71215212D01*
X142188861Y-71221242D01*
X142156940Y-71261986D01*
X142156935Y-71261993D01*
X142152312Y-71267895D01*
X142149234Y-71274731D01*
X142149228Y-71274743D01*
X142148266Y-71276882D01*
X142137259Y-71296398D01*
X142135918Y-71298341D01*
X142135913Y-71298349D01*
X142131656Y-71304518D01*
X142128998Y-71311525D01*
X142128998Y-71311526D01*
X142110632Y-71359951D01*
X142107775Y-71366846D01*
X142083443Y-71420915D01*
X142082091Y-71428285D01*
X142082090Y-71428292D01*
X142081665Y-71430611D01*
X142075647Y-71452197D01*
X142074812Y-71454397D01*
X142074807Y-71454414D01*
X142072152Y-71461418D01*
X142071248Y-71468855D01*
X142071248Y-71468859D01*
X142065006Y-71520265D01*
X142063879Y-71527667D01*
X142059369Y-71552279D01*
X142034237Y-71607380D01*
X141986005Y-71644006D01*
X141926179Y-71653420D01*
X141869030Y-71633377D01*
X141828189Y-71588658D01*
X141813400Y-71529929D01*
X141813400Y-62511655D01*
X141826760Y-62455665D01*
X141863963Y-62411740D01*
X141916990Y-62389346D01*
X141926308Y-62387790D01*
X142086784Y-62361012D01*
X142312545Y-62283509D01*
X142522469Y-62169903D01*
X142710832Y-62023295D01*
X142857769Y-61863677D01*
X142906803Y-61831060D01*
X142965354Y-61824743D01*
X143020217Y-61846150D01*
G37*
%TD.AperFunction*%
%TD*%
M02*
