%TF.GenerationSoftware,KiCad,Pcbnew,(7.0.0)*%
%TF.CreationDate,2023-04-05T21:50:32-07:00*%
%TF.ProjectId,OpenShock,4f70656e-5368-46f6-936b-2e6b69636164,rev?*%
%TF.SameCoordinates,Original*%
%TF.FileFunction,Soldermask,Top*%
%TF.FilePolarity,Negative*%
%FSLAX46Y46*%
G04 Gerber Fmt 4.6, Leading zero omitted, Abs format (unit mm)*
G04 Created by KiCad (PCBNEW (7.0.0)) date 2023-04-05 21:50:32*
%MOMM*%
%LPD*%
G01*
G04 APERTURE LIST*
G04 Aperture macros list*
%AMRoundRect*
0 Rectangle with rounded corners*
0 $1 Rounding radius*
0 $2 $3 $4 $5 $6 $7 $8 $9 X,Y pos of 4 corners*
0 Add a 4 corners polygon primitive as box body*
4,1,4,$2,$3,$4,$5,$6,$7,$8,$9,$2,$3,0*
0 Add four circle primitives for the rounded corners*
1,1,$1+$1,$2,$3*
1,1,$1+$1,$4,$5*
1,1,$1+$1,$6,$7*
1,1,$1+$1,$8,$9*
0 Add four rect primitives between the rounded corners*
20,1,$1+$1,$2,$3,$4,$5,0*
20,1,$1+$1,$4,$5,$6,$7,0*
20,1,$1+$1,$6,$7,$8,$9,0*
20,1,$1+$1,$8,$9,$2,$3,0*%
G04 Aperture macros list end*
%ADD10R,1.500000X0.900000*%
%ADD11R,0.900000X1.500000*%
%ADD12C,0.600000*%
%ADD13R,3.900000X3.900000*%
%ADD14RoundRect,0.237500X0.237500X-0.250000X0.237500X0.250000X-0.237500X0.250000X-0.237500X-0.250000X0*%
%ADD15RoundRect,0.237500X-0.300000X-0.237500X0.300000X-0.237500X0.300000X0.237500X-0.300000X0.237500X0*%
%ADD16C,3.200000*%
%ADD17R,0.850000X2.050000*%
%ADD18C,1.300000*%
%ADD19O,1.200000X1.800000*%
%ADD20R,1.700000X1.700000*%
%ADD21C,1.000000*%
%ADD22R,1.500000X2.000000*%
%ADD23R,3.800000X2.000000*%
%ADD24RoundRect,0.237500X0.237500X-0.300000X0.237500X0.300000X-0.237500X0.300000X-0.237500X-0.300000X0*%
%ADD25RoundRect,0.237500X-0.250000X-0.237500X0.250000X-0.237500X0.250000X0.237500X-0.250000X0.237500X0*%
%ADD26O,1.700000X1.700000*%
%ADD27C,2.000000*%
%ADD28R,1.600000X2.600000*%
%ADD29R,1.600000X2.500000*%
%ADD30RoundRect,0.250001X-0.624999X0.462499X-0.624999X-0.462499X0.624999X-0.462499X0.624999X0.462499X0*%
%ADD31RoundRect,0.237500X-0.237500X0.250000X-0.237500X-0.250000X0.237500X-0.250000X0.237500X0.250000X0*%
%ADD32RoundRect,0.250000X0.337500X0.475000X-0.337500X0.475000X-0.337500X-0.475000X0.337500X-0.475000X0*%
%ADD33C,0.650000*%
%ADD34R,0.600000X2.450000*%
%ADD35R,0.300000X2.450000*%
%ADD36O,1.000000X2.100000*%
%ADD37O,1.000000X1.600000*%
%ADD38O,3.048000X1.850000*%
%ADD39RoundRect,0.237500X0.237500X-0.287500X0.237500X0.287500X-0.237500X0.287500X-0.237500X-0.287500X0*%
%ADD40RoundRect,0.237500X0.300000X0.237500X-0.300000X0.237500X-0.300000X-0.237500X0.300000X-0.237500X0*%
%ADD41RoundRect,0.225000X-0.375000X0.225000X-0.375000X-0.225000X0.375000X-0.225000X0.375000X0.225000X0*%
%ADD42RoundRect,0.250000X-0.337500X-0.475000X0.337500X-0.475000X0.337500X0.475000X-0.337500X0.475000X0*%
%ADD43R,0.800000X1.900000*%
%ADD44R,1.800000X2.424000*%
%ADD45RoundRect,0.237500X-0.237500X0.300000X-0.237500X-0.300000X0.237500X-0.300000X0.237500X0.300000X0*%
%ADD46C,2.082800*%
G04 APERTURE END LIST*
D10*
%TO.C,U1*%
X120254999Y-44523999D03*
X120254999Y-45793999D03*
X120254999Y-47063999D03*
X120254999Y-48333999D03*
X120254999Y-49603999D03*
X120254999Y-50873999D03*
X120254999Y-52143999D03*
X120254999Y-53413999D03*
X120254999Y-54683999D03*
X120254999Y-55953999D03*
X120254999Y-57223999D03*
X120254999Y-58493999D03*
X120254999Y-59763999D03*
X120254999Y-61033999D03*
D11*
X122019999Y-62283999D03*
X123289999Y-62283999D03*
X124559999Y-62283999D03*
X125829999Y-62283999D03*
X127099999Y-62283999D03*
X128369999Y-62283999D03*
X129639999Y-62283999D03*
X130909999Y-62283999D03*
X132179999Y-62283999D03*
X133449999Y-62283999D03*
X134719999Y-62283999D03*
X135989999Y-62283999D03*
D10*
X137754999Y-61033999D03*
X137754999Y-59763999D03*
X137754999Y-58493999D03*
X137754999Y-57223999D03*
X137754999Y-55953999D03*
X137754999Y-54683999D03*
X137754999Y-53413999D03*
X137754999Y-52143999D03*
X137754999Y-50873999D03*
X137754999Y-49603999D03*
X137754999Y-48333999D03*
X137754999Y-47063999D03*
X137754999Y-45793999D03*
X137754999Y-44523999D03*
D12*
X126105000Y-51544000D03*
X126105000Y-52944000D03*
X126805000Y-50844000D03*
X126805000Y-52244000D03*
X126805000Y-53644000D03*
X127505000Y-51544000D03*
D13*
X127504999Y-52243999D03*
D12*
X127505000Y-52944000D03*
X128205000Y-50844000D03*
X128205000Y-52244000D03*
X128205000Y-53644000D03*
X128905000Y-51544000D03*
X128905000Y-52944000D03*
%TD*%
D14*
%TO.C,R3*%
X124968000Y-105664000D03*
X124968000Y-103839000D03*
%TD*%
D15*
%TO.C,C3*%
X114015000Y-88265000D03*
X115740000Y-88265000D03*
%TD*%
D14*
%TO.C,R9*%
X117348000Y-55141500D03*
X117348000Y-53316500D03*
%TD*%
D16*
%TO.C,REF\u002A\u002A*%
X141605000Y-39370000D03*
%TD*%
D17*
%TO.C,D1*%
X135254999Y-71066999D03*
X137004999Y-71066999D03*
X137004999Y-67116999D03*
X135254999Y-67116999D03*
%TD*%
D14*
%TO.C,R7*%
X136144000Y-78025000D03*
X136144000Y-76200000D03*
%TD*%
%TO.C,R2*%
X131445000Y-81200000D03*
X131445000Y-79375000D03*
%TD*%
D18*
%TO.C,CN1*%
X132080000Y-109728000D03*
X132080000Y-103728000D03*
D19*
X134479999Y-109727999D03*
X134479999Y-102727999D03*
X129679999Y-107727999D03*
%TD*%
D16*
%TO.C,REF\u002A\u002A*%
X102870000Y-108458000D03*
%TD*%
D20*
%TO.C,AE1*%
X102234999Y-58927999D03*
%TD*%
D21*
%TO.C,*%
X145764000Y-37107400D03*
%TD*%
D22*
%TO.C,U2*%
X106284999Y-88214999D03*
X108584999Y-88214999D03*
D23*
X108584999Y-81914999D03*
D22*
X110884999Y-88214999D03*
%TD*%
D15*
%TO.C,C2*%
X101780000Y-88240000D03*
X103505000Y-88240000D03*
%TD*%
D24*
%TO.C,C5*%
X111125000Y-47090500D03*
X111125000Y-45365500D03*
%TD*%
D25*
%TO.C,R8*%
X139145000Y-97790000D03*
X140970000Y-97790000D03*
%TD*%
D20*
%TO.C,J6*%
X121919999Y-100075999D03*
D26*
X119379999Y-100075999D03*
X116839999Y-100075999D03*
X114299999Y-100075999D03*
X111759999Y-100075999D03*
%TD*%
D27*
%TO.C,SW2*%
X128905000Y-76490000D03*
X122405000Y-80990000D03*
X128905000Y-80990000D03*
D28*
X125654999Y-81689999D03*
D29*
X125654999Y-75739999D03*
D27*
X122405000Y-76490000D03*
%TD*%
D14*
%TO.C,R4*%
X121920000Y-108862500D03*
X121920000Y-107037500D03*
%TD*%
D15*
%TO.C,C1*%
X101780000Y-85065000D03*
X103505000Y-85065000D03*
%TD*%
D21*
%TO.C,FID4*%
X145780000Y-110783400D03*
%TD*%
%TO.C,FID1*%
X98552000Y-37084000D03*
%TD*%
D30*
%TO.C,F1*%
X105156000Y-100620500D03*
X105156000Y-103595500D03*
%TD*%
D20*
%TO.C,J3*%
X108584999Y-58419999D03*
D26*
X111124999Y-58419999D03*
X113664999Y-58419999D03*
%TD*%
D27*
%TO.C,SW1*%
X128905000Y-67255000D03*
X122405000Y-71755000D03*
X128905000Y-71755000D03*
D28*
X125654999Y-72454999D03*
D29*
X125654999Y-66504999D03*
D27*
X122405000Y-67255000D03*
%TD*%
D16*
%TO.C,REF\u002A\u002A*%
X141605000Y-108458000D03*
%TD*%
D14*
%TO.C,R5*%
X109220000Y-109116500D03*
X109220000Y-107291500D03*
%TD*%
D24*
%TO.C,C6*%
X107696000Y-47090500D03*
X107696000Y-45365500D03*
%TD*%
D31*
%TO.C,R1*%
X131445000Y-69850000D03*
X131445000Y-71675000D03*
%TD*%
D21*
%TO.C,FID4*%
X98568000Y-110760000D03*
%TD*%
D32*
%TO.C,C12*%
X104161500Y-46863000D03*
X102086500Y-46863000D03*
%TD*%
D33*
%TO.C,J1*%
X112680000Y-106720000D03*
X118460000Y-106720000D03*
D34*
X112344999Y-104774999D03*
X113119999Y-104774999D03*
D35*
X114319999Y-104774999D03*
X115319999Y-104774999D03*
X115819999Y-104774999D03*
X116819999Y-104774999D03*
D34*
X118019999Y-104769999D03*
X118794999Y-104774999D03*
X118794999Y-104769999D03*
X118019999Y-104774999D03*
D35*
X117319999Y-104774999D03*
X116319999Y-104774999D03*
X114819999Y-104774999D03*
X113819999Y-104774999D03*
D34*
X113119999Y-104744999D03*
X112344999Y-104769999D03*
D36*
X111249999Y-106189999D03*
D37*
X111249999Y-110369999D03*
D36*
X119889999Y-106189999D03*
D37*
X119889999Y-110369999D03*
%TD*%
D16*
%TO.C,REF\u002A\u002A*%
X102870000Y-39370000D03*
%TD*%
D38*
%TO.C,SW3*%
X127634999Y-87709999D03*
X140134999Y-87709999D03*
X127634999Y-92709999D03*
X140134999Y-92709999D03*
%TD*%
D39*
%TO.C,D3*%
X139192000Y-82089000D03*
X139192000Y-80339000D03*
%TD*%
D40*
%TO.C,C7*%
X136825000Y-74295000D03*
X135100000Y-74295000D03*
%TD*%
D41*
%TO.C,D2*%
X105156000Y-95215500D03*
X105156000Y-98515500D03*
%TD*%
D42*
%TO.C,C11*%
X113665000Y-81280000D03*
X115740000Y-81280000D03*
%TD*%
D15*
%TO.C,C4*%
X114015000Y-85090000D03*
X115740000Y-85090000D03*
%TD*%
D43*
%TO.C,U3*%
X108904999Y-94414999D03*
X110804999Y-94414999D03*
X109854999Y-91414999D03*
%TD*%
D20*
%TO.C,J2*%
X108584999Y-52806999D03*
D26*
X111124999Y-52806999D03*
X113664999Y-52806999D03*
%TD*%
D39*
%TO.C,D4*%
X135128000Y-82089000D03*
X135128000Y-80339000D03*
%TD*%
D42*
%TO.C,C10*%
X101605000Y-81255000D03*
X103680000Y-81255000D03*
%TD*%
D44*
%TO.C,U4*%
X113664999Y-62044999D03*
X111124999Y-62044999D03*
X108584999Y-62044999D03*
X106044999Y-62044999D03*
%TD*%
D14*
%TO.C,R6*%
X139192000Y-78025000D03*
X139192000Y-76200000D03*
%TD*%
D45*
%TO.C,C9*%
X113665000Y-45900000D03*
X113665000Y-47625000D03*
%TD*%
%TO.C,C8*%
X116205000Y-45900000D03*
X116205000Y-47625000D03*
%TD*%
D46*
%TO.C,J4*%
X141732000Y-45720000D03*
X141986000Y-48260000D03*
X141732000Y-50800000D03*
X141986000Y-53340000D03*
X141732000Y-55880000D03*
X141986000Y-58420000D03*
X141732000Y-60960000D03*
%TD*%
M02*
